<svg width="67" height="63" viewBox="0 0 67 63" fill="none" xmlns="http://www.w3.org/2000/svg">
<g clip-path="url(#clip0_149_2036)">
<path d="M17.4327 3.55698C17.7642 1.26669 18.4372 0.400802 19.9701 0.442992C21.3965 0.483173 22.18 1.50979 22.3347 3.59114H51.9518C52.3074 1.38121 53.0146 0.541438 54.4611 0.565546C55.8674 0.587645 56.6409 1.5359 56.892 3.48064C58.1979 3.87039 59.5319 4.09339 60.7092 4.64989C64.5263 6.45802 66.5534 9.57402 66.5715 13.7849C66.6278 26.8182 66.6278 39.8514 66.5715 52.8846C66.5454 58.6385 62.019 62.99 56.2491 62.994C43.4422 63.0034 30.6347 63.0034 17.8265 62.994C12.9646 62.994 9.36848 60.4084 7.79541 55.7836C7.62666 55.2834 7.33534 55.2814 6.94961 55.2954C5.09729 55.3638 3.4298 54.8936 2.04357 53.6059C-0.0518439 51.6571 -0.594288 48.8806 0.705552 46.1725C2.88607 41.6624 4.54358 36.9177 5.64575 32.0309C6.21029 29.5176 6.6362 26.9742 7.09425 24.4368C7.72509 20.9572 7.26704 17.4434 7.38758 13.9477C7.53624 9.69456 9.49906 6.58258 13.3102 4.75035C14.5618 4.15567 16.0103 3.95879 17.4327 3.55698ZM28.9083 50.5843C36.0986 50.5843 43.2889 50.5682 50.4792 50.5843C52.7353 50.5843 54.2501 49.626 55.2084 47.5707C58.4611 40.6175 60.456 33.3167 61.4063 25.7145C61.559 24.485 61.561 24.485 60.3154 24.485C44.4052 24.485 28.4964 24.479 12.5889 24.4669C11.9019 24.4669 11.6929 24.702 11.6126 25.3248C11.0369 29.5145 10.1327 33.6524 8.90841 37.7004C7.84303 41.2542 6.52648 44.7279 4.96871 48.0951C4.49659 49.1338 4.76781 49.9032 5.80647 50.3613C6.19754 50.5184 6.6167 50.5936 7.03801 50.5823C14.3294 50.5903 21.6195 50.591 28.9083 50.5843ZM12.2012 19.5046H61.778C61.778 19.2314 61.778 19.0104 61.778 18.7894C61.7599 16.9351 61.8322 15.0767 61.6996 13.2304C61.5369 10.9683 59.8634 9.15413 57.6695 8.62777C57.4125 8.5802 57.1529 8.548 56.892 8.53134C56.7293 10.5263 56.01 11.5449 54.66 11.565C54.0921 11.5626 53.5359 11.4034 53.0527 11.1049C52.1447 10.5363 51.9458 9.56598 52.0261 8.52129H22.2925C21.8104 10.5906 21.1615 11.4002 19.8476 11.358C18.0776 11.3018 17.4367 10.0984 17.3001 8.5454C14.7989 8.5454 12.4925 10.2933 12.2534 12.68C12.0224 14.92 12.2012 17.2063 12.2012 19.5046ZM61.6534 44.4347H61.555C60.8438 46.08 60.1687 47.7435 59.4113 49.3688C57.6032 53.2583 54.5294 55.195 50.2361 55.1829C38.0614 55.1829 25.8874 55.1829 13.714 55.1829H12.7296C12.8983 55.4642 12.9807 55.639 13.0952 55.7857C14.2062 57.2522 15.6527 58.0579 17.5251 58.0579C30.4512 58.0579 43.3759 58.0579 56.2993 58.0579C56.45 58.0579 56.6007 58.0579 56.7514 58.0478C59.3772 57.9152 61.573 55.7756 61.6353 53.1498C61.7076 50.2448 61.6534 47.3397 61.6534 44.4347Z" fill="#FFE500"/>
<path d="M34.0872 38.1022C36.7913 35.392 39.4312 32.7521 42.065 30.1082C42.7642 29.4091 43.5437 29.0053 44.5643 29.3046C46.4166 29.8571 46.9851 31.9063 45.629 33.2725C42.3624 36.5633 39.0809 39.8447 35.7848 43.1167C34.8165 44.081 33.4644 44.1534 32.488 43.1991C30.104 40.8699 27.7467 38.5133 25.4162 36.1293C24.5122 35.2051 24.6126 33.9194 25.5669 32.9791C26.5573 32.0008 27.8753 31.9304 28.8617 32.8747C30.2359 34.1926 31.5659 35.5567 32.9119 36.9048C33.2936 37.2744 33.6532 37.6481 34.0872 38.1022Z" fill="#FFE500"/>
</g>
<defs>
<clipPath id="clip0_149_2036">
<rect width="66.6113" height="62.5591" fill="white" transform="translate(0 0.440918)"/>
</clipPath>
</defs>
</svg>
