<svg width="72" height="72" viewBox="0 0 72 72" fill="none" xmlns="http://www.w3.org/2000/svg">
<g clip-path="url(#clip0_149_2077)">
<path d="M12.9989 68.4496C10.8893 65.1663 8.76322 62.0009 6.78203 58.7486C5.85043 57.2146 5.14863 55.5315 4.42819 53.8815C2.09092 48.528 4.94574 42.8224 9.06961 40.361C12.7215 38.1831 16.4872 38.0402 20.3254 39.8807L21.0872 40.2471V23.2134C21.0872 21.6669 21.5675 21.197 23.1409 21.1949H28.5462C28.5462 20.1101 28.5462 19.1102 28.5462 18.1103C28.5462 16.8889 29.0782 16.3423 30.2872 16.3382C33.8315 16.3285 37.3764 16.3285 40.9219 16.3382C42.1227 16.3382 42.6506 16.8971 42.6609 18.1144C42.6609 19.1164 42.6609 20.1163 42.6609 21.1949H48.0062C49.6852 21.1949 50.1344 21.64 50.1365 23.2941V30.4136H59.1999C60.7774 30.4136 61.2452 30.8773 61.2514 32.432C61.2514 33.3533 61.2514 34.2766 61.2514 35.2806C62.9863 35.2806 64.6362 35.2806 66.2841 35.2806C67.99 35.2806 68.4351 35.7278 68.4351 37.4502V68.4496C69.0789 68.4496 69.6648 68.4496 70.2507 68.4496C71.2858 68.4641 71.9793 69.0458 72.0021 69.9153C72.0269 70.818 71.3355 71.4142 70.2383 71.439C70.0312 71.439 69.8242 71.439 69.6172 71.439H2.38489C2.04952 71.439 1.71 71.4514 1.3767 71.4183C1.01179 71.393 0.669195 71.2334 0.41498 70.9704C0.160765 70.7074 0.0129354 70.3596 2.09892e-06 69.994C-0.00370945 69.6287 0.124483 69.2744 0.361026 68.996C0.597569 68.7176 0.926591 68.5339 1.28768 68.4786C1.54463 68.4489 1.80355 68.4399 2.06194 68.4517H12.9989V68.4496ZM47.0974 68.4041V24.2795H24.0683V25.1076C24.0683 30.7883 24.0683 36.4689 24.087 42.1496C24.1069 42.6245 24.2581 43.0846 24.5238 43.4787C26.1924 45.963 27.1157 48.6542 26.4656 51.6043C26.0516 53.4675 25.12 55.2085 24.4492 57.0158C24.2427 57.5053 24.1196 58.0259 24.0849 58.5561C24.0518 61.5517 24.0683 64.5452 24.0683 67.5408V68.4082L47.0974 68.4041ZM50.1696 68.4041H65.3629V38.3259H50.1696V68.4041ZM15.1271 66.0151C15.8516 64.9944 16.5224 64.0794 17.16 63.1437C19.3358 59.9431 21.4785 56.726 22.9338 53.1052C24.3892 49.4844 23.4328 45.9278 20.3937 43.4725C18.9419 42.3066 17.1451 41.654 15.2834 41.6165C13.4218 41.5791 11.6001 42.1589 10.1026 43.2655C7.56249 45.1162 5.51919 48.9503 7.26852 53.0203C9.27042 57.6866 12.1335 61.8084 15.1271 66.0151ZM31.5749 21.1369H39.6032V19.3669H31.5749V21.1369ZM50.1613 35.231H58.173V33.4506H50.1613V35.231ZM21.0479 62.8083C19.696 64.7398 18.4353 66.5347 17.129 68.3979H21.0479V62.8083Z" fill="#FFE500"/>
<path d="M24.8653 0C25.5713 0.0351937 26.0888 0.0414048 26.6023 0.09109C26.7963 0.101155 26.9864 0.149369 27.1618 0.232975C27.3372 0.316581 27.4943 0.433939 27.6243 0.578337C27.7543 0.722735 27.8545 0.89134 27.9193 1.07451C27.984 1.25768 28.0121 1.45181 28.0017 1.64582C27.9979 1.84069 27.9541 2.0327 27.8732 2.21001C27.7922 2.38731 27.6758 2.54614 27.5311 2.6767C27.3864 2.80726 27.2164 2.90677 27.0317 2.96909C26.8471 3.03142 26.6516 3.05524 26.4573 3.03907C24.4161 2.94177 22.4246 3.11567 20.5386 3.95411C16.1912 5.88355 13.6758 9.19383 13.0217 13.8911C12.8726 14.9718 12.2329 15.626 11.3489 15.5266C10.4297 15.4252 9.94739 14.7151 10.0426 13.6034C10.5995 7.08013 16.0462 1.26697 22.5861 0.246356C23.4017 0.126284 24.2277 0.0683171 24.8653 0Z" fill="#FFE500"/>
<path d="M25.0558 6.14026C25.3654 6.12265 25.6757 6.12265 25.9853 6.14026C26.1793 6.15457 26.3684 6.20738 26.5417 6.29561C26.715 6.38383 26.869 6.50571 26.9947 6.65412C27.1203 6.80252 27.2151 6.97449 27.2736 7.15996C27.3321 7.34542 27.353 7.54068 27.3351 7.73432C27.3292 7.92263 27.2853 8.1078 27.2061 8.27877C27.127 8.44974 27.0142 8.603 26.8745 8.72939C26.7348 8.85577 26.571 8.95269 26.393 9.01435C26.2149 9.07601 26.0263 9.10114 25.8383 9.08824C24.6521 9.05512 23.5114 9.18969 22.4515 9.74036C20.4993 10.7548 19.3855 12.3633 19.077 14.5412C18.9073 15.7295 17.8535 16.334 16.8826 15.8144C16.2305 15.4645 16.0545 14.8848 16.1083 14.1789C16.3257 10.7713 19.1743 7.39274 22.6854 6.45286C23.4535 6.24584 24.2546 6.16717 25.0413 6.03882L25.0558 6.14026Z" fill="#FFE500"/>
<path d="M21.7021 16.6962C21.7476 14.0691 24.6438 11.6428 27.2419 12.0548C28.07 12.1873 28.5979 12.7897 28.5772 13.5909C28.5565 14.3921 28.0079 14.949 27.1529 15.0297C25.4181 15.1912 25.0703 15.479 24.648 17.0999C24.5735 17.4697 24.3605 17.797 24.0526 18.0148C23.7447 18.2326 23.3652 18.3245 22.9918 18.2717C22.1989 18.1723 21.6876 17.5512 21.7021 16.6962Z" fill="#FFE500"/>
<path d="M39.9034 44.3667C39.4897 44.3897 39.075 44.3897 38.6613 44.3667C38.2833 44.334 37.9316 44.16 37.6761 43.8796C37.4205 43.5992 37.28 43.2328 37.2825 42.8534C37.2854 42.4868 37.4272 42.135 37.6792 41.8688C37.9312 41.6026 38.2747 41.4418 38.6406 41.4187C39.5157 41.3515 40.3946 41.3515 41.2697 41.4187C41.6237 41.4406 41.9553 41.5993 42.1945 41.8612C42.4336 42.1232 42.5616 42.4678 42.5512 42.8223C42.5765 43.1884 42.4595 43.5501 42.2246 43.8321C41.9897 44.114 41.6551 44.2944 41.2904 44.3357C40.8275 44.3713 40.3627 44.3747 39.8993 44.346L39.9034 44.3667Z" fill="#FFE500"/>
<path d="M39.9013 34.0778C40.3398 34.0509 40.7795 34.0509 41.218 34.0778C41.5962 34.1065 41.9482 34.2823 42.1982 34.5676C42.4482 34.8529 42.5765 35.2248 42.5553 35.6036C42.5626 35.9712 42.4244 36.3268 42.1709 36.5932C41.9174 36.8595 41.569 37.015 41.2014 37.0258C40.351 37.0879 39.4972 37.0879 38.6468 37.0258C38.2802 37.0033 37.9359 36.8424 37.6834 36.5757C37.4309 36.309 37.2891 35.9563 37.2866 35.5891C37.2831 35.2101 37.4227 34.8437 37.6776 34.5632C37.9324 34.2826 38.2837 34.1086 38.6613 34.0757C39.0749 34.0518 39.4897 34.0518 39.9034 34.0757L39.9013 34.0778Z" fill="#FFE500"/>
<path d="M31.2768 34.082C31.7148 34.0585 32.1538 34.062 32.5914 34.0924C32.9562 34.1296 33.2945 34.3002 33.5413 34.5714C33.7881 34.8427 33.9261 35.1955 33.9288 35.5622C33.9389 35.9296 33.8074 36.2868 33.5616 36.56C33.3158 36.8332 32.9744 37.0015 32.608 37.03C31.7329 37.0993 30.8538 37.0993 29.9788 37.03C29.1507 36.9679 28.6663 36.3592 28.6621 35.5808C28.6479 35.2148 28.7745 34.8573 29.016 34.5819C29.2575 34.3066 29.5954 34.1343 29.9602 34.1006C30.3986 34.0727 30.8384 34.0727 31.2768 34.1006V34.082Z" fill="#FFE500"/>
<path d="M31.2375 44.373C30.8503 44.373 30.4591 44.402 30.0761 44.373C29.2231 44.2922 28.6725 43.7105 28.6559 42.9238C28.6407 42.7356 28.6639 42.5462 28.7242 42.3672C28.7845 42.1882 28.8807 42.0234 29.0068 41.8827C29.1329 41.7421 29.2863 41.6286 29.4577 41.5492C29.6291 41.4698 29.8148 41.4261 30.0036 41.4209C30.8532 41.3556 31.7066 41.3556 32.5562 41.4209C32.9224 41.4418 33.2671 41.6009 33.5207 41.866C33.7743 42.1311 33.9179 42.4825 33.9225 42.8493C33.9287 43.2286 33.791 43.5962 33.5371 43.8782C33.2833 44.1601 32.932 44.3354 32.5541 44.3688C32.1156 44.3937 31.676 44.3937 31.2375 44.3688V44.373Z" fill="#FFE500"/>
<path d="M31.6763 63.3031C32.0904 63.3031 32.5044 63.2803 32.9185 63.3031C33.2966 63.3192 33.6535 63.4827 33.9127 63.7586C34.1719 64.0344 34.3129 64.4007 34.3055 64.7792C34.3108 64.9671 34.2788 65.1542 34.2116 65.3298C34.1443 65.5054 34.0431 65.666 33.9137 65.8023C33.7842 65.9387 33.6291 66.0482 33.4573 66.1245C33.2854 66.2008 33.1002 66.2424 32.9123 66.2469C32.0842 66.2863 31.2561 66.2863 30.428 66.2469C30.0491 66.2309 29.6911 66.0685 29.4294 65.794C29.1676 65.5196 29.0225 65.1543 29.0244 64.775C29.0281 64.3964 29.1759 64.0334 29.4379 63.7599C29.6998 63.4864 30.0561 63.3231 30.4342 63.3031C30.8462 63.2886 31.2623 63.3031 31.6763 63.3031Z" fill="#FFE500"/>
<path d="M40.3464 66.2697C39.9324 66.2697 39.5183 66.2945 39.1043 66.2697C38.7261 66.2573 38.3678 66.0974 38.1059 65.8243C37.844 65.5512 37.6993 65.1865 37.7027 64.8081C37.6955 64.6203 37.7255 64.433 37.7908 64.2568C37.8561 64.0806 37.9556 63.919 38.0835 63.7813C38.2114 63.6436 38.3652 63.5325 38.5361 63.4543C38.707 63.3762 38.8916 63.3325 39.0794 63.3258C39.9075 63.2865 40.7356 63.2886 41.5637 63.3258C41.9413 63.3381 42.2995 63.4957 42.5637 63.7657C42.828 64.0357 42.9777 64.3973 42.9818 64.775C42.9861 65.1548 42.8436 65.5217 42.584 65.799C42.3244 66.0763 41.9678 66.2427 41.5885 66.2635C41.1745 66.2966 40.7605 66.2697 40.3464 66.2697Z" fill="#FFE500"/>
<path d="M31.2375 29.7283C30.8237 29.7491 30.4091 29.7491 29.9953 29.7283C29.6431 29.7091 29.311 29.5578 29.0654 29.3045C28.8198 29.0512 28.6787 28.7146 28.6704 28.3619C28.629 27.5856 29.1031 26.8879 29.8794 26.8155C30.8059 26.7368 31.7374 26.7368 32.6638 26.8155C33.0245 26.8614 33.3548 27.0411 33.5891 27.3192C33.8234 27.5972 33.9446 27.9531 33.9287 28.3164C33.9187 28.6823 33.7705 29.0309 33.5139 29.292C33.2574 29.5532 32.9115 29.7075 32.5458 29.7241C32.109 29.7635 31.6681 29.7241 31.2292 29.7241L31.2375 29.7283Z" fill="#FFE500"/>
<path d="M31.3368 51.6767C30.9228 51.6767 30.5087 51.7036 30.0947 51.6767C29.9004 51.6727 29.7089 51.6301 29.5312 51.5514C29.3535 51.4727 29.1933 51.3594 29.0598 51.2182C28.9263 51.077 28.8222 50.9107 28.7535 50.7289C28.6849 50.5471 28.6531 50.3534 28.66 50.1592C28.6536 49.9705 28.6854 49.7824 28.7535 49.6063C28.8216 49.4302 28.9245 49.2696 29.0562 49.1343C29.1879 48.9989 29.3455 48.8916 29.5197 48.8187C29.6939 48.7458 29.881 48.7088 30.0699 48.7101C30.8972 48.6601 31.7268 48.6601 32.5541 48.7101C32.9338 48.7294 33.2906 48.8971 33.5478 49.1771C33.8049 49.4571 33.9417 49.8269 33.9287 50.2068C33.9152 50.5712 33.7706 50.9185 33.5215 51.1847C33.2723 51.451 32.9354 51.6183 32.5728 51.656C32.159 51.6779 31.7444 51.6779 31.3306 51.656L31.3368 51.6767Z" fill="#FFE500"/>
<path d="M39.9324 29.7366C39.5183 29.7366 39.1043 29.7656 38.6902 29.7366C38.3122 29.7201 37.9551 29.5582 37.6936 29.2847C37.4321 29.0112 37.2863 28.6473 37.2866 28.2688C37.285 27.9022 37.4203 27.5482 37.6662 27.2763C37.9121 27.0043 38.2508 26.8341 38.6157 26.799C39.4923 26.7348 40.3724 26.7348 41.249 26.799C42.0771 26.8611 42.5885 27.5443 42.5533 28.3475C42.5181 29.1508 42.0026 29.658 41.1745 29.7304C40.7605 29.7656 40.3464 29.7366 39.9324 29.7366Z" fill="#FFE500"/>
<path d="M39.9324 51.6788C39.5432 51.6788 39.154 51.6995 38.7689 51.6788C38.3775 51.6666 38.0058 51.5044 37.7307 51.2258C37.4555 50.9472 37.298 50.5735 37.2908 50.182C37.2906 49.8044 37.4379 49.4416 37.7012 49.1709C37.9645 48.9003 38.3231 48.7431 38.7006 48.7328C39.528 48.6839 40.3575 48.6839 41.1848 48.7328C41.3729 48.7354 41.5584 48.7758 41.7305 48.8515C41.9026 48.9273 42.0577 49.037 42.1865 49.1739C42.3154 49.3109 42.4153 49.4723 42.4805 49.6487C42.5456 49.8251 42.5746 50.0128 42.5657 50.2006C42.5703 50.578 42.4275 50.9422 42.1677 51.216C41.9079 51.4897 41.5516 51.6513 41.1745 51.6663C40.7605 51.7036 40.3464 51.6663 39.9324 51.6663V51.6788Z" fill="#FFE500"/>
<path d="M31.3079 56.0159C31.7219 56.0159 32.1359 55.9911 32.55 56.0159C32.9152 56.036 33.2595 56.1924 33.5148 56.4543C33.7702 56.7161 33.9179 57.0643 33.9287 57.4299C33.9598 58.1296 33.4505 58.879 32.7342 58.9287C31.7538 59.0111 30.768 59.0069 29.7883 58.9163C29.0617 58.848 28.6145 58.1317 28.6559 57.3885C28.6674 57.0345 28.8115 56.6978 29.0596 56.4451C29.3077 56.1924 29.6417 56.0422 29.9953 56.0242C30.4259 55.989 30.8669 56.018 31.3079 56.0159Z" fill="#FFE500"/>
<path d="M39.9924 56.0138C40.3795 56.0138 40.7688 55.9931 41.1538 56.0138C41.519 56.0205 41.8677 56.167 42.128 56.4231C42.3884 56.6793 42.5406 57.0255 42.5533 57.3905C42.5947 58.1938 42.0668 58.8956 41.2635 58.9515C40.3614 59.0157 39.4558 59.0157 38.5536 58.9515C37.8021 58.8935 37.2535 58.1607 37.2866 57.4319C37.3011 57.0669 37.4513 56.7205 37.7079 56.4604C37.9645 56.2004 38.3089 56.0456 38.6737 56.0263C39.1043 55.989 39.5535 56.0138 39.9924 56.0138Z" fill="#FFE500"/>
<path d="M54.4901 55.606C54.8245 55.5852 55.1598 55.5852 55.4942 55.606C55.8728 55.6346 56.2251 55.8108 56.4752 56.0965C56.7253 56.3822 56.8532 56.7547 56.8315 57.1338C56.8367 57.5003 56.698 57.8541 56.4453 58.1196C56.1926 58.3851 55.846 58.541 55.4797 58.554C54.8369 58.6067 54.1909 58.6067 53.5482 58.554C52.6539 58.4877 52.1094 57.8646 52.1301 57.0323C52.1508 56.2477 52.716 55.6619 53.5606 55.5832C53.867 55.5542 54.1817 55.5832 54.4901 55.5832V55.606Z" fill="#FFE500"/>
<path d="M61.092 55.6184C61.452 55.5938 61.8133 55.5973 62.1727 55.6287C62.5206 55.683 62.8384 55.8579 63.0704 56.1229C63.3024 56.3878 63.4338 56.7258 63.4417 57.0779C63.4469 57.4428 63.3142 57.7962 63.0701 58.0676C62.826 58.3389 62.4885 58.5082 62.1251 58.5415C61.4568 58.605 60.7842 58.6105 60.1149 58.5581C59.7368 58.5468 59.3777 58.3897 59.113 58.1195C58.8482 57.8493 58.6983 57.4872 58.6947 57.1089C58.6947 56.3222 59.3013 55.6763 60.1625 55.5997C60.4689 55.5728 60.7836 55.5997 61.092 55.5997V55.6184Z" fill="#FFE500"/>
<path d="M55.2168 63.0049C55.628 63.0148 56.0381 63.0522 56.4444 63.1167C56.7769 63.1849 57.0742 63.3696 57.2826 63.6376C57.4909 63.9056 57.5968 64.2392 57.581 64.5782C57.5877 64.9179 57.4696 65.2481 57.2491 65.5065C57.0285 65.7648 56.7208 65.9332 56.3844 65.9798C55.6648 66.0633 54.9387 66.0751 54.2169 66.015C53.8495 66.0025 53.5017 65.8463 53.2484 65.5799C52.9952 65.3134 52.8568 64.9582 52.8629 64.5907C52.842 64.2092 52.9724 63.835 53.226 63.5492C53.4795 63.2635 53.8356 63.0894 54.2169 63.0649C54.5518 63.0421 54.888 63.0421 55.223 63.0649L55.2168 63.0049Z" fill="#FFE500"/>
<path d="M61.7317 66.0772C61.3681 66.0684 61.0053 66.0394 60.6449 65.9902C60.312 65.9323 60.0099 65.76 59.7906 65.5029C59.5714 65.2459 59.4488 64.9203 59.4442 64.5825C59.4276 63.8827 59.8582 63.2182 60.5766 63.1333C61.3934 63.035 62.2191 63.035 63.036 63.1333C63.7626 63.2223 64.1746 63.8662 64.156 64.5825C64.1626 64.9231 64.0447 65.2545 63.8244 65.5145C63.6041 65.7744 63.2965 65.945 62.9594 65.9944C62.5521 66.0457 62.1422 66.0733 61.7317 66.0772Z" fill="#FFE500"/>
<path d="M61.0237 43.665C60.7132 43.665 60.4027 43.6857 60.0942 43.665C59.7154 43.6458 59.3586 43.4816 59.0976 43.2064C58.8367 42.9312 58.6916 42.5661 58.6927 42.1869C58.6939 41.8206 58.8309 41.4678 59.0772 41.1967C59.3234 40.9256 59.6614 40.7554 60.0259 40.7191C60.7218 40.6653 61.4209 40.6653 62.1168 40.7191C62.4806 40.7588 62.817 40.9314 63.0615 41.2038C63.306 41.4762 63.4414 41.8291 63.4417 42.1951C63.4389 42.5733 63.2911 42.9359 63.0288 43.2082C62.7665 43.4805 62.4097 43.6418 62.0319 43.6588C61.6965 43.6857 61.3591 43.665 61.0237 43.665Z" fill="#FFE500"/>
<path d="M61.0486 51.1135C60.7141 51.1312 60.379 51.1312 60.0445 51.1135C59.6804 51.0859 59.3396 50.9236 59.0885 50.6584C58.8375 50.3932 58.6942 50.044 58.6865 49.6789C58.6801 49.2995 58.8188 48.932 59.0743 48.6515C59.3298 48.371 59.6828 48.1987 60.0611 48.1697C60.7315 48.1169 61.405 48.1169 62.0754 48.1697C62.4407 48.2017 62.7813 48.3672 63.0322 48.6345C63.2832 48.9019 63.4267 49.2523 63.4355 49.6189C63.4387 49.9951 63.2986 50.3585 63.0437 50.6353C62.7888 50.9121 62.4382 51.0816 62.063 51.1094C61.7278 51.127 61.392 51.127 61.0568 51.1094L61.0486 51.1135Z" fill="#FFE500"/>
<path d="M54.4984 48.1491C54.8089 48.1491 55.1195 48.1263 55.4279 48.1491C55.8065 48.1646 56.1644 48.3261 56.4265 48.5998C56.6885 48.8734 56.8345 49.238 56.8336 49.6169C56.8436 49.8045 56.8161 49.9923 56.7526 50.1691C56.6891 50.346 56.591 50.5084 56.4639 50.6468C56.3368 50.7853 56.1834 50.897 56.0126 50.9753C55.8419 51.0537 55.6571 51.0972 55.4693 51.1033C54.8256 51.1499 54.1794 51.1499 53.5358 51.1033C53.3482 51.1009 53.1629 51.0614 52.9906 50.9872C52.8183 50.913 52.6624 50.8054 52.5318 50.6708C52.4012 50.5361 52.2985 50.377 52.2295 50.2025C52.1606 50.0281 52.1268 49.8417 52.1301 49.6541C52.1301 48.826 52.6994 48.205 53.5792 48.1429C53.8856 48.118 54.2003 48.1429 54.5067 48.1429L54.4984 48.1491Z" fill="#FFE500"/>
<path d="M54.4508 43.665C54.1403 43.665 53.8297 43.6837 53.5213 43.665C53.157 43.6542 52.8106 43.5049 52.5525 43.2476C52.2944 42.9903 52.1441 42.6443 52.1322 42.2801C52.0993 41.902 52.2174 41.5264 52.4606 41.2351C52.7038 40.9438 53.0524 40.7605 53.4302 40.7253C54.1253 40.6684 54.8239 40.6684 55.519 40.7253C55.897 40.7559 56.2473 40.9354 56.4931 41.2242C56.7388 41.513 56.8598 41.8876 56.8295 42.2656C56.8223 42.6289 56.6763 42.9758 56.4214 43.2349C56.1666 43.494 55.8222 43.6457 55.459 43.6588C55.1236 43.6857 54.7862 43.663 54.4508 43.665Z" fill="#FFE500"/>
<path d="M20.3295 50.0309C20.3164 51.415 19.7547 52.7372 18.7677 53.7076C17.7807 54.6779 16.449 55.217 15.0649 55.2065C13.6821 55.1841 12.3643 54.6156 11.3993 53.6249C10.4343 52.6343 9.9004 51.3021 9.91425 49.9191C9.93759 48.5475 10.4988 47.24 11.4769 46.2781C12.455 45.3162 13.7718 44.7771 15.1436 44.7767C15.8292 44.7808 16.5073 44.92 17.1391 45.1863C17.7709 45.4526 18.344 45.8409 18.8257 46.3289C19.3073 46.8168 19.688 47.395 19.9461 48.0302C20.2041 48.6655 20.3344 49.3453 20.3295 50.0309ZM15.154 52.1902C15.739 52.1815 16.2971 51.9429 16.7077 51.5261C17.1183 51.1093 17.3484 50.5477 17.3484 49.9626C17.3332 49.3769 17.0874 48.8209 16.6645 48.4154C16.2415 48.0099 15.6756 47.7877 15.0898 47.7972C14.5039 47.8037 13.9443 48.0415 13.5329 48.4587C13.1215 48.8759 12.8916 49.4388 12.8933 50.0247C12.9085 50.6105 13.1543 51.1665 13.5772 51.572C14.0001 51.9775 14.566 52.1996 15.1519 52.1902H15.154Z" fill="#FFE500"/>
</g>
<defs>
<clipPath id="clip0_149_2077">
<rect width="72" height="71.4431" fill="white"/>
</clipPath>
</defs>
</svg>
