<svg width="100" height="62" viewBox="0 0 100 62" fill="none" xmlns="http://www.w3.org/2000/svg">
<g clip-path="url(#clip0_149_2042)">
<path d="M80.192 61.3225C76.8804 61.3225 73.5634 61.4056 70.2545 61.2957C68.0423 61.2206 65.8461 61.2206 63.6286 61.2581C54.5294 61.4137 45.4303 61.4137 36.3312 61.2581C34.0815 61.2179 31.8505 61.2581 29.6061 61.2984C23.0499 61.3788 16.491 61.3278 9.93216 61.3252C4.85882 61.3252 1.32464 58.6786 0.35663 53.6803C-0.77495 47.8347 0.766893 42.6675 5.21545 38.5622C6.86723 37.0391 8.91855 36.3473 11.179 36.2829C12.0886 36.2375 12.9804 36.546 13.6674 37.1437C16.4454 39.4605 19.5667 40.2622 23.0016 38.8571C24.093 38.4093 25.0342 37.5969 26.0585 36.9801C26.4795 36.7254 26.9541 36.3339 27.3805 36.3607C28.3538 36.4224 28.7802 35.8673 29.2924 35.213C31.7593 32.0489 34.8939 30.1182 39.0261 30.0351C40.0642 30.0013 41.0758 30.367 41.8524 31.0567C44.3193 33.1 47.0973 34.3415 50.3875 34.2397C53.0268 34.2053 55.5662 33.2253 57.5443 31.4777C59.4482 29.7804 61.4539 29.8474 63.6259 30.373C66.7605 31.1265 69.1175 33.0196 70.9838 35.5804C71.1333 35.7892 71.3252 35.9641 71.5471 36.0935C71.7689 36.2229 72.0156 36.3039 72.2709 36.3312C72.9758 36.4811 73.6371 36.7902 74.2043 37.2349C77.0225 39.4471 80.0821 40.2247 83.4875 38.8679C84.4252 38.5079 85.2914 37.984 86.0456 37.3207C87.2228 36.2481 88.5287 36.1515 89.966 36.3687C91.2969 36.5598 92.5737 37.025 93.7156 37.7349C94.8574 38.4447 95.8396 39.3839 96.5999 40.4928C99.8016 44.9602 100.93 49.878 99.1714 55.1953C97.9031 59.0271 94.5432 61.3064 90.5291 61.3091L80.192 61.3225ZM60.4752 57.6489V56.4958C60.4752 53.9931 60.4752 51.4851 60.4752 48.9716C60.4752 47.293 61.057 46.4886 62.2664 46.4725C63.4757 46.4564 64.0844 47.2421 64.0871 48.91C64.0871 51.452 64.0871 53.9931 64.0871 56.5334V57.606C67.337 57.4451 69.9863 55.3267 70.7908 51.932C72.1851 46.1534 70.9087 40.938 66.967 36.4438C65.7689 35.0685 64.1455 34.1332 62.3549 33.7865C61.9134 33.6707 61.4509 33.6608 61.0049 33.7578C60.559 33.8547 60.1422 34.0556 59.7887 34.3442C53.8492 38.9429 46.6495 39.1146 40.6832 34.6526C39.1736 33.5264 37.8221 33.4888 36.3473 34.1833C35.2266 34.6946 34.1925 35.3777 33.2824 36.2078C30.7323 38.6212 29.4532 41.7156 28.9009 45.1264C28.4128 48.1163 28.4745 51.0712 29.952 53.8197C31.1962 56.1312 33.1698 57.3754 35.9075 57.6676C35.9075 57.2198 35.9075 56.8632 35.9075 56.5012C35.9075 53.7607 35.9075 51.0194 35.9075 48.2771C35.9075 47.4486 36.299 46.738 37.074 46.6173C37.7363 46.5331 38.4062 46.7006 38.951 47.0866C39.3264 47.3869 39.4685 48.1592 39.4873 48.7142C39.5409 51.3206 39.5114 53.9297 39.5114 56.5361V57.6355L60.4752 57.6489ZM25.962 41.4957C25.6938 41.6083 25.5517 41.6646 25.4096 41.7344C20.8511 43.9787 16.4508 43.5953 12.3669 40.6484C11.1817 39.793 10.1681 39.8439 9.05263 40.3802C8.30351 40.7464 7.61525 41.2257 7.01204 41.8014C5.13501 43.6167 4.22331 45.9228 3.79427 48.4488C3.43764 50.5349 3.49932 52.5863 4.40297 54.5384C5.1806 56.217 6.47843 57.2359 8.41177 57.5979V56.3805C8.41177 54.541 8.39568 52.7016 8.41177 50.8648C8.42786 49.7493 9.20012 48.9877 10.2137 48.9877C11.2273 48.9877 11.9245 49.7278 12.0049 50.7897C12.0317 51.1544 12.0049 51.5244 12.0049 51.8918V57.6301H28.1125C24.3933 52.6265 24.5167 47.1911 25.962 41.4957ZM74.0005 41.4796C75.4726 47.2475 75.545 52.6774 71.8741 57.6301H87.9441C87.9441 55.3455 87.9253 53.1386 87.9441 50.9264C87.9575 49.7627 88.7781 48.9555 89.8077 48.9931C90.8374 49.0306 91.5158 49.7975 91.5426 50.9425C91.5641 51.7791 91.5426 52.6158 91.5426 53.4497V57.6087C93.9211 57.1394 95.345 55.7504 95.892 53.6347C97.037 49.2022 96.01 45.231 92.9558 41.8175C92.094 40.8167 90.8905 40.1724 89.5798 40.0102C89.0705 39.9841 88.5639 40.0992 88.1157 40.3427C86.775 41.0184 85.5523 41.9516 84.1606 42.4557C80.7524 43.6784 77.3952 43.3003 74.0005 41.4796Z" fill="#FFE500"/>
<path d="M49.9906 27.8846C46.3022 27.8739 42.769 26.3992 40.1674 23.7846C37.5658 21.17 36.1089 17.6293 36.1167 13.9409C36.1167 12.1051 36.4792 10.2873 37.1835 8.5919C37.8877 6.8965 38.9198 5.35686 40.2206 4.06134C41.5213 2.76581 43.0651 1.73991 44.7634 1.0425C46.4616 0.345083 48.2808 -0.0101079 50.1166 -0.0026939C53.8064 0.0248608 57.3361 1.50796 59.9382 4.12411C62.5403 6.74026 64.0043 10.2779 64.012 13.9678C64.0085 15.8032 63.6427 17.6198 62.9355 19.3135C62.2283 21.0072 61.1937 22.5447 59.8911 23.8376C58.5884 25.1306 57.0433 26.1537 55.3443 26.8481C53.6453 27.5426 51.826 27.8948 49.9906 27.8846ZM50.0228 24.27C51.3793 24.2763 52.7238 24.0153 53.9794 23.5019C55.2351 22.9885 56.3772 22.2327 57.3407 21.2777C58.3041 20.3227 59.07 19.1873 59.5944 17.9362C60.1189 16.6852 60.3918 15.3431 60.3974 13.9865C60.4162 8.30986 55.7182 3.58511 50.0872 3.61461C48.7221 3.61316 47.3702 3.88191 46.1094 4.40535C44.8487 4.92879 43.704 5.69659 42.7413 6.66447C41.7787 7.63236 41.0171 8.7812 40.5005 10.0448C39.9839 11.3084 39.7225 12.6617 39.7313 14.0267C39.7427 16.7483 40.8321 19.3544 42.7611 21.2743C44.69 23.1942 47.3012 24.2714 50.0228 24.27Z" fill="#FFE500"/>
<path d="M30.9656 24.2888C30.9592 27.25 29.7793 30.0879 27.6844 32.1808C25.5895 34.2737 22.7505 35.4509 19.7892 35.4544C18.3062 35.4524 16.8383 35.1561 15.4705 34.5827C14.1028 34.0092 12.8625 33.1701 11.8214 32.1138C10.7804 31.0576 9.95932 29.8052 9.40579 28.4293C8.85226 27.0534 8.57728 25.5813 8.5968 24.0984C8.63357 21.1381 9.84033 18.3126 11.9535 16.2391C14.0667 14.1656 16.9146 13.0126 19.8751 13.032C22.837 13.0589 25.6674 14.2588 27.7463 16.3688C29.8251 18.4788 30.9828 21.3268 30.9656 24.2888ZM27.3429 24.211C27.3188 20.0118 23.8838 16.593 19.7383 16.6466C17.7268 16.6622 15.8036 17.4749 14.3906 18.9066C12.9775 20.3382 12.19 22.2719 12.2007 24.2834C12.2031 25.2802 12.4023 26.2668 12.7868 27.1865C13.1713 28.1062 13.7335 28.9409 14.4412 29.6429C15.1489 30.3449 15.9882 30.9003 16.911 31.2773C17.8338 31.6543 18.8219 31.8454 19.8187 31.8398C20.8139 31.8335 21.798 31.6311 22.7148 31.2442C23.6317 30.8573 24.4633 30.2935 25.162 29.5849C25.8608 28.8764 26.4131 28.0371 26.7873 27.115C27.1616 26.1929 27.3504 25.2061 27.3429 24.211Z" fill="#FFE500"/>
<path d="M80.2269 35.4543C78.7447 35.4407 77.2798 35.1346 75.9161 34.5536C74.5525 33.9726 73.317 33.1281 72.2804 32.0686C71.2438 31.0091 70.4266 29.7554 69.8755 28.3794C69.3245 27.0034 69.0505 25.5322 69.0693 24.05C69.1417 17.9524 74.3062 12.9514 80.4307 13.0426C86.5551 13.1338 91.5695 18.2447 91.4944 24.3557C91.43 30.5017 86.3352 35.5106 80.2269 35.4543ZM80.3019 31.8424C82.3141 31.8247 84.2382 31.0145 85.6569 29.5873C87.0755 28.1602 87.8742 26.2312 87.8798 24.219C87.8583 20.052 84.3805 16.5982 80.2537 16.6465C78.2413 16.6635 76.3169 17.4741 74.899 18.9021C73.481 20.3301 72.684 22.2601 72.6812 24.2726C72.6968 26.2842 73.5063 28.2083 74.9335 29.626C76.3608 31.0437 78.2902 31.8403 80.3019 31.8424Z" fill="#FFE500"/>
</g>
<defs>
<clipPath id="clip0_149_2042">
<rect width="100" height="61.3627" fill="white"/>
</clipPath>
</defs>
</svg>
