<svg width="43" height="62" viewBox="0 0 43 62" fill="none" xmlns="http://www.w3.org/2000/svg">
<g clip-path="url(#clip0_170_30)">
<path d="M14.5094 35.8812H12.2718C9.18009 35.8812 6.08765 35.8812 2.99445 35.8812C1.20974 35.8812 0.592299 35.1343 1.16016 33.6546C5.27641 22.9572 9.39567 12.2559 13.5179 1.55069C13.9213 0.504728 14.2954 0.274933 15.546 0.274933C20.5216 0.274933 25.4979 0.274933 30.4749 0.274933C32.1515 0.274933 32.7599 1.03167 32.2123 2.44213C30.1752 7.69571 28.1336 12.948 26.0875 18.1989C25.9996 18.4287 25.923 18.6624 25.8126 18.9735H26.7793C31.5115 18.9735 36.2257 18.9735 40.9488 18.9735C41.7015 18.9735 42.3617 19.0765 42.7336 19.7183C43.0828 20.3245 42.8327 20.8495 42.4339 21.3744C32.3896 34.5955 22.3506 47.8206 12.3169 61.0496C11.6656 61.9074 11.0121 62.1689 10.2369 61.8955C9.46177 61.6221 9.14404 61.0041 9.33558 60.1126C10.0176 56.91 10.7042 53.7087 11.3952 50.5088L14.5094 35.8812ZM4.5741 33.1791H5.66926C9.15305 33.1791 12.6391 33.1791 16.1251 33.1791C17.4614 33.1791 18.0834 33.8566 17.8377 35.0056C16.7576 40.0492 15.6737 45.0921 14.5861 50.1344C14.3134 51.4042 14.0497 52.676 13.7838 53.9458L13.9641 54.0052L38.5264 21.6617H24.1946C22.3401 21.6617 21.77 20.9505 22.3716 19.4033L28.4378 3.79118C28.5347 3.5396 28.6204 3.28603 28.7285 2.98492H16.2063C12.3507 13.0008 8.48604 23.0127 4.5741 33.1791Z" fill="#D8D4D4"/>
</g>
<defs>
<clipPath id="clip0_170_30">
<rect width="41.952" height="61.7275" fill="white" transform="translate(0.958008 0.272461)"/>
</clipPath>
</defs>
</svg>
