<svg width="60" height="68" viewBox="0 0 60 68" fill="none" xmlns="http://www.w3.org/2000/svg">
<g clip-path="url(#clip0_149_2082)">
<path d="M29.5923 67.501C26.7743 66.0744 23.9563 64.6484 21.1384 63.223C20.6399 62.9729 20.1644 62.6559 20.219 62.0623C20.2644 61.6211 20.4496 61.2058 20.7474 60.877C21.1542 60.4614 21.7213 60.5618 22.2268 60.8136C23.8988 61.6473 25.569 62.4833 27.2375 63.3216C27.9631 63.6862 28.7011 64.0261 29.4091 64.4277C29.5821 64.5372 29.7823 64.5963 29.9871 64.5981C30.1918 64.6 30.393 64.5446 30.568 64.4383C38.3785 60.5072 46.1937 56.5849 54.0136 52.6714L55.8083 51.7662C54.7762 51.199 53.8269 50.6724 52.8723 50.1546C51.4246 49.3674 49.9663 48.5959 48.5291 47.7893C48.367 47.6836 48.1783 47.6258 47.9848 47.6227C47.7913 47.6196 47.6008 47.6712 47.4354 47.7717C42.0196 50.4963 36.5879 53.1998 31.1792 55.9385C30.3549 56.3577 29.6715 56.3806 28.8279 55.9526C23.4403 53.2139 18.0245 50.5333 12.6245 47.8087C12.4321 47.6928 12.2107 47.6341 11.9861 47.6394C11.7616 47.6447 11.5432 47.7138 11.3565 47.8386C8.99288 49.149 6.61345 50.4259 4.153 51.7591L7.93262 53.656C9.09151 54.2372 10.2557 54.8096 11.4111 55.3978C12.267 55.8329 12.5735 56.5638 12.223 57.2753C11.8725 57.9868 11.0958 58.1859 10.2434 57.7614C7.13654 56.2133 4.035 54.6528 0.92642 53.1047C0.373392 52.8282 -0.00879366 52.4548 -0.00703242 51.7961C-0.00703242 51.1673 0.362827 50.8045 0.873585 50.5245C3.40859 49.159 5.94007 47.7875 8.46803 46.4102C8.64415 46.3151 8.80795 46.2148 9.06685 46.0686C8.80795 45.9277 8.61069 45.8149 8.40991 45.7163C5.97412 44.494 3.54185 43.2682 1.09902 42.0582C0.498436 41.7606 -0.0175977 41.4295 -0.0158364 40.6633C-0.0158364 39.9324 0.473787 39.6066 1.0409 39.3001C3.67571 37.9393 6.307 36.5696 8.93476 35.1912C9.12674 35.0908 9.31166 34.9781 9.59698 34.816C9.32751 34.6681 9.13025 34.5501 8.92595 34.4479C6.29466 33.127 3.66514 31.8061 1.02505 30.4957C0.435035 30.2034 -0.0316927 29.8546 -0.0211253 29.1272C-0.0211253 28.4333 0.429751 28.0934 0.991585 27.801C5.51444 25.4527 10.0349 23.0956 14.5531 20.7297C14.7662 20.6187 14.974 20.5007 15.24 20.3563C14.8648 19.5285 15.2664 18.9332 15.7983 18.3503C16.4218 17.6687 17.0118 16.9571 17.6018 16.2473C18.1302 15.6045 18.1302 14.9986 17.6018 14.3452C16.9519 13.5421 16.2844 12.7601 15.6257 11.957C14.967 11.1538 14.9212 10.7646 15.4284 9.87695C16.3091 8.35524 17.202 6.8441 18.0703 5.31183C18.4542 4.62847 18.9826 4.33962 19.7575 4.477C20.6875 4.64256 21.6227 4.78346 22.5526 4.95253C23.9317 5.20087 24.335 4.98072 24.7929 3.68797C25.1082 2.80735 25.427 1.91088 25.7352 1.0197C25.9729 0.331056 26.4397 -0.0018172 27.1759 0.00170527C29.0487 0.00170527 30.9202 0.00170527 32.7907 0.00170527C33.1029 -0.0212269 33.4136 0.0641619 33.6702 0.243493C33.9268 0.422825 34.1138 0.685138 34.1997 0.986235C34.5519 1.97781 34.9042 2.97115 35.2564 3.96272C35.5858 4.87152 36.0049 5.14627 36.963 5.01946C37.9212 4.89265 38.8722 4.70772 39.8251 4.53864C41.0403 4.32201 41.3802 4.46995 41.9861 5.51789C42.8315 6.98089 43.6769 8.44507 44.5223 9.91041C45.0013 10.7452 44.9732 11.1521 44.3761 11.8848C43.7086 12.7037 43.0252 13.5086 42.3595 14.3258C41.7994 15.0162 41.7994 15.601 42.3595 16.2755C42.9653 17.0011 43.5712 17.7285 44.2035 18.4295C44.7072 18.9861 45.0542 19.562 44.6843 20.3669L49.1579 22.7058C52.4114 24.4036 55.6656 26.1003 58.9204 27.7958C59.4998 28.0969 59.9771 28.4457 59.9595 29.173C59.9419 29.9004 59.4664 30.2298 58.8816 30.5239C56.2627 31.8219 53.6543 33.1376 51.0441 34.4497C50.8363 34.5536 50.6373 34.6751 50.3396 34.8442L54.6142 37.0775C56.0742 37.8401 57.5343 38.6062 58.9996 39.3671C59.5632 39.6577 59.9824 40.0346 59.963 40.7285C59.9437 41.3872 59.5333 41.7359 58.9855 42.0089C56.5069 43.2418 54.0324 44.4829 51.5619 45.7322C51.3541 45.8378 51.1498 45.9488 50.8733 46.095C53.6349 47.5938 56.3208 49.0451 58.9943 50.5174C59.3227 50.6856 59.6032 50.934 59.8098 51.2396C60.2219 51.9317 59.8943 52.6908 59.0454 53.1188C56.4165 54.4432 53.7846 55.7618 51.1498 57.0745L30.5275 67.3795C30.4752 67.414 30.4273 67.4549 30.3848 67.501H29.5923ZM4.2305 29.1061C4.46827 29.2417 4.59508 29.321 4.72893 29.3879C12.9973 33.528 21.2616 37.671 29.5218 41.8169C29.6708 41.9012 29.8397 41.9437 30.0108 41.94C30.182 41.9363 30.3489 41.8865 30.494 41.7958C38.7178 37.664 46.9446 33.5397 55.1742 29.4231C55.3503 29.3386 55.5018 29.2364 55.7431 29.1008L43.3616 22.6406C42.8332 23.5477 42.3348 24.4195 41.8276 25.2825C41.4665 25.9007 40.947 26.1631 40.2249 26.0222C39.1681 25.8108 38.1114 25.6118 37.0458 25.4463C36.1353 25.3036 35.6967 25.5784 35.3656 26.4396C34.9781 27.4417 34.5977 28.4474 34.2349 29.4584C33.9901 30.14 33.5304 30.4922 32.803 30.4887C30.9326 30.4887 29.0622 30.4887 27.1917 30.4887C26.459 30.4887 25.9976 30.1558 25.751 29.4707C25.4111 28.5214 25.0465 27.5791 24.6943 26.6351C24.2716 25.5061 23.8137 25.2561 22.6213 25.4833C21.7407 25.6594 20.8601 25.8214 19.9654 25.9764C18.9086 26.1613 18.5564 25.9958 18.028 25.0694L16.619 22.6353L4.2305 29.1061ZM55.7325 40.6704C55.5564 40.5577 55.4595 40.4766 55.3468 40.4168C52.8335 39.1099 50.315 37.8031 47.814 36.4681C47.4301 36.262 47.1624 36.38 46.8453 36.5385C41.6427 39.1522 36.4312 41.7518 31.2443 44.3936C30.3443 44.8516 29.6134 44.8339 28.7187 44.376C23.5336 41.7342 18.3274 39.1452 13.1194 36.5332C12.7954 36.3694 12.5259 36.2867 12.1508 36.4874C9.68504 37.7978 7.20875 39.0765 4.73597 40.3622C4.58451 40.4397 4.44537 40.5383 4.26044 40.6563C4.44537 40.7532 4.57746 40.8324 4.71308 40.8941C12.9404 45.0189 21.1659 49.146 29.3897 53.2755C29.5729 53.3849 29.7823 53.4427 29.9956 53.4427C30.2089 53.4427 30.4183 53.3849 30.6015 53.2755C37.2378 49.9374 43.8741 46.6081 50.5105 43.2876C52.2312 42.4263 53.9519 41.5598 55.7308 40.6669L55.7325 40.6704ZM20.2031 7.21749C20.0745 7.30749 19.9599 7.41611 19.8632 7.53979C19.3137 8.46444 18.7642 9.38909 18.2587 10.3384C18.2176 10.4474 18.2019 10.5644 18.2129 10.6804C18.2239 10.7964 18.2613 10.9083 18.3221 11.0077C18.7625 11.6082 19.2697 12.1613 19.7311 12.746C21.001 14.3399 20.9869 16.3002 19.6906 17.8835C19.245 18.4277 18.7572 18.9403 18.3362 19.5003C18.2735 19.5974 18.2337 19.7075 18.22 19.8223C18.2062 19.937 18.2189 20.0534 18.257 20.1626C18.7501 21.0925 19.2785 22.0042 19.8421 22.8978C19.9148 22.9895 20.0075 23.0636 20.1131 23.1142C20.2186 23.1649 20.3344 23.1908 20.4515 23.1901C21.1049 23.1179 21.7495 22.9647 22.3888 22.8379C24.527 22.4469 26.29 23.4314 27.0649 25.4515C27.315 26.1067 27.5299 26.7778 27.8152 27.4171C27.8673 27.5202 27.9418 27.6104 28.0332 27.6811C28.1246 27.7518 28.2306 27.8012 28.3436 27.8257C29.4214 27.8644 30.4993 27.8644 31.5772 27.8257C31.6925 27.8065 31.8018 27.7613 31.8971 27.6936C31.9923 27.6258 32.0708 27.5373 32.1267 27.4347C32.4138 26.7971 32.6304 26.1261 32.8805 25.4709C33.6643 23.4156 35.4378 22.4346 37.6077 22.8484C38.2118 22.9629 38.8176 23.0686 39.42 23.2007C39.7617 23.2729 39.9801 23.2007 40.1632 22.8678C40.6546 21.9608 41.2076 21.0872 41.692 20.1784C41.7335 20.0702 41.7496 19.954 41.7393 19.8386C41.7289 19.7232 41.6922 19.6117 41.6321 19.5127C41.2129 18.9508 40.725 18.4401 40.2777 17.8976C38.955 16.2914 38.948 14.3417 40.2548 12.7108C40.7074 12.1437 41.2023 11.61 41.6233 11.02C41.6865 10.9116 41.7243 10.7903 41.7337 10.6652C41.7432 10.5401 41.7241 10.4145 41.6779 10.2979C41.1988 9.38556 40.644 8.51199 40.1544 7.60495C39.9783 7.26856 39.7528 7.19811 39.4076 7.2668C38.7842 7.39009 38.1536 7.49048 37.5266 7.60319C35.2864 8.00123 33.5286 6.985 32.7572 4.84334C32.5494 4.26565 32.3275 3.69149 32.1496 3.105C32.0457 2.75275 31.8801 2.61713 31.4997 2.6277C30.4888 2.65412 29.476 2.6506 28.4633 2.6277C28.1023 2.6189 27.905 2.71224 27.7993 3.0821C27.6232 3.67036 27.3978 4.24276 27.19 4.82044C26.408 7.00085 24.652 8.00828 22.3712 7.59263C21.6984 7.46934 21.0063 7.35662 20.2031 7.21749Z" fill="#FFE500"/>
<path d="M17.6264 59.3219C17.6311 59.6655 17.5 59.9971 17.2615 60.2444C17.0231 60.4918 16.6966 60.635 16.353 60.6429C16.1768 60.6484 16.0013 60.618 15.8373 60.5533C15.6732 60.4886 15.5242 60.3911 15.3992 60.2668C15.2742 60.1424 15.1759 59.9939 15.1103 59.8302C15.0448 59.6665 15.0134 59.4911 15.018 59.3149C15.0208 58.9712 15.1591 58.6425 15.4027 58.4001C15.6464 58.1578 15.9759 58.0213 16.3196 58.0204C16.6648 58.0218 16.9956 58.1592 17.2403 58.4028C17.4849 58.6464 17.6236 58.9767 17.6264 59.3219Z" fill="#FFE500"/>
<path d="M30.015 21.9203C29.1342 21.9242 28.2612 21.7546 27.446 21.4211C26.6308 21.0875 25.8893 20.5966 25.2638 19.9764C24.6384 19.3562 24.1412 18.6188 23.8009 17.8064C23.4605 16.994 23.2835 16.1225 23.28 15.2417C23.293 13.4746 24.0012 11.7837 25.2514 10.5348C26.5016 9.28585 28.1933 8.57944 29.9604 8.56838C31.7392 8.56416 33.4472 9.26531 34.71 10.5182C35.9728 11.7711 36.6873 13.4734 36.6971 15.2523C36.6883 17.0205 35.981 18.7135 34.7294 19.9625C33.4777 21.2115 31.7832 21.9152 30.015 21.9203ZM29.9604 19.2784C30.4937 19.284 31.0228 19.1842 31.5175 18.9848C32.0121 18.7854 32.4625 18.4903 32.8428 18.1163C33.2231 17.7424 33.5258 17.2971 33.7336 16.8059C33.9413 16.3147 34.0501 15.7873 34.0535 15.254C34.0472 14.1895 33.6247 13.1697 32.8762 12.4127C32.1278 11.6557 31.1128 11.2216 30.0485 11.2032C28.9721 11.189 27.9339 11.6017 27.1609 12.3509C26.388 13.1001 25.9431 14.1249 25.9236 15.2012C25.9195 15.7346 26.0207 16.2636 26.2215 16.7579C26.4223 17.2521 26.7188 17.7018 27.0939 18.0811C27.469 18.4604 27.9153 18.7619 28.4072 18.9683C28.8991 19.1747 29.4269 19.2819 29.9604 19.2837V19.2784Z" fill="#FFE500"/>
</g>
<defs>
<clipPath id="clip0_149_2082">
<rect width="60" height="67.5011" fill="white"/>
</clipPath>
</defs>
</svg>
