<?xml version="1.0" standalone="no"?>
<!DOCTYPE svg PUBLIC "-//W3C//DTD SVG 1.1//EN" "http://www.w3.org/Graphics/SVG/1.1/DTD/svg11.dtd" >
<svg xmlns="http://www.w3.org/2000/svg" xmlns:xlink="http://www.w3.org/1999/xlink" version="1.1">
<metadata>
Created by FontForge 20201107 at Mon Sep  6 15:44:57 2021
 By 
Copyright (c) 2021 by Billy Argel. All rights reserved.
</metadata>
<defs>
<font id="GOLDLEAFBOLDPERSONALUSE-Bold" horiz-adv-x="344" >
  <font-face 
    font-family="GOLDLEAF BOLD PERSONAL USE"
    font-weight="275"
    font-stretch="condensed"
    units-per-em="1000"
    panose-1="0 0 0 0 0 0 0 0 0 0"
    ascent="800"
    descent="-200"
    x-height="483"
    cap-height="708"
    bbox="-54 -232 1126 972"
    underline-thickness="50"
    underline-position="-100"
    unicode-range="U+000D-F8FF"
  />
<missing-glyph horiz-adv-x="180" 
 />
    <glyph glyph-name=".notdef" horiz-adv-x="180" 
 />
    <glyph glyph-name=".null" horiz-adv-x="0" 
 />
    <glyph glyph-name="nonmarkingreturn" unicode="&#xd;" horiz-adv-x="0" 
 />
    <glyph glyph-name="space" unicode=" " horiz-adv-x="180" 
 />
    <glyph glyph-name="zero" unicode="0" horiz-adv-x="1219" 
d="M876 781l-137 -124l36 -186l-160 94l-165 -94l39 181l-138 129l186 20l78 171l75 -170zM682 576l-43 258h-53l-45 -258l23 -14l19 14l9 58h39l11 -58l21 -14zM628 672h-30l14 102zM610 21h21l-7 18q-2 3 -2 5t-3 5q0 -4 -3 -10zM352 -5v8h11v-8h-11zM844 -5v63h8v-57h31
v-6h-39zM787 -5v63h45v-9h-37v-19h34v-8h-34v-21h37v-6h-45zM565 -5v26l-24 37h11l12 -19q3 -9 6 -11l2.5 5t4.5 6l12 19h9l-25 -37v-26h-8zM376 -5v63h24q3 0 5.5 -1.5t3.5 -1.5q6 -1 8 -6q3 -3 3 -9q0 -4 -3 -6q-2 -6 -6 -6q4 -1 9 -6q3 -6 3 -9t-1 -4.5t-1 -2.5
q-1 -6 -6 -6q-1 -3 -2.5 -3t-3.5 -2h-9h-24zM205 -5l-18 63h9l9 -42q2 -4 2 -7t1 -6q2 7 2 12l12 43h10l9 -33q2 -7 3.5 -11.5t1.5 -10.5q1 3 1 6t2 7l10 42h8l-18 -63h-8l-12 47q-1 4 -1 7q-2 -3 -2 -7l-13 -47h-8zM123 -5l-18 63h10l8 -42q0 -7 4 -13q2 7 2 12l12 43h9
l10 -33q2 -7 2.5 -11.5t0.5 -10.5q3 3 3 6t2 7l9 42h9l-18 -63h-8l-12 47q-1 4 -1 7q-3 -3 -3 -7l-14 -47h-7zM384 30h13q6 0 8 3q4 0 4 1q2 2 2 6q0 5 -2 6h-1q-2 0 -2 1t-1 1q-2 1 -9 1h-12v-19zM285 -5l-17 63h9l9 -42q2 -4 2 -7t3 -6q0 6 0.5 8t0.5 4l12 43h9l11 -33
q1 -7 2 -11.5t1 -10.5q3 3 3 6t1 7l11 42h7l-18 -63h-7l-12 47q-2 4 -2 7q-3 -3 -3 -7l-13 -47h-9zM664 28h18q3 0 5.5 1t5.5 1t3 4q1 2 1 6q0 5 -3 8q-1 1 -10 1h-20v-21zM384 1h16q3 0 5 2h4q2 3 5 4v6q0 3 -3 6q0 3 -3 3h-11h-13v-21zM435 -5v63h7v-63h-7zM985 25
q0 -13 5 -18q6 -6 16 -6q11 0 15 6q6 5 6 20q0 7 -1 12q-3 7 -8 9q-4 1 -12 1q-9 0 -13 -4q-8 -6 -8 -20zM976 25q0 17 9 24q6 9 21 9q5 0 8.5 -1.5t6.5 -2.5q5 -2 7 -5t5 -7q2 -3 2 -15q0 -14 -3 -18q-5 -8 -11 -12q-6 -3 -15 -3q-4 0 -8 0.5t-8 2.5q-3 3 -5.5 6t-3.5 6
q-2 4 -3.5 8t-1.5 8zM592 -5l24 63h9l26 -63h-9l-8 18h-25l-9 -18h-8zM459 -5v63h7v-57h29v-6h-36zM892 -5v8h11v-8h-11zM748 19v8h26v-24q-6 -6 -12 -8q-3 0 -7 -0.5t-7 -0.5q-9 0 -15 3q-4 3 -7 5t-5 7q-1 4 -2.5 8t-1.5 8q0 6 1.5 9t2.5 8q3 9 11 12l7.5 2.5t8.5 1.5
q8 0 12 -3q6 -1 8 -6q4 -4 6 -9l-8 -1q0 1 -4 6q0 3 -6 4h-8h-9q-4 -1 -7 -4q0 -2 -5 -6q0 -3 -0.5 -6t-0.5 -6q0 -11 3 -14q6 -9 7 -10q5 -2 12 -2q6 0 11 2q3 3 4.5 3t2.5 1v12h-18zM657 -5v63h27q4 0 7 -1.5t6 -1.5q5 -1 6 -6q3 -3 3 -9q0 -7 -4 -12q-2 -1 -5.5 -2
t-8.5 -4q3 0 4 -0.5t2 -0.5q2 -3 2.5 -5.5t3.5 -5.5l12 -15h-10l-9 12q-3 3 -4 5.5t-2 3.5q0 3 -1.5 3t-3.5 2h-1q-2 0 -2 0.5t-1 0.5h-3h-11v-27h-7zM505 -5v63h9v-57h30v-6h-39zM961 16l8 -1q-3 -12 -9 -15q-6 -6 -17 -6q-9 0 -15 3q-4 3 -5.5 6t-4.5 6q-3 12 -3 18t3 18
q7 7 10 9q5 1 8 2.5t7 1.5q5 0 9.5 -1.5l7.5 -2.5q3 -3 5 -6t4 -8l-9 -1q0 6 -6 9q-3 1 -11 1q-9 0 -12 -1q-3 -2 -3.5 -4t-3.5 -5q0 -3 -1 -6t-1 -6q0 -9 5 -14q0 -3 1.5 -5t2.5 -5q5 -2 12 -2q8 0 12 5q5 4 6 10zM1047 -5v63h12l15 -45q0 -3 1.5 -5t1.5 -5q0 1 3 10l13 45
h12v-63h-7v51l-18 -51h-8l-18 53v-53h-7zM610 21h21l-7 18q-2 3 -2 5t-3 5q0 -4 -3 -10zM352 -5v8h11v-8h-11zM844 -5v63h8v-57h31v-6h-39zM787 -5v63h45v-9h-37v-19h34v-8h-34v-21h37v-6h-45zM565 -5v26l-24 37h11l12 -19q3 -9 6 -11l2.5 5t4.5 6l12 19h9l-25 -37v-26h-8z
M376 -5v63h24q3 0 5.5 -1.5t3.5 -1.5q6 -1 8 -6q3 -3 3 -9q0 -4 -3 -6q-2 -6 -6 -6q4 -1 9 -6q3 -6 3 -9t-1 -4.5t-1 -2.5q-1 -6 -6 -6q-1 -3 -2.5 -3t-3.5 -2h-9h-24zM205 -5l-18 63h9l9 -42q2 -4 2 -7t1 -6q2 7 2 12l12 43h10l9 -33q2 -7 3.5 -11.5t1.5 -10.5q1 3 1 6t2 7
l10 42h8l-18 -63h-8l-12 47q-1 4 -1 7q-2 -3 -2 -7l-13 -47h-8zM123 -5l-18 63h10l8 -42q0 -7 4 -13q2 7 2 12l12 43h9l10 -33q2 -7 2.5 -11.5t0.5 -10.5q3 3 3 6t2 7l9 42h9l-18 -63h-8l-12 47q-1 4 -1 7q-3 -3 -3 -7l-14 -47h-7zM384 30h13q6 0 8 3q4 0 4 1q2 2 2 6
q0 5 -2 6h-1q-2 0 -2 1t-1 1q-2 1 -9 1h-12v-19zM285 -5l-17 63h9l9 -42q2 -4 2 -7t3 -6q0 6 0.5 8t0.5 4l12 43h9l11 -33q1 -7 2 -11.5t1 -10.5q3 3 3 6t1 7l11 42h7l-18 -63h-7l-12 47q-2 4 -2 7q-3 -3 -3 -7l-13 -47h-9zM664 28h18q3 0 5.5 1t5.5 1t3 4q1 2 1 6q0 5 -3 8
q-1 1 -10 1h-20v-21zM384 1h16q3 0 5 2h4q2 3 5 4v6q0 3 -3 6q0 3 -3 3h-11h-13v-21zM435 -5v63h7v-63h-7zM985 25q0 -13 5 -18q6 -6 16 -6q11 0 15 6q6 5 6 20q0 7 -1 12q-3 7 -8 9q-4 1 -12 1q-9 0 -13 -4q-8 -6 -8 -20zM976 25q0 17 9 24q6 9 21 9q5 0 8.5 -1.5t6.5 -2.5
q5 -2 7 -5t5 -7q2 -3 2 -15q0 -14 -3 -18q-5 -8 -11 -12q-6 -3 -15 -3q-4 0 -8 0.5t-8 2.5q-3 3 -5.5 6t-3.5 6q-2 4 -3.5 8t-1.5 8zM592 -5l24 63h9l26 -63h-9l-8 18h-25l-9 -18h-8zM459 -5v63h7v-57h29v-6h-36zM892 -5v8h11v-8h-11zM748 19v8h26v-24q-6 -6 -12 -8
q-3 0 -7 -0.5t-7 -0.5q-9 0 -15 3q-4 3 -7 5t-5 7q-1 4 -2.5 8t-1.5 8q0 6 1.5 9t2.5 8q3 9 11 12l7.5 2.5t8.5 1.5q8 0 12 -3q6 -1 8 -6q4 -4 6 -9l-8 -1q0 1 -4 6q0 3 -6 4h-8h-9q-4 -1 -7 -4q0 -2 -5 -6q0 -3 -0.5 -6t-0.5 -6q0 -11 3 -14q6 -9 7 -10q5 -2 12 -2
q6 0 11 2q3 3 4.5 3t2.5 1v12h-18zM657 -5v63h27q4 0 7 -1.5t6 -1.5q5 -1 6 -6q3 -3 3 -9q0 -7 -4 -12q-2 -1 -5.5 -2t-8.5 -4q3 0 4 -0.5t2 -0.5q2 -3 2.5 -5.5t3.5 -5.5l12 -15h-10l-9 12q-3 3 -4 5.5t-2 3.5q0 3 -1.5 3t-3.5 2h-1q-2 0 -2 0.5t-1 0.5h-3h-11v-27h-7z
M505 -5v63h9v-57h30v-6h-39zM961 16l8 -1q-3 -12 -9 -15q-6 -6 -17 -6q-9 0 -15 3q-4 3 -5.5 6t-4.5 6q-3 12 -3 18t3 18q7 7 10 9q5 1 8 2.5t7 1.5q5 0 9.5 -1.5l7.5 -2.5q3 -3 5 -6t4 -8l-9 -1q0 6 -6 9q-3 1 -11 1q-9 0 -12 -1q-3 -2 -3.5 -4t-3.5 -5q0 -3 -1 -6t-1 -6
q0 -9 5 -14q0 -3 1.5 -5t2.5 -5q5 -2 12 -2q8 0 12 5q5 4 6 10zM1047 -5v63h12l15 -45q0 -3 1.5 -5t1.5 -5q0 1 3 10l13 45h12v-63h-7v51l-18 -51h-8l-18 53v-53h-7zM610 21h21l-7 18q-2 3 -2 5t-3 5q0 -4 -3 -10zM352 -5v8h11v-8h-11zM844 -5v63h8v-57h31v-6h-39zM787 -5
v63h45v-9h-37v-19h34v-8h-34v-21h37v-6h-45zM565 -5v26l-24 37h11l12 -19q3 -9 6 -11l2.5 5t4.5 6l12 19h9l-25 -37v-26h-8zM376 -5v63h24q3 0 5.5 -1.5t3.5 -1.5q6 -1 8 -6q3 -3 3 -9q0 -4 -3 -6q-2 -6 -6 -6q4 -1 9 -6q3 -6 3 -9t-1 -4.5t-1 -2.5q-1 -6 -6 -6
q-1 -3 -2.5 -3t-3.5 -2h-9h-24zM205 -5l-18 63h9l9 -42q2 -4 2 -7t1 -6q2 7 2 12l12 43h10l9 -33q2 -7 3.5 -11.5t1.5 -10.5q1 3 1 6t2 7l10 42h8l-18 -63h-8l-12 47q-1 4 -1 7q-2 -3 -2 -7l-13 -47h-8zM123 -5l-18 63h10l8 -42q0 -7 4 -13q2 7 2 12l12 43h9l10 -33
q2 -7 2.5 -11.5t0.5 -10.5q3 3 3 6t2 7l9 42h9l-18 -63h-8l-12 47q-1 4 -1 7q-3 -3 -3 -7l-14 -47h-7zM384 30h13q6 0 8 3q4 0 4 1q2 2 2 6q0 5 -2 6h-1q-2 0 -2 1t-1 1q-2 1 -9 1h-12v-19zM285 -5l-17 63h9l9 -42q2 -4 2 -7t3 -6q0 6 0.5 8t0.5 4l12 43h9l11 -33
q1 -7 2 -11.5t1 -10.5q3 3 3 6t1 7l11 42h7l-18 -63h-7l-12 47q-2 4 -2 7q-3 -3 -3 -7l-13 -47h-9zM664 28h18q3 0 5.5 1t5.5 1t3 4q1 2 1 6q0 5 -3 8q-1 1 -10 1h-20v-21zM384 1h16q3 0 5 2h4q2 3 5 4v6q0 3 -3 6q0 3 -3 3h-11h-13v-21zM435 -5v63h7v-63h-7zM985 25
q0 -13 5 -18q6 -6 16 -6q11 0 15 6q6 5 6 20q0 7 -1 12q-3 7 -8 9q-4 1 -12 1q-9 0 -13 -4q-8 -6 -8 -20zM976 25q0 17 9 24q6 9 21 9q5 0 8.5 -1.5t6.5 -2.5q5 -2 7 -5t5 -7q2 -3 2 -15q0 -14 -3 -18q-5 -8 -11 -12q-6 -3 -15 -3q-4 0 -8 0.5t-8 2.5q-3 3 -5.5 6t-3.5 6
q-2 4 -3.5 8t-1.5 8zM592 -5l24 63h9l26 -63h-9l-8 18h-25l-9 -18h-8zM459 -5v63h7v-57h29v-6h-36zM892 -5v8h11v-8h-11zM748 19v8h26v-24q-6 -6 -12 -8q-3 0 -7 -0.5t-7 -0.5q-9 0 -15 3q-4 3 -7 5t-5 7q-1 4 -2.5 8t-1.5 8q0 6 1.5 9t2.5 8q3 9 11 12l7.5 2.5t8.5 1.5
q8 0 12 -3q6 -1 8 -6q4 -4 6 -9l-8 -1q0 1 -4 6q0 3 -6 4h-8h-9q-4 -1 -7 -4q0 -2 -5 -6q0 -3 -0.5 -6t-0.5 -6q0 -11 3 -14q6 -9 7 -10q5 -2 12 -2q6 0 11 2q3 3 4.5 3t2.5 1v12h-18zM657 -5v63h27q4 0 7 -1.5t6 -1.5q5 -1 6 -6q3 -3 3 -9q0 -7 -4 -12q-2 -1 -5.5 -2
t-8.5 -4q3 0 4 -0.5t2 -0.5q2 -3 2.5 -5.5t3.5 -5.5l12 -15h-10l-9 12q-3 3 -4 5.5t-2 3.5q0 3 -1.5 3t-3.5 2h-1q-2 0 -2 0.5t-1 0.5h-3h-11v-27h-7zM505 -5v63h9v-57h30v-6h-39zM961 16l8 -1q-3 -12 -9 -15q-6 -6 -17 -6q-9 0 -15 3q-4 3 -5.5 6t-4.5 6q-3 12 -3 18t3 18
q7 7 10 9q5 1 8 2.5t7 1.5q5 0 9.5 -1.5l7.5 -2.5q3 -3 5 -6t4 -8l-9 -1q0 6 -6 9q-3 1 -11 1q-9 0 -12 -1q-3 -2 -3.5 -4t-3.5 -5q0 -3 -1 -6t-1 -6q0 -9 5 -14q0 -3 1.5 -5t2.5 -5q5 -2 12 -2q8 0 12 5q5 4 6 10zM1047 -5v63h12l15 -45q0 -3 1.5 -5t1.5 -5q0 1 3 10l13 45
h12v-63h-7v51l-18 -51h-8l-18 53v-53h-7zM175 111l12 -5q-3 -13 -13 -22q-12 -9 -26 -9q-13 0 -25 6q-12 9 -14 18q-6 10 -6 25q0 17 6 27q5 11 15 15q11 6 24 6q17 0 23 -7q10 -3 15 -20l-12 -1q-6 12 -11 13q-6 6 -15 6q-12 0 -18 -6q-9 -6 -12 -13q-1 -6 -1 -20
q0 -13 4 -19q3 -11 9 -14q8 -6 17 -6q12 0 19 8q3 3 5.5 7.5t3.5 10.5zM199 123q0 12 3 21t11 15q6 7 14 10t17 3q14 0 24 -6q9 -4 17 -16q6 -15 6 -26q0 -7 -1.5 -13t-4.5 -12q-8 -12 -18 -18q-12 -6 -23 -6q-7 0 -12.5 1.5t-11.5 4.5q-10 6 -15 18q-6 10 -6 24zM213 123
q0 -18 7 -29q11 -9 24 -9q15 0 23 12q10 11 10 27q0 6 -1.5 10.5t-2.5 9.5q-3 10 -12 13q-5 6 -17 6t-22 -10q-9 -8 -9 -30zM306 78v93h18l22 -66q5 -9 5 -14q3 3 6 15l24 65h15v-93h-12v78l-27 -78h-12l-27 79v-79h-12zM417 78v93h36h13q8 0 12 -5q2 -1 8 -9l2 -6t1 -7
q0 -9 -8 -20q-7 -7 -28 -7h-24v-39h-12zM429 126h25q14 0 15 6q6 1 6 12q0 7 -1 9q-6 6 -11 6q-1 3 -10 3h-24v-36zM505 78v93h12v-84h47v-9h-59zM579 78v93h69v-9h-57v-30h52v-12h-52v-33h58v-9h-70zM690 78v84h-32v9h77v-9h-32v-84h-13zM748 78v93h69v-9h-57v-30h53v-12
h-53v-33h59v-9h-71zM870 106l12 2q0 -8 3 -11q3 -6 10 -9q3 -1 14 -1h6.5t6.5 1q5 0 8 6q1 3 1 9q0 5 -1 8l-4 2t-5 4q-2 0 -17 3q-7 3 -11.5 3.5t-7.5 2.5q-6 3 -9 10q-3 2 -4 5t-1 6q0 9 6 15q2 3 5 4.5t7 4.5q3 1 18 1q11 0 17 -3q4 -3 7 -4.5t5 -5.5q6 -5 6 -14l-12 -1
q-3 12 -8 13q-4 5 -15 5q-15 0 -18 -5q-4 -4 -4 -10q0 -5 4 -8l18 -7q8 -2 13 -3.5t8 -2.5q5 -2 7 -4l5 -5q3 -5 3 -14q0 -10 -3 -15q-6 -6 -12 -9q-4 -1 -8.5 -2.5t-10.5 -1.5t-12 1.5t-9 2.5q-8 2 -15 12q-3 6 -3 15zM961 78v93h68v-9h-54v-30h52v-12h-52v-33h57v-9h-71z
M1074 78v84h-30v9h73v-9h-31v-84h-12zM112 190v93h38h13q3 0 12 -3q2 -1 4 -4l4 -6q3 -3 3 -11q0 -13 -9 -22q-5 -8 -27 -8h-23v-39h-15zM127 241h23q13 0 18 3q6 6 6 12q0 3 -1.5 6t-3.5 6q-4 5 -7 5q-2 1 -12 1h-23v-33zM201 190v93h67v-9h-54v-30h51v-10h-51v-32h57v-12
h-70zM288 190v93h43q14 0 20 -1q7 -3 10 -8q3 -12 3 -15q0 -10 -6 -16t-21 -9q3 -3 4.5 -3t3.5 -2q7 -7 10 -13l17 -26h-15l-14 20q-1 4 -3.5 7t-3.5 6q-3 2 -4 4t-2 2q-3 2 -6 2q-2 3 -8 3h-13v-44h-15zM303 243h24q12 0 15 1q4 5 7 6q2 3 2 9t-5 11q-4 4 -15 4h-28v-31z
M381 222h10q0 -3 1.5 -6t3.5 -6q1 -2 3.5 -4t5.5 -2q9 -3 15 -3h6t4 1q9 3 11 6q0 2 0.5 4t0.5 4q0 6 -1 7q-5 3 -11 6q-1 2 -5 2t-10 3q-13 1 -19 6q-8 6 -11 9q-1 4 -1 12q0 3 0.5 6.5t3.5 6.5q2 6 12 9q3 3 17 3q12 0 18 -3q9 -4 12 -10q6 -9 6 -14l-12 -3q-3 11 -8 14
q-6 6 -16 6q-12 0 -17 -6q-4 -3 -4 -9t4 -8q2 -3 17 -6q13 -6 22 -6q3 -3 6 -5t5 -5q4 -5 4 -14q0 -7 -4 -13q-3 -5 -5.5 -7t-5.5 -5q-12 -3 -19 -3q-11 0 -23 3q-4 3 -7 5t-6 7q-2 4 -2.5 8t-0.5 10zM468 237q0 21 12 36q13 13 33 13q6 0 11 -1.5t13 -4.5q6 -3 9 -7.5
t6 -10.5q6 -10 6 -25q0 -14 -6 -26q-6 -10 -15 -16q-12 -6 -24 -6q-14 0 -24 7q-14 8 -15 18q-6 8 -6 23zM480 237q0 -18 9 -27t24 -9t24 9q7 10 7 27q0 6 -0.5 12t-3.5 10q-5 8 -9 11q-8 6 -18 6q-8 0 -12.5 -2.5t-11.5 -6.5q-9 -9 -9 -30zM573 190v93h13l50 -72v72h12v-93
h-12l-51 74v-74h-12zM658 190l36 93h14l39 -93h-15l-11 30h-39l-12 -30h-12zM684 229h33l-9 26q-3 6 -4.5 11t-3.5 8q0 -4 -1.5 -8.5t-2.5 -9.5zM754 190v93h14v-81h46v-12h-60zM922 283h12v-52q0 -17 -3 -23q-3 -9 -10 -13q-8 -6 -23 -6t-21 6q-4 1 -7 5l-6 8q-2 3 -2 23
v52h11v-52q0 -15 3 -20q3 -6 7 -7q3 -2 6 -2.5t8 -0.5q12 0 19 4q6 6 6 26v52zM951 222h12q0 -3 1.5 -6t2.5 -6l4 -4t5 -2q9 -3 14 -3q10 0 15 1q3 2 7 6q2 2 2 8t-2 7q-3 2 -3.5 3.5t-3.5 2.5q-3 2 -7.5 2t-10.5 3q-6 1 -11.5 2t-6.5 4q-8 3 -9 9q-5 4 -5 12q0 6 5 13
q1 6 10 9q6 3 18 3h10t8 -3q9 -4 14 -10q1 -3 2.5 -7t1.5 -7l-12 -3q-3 5 -3.5 8.5t-3.5 5.5q-5 6 -17 6q-13 0 -15 -6q-6 -2 -6 -9q0 -5 3 -8t18 -6q17 -6 21 -6q5 -3 8 -5t4 -5q5 -3 5 -14q0 -9 -5 -13q-3 -5 -5 -7t-7 -5q-9 -3 -16 -3q-8 0 -13 0.5t-10 2.5q-3 3 -6.5 5
t-6.5 7q-3 4 -4.5 8t-1.5 10zM1044 190v93h67v-9h-54v-30h50v-10h-50v-32h56v-12h-69zM307 388q0 15 -22 18q-3 0 -7.5 1t-10.5 1l-9 -11l-24 -25q-6 -8 -11.5 -14t-12.5 -10q9 -3 22 -5h8.5t9.5 2q23 1 35 12q22 18 22 31zM324 433q0 6 -8 6q-3 0 -25 -7l-17 -15
q-3 -3 -6 -9l26 4q6 0 16 8q14 9 14 13zM343 460q0 -3 -4 -3q-3 0 -4 1t-4 1q-15 -3 -34 -23q3 3 6.5 4.5t6.5 3.5q11 1 20 0q6 0 6 -8v-6q-8 -13 -42 -21q27 -3 27 -18q0 -18 -29 -37q-10 -6 -21.5 -10t-23.5 -5q-19 -5 -30 -3q-9 0 -19 4q-9 -6 -17 -6h-3l-15 5h5
q12 0 19 6v1q-10 -6 -22 -6q-17 0 -26 9q-15 11 -15 32q0 6 1.5 11t4.5 13q11 22 36 39q8 7 16 9.5t16 3.5q16 0 22 -6q-7 5 -15 5q-9 0 -19 -6q-15 -6 -17 -9q-15 -8 -30 -26q-13 -21 -13 -36q0 -7 1.5 -11.5t4.5 -9.5q6 -9 16 -12q5 -1 8 -2t6 -1q6 0 10.5 1.5t10.5 4.5
q-17 12 -17 33q3 20 24 35l-3 -5q-3 0 -6 -6q-9 -9 -9 -19q0 -20 23 -33q12 7 12 9q3 4 6 7l6 6t3.5 7.5t3.5 9.5v-2q0 -7 -1 -12l18 21q46 53 76 62q-13 4 -21 4q-19 -1 -42 -13q-27 -14 -27 -33q0 -6 5 -11q1 -1 1 -3q-9 6 -9 15q0 17 20 33q24 18 51 15q9 0 27 -6h6
q7 0 12 -3h1zM346 363q-1 -6 -12 -17q-10 -6 -18 -6q-7 0 -7 9q0 8 9 20h-2q-1 -2 -6 -2l-1 2q4 0 15 10h1l5 6q4 5 4 8h5q4 0 4 -2q0 -6 -9 -16l-10 -11q-9 -13 -9 -18q0 -4 6 -4q7 0 18 15q1 1 2.5 2t4.5 4zM354 405q-6 -9 -15 -9q-5 0 -11 4h5q10 0 13 11v3l8 -3
q1 -2 0 -6zM406 433q0 -7 -46 -63h-2q-13 -16 -13 -25q0 -5 4 -5q9 0 20 15q1 2 2.5 2.5t3.5 3.5q0 -7 -12 -16q-8 -6 -17 -6q-9 1 -9 9q-1 7 30 46l18 23l9 9q5 6 8 15q4 -3 4 -8zM432 433q0 -6 -48 -63q-15 -18 -15 -25q0 -5 6 -5t19 15l6 6q-1 -7 -13 -16q-8 -6 -17 -6
q-9 1 -9 9q0 9 30 46l18 23l9 9q8 9 9 15q5 -3 5 -8zM403 333q-24 -5 -37 -18q-11 -14 -11 -17q0 -6 6 -6q2 -1 11 2l6.5 6.5l8.5 8.5zM447 430q-3 -21 -20 -37q0 -2 -0.5 -2t-0.5 -1q-5 -6 -10 -11.5t-10 -12.5q-3 -3 -3 -6q-1 3 2 9q-9 -14 -9 -21q0 -5 4 -5q2 0 8 3
q22 18 31 51v-4v-5q3 -3 3 -7q0 -3 -7 -15l-12 -20l-14 -18q5 3 17 9l-2 -1q-3 -3 -8 -7t-10 -11l-12 -15l-6 -8q-9 -9 -19 -12q-9 0 -14 6q-9 3 -3 14q2 1 3.5 4t4.5 6l1 2l-10 -2q25 18 42 20q1 0 2.5 0.5t3.5 0.5h1h3l9 14q-6 -6 -10.5 -7t-7.5 -1q-7 0 -7 8q0 18 31 46
l3 2l15 15q3 6 6 10.5t5 8.5zM618 453q-9 3 -15 3q-15 0 -28 -4t-26 -11q-6 -3 -10 -7t-8 -7q18 -1 48 -19q33 33 57 42zM649 447q-6 -2 -12.5 -4t-14.5 -10q-4 -3 -22 -21l-11 -10l15 -9q3 4 9 11t14 16zM663 472q0 -1 -2 -3q0 -10 -4 -21l1 -1h-1q-8 -18 -20 -30l-24 -29
q3 -1 4.5 -1t4.5 -2q0 -3 -1 -3q-3 0 -4.5 1t-4.5 2q-18 -19 -20 -36q-3 -6 -3 -9q0 -6 6 -6q12 0 26 20l6 9q15 21 19 37v5q0 -2 2 -3v-2q-3 -21 -15 -39l-20 -39q0 6 5 20q-18 -14 -27 -14q-14 0 -11 18q0 9 6 20.5t15 24.5l-15 8l-13 -14q-5 -6 -13 -15t-20 -24
q-24 -24 -42 -24h-5q-4 0 -13 5h3q13 -3 27 10q-12 -6 -29 -6q-16 0 -27 8h2q-15 10 -15 31q0 15 6 23q9 24 34 40q9 8 17.5 10t17.5 4q15 0 21 -6h-2q-3 3 -13 3q-15 0 -38 -14q-16 -12 -28 -25q-14 -21 -14 -38q0 -24 23 -31q9 -3 13 -3q32 1 69 42l29 30q-23 13 -51 13
h-2q-3 -6 -3 -13q2 0 8 -9q-11 6 -11 15q0 4 2 7q-15 -3 -20 -6q-27 -10 -24 -31q0 -14 9 -24l3 -3q-18 18 -18 31q0 20 18 33q15 11 38 11q21 24 52 28q8 2 24 2q8 0 23 -3l18 -5h9l1 -1q6 10 9 25h2v-3zM682 375q0 -5 -1 -8q-8 -7 -13 -13t-10 -14h2h1q-1 -1 -3 -1
q-1 0 -1 -2q-8 0 -8 3q0 6 14 20q10 13 10 16q2 5 -4 9q-18 -25 -32 -31l-6 -3l-3 1q6 0 20 15q13 12 18 20q0 1 -1 1t-1 2q0 1 11 10q0 2 1 2l2 -2q0 -1 -8 -12q12 -4 12 -13zM726 379q0 9 -6 6q-6 0 -9 -3q-5 -3 -14 -15t-9 -19q-1 -3 3 -3q9 3 15 10q6 12 6 17q0 3 -1 3
q6 0 6 -8l-2 -3q3 3 5.5 7t5.5 7v1zM754 393q-6 0 -13 -8q-6 -7 -12 -16l-14 -21q-7 -15 -13 -23.5t-8 -11.5q-19 -24 -30 -24q-9 -1 -13 6v8q0 7 6 13q-3 -1 -8 -1q15 15 33 19q2 0 2.5 1t3.5 1l2 -2q-29 -9 -35 -27q-1 -3 -1 -7q0 -2 1 -3q0 -2 2 -2q12 -1 28 23l11 15
l6 9q-5 -2 -8 -2q-12 0 -12 12q0 14 20 32q9 9 16 9q11 0 11 -12h1l8 9q7 7 13 7q5 0 8 -4h-5zM781 382q0 -9 -16 -18q-2 -1 -3 -1h-2q-4 0 -9 7q3 -3 8 -3q10 6 13 17v3v1v2q-6 0 -19 -14v-1q-5 -6 -5.5 -10t-0.5 -7q-2 2 -2 9q-3 -6 -4 -10q-3 -6 -3 -11q0 -1 1 -3
q0 -3 6 -3q15 6 26 15q3 3 7 6l-6 -8t-10 -8q-12 -8 -21 -5q0 -1 -2 0q-9 0 -9 9q0 15 17 30q9 14 24 14q3 0 4 -2q6 -4 6 -9zM841 433q0 -6 -48 -63q-13 -16 -13 -25q0 -5 4 -5q9 0 20 15q1 2 2.5 2.5t3.5 3.5q0 -7 -12 -16q-8 -6 -18 -6q-8 3 -8 9q0 12 29 46l18 23l9 9
q9 9 9 15q4 -3 4 -8zM922 387q-25 9 -27 28q-7 -4 -14.5 -8t-12.5 -8q-28 -27 -28 -50q0 -9 4 -10h3h3q23 0 42 15q6 6 14.5 13.5t15.5 19.5zM952 430h-12q-18 -1 -43 -13q3 -21 28 -26l11 14zM979 457q-19 0 -35 -3t-28 -10q8 7 19 11.5t25 7.5q-30 2 -53 -18
q-4 -3 -10 -15q10 3 20 4.5t22 0.5h7.5t11.5 -2q3 5 8.5 11t12.5 13zM1074 459q-3 -5 -7 -8.5t-11 -6.5q-12 -8 -23 -8h-3q-1 0 -3 2q2 1 2 2.5t3 4.5q-14 11 -38 11l-6 -8l-15 -18q12 -1 22.5 -2.5t19.5 -1.5q21 0 29 4q-6 -6 -23 -9q-13 -3 -27 2l-24 4q-6 -7 -11 -12.5
t-8 -11.5l-11 -15h8q37 3 43 18h2q-5 -9 -20 -16q-7 -3 -14 -4.5t-13 -1.5h-7q-11 -12 -17.5 -21t-12.5 -15q-20 -21 -36 -21q-8 1 -17 1q15 0 32 15q-21 -9 -33 -9l-9 2l12 -12q-12 6 -20 13q-1 0 -7 3q-18 14 -20 35v13t3 12q5 14 12.5 23.5t17.5 20.5q26 22 45 22
q11 0 18 -6l-1 -1q-5 4 -14 4q-19 -3 -40 -19q-18 -15 -27 -30q-12 -21 -12 -39q3 -27 24 -35q-3 9 -2 18q3 23 17 39q16 21 45 33q3 3 3 9l13 14q20 16 51 16h13t13 -1h1q11 7 19 11t17 2q6 0 9 -3l-16 -3q-3 -1 -7 -2.5t-8 -4.5q6 -2 12 -2.5t13 -3.5q15 -5 24 -5
q14 0 20 2zM982 354q-4 4 -4 10q0 3 0.5 5.5t0.5 5.5q-15 -20 -13 -29q0 -3 3 -3t13 11zM1002 385q0 3 -3 3t-6 -1q-2 -2 -5 -8q-7 -15 -7 -19q0 -5 1 -6l5 4v2v-2q1 2 1 2.5t2 2.5q3 9 3 12q0 1 -2 3q3 -6 3 -8q5 5 8 15zM1008 381q0 -8 -11 -23q-13 -13 -19 -18h-12
q-9 0 -9 8q0 12 16 31q11 14 24 14q11 0 11 -12zM1057 384q2 -3 -6 -17q-9 -12 -12 -15l-18 -16q-10 -11 -13 -23q1 18 13 32q6 6 9 10.5t6 10.5q2 1 3 6v-5l-1 -3q3 3 9 15q0 2 0.5 2.5t0.5 2.5q0 7 -7 4l-12 -9q-3 -7 -8.5 -12.5t-11.5 -12.5q-7 -9 -9 -14q-1 -1 -7 -13
q0 3 -1 6.5t1 6.5q3 11 13 21l9 11q8 10 8 16q0 2 -1 3.5t-1 2.5q9 -3 9 -9q9 8 20 8q6 -3 7 -9zM1116 405h-23q-1 -3 -9.5 -12t-20.5 -26q-3 0 -6 -7q-6 -8 -6 -15q0 -5 3 -5q8 0 21 15l2 2q1 1 1 2t2 2q0 -7 -11 -16q-7 -6 -18 -6q-7 3 -9 9q0 3 6 15l18 21l17 21l-26 3
q-6 1 -15 1h-13q-18 0 -36 -7h-2q15 15 47 15q1 0 12.5 -2.5t32.5 -5.5l4 -1q5 7 8.5 12.5t6.5 9.5q3 -1 3 -7q0 -5 -3 -8l-6 -9l12 -1h9h2h4h-7zM1126 385q0 -4 -10 -9l-2 -1q5 4 5 12v6h-5q-7 0 -9 -6q0 -3 5 -26q1 -21 -24 -21q-14 0 -17 9q-1 2 -1 5q0 12 18 15l6 -2h-3
q-6 0 -9 -3q-5 -7 -5 -10q0 -12 12 -12t12 16q0 8 -1 12q-2 5 -2 11q0 15 14 15q3 0 4.5 -1t4.5 -1q6 -3 6 -4q1 -2 1 -5z" />
    <glyph glyph-name="one" unicode="1" horiz-adv-x="1219" 
d="M876 781l-137 -124l36 -186l-160 94l-165 -94l39 181l-138 129l186 20l78 171l75 -170zM682 576l-43 258h-53l-45 -258l23 -14l19 14l9 58h39l11 -58l21 -14zM628 672h-30l14 102zM610 21h21l-7 18q-2 3 -2 5t-3 5q0 -4 -3 -10zM352 -5v8h11v-8h-11zM844 -5v63h8v-57h31
v-6h-39zM787 -5v63h45v-9h-37v-19h34v-8h-34v-21h37v-6h-45zM565 -5v26l-24 37h11l12 -19q3 -9 6 -11l2.5 5t4.5 6l12 19h9l-25 -37v-26h-8zM376 -5v63h24q3 0 5.5 -1.5t3.5 -1.5q6 -1 8 -6q3 -3 3 -9q0 -4 -3 -6q-2 -6 -6 -6q4 -1 9 -6q3 -6 3 -9t-1 -4.5t-1 -2.5
q-1 -6 -6 -6q-1 -3 -2.5 -3t-3.5 -2h-9h-24zM205 -5l-18 63h9l9 -42q2 -4 2 -7t1 -6q2 7 2 12l12 43h10l9 -33q2 -7 3.5 -11.5t1.5 -10.5q1 3 1 6t2 7l10 42h8l-18 -63h-8l-12 47q-1 4 -1 7q-2 -3 -2 -7l-13 -47h-8zM123 -5l-18 63h10l8 -42q0 -7 4 -13q2 7 2 12l12 43h9
l10 -33q2 -7 2.5 -11.5t0.5 -10.5q3 3 3 6t2 7l9 42h9l-18 -63h-8l-12 47q-1 4 -1 7q-3 -3 -3 -7l-14 -47h-7zM384 30h13q6 0 8 3q4 0 4 1q2 2 2 6q0 5 -2 6h-1q-2 0 -2 1t-1 1q-2 1 -9 1h-12v-19zM285 -5l-17 63h9l9 -42q2 -4 2 -7t3 -6q0 6 0.5 8t0.5 4l12 43h9l11 -33
q1 -7 2 -11.5t1 -10.5q3 3 3 6t1 7l11 42h7l-18 -63h-7l-12 47q-2 4 -2 7q-3 -3 -3 -7l-13 -47h-9zM664 28h18q3 0 5.5 1t5.5 1t3 4q1 2 1 6q0 5 -3 8q-1 1 -10 1h-20v-21zM384 1h16q3 0 5 2h4q2 3 5 4v6q0 3 -3 6q0 3 -3 3h-11h-13v-21zM435 -5v63h7v-63h-7zM985 25
q0 -13 5 -18q6 -6 16 -6q11 0 15 6q6 5 6 20q0 7 -1 12q-3 7 -8 9q-4 1 -12 1q-9 0 -13 -4q-8 -6 -8 -20zM976 25q0 17 9 24q6 9 21 9q5 0 8.5 -1.5t6.5 -2.5q5 -2 7 -5t5 -7q2 -3 2 -15q0 -14 -3 -18q-5 -8 -11 -12q-6 -3 -15 -3q-4 0 -8 0.5t-8 2.5q-3 3 -5.5 6t-3.5 6
q-2 4 -3.5 8t-1.5 8zM592 -5l24 63h9l26 -63h-9l-8 18h-25l-9 -18h-8zM459 -5v63h7v-57h29v-6h-36zM892 -5v8h11v-8h-11zM748 19v8h26v-24q-6 -6 -12 -8q-3 0 -7 -0.5t-7 -0.5q-9 0 -15 3q-4 3 -7 5t-5 7q-1 4 -2.5 8t-1.5 8q0 6 1.5 9t2.5 8q3 9 11 12l7.5 2.5t8.5 1.5
q8 0 12 -3q6 -1 8 -6q4 -4 6 -9l-8 -1q0 1 -4 6q0 3 -6 4h-8h-9q-4 -1 -7 -4q0 -2 -5 -6q0 -3 -0.5 -6t-0.5 -6q0 -11 3 -14q6 -9 7 -10q5 -2 12 -2q6 0 11 2q3 3 4.5 3t2.5 1v12h-18zM657 -5v63h27q4 0 7 -1.5t6 -1.5q5 -1 6 -6q3 -3 3 -9q0 -7 -4 -12q-2 -1 -5.5 -2
t-8.5 -4q3 0 4 -0.5t2 -0.5q2 -3 2.5 -5.5t3.5 -5.5l12 -15h-10l-9 12q-3 3 -4 5.5t-2 3.5q0 3 -1.5 3t-3.5 2h-1q-2 0 -2 0.5t-1 0.5h-3h-11v-27h-7zM505 -5v63h9v-57h30v-6h-39zM961 16l8 -1q-3 -12 -9 -15q-6 -6 -17 -6q-9 0 -15 3q-4 3 -5.5 6t-4.5 6q-3 12 -3 18t3 18
q7 7 10 9q5 1 8 2.5t7 1.5q5 0 9.5 -1.5l7.5 -2.5q3 -3 5 -6t4 -8l-9 -1q0 6 -6 9q-3 1 -11 1q-9 0 -12 -1q-3 -2 -3.5 -4t-3.5 -5q0 -3 -1 -6t-1 -6q0 -9 5 -14q0 -3 1.5 -5t2.5 -5q5 -2 12 -2q8 0 12 5q5 4 6 10zM1047 -5v63h12l15 -45q0 -3 1.5 -5t1.5 -5q0 1 3 10l13 45
h12v-63h-7v51l-18 -51h-8l-18 53v-53h-7zM610 21h21l-7 18q-2 3 -2 5t-3 5q0 -4 -3 -10zM352 -5v8h11v-8h-11zM844 -5v63h8v-57h31v-6h-39zM787 -5v63h45v-9h-37v-19h34v-8h-34v-21h37v-6h-45zM565 -5v26l-24 37h11l12 -19q3 -9 6 -11l2.5 5t4.5 6l12 19h9l-25 -37v-26h-8z
M376 -5v63h24q3 0 5.5 -1.5t3.5 -1.5q6 -1 8 -6q3 -3 3 -9q0 -4 -3 -6q-2 -6 -6 -6q4 -1 9 -6q3 -6 3 -9t-1 -4.5t-1 -2.5q-1 -6 -6 -6q-1 -3 -2.5 -3t-3.5 -2h-9h-24zM205 -5l-18 63h9l9 -42q2 -4 2 -7t1 -6q2 7 2 12l12 43h10l9 -33q2 -7 3.5 -11.5t1.5 -10.5q1 3 1 6t2 7
l10 42h8l-18 -63h-8l-12 47q-1 4 -1 7q-2 -3 -2 -7l-13 -47h-8zM123 -5l-18 63h10l8 -42q0 -7 4 -13q2 7 2 12l12 43h9l10 -33q2 -7 2.5 -11.5t0.5 -10.5q3 3 3 6t2 7l9 42h9l-18 -63h-8l-12 47q-1 4 -1 7q-3 -3 -3 -7l-14 -47h-7zM384 30h13q6 0 8 3q4 0 4 1q2 2 2 6
q0 5 -2 6h-1q-2 0 -2 1t-1 1q-2 1 -9 1h-12v-19zM285 -5l-17 63h9l9 -42q2 -4 2 -7t3 -6q0 6 0.5 8t0.5 4l12 43h9l11 -33q1 -7 2 -11.5t1 -10.5q3 3 3 6t1 7l11 42h7l-18 -63h-7l-12 47q-2 4 -2 7q-3 -3 -3 -7l-13 -47h-9zM664 28h18q3 0 5.5 1t5.5 1t3 4q1 2 1 6q0 5 -3 8
q-1 1 -10 1h-20v-21zM384 1h16q3 0 5 2h4q2 3 5 4v6q0 3 -3 6q0 3 -3 3h-11h-13v-21zM435 -5v63h7v-63h-7zM985 25q0 -13 5 -18q6 -6 16 -6q11 0 15 6q6 5 6 20q0 7 -1 12q-3 7 -8 9q-4 1 -12 1q-9 0 -13 -4q-8 -6 -8 -20zM976 25q0 17 9 24q6 9 21 9q5 0 8.5 -1.5t6.5 -2.5
q5 -2 7 -5t5 -7q2 -3 2 -15q0 -14 -3 -18q-5 -8 -11 -12q-6 -3 -15 -3q-4 0 -8 0.5t-8 2.5q-3 3 -5.5 6t-3.5 6q-2 4 -3.5 8t-1.5 8zM592 -5l24 63h9l26 -63h-9l-8 18h-25l-9 -18h-8zM459 -5v63h7v-57h29v-6h-36zM892 -5v8h11v-8h-11zM748 19v8h26v-24q-6 -6 -12 -8
q-3 0 -7 -0.5t-7 -0.5q-9 0 -15 3q-4 3 -7 5t-5 7q-1 4 -2.5 8t-1.5 8q0 6 1.5 9t2.5 8q3 9 11 12l7.5 2.5t8.5 1.5q8 0 12 -3q6 -1 8 -6q4 -4 6 -9l-8 -1q0 1 -4 6q0 3 -6 4h-8h-9q-4 -1 -7 -4q0 -2 -5 -6q0 -3 -0.5 -6t-0.5 -6q0 -11 3 -14q6 -9 7 -10q5 -2 12 -2
q6 0 11 2q3 3 4.5 3t2.5 1v12h-18zM657 -5v63h27q4 0 7 -1.5t6 -1.5q5 -1 6 -6q3 -3 3 -9q0 -7 -4 -12q-2 -1 -5.5 -2t-8.5 -4q3 0 4 -0.5t2 -0.5q2 -3 2.5 -5.5t3.5 -5.5l12 -15h-10l-9 12q-3 3 -4 5.5t-2 3.5q0 3 -1.5 3t-3.5 2h-1q-2 0 -2 0.5t-1 0.5h-3h-11v-27h-7z
M505 -5v63h9v-57h30v-6h-39zM961 16l8 -1q-3 -12 -9 -15q-6 -6 -17 -6q-9 0 -15 3q-4 3 -5.5 6t-4.5 6q-3 12 -3 18t3 18q7 7 10 9q5 1 8 2.5t7 1.5q5 0 9.5 -1.5l7.5 -2.5q3 -3 5 -6t4 -8l-9 -1q0 6 -6 9q-3 1 -11 1q-9 0 -12 -1q-3 -2 -3.5 -4t-3.5 -5q0 -3 -1 -6t-1 -6
q0 -9 5 -14q0 -3 1.5 -5t2.5 -5q5 -2 12 -2q8 0 12 5q5 4 6 10zM1047 -5v63h12l15 -45q0 -3 1.5 -5t1.5 -5q0 1 3 10l13 45h12v-63h-7v51l-18 -51h-8l-18 53v-53h-7zM610 21h21l-7 18q-2 3 -2 5t-3 5q0 -4 -3 -10zM352 -5v8h11v-8h-11zM844 -5v63h8v-57h31v-6h-39zM787 -5
v63h45v-9h-37v-19h34v-8h-34v-21h37v-6h-45zM565 -5v26l-24 37h11l12 -19q3 -9 6 -11l2.5 5t4.5 6l12 19h9l-25 -37v-26h-8zM376 -5v63h24q3 0 5.5 -1.5t3.5 -1.5q6 -1 8 -6q3 -3 3 -9q0 -4 -3 -6q-2 -6 -6 -6q4 -1 9 -6q3 -6 3 -9t-1 -4.5t-1 -2.5q-1 -6 -6 -6
q-1 -3 -2.5 -3t-3.5 -2h-9h-24zM205 -5l-18 63h9l9 -42q2 -4 2 -7t1 -6q2 7 2 12l12 43h10l9 -33q2 -7 3.5 -11.5t1.5 -10.5q1 3 1 6t2 7l10 42h8l-18 -63h-8l-12 47q-1 4 -1 7q-2 -3 -2 -7l-13 -47h-8zM123 -5l-18 63h10l8 -42q0 -7 4 -13q2 7 2 12l12 43h9l10 -33
q2 -7 2.5 -11.5t0.5 -10.5q3 3 3 6t2 7l9 42h9l-18 -63h-8l-12 47q-1 4 -1 7q-3 -3 -3 -7l-14 -47h-7zM384 30h13q6 0 8 3q4 0 4 1q2 2 2 6q0 5 -2 6h-1q-2 0 -2 1t-1 1q-2 1 -9 1h-12v-19zM285 -5l-17 63h9l9 -42q2 -4 2 -7t3 -6q0 6 0.5 8t0.5 4l12 43h9l11 -33
q1 -7 2 -11.5t1 -10.5q3 3 3 6t1 7l11 42h7l-18 -63h-7l-12 47q-2 4 -2 7q-3 -3 -3 -7l-13 -47h-9zM664 28h18q3 0 5.5 1t5.5 1t3 4q1 2 1 6q0 5 -3 8q-1 1 -10 1h-20v-21zM384 1h16q3 0 5 2h4q2 3 5 4v6q0 3 -3 6q0 3 -3 3h-11h-13v-21zM435 -5v63h7v-63h-7zM985 25
q0 -13 5 -18q6 -6 16 -6q11 0 15 6q6 5 6 20q0 7 -1 12q-3 7 -8 9q-4 1 -12 1q-9 0 -13 -4q-8 -6 -8 -20zM976 25q0 17 9 24q6 9 21 9q5 0 8.5 -1.5t6.5 -2.5q5 -2 7 -5t5 -7q2 -3 2 -15q0 -14 -3 -18q-5 -8 -11 -12q-6 -3 -15 -3q-4 0 -8 0.5t-8 2.5q-3 3 -5.5 6t-3.5 6
q-2 4 -3.5 8t-1.5 8zM592 -5l24 63h9l26 -63h-9l-8 18h-25l-9 -18h-8zM459 -5v63h7v-57h29v-6h-36zM892 -5v8h11v-8h-11zM748 19v8h26v-24q-6 -6 -12 -8q-3 0 -7 -0.5t-7 -0.5q-9 0 -15 3q-4 3 -7 5t-5 7q-1 4 -2.5 8t-1.5 8q0 6 1.5 9t2.5 8q3 9 11 12l7.5 2.5t8.5 1.5
q8 0 12 -3q6 -1 8 -6q4 -4 6 -9l-8 -1q0 1 -4 6q0 3 -6 4h-8h-9q-4 -1 -7 -4q0 -2 -5 -6q0 -3 -0.5 -6t-0.5 -6q0 -11 3 -14q6 -9 7 -10q5 -2 12 -2q6 0 11 2q3 3 4.5 3t2.5 1v12h-18zM657 -5v63h27q4 0 7 -1.5t6 -1.5q5 -1 6 -6q3 -3 3 -9q0 -7 -4 -12q-2 -1 -5.5 -2
t-8.5 -4q3 0 4 -0.5t2 -0.5q2 -3 2.5 -5.5t3.5 -5.5l12 -15h-10l-9 12q-3 3 -4 5.5t-2 3.5q0 3 -1.5 3t-3.5 2h-1q-2 0 -2 0.5t-1 0.5h-3h-11v-27h-7zM505 -5v63h9v-57h30v-6h-39zM961 16l8 -1q-3 -12 -9 -15q-6 -6 -17 -6q-9 0 -15 3q-4 3 -5.5 6t-4.5 6q-3 12 -3 18t3 18
q7 7 10 9q5 1 8 2.5t7 1.5q5 0 9.5 -1.5l7.5 -2.5q3 -3 5 -6t4 -8l-9 -1q0 6 -6 9q-3 1 -11 1q-9 0 -12 -1q-3 -2 -3.5 -4t-3.5 -5q0 -3 -1 -6t-1 -6q0 -9 5 -14q0 -3 1.5 -5t2.5 -5q5 -2 12 -2q8 0 12 5q5 4 6 10zM1047 -5v63h12l15 -45q0 -3 1.5 -5t1.5 -5q0 1 3 10l13 45
h12v-63h-7v51l-18 -51h-8l-18 53v-53h-7zM175 111l12 -5q-3 -13 -13 -22q-12 -9 -26 -9q-13 0 -25 6q-12 9 -14 18q-6 10 -6 25q0 17 6 27q5 11 15 15q11 6 24 6q17 0 23 -7q10 -3 15 -20l-12 -1q-6 12 -11 13q-6 6 -15 6q-12 0 -18 -6q-9 -6 -12 -13q-1 -6 -1 -20
q0 -13 4 -19q3 -11 9 -14q8 -6 17 -6q12 0 19 8q3 3 5.5 7.5t3.5 10.5zM199 123q0 12 3 21t11 15q6 7 14 10t17 3q14 0 24 -6q9 -4 17 -16q6 -15 6 -26q0 -7 -1.5 -13t-4.5 -12q-8 -12 -18 -18q-12 -6 -23 -6q-7 0 -12.5 1.5t-11.5 4.5q-10 6 -15 18q-6 10 -6 24zM213 123
q0 -18 7 -29q11 -9 24 -9q15 0 23 12q10 11 10 27q0 6 -1.5 10.5t-2.5 9.5q-3 10 -12 13q-5 6 -17 6t-22 -10q-9 -8 -9 -30zM306 78v93h18l22 -66q5 -9 5 -14q3 3 6 15l24 65h15v-93h-12v78l-27 -78h-12l-27 79v-79h-12zM417 78v93h36h13q8 0 12 -5q2 -1 8 -9l2 -6t1 -7
q0 -9 -8 -20q-7 -7 -28 -7h-24v-39h-12zM429 126h25q14 0 15 6q6 1 6 12q0 7 -1 9q-6 6 -11 6q-1 3 -10 3h-24v-36zM505 78v93h12v-84h47v-9h-59zM579 78v93h69v-9h-57v-30h52v-12h-52v-33h58v-9h-70zM690 78v84h-32v9h77v-9h-32v-84h-13zM748 78v93h69v-9h-57v-30h53v-12
h-53v-33h59v-9h-71zM870 106l12 2q0 -8 3 -11q3 -6 10 -9q3 -1 14 -1h6.5t6.5 1q5 0 8 6q1 3 1 9q0 5 -1 8l-4 2t-5 4q-2 0 -17 3q-7 3 -11.5 3.5t-7.5 2.5q-6 3 -9 10q-3 2 -4 5t-1 6q0 9 6 15q2 3 5 4.5t7 4.5q3 1 18 1q11 0 17 -3q4 -3 7 -4.5t5 -5.5q6 -5 6 -14l-12 -1
q-3 12 -8 13q-4 5 -15 5q-15 0 -18 -5q-4 -4 -4 -10q0 -5 4 -8l18 -7q8 -2 13 -3.5t8 -2.5q5 -2 7 -4l5 -5q3 -5 3 -14q0 -10 -3 -15q-6 -6 -12 -9q-4 -1 -8.5 -2.5t-10.5 -1.5t-12 1.5t-9 2.5q-8 2 -15 12q-3 6 -3 15zM961 78v93h68v-9h-54v-30h52v-12h-52v-33h57v-9h-71z
M1074 78v84h-30v9h73v-9h-31v-84h-12zM112 190v93h38h13q3 0 12 -3q2 -1 4 -4l4 -6q3 -3 3 -11q0 -13 -9 -22q-5 -8 -27 -8h-23v-39h-15zM127 241h23q13 0 18 3q6 6 6 12q0 3 -1.5 6t-3.5 6q-4 5 -7 5q-2 1 -12 1h-23v-33zM201 190v93h67v-9h-54v-30h51v-10h-51v-32h57v-12
h-70zM288 190v93h43q14 0 20 -1q7 -3 10 -8q3 -12 3 -15q0 -10 -6 -16t-21 -9q3 -3 4.5 -3t3.5 -2q7 -7 10 -13l17 -26h-15l-14 20q-1 4 -3.5 7t-3.5 6q-3 2 -4 4t-2 2q-3 2 -6 2q-2 3 -8 3h-13v-44h-15zM303 243h24q12 0 15 1q4 5 7 6q2 3 2 9t-5 11q-4 4 -15 4h-28v-31z
M381 222h10q0 -3 1.5 -6t3.5 -6q1 -2 3.5 -4t5.5 -2q9 -3 15 -3h6t4 1q9 3 11 6q0 2 0.5 4t0.5 4q0 6 -1 7q-5 3 -11 6q-1 2 -5 2t-10 3q-13 1 -19 6q-8 6 -11 9q-1 4 -1 12q0 3 0.5 6.5t3.5 6.5q2 6 12 9q3 3 17 3q12 0 18 -3q9 -4 12 -10q6 -9 6 -14l-12 -3q-3 11 -8 14
q-6 6 -16 6q-12 0 -17 -6q-4 -3 -4 -9t4 -8q2 -3 17 -6q13 -6 22 -6q3 -3 6 -5t5 -5q4 -5 4 -14q0 -7 -4 -13q-3 -5 -5.5 -7t-5.5 -5q-12 -3 -19 -3q-11 0 -23 3q-4 3 -7 5t-6 7q-2 4 -2.5 8t-0.5 10zM468 237q0 21 12 36q13 13 33 13q6 0 11 -1.5t13 -4.5q6 -3 9 -7.5
t6 -10.5q6 -10 6 -25q0 -14 -6 -26q-6 -10 -15 -16q-12 -6 -24 -6q-14 0 -24 7q-14 8 -15 18q-6 8 -6 23zM480 237q0 -18 9 -27t24 -9t24 9q7 10 7 27q0 6 -0.5 12t-3.5 10q-5 8 -9 11q-8 6 -18 6q-8 0 -12.5 -2.5t-11.5 -6.5q-9 -9 -9 -30zM573 190v93h13l50 -72v72h12v-93
h-12l-51 74v-74h-12zM658 190l36 93h14l39 -93h-15l-11 30h-39l-12 -30h-12zM684 229h33l-9 26q-3 6 -4.5 11t-3.5 8q0 -4 -1.5 -8.5t-2.5 -9.5zM754 190v93h14v-81h46v-12h-60zM922 283h12v-52q0 -17 -3 -23q-3 -9 -10 -13q-8 -6 -23 -6t-21 6q-4 1 -7 5l-6 8q-2 3 -2 23
v52h11v-52q0 -15 3 -20q3 -6 7 -7q3 -2 6 -2.5t8 -0.5q12 0 19 4q6 6 6 26v52zM951 222h12q0 -3 1.5 -6t2.5 -6l4 -4t5 -2q9 -3 14 -3q10 0 15 1q3 2 7 6q2 2 2 8t-2 7q-3 2 -3.5 3.5t-3.5 2.5q-3 2 -7.5 2t-10.5 3q-6 1 -11.5 2t-6.5 4q-8 3 -9 9q-5 4 -5 12q0 6 5 13
q1 6 10 9q6 3 18 3h10t8 -3q9 -4 14 -10q1 -3 2.5 -7t1.5 -7l-12 -3q-3 5 -3.5 8.5t-3.5 5.5q-5 6 -17 6q-13 0 -15 -6q-6 -2 -6 -9q0 -5 3 -8t18 -6q17 -6 21 -6q5 -3 8 -5t4 -5q5 -3 5 -14q0 -9 -5 -13q-3 -5 -5 -7t-7 -5q-9 -3 -16 -3q-8 0 -13 0.5t-10 2.5q-3 3 -6.5 5
t-6.5 7q-3 4 -4.5 8t-1.5 10zM1044 190v93h67v-9h-54v-30h50v-10h-50v-32h56v-12h-69zM307 388q0 15 -22 18q-3 0 -7.5 1t-10.5 1l-9 -11l-24 -25q-6 -8 -11.5 -14t-12.5 -10q9 -3 22 -5h8.5t9.5 2q23 1 35 12q22 18 22 31zM324 433q0 6 -8 6q-3 0 -25 -7l-17 -15
q-3 -3 -6 -9l26 4q6 0 16 8q14 9 14 13zM343 460q0 -3 -4 -3q-3 0 -4 1t-4 1q-15 -3 -34 -23q3 3 6.5 4.5t6.5 3.5q11 1 20 0q6 0 6 -8v-6q-8 -13 -42 -21q27 -3 27 -18q0 -18 -29 -37q-10 -6 -21.5 -10t-23.5 -5q-19 -5 -30 -3q-9 0 -19 4q-9 -6 -17 -6h-3l-15 5h5
q12 0 19 6v1q-10 -6 -22 -6q-17 0 -26 9q-15 11 -15 32q0 6 1.5 11t4.5 13q11 22 36 39q8 7 16 9.5t16 3.5q16 0 22 -6q-7 5 -15 5q-9 0 -19 -6q-15 -6 -17 -9q-15 -8 -30 -26q-13 -21 -13 -36q0 -7 1.5 -11.5t4.5 -9.5q6 -9 16 -12q5 -1 8 -2t6 -1q6 0 10.5 1.5t10.5 4.5
q-17 12 -17 33q3 20 24 35l-3 -5q-3 0 -6 -6q-9 -9 -9 -19q0 -20 23 -33q12 7 12 9q3 4 6 7l6 6t3.5 7.5t3.5 9.5v-2q0 -7 -1 -12l18 21q46 53 76 62q-13 4 -21 4q-19 -1 -42 -13q-27 -14 -27 -33q0 -6 5 -11q1 -1 1 -3q-9 6 -9 15q0 17 20 33q24 18 51 15q9 0 27 -6h6
q7 0 12 -3h1zM346 363q-1 -6 -12 -17q-10 -6 -18 -6q-7 0 -7 9q0 8 9 20h-2q-1 -2 -6 -2l-1 2q4 0 15 10h1l5 6q4 5 4 8h5q4 0 4 -2q0 -6 -9 -16l-10 -11q-9 -13 -9 -18q0 -4 6 -4q7 0 18 15q1 1 2.5 2t4.5 4zM354 405q-6 -9 -15 -9q-5 0 -11 4h5q10 0 13 11v3l8 -3
q1 -2 0 -6zM406 433q0 -7 -46 -63h-2q-13 -16 -13 -25q0 -5 4 -5q9 0 20 15q1 2 2.5 2.5t3.5 3.5q0 -7 -12 -16q-8 -6 -17 -6q-9 1 -9 9q-1 7 30 46l18 23l9 9q5 6 8 15q4 -3 4 -8zM432 433q0 -6 -48 -63q-15 -18 -15 -25q0 -5 6 -5t19 15l6 6q-1 -7 -13 -16q-8 -6 -17 -6
q-9 1 -9 9q0 9 30 46l18 23l9 9q8 9 9 15q5 -3 5 -8zM403 333q-24 -5 -37 -18q-11 -14 -11 -17q0 -6 6 -6q2 -1 11 2l6.5 6.5l8.5 8.5zM447 430q-3 -21 -20 -37q0 -2 -0.5 -2t-0.5 -1q-5 -6 -10 -11.5t-10 -12.5q-3 -3 -3 -6q-1 3 2 9q-9 -14 -9 -21q0 -5 4 -5q2 0 8 3
q22 18 31 51v-4v-5q3 -3 3 -7q0 -3 -7 -15l-12 -20l-14 -18q5 3 17 9l-2 -1q-3 -3 -8 -7t-10 -11l-12 -15l-6 -8q-9 -9 -19 -12q-9 0 -14 6q-9 3 -3 14q2 1 3.5 4t4.5 6l1 2l-10 -2q25 18 42 20q1 0 2.5 0.5t3.5 0.5h1h3l9 14q-6 -6 -10.5 -7t-7.5 -1q-7 0 -7 8q0 18 31 46
l3 2l15 15q3 6 6 10.5t5 8.5zM618 453q-9 3 -15 3q-15 0 -28 -4t-26 -11q-6 -3 -10 -7t-8 -7q18 -1 48 -19q33 33 57 42zM649 447q-6 -2 -12.5 -4t-14.5 -10q-4 -3 -22 -21l-11 -10l15 -9q3 4 9 11t14 16zM663 472q0 -1 -2 -3q0 -10 -4 -21l1 -1h-1q-8 -18 -20 -30l-24 -29
q3 -1 4.5 -1t4.5 -2q0 -3 -1 -3q-3 0 -4.5 1t-4.5 2q-18 -19 -20 -36q-3 -6 -3 -9q0 -6 6 -6q12 0 26 20l6 9q15 21 19 37v5q0 -2 2 -3v-2q-3 -21 -15 -39l-20 -39q0 6 5 20q-18 -14 -27 -14q-14 0 -11 18q0 9 6 20.5t15 24.5l-15 8l-13 -14q-5 -6 -13 -15t-20 -24
q-24 -24 -42 -24h-5q-4 0 -13 5h3q13 -3 27 10q-12 -6 -29 -6q-16 0 -27 8h2q-15 10 -15 31q0 15 6 23q9 24 34 40q9 8 17.5 10t17.5 4q15 0 21 -6h-2q-3 3 -13 3q-15 0 -38 -14q-16 -12 -28 -25q-14 -21 -14 -38q0 -24 23 -31q9 -3 13 -3q32 1 69 42l29 30q-23 13 -51 13
h-2q-3 -6 -3 -13q2 0 8 -9q-11 6 -11 15q0 4 2 7q-15 -3 -20 -6q-27 -10 -24 -31q0 -14 9 -24l3 -3q-18 18 -18 31q0 20 18 33q15 11 38 11q21 24 52 28q8 2 24 2q8 0 23 -3l18 -5h9l1 -1q6 10 9 25h2v-3zM682 375q0 -5 -1 -8q-8 -7 -13 -13t-10 -14h2h1q-1 -1 -3 -1
q-1 0 -1 -2q-8 0 -8 3q0 6 14 20q10 13 10 16q2 5 -4 9q-18 -25 -32 -31l-6 -3l-3 1q6 0 20 15q13 12 18 20q0 1 -1 1t-1 2q0 1 11 10q0 2 1 2l2 -2q0 -1 -8 -12q12 -4 12 -13zM726 379q0 9 -6 6q-6 0 -9 -3q-5 -3 -14 -15t-9 -19q-1 -3 3 -3q9 3 15 10q6 12 6 17q0 3 -1 3
q6 0 6 -8l-2 -3q3 3 5.5 7t5.5 7v1zM754 393q-6 0 -13 -8q-6 -7 -12 -16l-14 -21q-7 -15 -13 -23.5t-8 -11.5q-19 -24 -30 -24q-9 -1 -13 6v8q0 7 6 13q-3 -1 -8 -1q15 15 33 19q2 0 2.5 1t3.5 1l2 -2q-29 -9 -35 -27q-1 -3 -1 -7q0 -2 1 -3q0 -2 2 -2q12 -1 28 23l11 15
l6 9q-5 -2 -8 -2q-12 0 -12 12q0 14 20 32q9 9 16 9q11 0 11 -12h1l8 9q7 7 13 7q5 0 8 -4h-5zM781 382q0 -9 -16 -18q-2 -1 -3 -1h-2q-4 0 -9 7q3 -3 8 -3q10 6 13 17v3v1v2q-6 0 -19 -14v-1q-5 -6 -5.5 -10t-0.5 -7q-2 2 -2 9q-3 -6 -4 -10q-3 -6 -3 -11q0 -1 1 -3
q0 -3 6 -3q15 6 26 15q3 3 7 6l-6 -8t-10 -8q-12 -8 -21 -5q0 -1 -2 0q-9 0 -9 9q0 15 17 30q9 14 24 14q3 0 4 -2q6 -4 6 -9zM841 433q0 -6 -48 -63q-13 -16 -13 -25q0 -5 4 -5q9 0 20 15q1 2 2.5 2.5t3.5 3.5q0 -7 -12 -16q-8 -6 -18 -6q-8 3 -8 9q0 12 29 46l18 23l9 9
q9 9 9 15q4 -3 4 -8zM922 387q-25 9 -27 28q-7 -4 -14.5 -8t-12.5 -8q-28 -27 -28 -50q0 -9 4 -10h3h3q23 0 42 15q6 6 14.5 13.5t15.5 19.5zM952 430h-12q-18 -1 -43 -13q3 -21 28 -26l11 14zM979 457q-19 0 -35 -3t-28 -10q8 7 19 11.5t25 7.5q-30 2 -53 -18
q-4 -3 -10 -15q10 3 20 4.5t22 0.5h7.5t11.5 -2q3 5 8.5 11t12.5 13zM1074 459q-3 -5 -7 -8.5t-11 -6.5q-12 -8 -23 -8h-3q-1 0 -3 2q2 1 2 2.5t3 4.5q-14 11 -38 11l-6 -8l-15 -18q12 -1 22.5 -2.5t19.5 -1.5q21 0 29 4q-6 -6 -23 -9q-13 -3 -27 2l-24 4q-6 -7 -11 -12.5
t-8 -11.5l-11 -15h8q37 3 43 18h2q-5 -9 -20 -16q-7 -3 -14 -4.5t-13 -1.5h-7q-11 -12 -17.5 -21t-12.5 -15q-20 -21 -36 -21q-8 1 -17 1q15 0 32 15q-21 -9 -33 -9l-9 2l12 -12q-12 6 -20 13q-1 0 -7 3q-18 14 -20 35v13t3 12q5 14 12.5 23.5t17.5 20.5q26 22 45 22
q11 0 18 -6l-1 -1q-5 4 -14 4q-19 -3 -40 -19q-18 -15 -27 -30q-12 -21 -12 -39q3 -27 24 -35q-3 9 -2 18q3 23 17 39q16 21 45 33q3 3 3 9l13 14q20 16 51 16h13t13 -1h1q11 7 19 11t17 2q6 0 9 -3l-16 -3q-3 -1 -7 -2.5t-8 -4.5q6 -2 12 -2.5t13 -3.5q15 -5 24 -5
q14 0 20 2zM982 354q-4 4 -4 10q0 3 0.5 5.5t0.5 5.5q-15 -20 -13 -29q0 -3 3 -3t13 11zM1002 385q0 3 -3 3t-6 -1q-2 -2 -5 -8q-7 -15 -7 -19q0 -5 1 -6l5 4v2v-2q1 2 1 2.5t2 2.5q3 9 3 12q0 1 -2 3q3 -6 3 -8q5 5 8 15zM1008 381q0 -8 -11 -23q-13 -13 -19 -18h-12
q-9 0 -9 8q0 12 16 31q11 14 24 14q11 0 11 -12zM1057 384q2 -3 -6 -17q-9 -12 -12 -15l-18 -16q-10 -11 -13 -23q1 18 13 32q6 6 9 10.5t6 10.5q2 1 3 6v-5l-1 -3q3 3 9 15q0 2 0.5 2.5t0.5 2.5q0 7 -7 4l-12 -9q-3 -7 -8.5 -12.5t-11.5 -12.5q-7 -9 -9 -14q-1 -1 -7 -13
q0 3 -1 6.5t1 6.5q3 11 13 21l9 11q8 10 8 16q0 2 -1 3.5t-1 2.5q9 -3 9 -9q9 8 20 8q6 -3 7 -9zM1116 405h-23q-1 -3 -9.5 -12t-20.5 -26q-3 0 -6 -7q-6 -8 -6 -15q0 -5 3 -5q8 0 21 15l2 2q1 1 1 2t2 2q0 -7 -11 -16q-7 -6 -18 -6q-7 3 -9 9q0 3 6 15l18 21l17 21l-26 3
q-6 1 -15 1h-13q-18 0 -36 -7h-2q15 15 47 15q1 0 12.5 -2.5t32.5 -5.5l4 -1q5 7 8.5 12.5t6.5 9.5q3 -1 3 -7q0 -5 -3 -8l-6 -9l12 -1h9h2h4h-7zM1126 385q0 -4 -10 -9l-2 -1q5 4 5 12v6h-5q-7 0 -9 -6q0 -3 5 -26q1 -21 -24 -21q-14 0 -17 9q-1 2 -1 5q0 12 18 15l6 -2h-3
q-6 0 -9 -3q-5 -7 -5 -10q0 -12 12 -12t12 16q0 8 -1 12q-2 5 -2 11q0 15 14 15q3 0 4.5 -1t4.5 -1q6 -3 6 -4q1 -2 1 -5z" />
    <glyph glyph-name="two" unicode="2" horiz-adv-x="1219" 
d="M876 781l-137 -124l36 -186l-160 94l-165 -94l39 181l-138 129l186 20l78 171l75 -170zM682 576l-43 258h-53l-45 -258l23 -14l19 14l9 58h39l11 -58l21 -14zM628 672h-30l14 102zM610 21h21l-7 18q-2 3 -2 5t-3 5q0 -4 -3 -10zM352 -5v8h11v-8h-11zM844 -5v63h8v-57h31
v-6h-39zM787 -5v63h45v-9h-37v-19h34v-8h-34v-21h37v-6h-45zM565 -5v26l-24 37h11l12 -19q3 -9 6 -11l2.5 5t4.5 6l12 19h9l-25 -37v-26h-8zM376 -5v63h24q3 0 5.5 -1.5t3.5 -1.5q6 -1 8 -6q3 -3 3 -9q0 -4 -3 -6q-2 -6 -6 -6q4 -1 9 -6q3 -6 3 -9t-1 -4.5t-1 -2.5
q-1 -6 -6 -6q-1 -3 -2.5 -3t-3.5 -2h-9h-24zM205 -5l-18 63h9l9 -42q2 -4 2 -7t1 -6q2 7 2 12l12 43h10l9 -33q2 -7 3.5 -11.5t1.5 -10.5q1 3 1 6t2 7l10 42h8l-18 -63h-8l-12 47q-1 4 -1 7q-2 -3 -2 -7l-13 -47h-8zM123 -5l-18 63h10l8 -42q0 -7 4 -13q2 7 2 12l12 43h9
l10 -33q2 -7 2.5 -11.5t0.5 -10.5q3 3 3 6t2 7l9 42h9l-18 -63h-8l-12 47q-1 4 -1 7q-3 -3 -3 -7l-14 -47h-7zM384 30h13q6 0 8 3q4 0 4 1q2 2 2 6q0 5 -2 6h-1q-2 0 -2 1t-1 1q-2 1 -9 1h-12v-19zM285 -5l-17 63h9l9 -42q2 -4 2 -7t3 -6q0 6 0.5 8t0.5 4l12 43h9l11 -33
q1 -7 2 -11.5t1 -10.5q3 3 3 6t1 7l11 42h7l-18 -63h-7l-12 47q-2 4 -2 7q-3 -3 -3 -7l-13 -47h-9zM664 28h18q3 0 5.5 1t5.5 1t3 4q1 2 1 6q0 5 -3 8q-1 1 -10 1h-20v-21zM384 1h16q3 0 5 2h4q2 3 5 4v6q0 3 -3 6q0 3 -3 3h-11h-13v-21zM435 -5v63h7v-63h-7zM985 25
q0 -13 5 -18q6 -6 16 -6q11 0 15 6q6 5 6 20q0 7 -1 12q-3 7 -8 9q-4 1 -12 1q-9 0 -13 -4q-8 -6 -8 -20zM976 25q0 17 9 24q6 9 21 9q5 0 8.5 -1.5t6.5 -2.5q5 -2 7 -5t5 -7q2 -3 2 -15q0 -14 -3 -18q-5 -8 -11 -12q-6 -3 -15 -3q-4 0 -8 0.5t-8 2.5q-3 3 -5.5 6t-3.5 6
q-2 4 -3.5 8t-1.5 8zM592 -5l24 63h9l26 -63h-9l-8 18h-25l-9 -18h-8zM459 -5v63h7v-57h29v-6h-36zM892 -5v8h11v-8h-11zM748 19v8h26v-24q-6 -6 -12 -8q-3 0 -7 -0.5t-7 -0.5q-9 0 -15 3q-4 3 -7 5t-5 7q-1 4 -2.5 8t-1.5 8q0 6 1.5 9t2.5 8q3 9 11 12l7.5 2.5t8.5 1.5
q8 0 12 -3q6 -1 8 -6q4 -4 6 -9l-8 -1q0 1 -4 6q0 3 -6 4h-8h-9q-4 -1 -7 -4q0 -2 -5 -6q0 -3 -0.5 -6t-0.5 -6q0 -11 3 -14q6 -9 7 -10q5 -2 12 -2q6 0 11 2q3 3 4.5 3t2.5 1v12h-18zM657 -5v63h27q4 0 7 -1.5t6 -1.5q5 -1 6 -6q3 -3 3 -9q0 -7 -4 -12q-2 -1 -5.5 -2
t-8.5 -4q3 0 4 -0.5t2 -0.5q2 -3 2.5 -5.5t3.5 -5.5l12 -15h-10l-9 12q-3 3 -4 5.5t-2 3.5q0 3 -1.5 3t-3.5 2h-1q-2 0 -2 0.5t-1 0.5h-3h-11v-27h-7zM505 -5v63h9v-57h30v-6h-39zM961 16l8 -1q-3 -12 -9 -15q-6 -6 -17 -6q-9 0 -15 3q-4 3 -5.5 6t-4.5 6q-3 12 -3 18t3 18
q7 7 10 9q5 1 8 2.5t7 1.5q5 0 9.5 -1.5l7.5 -2.5q3 -3 5 -6t4 -8l-9 -1q0 6 -6 9q-3 1 -11 1q-9 0 -12 -1q-3 -2 -3.5 -4t-3.5 -5q0 -3 -1 -6t-1 -6q0 -9 5 -14q0 -3 1.5 -5t2.5 -5q5 -2 12 -2q8 0 12 5q5 4 6 10zM1047 -5v63h12l15 -45q0 -3 1.5 -5t1.5 -5q0 1 3 10l13 45
h12v-63h-7v51l-18 -51h-8l-18 53v-53h-7zM610 21h21l-7 18q-2 3 -2 5t-3 5q0 -4 -3 -10zM352 -5v8h11v-8h-11zM844 -5v63h8v-57h31v-6h-39zM787 -5v63h45v-9h-37v-19h34v-8h-34v-21h37v-6h-45zM565 -5v26l-24 37h11l12 -19q3 -9 6 -11l2.5 5t4.5 6l12 19h9l-25 -37v-26h-8z
M376 -5v63h24q3 0 5.5 -1.5t3.5 -1.5q6 -1 8 -6q3 -3 3 -9q0 -4 -3 -6q-2 -6 -6 -6q4 -1 9 -6q3 -6 3 -9t-1 -4.5t-1 -2.5q-1 -6 -6 -6q-1 -3 -2.5 -3t-3.5 -2h-9h-24zM205 -5l-18 63h9l9 -42q2 -4 2 -7t1 -6q2 7 2 12l12 43h10l9 -33q2 -7 3.5 -11.5t1.5 -10.5q1 3 1 6t2 7
l10 42h8l-18 -63h-8l-12 47q-1 4 -1 7q-2 -3 -2 -7l-13 -47h-8zM123 -5l-18 63h10l8 -42q0 -7 4 -13q2 7 2 12l12 43h9l10 -33q2 -7 2.5 -11.5t0.5 -10.5q3 3 3 6t2 7l9 42h9l-18 -63h-8l-12 47q-1 4 -1 7q-3 -3 -3 -7l-14 -47h-7zM384 30h13q6 0 8 3q4 0 4 1q2 2 2 6
q0 5 -2 6h-1q-2 0 -2 1t-1 1q-2 1 -9 1h-12v-19zM285 -5l-17 63h9l9 -42q2 -4 2 -7t3 -6q0 6 0.5 8t0.5 4l12 43h9l11 -33q1 -7 2 -11.5t1 -10.5q3 3 3 6t1 7l11 42h7l-18 -63h-7l-12 47q-2 4 -2 7q-3 -3 -3 -7l-13 -47h-9zM664 28h18q3 0 5.5 1t5.5 1t3 4q1 2 1 6q0 5 -3 8
q-1 1 -10 1h-20v-21zM384 1h16q3 0 5 2h4q2 3 5 4v6q0 3 -3 6q0 3 -3 3h-11h-13v-21zM435 -5v63h7v-63h-7zM985 25q0 -13 5 -18q6 -6 16 -6q11 0 15 6q6 5 6 20q0 7 -1 12q-3 7 -8 9q-4 1 -12 1q-9 0 -13 -4q-8 -6 -8 -20zM976 25q0 17 9 24q6 9 21 9q5 0 8.5 -1.5t6.5 -2.5
q5 -2 7 -5t5 -7q2 -3 2 -15q0 -14 -3 -18q-5 -8 -11 -12q-6 -3 -15 -3q-4 0 -8 0.5t-8 2.5q-3 3 -5.5 6t-3.5 6q-2 4 -3.5 8t-1.5 8zM592 -5l24 63h9l26 -63h-9l-8 18h-25l-9 -18h-8zM459 -5v63h7v-57h29v-6h-36zM892 -5v8h11v-8h-11zM748 19v8h26v-24q-6 -6 -12 -8
q-3 0 -7 -0.5t-7 -0.5q-9 0 -15 3q-4 3 -7 5t-5 7q-1 4 -2.5 8t-1.5 8q0 6 1.5 9t2.5 8q3 9 11 12l7.5 2.5t8.5 1.5q8 0 12 -3q6 -1 8 -6q4 -4 6 -9l-8 -1q0 1 -4 6q0 3 -6 4h-8h-9q-4 -1 -7 -4q0 -2 -5 -6q0 -3 -0.5 -6t-0.5 -6q0 -11 3 -14q6 -9 7 -10q5 -2 12 -2
q6 0 11 2q3 3 4.5 3t2.5 1v12h-18zM657 -5v63h27q4 0 7 -1.5t6 -1.5q5 -1 6 -6q3 -3 3 -9q0 -7 -4 -12q-2 -1 -5.5 -2t-8.5 -4q3 0 4 -0.5t2 -0.5q2 -3 2.5 -5.5t3.5 -5.5l12 -15h-10l-9 12q-3 3 -4 5.5t-2 3.5q0 3 -1.5 3t-3.5 2h-1q-2 0 -2 0.5t-1 0.5h-3h-11v-27h-7z
M505 -5v63h9v-57h30v-6h-39zM961 16l8 -1q-3 -12 -9 -15q-6 -6 -17 -6q-9 0 -15 3q-4 3 -5.5 6t-4.5 6q-3 12 -3 18t3 18q7 7 10 9q5 1 8 2.5t7 1.5q5 0 9.5 -1.5l7.5 -2.5q3 -3 5 -6t4 -8l-9 -1q0 6 -6 9q-3 1 -11 1q-9 0 -12 -1q-3 -2 -3.5 -4t-3.5 -5q0 -3 -1 -6t-1 -6
q0 -9 5 -14q0 -3 1.5 -5t2.5 -5q5 -2 12 -2q8 0 12 5q5 4 6 10zM1047 -5v63h12l15 -45q0 -3 1.5 -5t1.5 -5q0 1 3 10l13 45h12v-63h-7v51l-18 -51h-8l-18 53v-53h-7zM610 21h21l-7 18q-2 3 -2 5t-3 5q0 -4 -3 -10zM352 -5v8h11v-8h-11zM844 -5v63h8v-57h31v-6h-39zM787 -5
v63h45v-9h-37v-19h34v-8h-34v-21h37v-6h-45zM565 -5v26l-24 37h11l12 -19q3 -9 6 -11l2.5 5t4.5 6l12 19h9l-25 -37v-26h-8zM376 -5v63h24q3 0 5.5 -1.5t3.5 -1.5q6 -1 8 -6q3 -3 3 -9q0 -4 -3 -6q-2 -6 -6 -6q4 -1 9 -6q3 -6 3 -9t-1 -4.5t-1 -2.5q-1 -6 -6 -6
q-1 -3 -2.5 -3t-3.5 -2h-9h-24zM205 -5l-18 63h9l9 -42q2 -4 2 -7t1 -6q2 7 2 12l12 43h10l9 -33q2 -7 3.5 -11.5t1.5 -10.5q1 3 1 6t2 7l10 42h8l-18 -63h-8l-12 47q-1 4 -1 7q-2 -3 -2 -7l-13 -47h-8zM123 -5l-18 63h10l8 -42q0 -7 4 -13q2 7 2 12l12 43h9l10 -33
q2 -7 2.5 -11.5t0.5 -10.5q3 3 3 6t2 7l9 42h9l-18 -63h-8l-12 47q-1 4 -1 7q-3 -3 -3 -7l-14 -47h-7zM384 30h13q6 0 8 3q4 0 4 1q2 2 2 6q0 5 -2 6h-1q-2 0 -2 1t-1 1q-2 1 -9 1h-12v-19zM285 -5l-17 63h9l9 -42q2 -4 2 -7t3 -6q0 6 0.5 8t0.5 4l12 43h9l11 -33
q1 -7 2 -11.5t1 -10.5q3 3 3 6t1 7l11 42h7l-18 -63h-7l-12 47q-2 4 -2 7q-3 -3 -3 -7l-13 -47h-9zM664 28h18q3 0 5.5 1t5.5 1t3 4q1 2 1 6q0 5 -3 8q-1 1 -10 1h-20v-21zM384 1h16q3 0 5 2h4q2 3 5 4v6q0 3 -3 6q0 3 -3 3h-11h-13v-21zM435 -5v63h7v-63h-7zM985 25
q0 -13 5 -18q6 -6 16 -6q11 0 15 6q6 5 6 20q0 7 -1 12q-3 7 -8 9q-4 1 -12 1q-9 0 -13 -4q-8 -6 -8 -20zM976 25q0 17 9 24q6 9 21 9q5 0 8.5 -1.5t6.5 -2.5q5 -2 7 -5t5 -7q2 -3 2 -15q0 -14 -3 -18q-5 -8 -11 -12q-6 -3 -15 -3q-4 0 -8 0.5t-8 2.5q-3 3 -5.5 6t-3.5 6
q-2 4 -3.5 8t-1.5 8zM592 -5l24 63h9l26 -63h-9l-8 18h-25l-9 -18h-8zM459 -5v63h7v-57h29v-6h-36zM892 -5v8h11v-8h-11zM748 19v8h26v-24q-6 -6 -12 -8q-3 0 -7 -0.5t-7 -0.5q-9 0 -15 3q-4 3 -7 5t-5 7q-1 4 -2.5 8t-1.5 8q0 6 1.5 9t2.5 8q3 9 11 12l7.5 2.5t8.5 1.5
q8 0 12 -3q6 -1 8 -6q4 -4 6 -9l-8 -1q0 1 -4 6q0 3 -6 4h-8h-9q-4 -1 -7 -4q0 -2 -5 -6q0 -3 -0.5 -6t-0.5 -6q0 -11 3 -14q6 -9 7 -10q5 -2 12 -2q6 0 11 2q3 3 4.5 3t2.5 1v12h-18zM657 -5v63h27q4 0 7 -1.5t6 -1.5q5 -1 6 -6q3 -3 3 -9q0 -7 -4 -12q-2 -1 -5.5 -2
t-8.5 -4q3 0 4 -0.5t2 -0.5q2 -3 2.5 -5.5t3.5 -5.5l12 -15h-10l-9 12q-3 3 -4 5.5t-2 3.5q0 3 -1.5 3t-3.5 2h-1q-2 0 -2 0.5t-1 0.5h-3h-11v-27h-7zM505 -5v63h9v-57h30v-6h-39zM961 16l8 -1q-3 -12 -9 -15q-6 -6 -17 -6q-9 0 -15 3q-4 3 -5.5 6t-4.5 6q-3 12 -3 18t3 18
q7 7 10 9q5 1 8 2.5t7 1.5q5 0 9.5 -1.5l7.5 -2.5q3 -3 5 -6t4 -8l-9 -1q0 6 -6 9q-3 1 -11 1q-9 0 -12 -1q-3 -2 -3.5 -4t-3.5 -5q0 -3 -1 -6t-1 -6q0 -9 5 -14q0 -3 1.5 -5t2.5 -5q5 -2 12 -2q8 0 12 5q5 4 6 10zM1047 -5v63h12l15 -45q0 -3 1.5 -5t1.5 -5q0 1 3 10l13 45
h12v-63h-7v51l-18 -51h-8l-18 53v-53h-7zM175 111l12 -5q-3 -13 -13 -22q-12 -9 -26 -9q-13 0 -25 6q-12 9 -14 18q-6 10 -6 25q0 17 6 27q5 11 15 15q11 6 24 6q17 0 23 -7q10 -3 15 -20l-12 -1q-6 12 -11 13q-6 6 -15 6q-12 0 -18 -6q-9 -6 -12 -13q-1 -6 -1 -20
q0 -13 4 -19q3 -11 9 -14q8 -6 17 -6q12 0 19 8q3 3 5.5 7.5t3.5 10.5zM199 123q0 12 3 21t11 15q6 7 14 10t17 3q14 0 24 -6q9 -4 17 -16q6 -15 6 -26q0 -7 -1.5 -13t-4.5 -12q-8 -12 -18 -18q-12 -6 -23 -6q-7 0 -12.5 1.5t-11.5 4.5q-10 6 -15 18q-6 10 -6 24zM213 123
q0 -18 7 -29q11 -9 24 -9q15 0 23 12q10 11 10 27q0 6 -1.5 10.5t-2.5 9.5q-3 10 -12 13q-5 6 -17 6t-22 -10q-9 -8 -9 -30zM306 78v93h18l22 -66q5 -9 5 -14q3 3 6 15l24 65h15v-93h-12v78l-27 -78h-12l-27 79v-79h-12zM417 78v93h36h13q8 0 12 -5q2 -1 8 -9l2 -6t1 -7
q0 -9 -8 -20q-7 -7 -28 -7h-24v-39h-12zM429 126h25q14 0 15 6q6 1 6 12q0 7 -1 9q-6 6 -11 6q-1 3 -10 3h-24v-36zM505 78v93h12v-84h47v-9h-59zM579 78v93h69v-9h-57v-30h52v-12h-52v-33h58v-9h-70zM690 78v84h-32v9h77v-9h-32v-84h-13zM748 78v93h69v-9h-57v-30h53v-12
h-53v-33h59v-9h-71zM870 106l12 2q0 -8 3 -11q3 -6 10 -9q3 -1 14 -1h6.5t6.5 1q5 0 8 6q1 3 1 9q0 5 -1 8l-4 2t-5 4q-2 0 -17 3q-7 3 -11.5 3.5t-7.5 2.5q-6 3 -9 10q-3 2 -4 5t-1 6q0 9 6 15q2 3 5 4.5t7 4.5q3 1 18 1q11 0 17 -3q4 -3 7 -4.5t5 -5.5q6 -5 6 -14l-12 -1
q-3 12 -8 13q-4 5 -15 5q-15 0 -18 -5q-4 -4 -4 -10q0 -5 4 -8l18 -7q8 -2 13 -3.5t8 -2.5q5 -2 7 -4l5 -5q3 -5 3 -14q0 -10 -3 -15q-6 -6 -12 -9q-4 -1 -8.5 -2.5t-10.5 -1.5t-12 1.5t-9 2.5q-8 2 -15 12q-3 6 -3 15zM961 78v93h68v-9h-54v-30h52v-12h-52v-33h57v-9h-71z
M1074 78v84h-30v9h73v-9h-31v-84h-12zM112 190v93h38h13q3 0 12 -3q2 -1 4 -4l4 -6q3 -3 3 -11q0 -13 -9 -22q-5 -8 -27 -8h-23v-39h-15zM127 241h23q13 0 18 3q6 6 6 12q0 3 -1.5 6t-3.5 6q-4 5 -7 5q-2 1 -12 1h-23v-33zM201 190v93h67v-9h-54v-30h51v-10h-51v-32h57v-12
h-70zM288 190v93h43q14 0 20 -1q7 -3 10 -8q3 -12 3 -15q0 -10 -6 -16t-21 -9q3 -3 4.5 -3t3.5 -2q7 -7 10 -13l17 -26h-15l-14 20q-1 4 -3.5 7t-3.5 6q-3 2 -4 4t-2 2q-3 2 -6 2q-2 3 -8 3h-13v-44h-15zM303 243h24q12 0 15 1q4 5 7 6q2 3 2 9t-5 11q-4 4 -15 4h-28v-31z
M381 222h10q0 -3 1.5 -6t3.5 -6q1 -2 3.5 -4t5.5 -2q9 -3 15 -3h6t4 1q9 3 11 6q0 2 0.5 4t0.5 4q0 6 -1 7q-5 3 -11 6q-1 2 -5 2t-10 3q-13 1 -19 6q-8 6 -11 9q-1 4 -1 12q0 3 0.5 6.5t3.5 6.5q2 6 12 9q3 3 17 3q12 0 18 -3q9 -4 12 -10q6 -9 6 -14l-12 -3q-3 11 -8 14
q-6 6 -16 6q-12 0 -17 -6q-4 -3 -4 -9t4 -8q2 -3 17 -6q13 -6 22 -6q3 -3 6 -5t5 -5q4 -5 4 -14q0 -7 -4 -13q-3 -5 -5.5 -7t-5.5 -5q-12 -3 -19 -3q-11 0 -23 3q-4 3 -7 5t-6 7q-2 4 -2.5 8t-0.5 10zM468 237q0 21 12 36q13 13 33 13q6 0 11 -1.5t13 -4.5q6 -3 9 -7.5
t6 -10.5q6 -10 6 -25q0 -14 -6 -26q-6 -10 -15 -16q-12 -6 -24 -6q-14 0 -24 7q-14 8 -15 18q-6 8 -6 23zM480 237q0 -18 9 -27t24 -9t24 9q7 10 7 27q0 6 -0.5 12t-3.5 10q-5 8 -9 11q-8 6 -18 6q-8 0 -12.5 -2.5t-11.5 -6.5q-9 -9 -9 -30zM573 190v93h13l50 -72v72h12v-93
h-12l-51 74v-74h-12zM658 190l36 93h14l39 -93h-15l-11 30h-39l-12 -30h-12zM684 229h33l-9 26q-3 6 -4.5 11t-3.5 8q0 -4 -1.5 -8.5t-2.5 -9.5zM754 190v93h14v-81h46v-12h-60zM922 283h12v-52q0 -17 -3 -23q-3 -9 -10 -13q-8 -6 -23 -6t-21 6q-4 1 -7 5l-6 8q-2 3 -2 23
v52h11v-52q0 -15 3 -20q3 -6 7 -7q3 -2 6 -2.5t8 -0.5q12 0 19 4q6 6 6 26v52zM951 222h12q0 -3 1.5 -6t2.5 -6l4 -4t5 -2q9 -3 14 -3q10 0 15 1q3 2 7 6q2 2 2 8t-2 7q-3 2 -3.5 3.5t-3.5 2.5q-3 2 -7.5 2t-10.5 3q-6 1 -11.5 2t-6.5 4q-8 3 -9 9q-5 4 -5 12q0 6 5 13
q1 6 10 9q6 3 18 3h10t8 -3q9 -4 14 -10q1 -3 2.5 -7t1.5 -7l-12 -3q-3 5 -3.5 8.5t-3.5 5.5q-5 6 -17 6q-13 0 -15 -6q-6 -2 -6 -9q0 -5 3 -8t18 -6q17 -6 21 -6q5 -3 8 -5t4 -5q5 -3 5 -14q0 -9 -5 -13q-3 -5 -5 -7t-7 -5q-9 -3 -16 -3q-8 0 -13 0.5t-10 2.5q-3 3 -6.5 5
t-6.5 7q-3 4 -4.5 8t-1.5 10zM1044 190v93h67v-9h-54v-30h50v-10h-50v-32h56v-12h-69zM307 388q0 15 -22 18q-3 0 -7.5 1t-10.5 1l-9 -11l-24 -25q-6 -8 -11.5 -14t-12.5 -10q9 -3 22 -5h8.5t9.5 2q23 1 35 12q22 18 22 31zM324 433q0 6 -8 6q-3 0 -25 -7l-17 -15
q-3 -3 -6 -9l26 4q6 0 16 8q14 9 14 13zM343 460q0 -3 -4 -3q-3 0 -4 1t-4 1q-15 -3 -34 -23q3 3 6.5 4.5t6.5 3.5q11 1 20 0q6 0 6 -8v-6q-8 -13 -42 -21q27 -3 27 -18q0 -18 -29 -37q-10 -6 -21.5 -10t-23.5 -5q-19 -5 -30 -3q-9 0 -19 4q-9 -6 -17 -6h-3l-15 5h5
q12 0 19 6v1q-10 -6 -22 -6q-17 0 -26 9q-15 11 -15 32q0 6 1.5 11t4.5 13q11 22 36 39q8 7 16 9.5t16 3.5q16 0 22 -6q-7 5 -15 5q-9 0 -19 -6q-15 -6 -17 -9q-15 -8 -30 -26q-13 -21 -13 -36q0 -7 1.5 -11.5t4.5 -9.5q6 -9 16 -12q5 -1 8 -2t6 -1q6 0 10.5 1.5t10.5 4.5
q-17 12 -17 33q3 20 24 35l-3 -5q-3 0 -6 -6q-9 -9 -9 -19q0 -20 23 -33q12 7 12 9q3 4 6 7l6 6t3.5 7.5t3.5 9.5v-2q0 -7 -1 -12l18 21q46 53 76 62q-13 4 -21 4q-19 -1 -42 -13q-27 -14 -27 -33q0 -6 5 -11q1 -1 1 -3q-9 6 -9 15q0 17 20 33q24 18 51 15q9 0 27 -6h6
q7 0 12 -3h1zM346 363q-1 -6 -12 -17q-10 -6 -18 -6q-7 0 -7 9q0 8 9 20h-2q-1 -2 -6 -2l-1 2q4 0 15 10h1l5 6q4 5 4 8h5q4 0 4 -2q0 -6 -9 -16l-10 -11q-9 -13 -9 -18q0 -4 6 -4q7 0 18 15q1 1 2.5 2t4.5 4zM354 405q-6 -9 -15 -9q-5 0 -11 4h5q10 0 13 11v3l8 -3
q1 -2 0 -6zM406 433q0 -7 -46 -63h-2q-13 -16 -13 -25q0 -5 4 -5q9 0 20 15q1 2 2.5 2.5t3.5 3.5q0 -7 -12 -16q-8 -6 -17 -6q-9 1 -9 9q-1 7 30 46l18 23l9 9q5 6 8 15q4 -3 4 -8zM432 433q0 -6 -48 -63q-15 -18 -15 -25q0 -5 6 -5t19 15l6 6q-1 -7 -13 -16q-8 -6 -17 -6
q-9 1 -9 9q0 9 30 46l18 23l9 9q8 9 9 15q5 -3 5 -8zM403 333q-24 -5 -37 -18q-11 -14 -11 -17q0 -6 6 -6q2 -1 11 2l6.5 6.5l8.5 8.5zM447 430q-3 -21 -20 -37q0 -2 -0.5 -2t-0.5 -1q-5 -6 -10 -11.5t-10 -12.5q-3 -3 -3 -6q-1 3 2 9q-9 -14 -9 -21q0 -5 4 -5q2 0 8 3
q22 18 31 51v-4v-5q3 -3 3 -7q0 -3 -7 -15l-12 -20l-14 -18q5 3 17 9l-2 -1q-3 -3 -8 -7t-10 -11l-12 -15l-6 -8q-9 -9 -19 -12q-9 0 -14 6q-9 3 -3 14q2 1 3.5 4t4.5 6l1 2l-10 -2q25 18 42 20q1 0 2.5 0.5t3.5 0.5h1h3l9 14q-6 -6 -10.5 -7t-7.5 -1q-7 0 -7 8q0 18 31 46
l3 2l15 15q3 6 6 10.5t5 8.5zM618 453q-9 3 -15 3q-15 0 -28 -4t-26 -11q-6 -3 -10 -7t-8 -7q18 -1 48 -19q33 33 57 42zM649 447q-6 -2 -12.5 -4t-14.5 -10q-4 -3 -22 -21l-11 -10l15 -9q3 4 9 11t14 16zM663 472q0 -1 -2 -3q0 -10 -4 -21l1 -1h-1q-8 -18 -20 -30l-24 -29
q3 -1 4.5 -1t4.5 -2q0 -3 -1 -3q-3 0 -4.5 1t-4.5 2q-18 -19 -20 -36q-3 -6 -3 -9q0 -6 6 -6q12 0 26 20l6 9q15 21 19 37v5q0 -2 2 -3v-2q-3 -21 -15 -39l-20 -39q0 6 5 20q-18 -14 -27 -14q-14 0 -11 18q0 9 6 20.5t15 24.5l-15 8l-13 -14q-5 -6 -13 -15t-20 -24
q-24 -24 -42 -24h-5q-4 0 -13 5h3q13 -3 27 10q-12 -6 -29 -6q-16 0 -27 8h2q-15 10 -15 31q0 15 6 23q9 24 34 40q9 8 17.5 10t17.5 4q15 0 21 -6h-2q-3 3 -13 3q-15 0 -38 -14q-16 -12 -28 -25q-14 -21 -14 -38q0 -24 23 -31q9 -3 13 -3q32 1 69 42l29 30q-23 13 -51 13
h-2q-3 -6 -3 -13q2 0 8 -9q-11 6 -11 15q0 4 2 7q-15 -3 -20 -6q-27 -10 -24 -31q0 -14 9 -24l3 -3q-18 18 -18 31q0 20 18 33q15 11 38 11q21 24 52 28q8 2 24 2q8 0 23 -3l18 -5h9l1 -1q6 10 9 25h2v-3zM682 375q0 -5 -1 -8q-8 -7 -13 -13t-10 -14h2h1q-1 -1 -3 -1
q-1 0 -1 -2q-8 0 -8 3q0 6 14 20q10 13 10 16q2 5 -4 9q-18 -25 -32 -31l-6 -3l-3 1q6 0 20 15q13 12 18 20q0 1 -1 1t-1 2q0 1 11 10q0 2 1 2l2 -2q0 -1 -8 -12q12 -4 12 -13zM726 379q0 9 -6 6q-6 0 -9 -3q-5 -3 -14 -15t-9 -19q-1 -3 3 -3q9 3 15 10q6 12 6 17q0 3 -1 3
q6 0 6 -8l-2 -3q3 3 5.5 7t5.5 7v1zM754 393q-6 0 -13 -8q-6 -7 -12 -16l-14 -21q-7 -15 -13 -23.5t-8 -11.5q-19 -24 -30 -24q-9 -1 -13 6v8q0 7 6 13q-3 -1 -8 -1q15 15 33 19q2 0 2.5 1t3.5 1l2 -2q-29 -9 -35 -27q-1 -3 -1 -7q0 -2 1 -3q0 -2 2 -2q12 -1 28 23l11 15
l6 9q-5 -2 -8 -2q-12 0 -12 12q0 14 20 32q9 9 16 9q11 0 11 -12h1l8 9q7 7 13 7q5 0 8 -4h-5zM781 382q0 -9 -16 -18q-2 -1 -3 -1h-2q-4 0 -9 7q3 -3 8 -3q10 6 13 17v3v1v2q-6 0 -19 -14v-1q-5 -6 -5.5 -10t-0.5 -7q-2 2 -2 9q-3 -6 -4 -10q-3 -6 -3 -11q0 -1 1 -3
q0 -3 6 -3q15 6 26 15q3 3 7 6l-6 -8t-10 -8q-12 -8 -21 -5q0 -1 -2 0q-9 0 -9 9q0 15 17 30q9 14 24 14q3 0 4 -2q6 -4 6 -9zM841 433q0 -6 -48 -63q-13 -16 -13 -25q0 -5 4 -5q9 0 20 15q1 2 2.5 2.5t3.5 3.5q0 -7 -12 -16q-8 -6 -18 -6q-8 3 -8 9q0 12 29 46l18 23l9 9
q9 9 9 15q4 -3 4 -8zM922 387q-25 9 -27 28q-7 -4 -14.5 -8t-12.5 -8q-28 -27 -28 -50q0 -9 4 -10h3h3q23 0 42 15q6 6 14.5 13.5t15.5 19.5zM952 430h-12q-18 -1 -43 -13q3 -21 28 -26l11 14zM979 457q-19 0 -35 -3t-28 -10q8 7 19 11.5t25 7.5q-30 2 -53 -18
q-4 -3 -10 -15q10 3 20 4.5t22 0.5h7.5t11.5 -2q3 5 8.5 11t12.5 13zM1074 459q-3 -5 -7 -8.5t-11 -6.5q-12 -8 -23 -8h-3q-1 0 -3 2q2 1 2 2.5t3 4.5q-14 11 -38 11l-6 -8l-15 -18q12 -1 22.5 -2.5t19.5 -1.5q21 0 29 4q-6 -6 -23 -9q-13 -3 -27 2l-24 4q-6 -7 -11 -12.5
t-8 -11.5l-11 -15h8q37 3 43 18h2q-5 -9 -20 -16q-7 -3 -14 -4.5t-13 -1.5h-7q-11 -12 -17.5 -21t-12.5 -15q-20 -21 -36 -21q-8 1 -17 1q15 0 32 15q-21 -9 -33 -9l-9 2l12 -12q-12 6 -20 13q-1 0 -7 3q-18 14 -20 35v13t3 12q5 14 12.5 23.5t17.5 20.5q26 22 45 22
q11 0 18 -6l-1 -1q-5 4 -14 4q-19 -3 -40 -19q-18 -15 -27 -30q-12 -21 -12 -39q3 -27 24 -35q-3 9 -2 18q3 23 17 39q16 21 45 33q3 3 3 9l13 14q20 16 51 16h13t13 -1h1q11 7 19 11t17 2q6 0 9 -3l-16 -3q-3 -1 -7 -2.5t-8 -4.5q6 -2 12 -2.5t13 -3.5q15 -5 24 -5
q14 0 20 2zM982 354q-4 4 -4 10q0 3 0.5 5.5t0.5 5.5q-15 -20 -13 -29q0 -3 3 -3t13 11zM1002 385q0 3 -3 3t-6 -1q-2 -2 -5 -8q-7 -15 -7 -19q0 -5 1 -6l5 4v2v-2q1 2 1 2.5t2 2.5q3 9 3 12q0 1 -2 3q3 -6 3 -8q5 5 8 15zM1008 381q0 -8 -11 -23q-13 -13 -19 -18h-12
q-9 0 -9 8q0 12 16 31q11 14 24 14q11 0 11 -12zM1057 384q2 -3 -6 -17q-9 -12 -12 -15l-18 -16q-10 -11 -13 -23q1 18 13 32q6 6 9 10.5t6 10.5q2 1 3 6v-5l-1 -3q3 3 9 15q0 2 0.5 2.5t0.5 2.5q0 7 -7 4l-12 -9q-3 -7 -8.5 -12.5t-11.5 -12.5q-7 -9 -9 -14q-1 -1 -7 -13
q0 3 -1 6.5t1 6.5q3 11 13 21l9 11q8 10 8 16q0 2 -1 3.5t-1 2.5q9 -3 9 -9q9 8 20 8q6 -3 7 -9zM1116 405h-23q-1 -3 -9.5 -12t-20.5 -26q-3 0 -6 -7q-6 -8 -6 -15q0 -5 3 -5q8 0 21 15l2 2q1 1 1 2t2 2q0 -7 -11 -16q-7 -6 -18 -6q-7 3 -9 9q0 3 6 15l18 21l17 21l-26 3
q-6 1 -15 1h-13q-18 0 -36 -7h-2q15 15 47 15q1 0 12.5 -2.5t32.5 -5.5l4 -1q5 7 8.5 12.5t6.5 9.5q3 -1 3 -7q0 -5 -3 -8l-6 -9l12 -1h9h2h4h-7zM1126 385q0 -4 -10 -9l-2 -1q5 4 5 12v6h-5q-7 0 -9 -6q0 -3 5 -26q1 -21 -24 -21q-14 0 -17 9q-1 2 -1 5q0 12 18 15l6 -2h-3
q-6 0 -9 -3q-5 -7 -5 -10q0 -12 12 -12t12 16q0 8 -1 12q-2 5 -2 11q0 15 14 15q3 0 4.5 -1t4.5 -1q6 -3 6 -4q1 -2 1 -5z" />
    <glyph glyph-name="three" unicode="3" horiz-adv-x="1219" 
d="M876 781l-137 -124l36 -186l-160 94l-165 -94l39 181l-138 129l186 20l78 171l75 -170zM682 576l-43 258h-53l-45 -258l23 -14l19 14l9 58h39l11 -58l21 -14zM628 672h-30l14 102zM610 21h21l-7 18q-2 3 -2 5t-3 5q0 -4 -3 -10zM352 -5v8h11v-8h-11zM844 -5v63h8v-57h31
v-6h-39zM787 -5v63h45v-9h-37v-19h34v-8h-34v-21h37v-6h-45zM565 -5v26l-24 37h11l12 -19q3 -9 6 -11l2.5 5t4.5 6l12 19h9l-25 -37v-26h-8zM376 -5v63h24q3 0 5.5 -1.5t3.5 -1.5q6 -1 8 -6q3 -3 3 -9q0 -4 -3 -6q-2 -6 -6 -6q4 -1 9 -6q3 -6 3 -9t-1 -4.5t-1 -2.5
q-1 -6 -6 -6q-1 -3 -2.5 -3t-3.5 -2h-9h-24zM205 -5l-18 63h9l9 -42q2 -4 2 -7t1 -6q2 7 2 12l12 43h10l9 -33q2 -7 3.5 -11.5t1.5 -10.5q1 3 1 6t2 7l10 42h8l-18 -63h-8l-12 47q-1 4 -1 7q-2 -3 -2 -7l-13 -47h-8zM123 -5l-18 63h10l8 -42q0 -7 4 -13q2 7 2 12l12 43h9
l10 -33q2 -7 2.5 -11.5t0.5 -10.5q3 3 3 6t2 7l9 42h9l-18 -63h-8l-12 47q-1 4 -1 7q-3 -3 -3 -7l-14 -47h-7zM384 30h13q6 0 8 3q4 0 4 1q2 2 2 6q0 5 -2 6h-1q-2 0 -2 1t-1 1q-2 1 -9 1h-12v-19zM285 -5l-17 63h9l9 -42q2 -4 2 -7t3 -6q0 6 0.5 8t0.5 4l12 43h9l11 -33
q1 -7 2 -11.5t1 -10.5q3 3 3 6t1 7l11 42h7l-18 -63h-7l-12 47q-2 4 -2 7q-3 -3 -3 -7l-13 -47h-9zM664 28h18q3 0 5.5 1t5.5 1t3 4q1 2 1 6q0 5 -3 8q-1 1 -10 1h-20v-21zM384 1h16q3 0 5 2h4q2 3 5 4v6q0 3 -3 6q0 3 -3 3h-11h-13v-21zM435 -5v63h7v-63h-7zM985 25
q0 -13 5 -18q6 -6 16 -6q11 0 15 6q6 5 6 20q0 7 -1 12q-3 7 -8 9q-4 1 -12 1q-9 0 -13 -4q-8 -6 -8 -20zM976 25q0 17 9 24q6 9 21 9q5 0 8.5 -1.5t6.5 -2.5q5 -2 7 -5t5 -7q2 -3 2 -15q0 -14 -3 -18q-5 -8 -11 -12q-6 -3 -15 -3q-4 0 -8 0.5t-8 2.5q-3 3 -5.5 6t-3.5 6
q-2 4 -3.5 8t-1.5 8zM592 -5l24 63h9l26 -63h-9l-8 18h-25l-9 -18h-8zM459 -5v63h7v-57h29v-6h-36zM892 -5v8h11v-8h-11zM748 19v8h26v-24q-6 -6 -12 -8q-3 0 -7 -0.5t-7 -0.5q-9 0 -15 3q-4 3 -7 5t-5 7q-1 4 -2.5 8t-1.5 8q0 6 1.5 9t2.5 8q3 9 11 12l7.5 2.5t8.5 1.5
q8 0 12 -3q6 -1 8 -6q4 -4 6 -9l-8 -1q0 1 -4 6q0 3 -6 4h-8h-9q-4 -1 -7 -4q0 -2 -5 -6q0 -3 -0.5 -6t-0.5 -6q0 -11 3 -14q6 -9 7 -10q5 -2 12 -2q6 0 11 2q3 3 4.5 3t2.5 1v12h-18zM657 -5v63h27q4 0 7 -1.5t6 -1.5q5 -1 6 -6q3 -3 3 -9q0 -7 -4 -12q-2 -1 -5.5 -2
t-8.5 -4q3 0 4 -0.5t2 -0.5q2 -3 2.5 -5.5t3.5 -5.5l12 -15h-10l-9 12q-3 3 -4 5.5t-2 3.5q0 3 -1.5 3t-3.5 2h-1q-2 0 -2 0.5t-1 0.5h-3h-11v-27h-7zM505 -5v63h9v-57h30v-6h-39zM961 16l8 -1q-3 -12 -9 -15q-6 -6 -17 -6q-9 0 -15 3q-4 3 -5.5 6t-4.5 6q-3 12 -3 18t3 18
q7 7 10 9q5 1 8 2.5t7 1.5q5 0 9.5 -1.5l7.5 -2.5q3 -3 5 -6t4 -8l-9 -1q0 6 -6 9q-3 1 -11 1q-9 0 -12 -1q-3 -2 -3.5 -4t-3.5 -5q0 -3 -1 -6t-1 -6q0 -9 5 -14q0 -3 1.5 -5t2.5 -5q5 -2 12 -2q8 0 12 5q5 4 6 10zM1047 -5v63h12l15 -45q0 -3 1.5 -5t1.5 -5q0 1 3 10l13 45
h12v-63h-7v51l-18 -51h-8l-18 53v-53h-7zM610 21h21l-7 18q-2 3 -2 5t-3 5q0 -4 -3 -10zM352 -5v8h11v-8h-11zM844 -5v63h8v-57h31v-6h-39zM787 -5v63h45v-9h-37v-19h34v-8h-34v-21h37v-6h-45zM565 -5v26l-24 37h11l12 -19q3 -9 6 -11l2.5 5t4.5 6l12 19h9l-25 -37v-26h-8z
M376 -5v63h24q3 0 5.5 -1.5t3.5 -1.5q6 -1 8 -6q3 -3 3 -9q0 -4 -3 -6q-2 -6 -6 -6q4 -1 9 -6q3 -6 3 -9t-1 -4.5t-1 -2.5q-1 -6 -6 -6q-1 -3 -2.5 -3t-3.5 -2h-9h-24zM205 -5l-18 63h9l9 -42q2 -4 2 -7t1 -6q2 7 2 12l12 43h10l9 -33q2 -7 3.5 -11.5t1.5 -10.5q1 3 1 6t2 7
l10 42h8l-18 -63h-8l-12 47q-1 4 -1 7q-2 -3 -2 -7l-13 -47h-8zM123 -5l-18 63h10l8 -42q0 -7 4 -13q2 7 2 12l12 43h9l10 -33q2 -7 2.5 -11.5t0.5 -10.5q3 3 3 6t2 7l9 42h9l-18 -63h-8l-12 47q-1 4 -1 7q-3 -3 -3 -7l-14 -47h-7zM384 30h13q6 0 8 3q4 0 4 1q2 2 2 6
q0 5 -2 6h-1q-2 0 -2 1t-1 1q-2 1 -9 1h-12v-19zM285 -5l-17 63h9l9 -42q2 -4 2 -7t3 -6q0 6 0.5 8t0.5 4l12 43h9l11 -33q1 -7 2 -11.5t1 -10.5q3 3 3 6t1 7l11 42h7l-18 -63h-7l-12 47q-2 4 -2 7q-3 -3 -3 -7l-13 -47h-9zM664 28h18q3 0 5.5 1t5.5 1t3 4q1 2 1 6q0 5 -3 8
q-1 1 -10 1h-20v-21zM384 1h16q3 0 5 2h4q2 3 5 4v6q0 3 -3 6q0 3 -3 3h-11h-13v-21zM435 -5v63h7v-63h-7zM985 25q0 -13 5 -18q6 -6 16 -6q11 0 15 6q6 5 6 20q0 7 -1 12q-3 7 -8 9q-4 1 -12 1q-9 0 -13 -4q-8 -6 -8 -20zM976 25q0 17 9 24q6 9 21 9q5 0 8.5 -1.5t6.5 -2.5
q5 -2 7 -5t5 -7q2 -3 2 -15q0 -14 -3 -18q-5 -8 -11 -12q-6 -3 -15 -3q-4 0 -8 0.5t-8 2.5q-3 3 -5.5 6t-3.5 6q-2 4 -3.5 8t-1.5 8zM592 -5l24 63h9l26 -63h-9l-8 18h-25l-9 -18h-8zM459 -5v63h7v-57h29v-6h-36zM892 -5v8h11v-8h-11zM748 19v8h26v-24q-6 -6 -12 -8
q-3 0 -7 -0.5t-7 -0.5q-9 0 -15 3q-4 3 -7 5t-5 7q-1 4 -2.5 8t-1.5 8q0 6 1.5 9t2.5 8q3 9 11 12l7.5 2.5t8.5 1.5q8 0 12 -3q6 -1 8 -6q4 -4 6 -9l-8 -1q0 1 -4 6q0 3 -6 4h-8h-9q-4 -1 -7 -4q0 -2 -5 -6q0 -3 -0.5 -6t-0.5 -6q0 -11 3 -14q6 -9 7 -10q5 -2 12 -2
q6 0 11 2q3 3 4.5 3t2.5 1v12h-18zM657 -5v63h27q4 0 7 -1.5t6 -1.5q5 -1 6 -6q3 -3 3 -9q0 -7 -4 -12q-2 -1 -5.5 -2t-8.5 -4q3 0 4 -0.5t2 -0.5q2 -3 2.5 -5.5t3.5 -5.5l12 -15h-10l-9 12q-3 3 -4 5.5t-2 3.5q0 3 -1.5 3t-3.5 2h-1q-2 0 -2 0.5t-1 0.5h-3h-11v-27h-7z
M505 -5v63h9v-57h30v-6h-39zM961 16l8 -1q-3 -12 -9 -15q-6 -6 -17 -6q-9 0 -15 3q-4 3 -5.5 6t-4.5 6q-3 12 -3 18t3 18q7 7 10 9q5 1 8 2.5t7 1.5q5 0 9.5 -1.5l7.5 -2.5q3 -3 5 -6t4 -8l-9 -1q0 6 -6 9q-3 1 -11 1q-9 0 -12 -1q-3 -2 -3.5 -4t-3.5 -5q0 -3 -1 -6t-1 -6
q0 -9 5 -14q0 -3 1.5 -5t2.5 -5q5 -2 12 -2q8 0 12 5q5 4 6 10zM1047 -5v63h12l15 -45q0 -3 1.5 -5t1.5 -5q0 1 3 10l13 45h12v-63h-7v51l-18 -51h-8l-18 53v-53h-7zM610 21h21l-7 18q-2 3 -2 5t-3 5q0 -4 -3 -10zM352 -5v8h11v-8h-11zM844 -5v63h8v-57h31v-6h-39zM787 -5
v63h45v-9h-37v-19h34v-8h-34v-21h37v-6h-45zM565 -5v26l-24 37h11l12 -19q3 -9 6 -11l2.5 5t4.5 6l12 19h9l-25 -37v-26h-8zM376 -5v63h24q3 0 5.5 -1.5t3.5 -1.5q6 -1 8 -6q3 -3 3 -9q0 -4 -3 -6q-2 -6 -6 -6q4 -1 9 -6q3 -6 3 -9t-1 -4.5t-1 -2.5q-1 -6 -6 -6
q-1 -3 -2.5 -3t-3.5 -2h-9h-24zM205 -5l-18 63h9l9 -42q2 -4 2 -7t1 -6q2 7 2 12l12 43h10l9 -33q2 -7 3.5 -11.5t1.5 -10.5q1 3 1 6t2 7l10 42h8l-18 -63h-8l-12 47q-1 4 -1 7q-2 -3 -2 -7l-13 -47h-8zM123 -5l-18 63h10l8 -42q0 -7 4 -13q2 7 2 12l12 43h9l10 -33
q2 -7 2.5 -11.5t0.5 -10.5q3 3 3 6t2 7l9 42h9l-18 -63h-8l-12 47q-1 4 -1 7q-3 -3 -3 -7l-14 -47h-7zM384 30h13q6 0 8 3q4 0 4 1q2 2 2 6q0 5 -2 6h-1q-2 0 -2 1t-1 1q-2 1 -9 1h-12v-19zM285 -5l-17 63h9l9 -42q2 -4 2 -7t3 -6q0 6 0.5 8t0.5 4l12 43h9l11 -33
q1 -7 2 -11.5t1 -10.5q3 3 3 6t1 7l11 42h7l-18 -63h-7l-12 47q-2 4 -2 7q-3 -3 -3 -7l-13 -47h-9zM664 28h18q3 0 5.5 1t5.5 1t3 4q1 2 1 6q0 5 -3 8q-1 1 -10 1h-20v-21zM384 1h16q3 0 5 2h4q2 3 5 4v6q0 3 -3 6q0 3 -3 3h-11h-13v-21zM435 -5v63h7v-63h-7zM985 25
q0 -13 5 -18q6 -6 16 -6q11 0 15 6q6 5 6 20q0 7 -1 12q-3 7 -8 9q-4 1 -12 1q-9 0 -13 -4q-8 -6 -8 -20zM976 25q0 17 9 24q6 9 21 9q5 0 8.5 -1.5t6.5 -2.5q5 -2 7 -5t5 -7q2 -3 2 -15q0 -14 -3 -18q-5 -8 -11 -12q-6 -3 -15 -3q-4 0 -8 0.5t-8 2.5q-3 3 -5.5 6t-3.5 6
q-2 4 -3.5 8t-1.5 8zM592 -5l24 63h9l26 -63h-9l-8 18h-25l-9 -18h-8zM459 -5v63h7v-57h29v-6h-36zM892 -5v8h11v-8h-11zM748 19v8h26v-24q-6 -6 -12 -8q-3 0 -7 -0.5t-7 -0.5q-9 0 -15 3q-4 3 -7 5t-5 7q-1 4 -2.5 8t-1.5 8q0 6 1.5 9t2.5 8q3 9 11 12l7.5 2.5t8.5 1.5
q8 0 12 -3q6 -1 8 -6q4 -4 6 -9l-8 -1q0 1 -4 6q0 3 -6 4h-8h-9q-4 -1 -7 -4q0 -2 -5 -6q0 -3 -0.5 -6t-0.5 -6q0 -11 3 -14q6 -9 7 -10q5 -2 12 -2q6 0 11 2q3 3 4.5 3t2.5 1v12h-18zM657 -5v63h27q4 0 7 -1.5t6 -1.5q5 -1 6 -6q3 -3 3 -9q0 -7 -4 -12q-2 -1 -5.5 -2
t-8.5 -4q3 0 4 -0.5t2 -0.5q2 -3 2.5 -5.5t3.5 -5.5l12 -15h-10l-9 12q-3 3 -4 5.5t-2 3.5q0 3 -1.5 3t-3.5 2h-1q-2 0 -2 0.5t-1 0.5h-3h-11v-27h-7zM505 -5v63h9v-57h30v-6h-39zM961 16l8 -1q-3 -12 -9 -15q-6 -6 -17 -6q-9 0 -15 3q-4 3 -5.5 6t-4.5 6q-3 12 -3 18t3 18
q7 7 10 9q5 1 8 2.5t7 1.5q5 0 9.5 -1.5l7.5 -2.5q3 -3 5 -6t4 -8l-9 -1q0 6 -6 9q-3 1 -11 1q-9 0 -12 -1q-3 -2 -3.5 -4t-3.5 -5q0 -3 -1 -6t-1 -6q0 -9 5 -14q0 -3 1.5 -5t2.5 -5q5 -2 12 -2q8 0 12 5q5 4 6 10zM1047 -5v63h12l15 -45q0 -3 1.5 -5t1.5 -5q0 1 3 10l13 45
h12v-63h-7v51l-18 -51h-8l-18 53v-53h-7zM175 111l12 -5q-3 -13 -13 -22q-12 -9 -26 -9q-13 0 -25 6q-12 9 -14 18q-6 10 -6 25q0 17 6 27q5 11 15 15q11 6 24 6q17 0 23 -7q10 -3 15 -20l-12 -1q-6 12 -11 13q-6 6 -15 6q-12 0 -18 -6q-9 -6 -12 -13q-1 -6 -1 -20
q0 -13 4 -19q3 -11 9 -14q8 -6 17 -6q12 0 19 8q3 3 5.5 7.5t3.5 10.5zM199 123q0 12 3 21t11 15q6 7 14 10t17 3q14 0 24 -6q9 -4 17 -16q6 -15 6 -26q0 -7 -1.5 -13t-4.5 -12q-8 -12 -18 -18q-12 -6 -23 -6q-7 0 -12.5 1.5t-11.5 4.5q-10 6 -15 18q-6 10 -6 24zM213 123
q0 -18 7 -29q11 -9 24 -9q15 0 23 12q10 11 10 27q0 6 -1.5 10.5t-2.5 9.5q-3 10 -12 13q-5 6 -17 6t-22 -10q-9 -8 -9 -30zM306 78v93h18l22 -66q5 -9 5 -14q3 3 6 15l24 65h15v-93h-12v78l-27 -78h-12l-27 79v-79h-12zM417 78v93h36h13q8 0 12 -5q2 -1 8 -9l2 -6t1 -7
q0 -9 -8 -20q-7 -7 -28 -7h-24v-39h-12zM429 126h25q14 0 15 6q6 1 6 12q0 7 -1 9q-6 6 -11 6q-1 3 -10 3h-24v-36zM505 78v93h12v-84h47v-9h-59zM579 78v93h69v-9h-57v-30h52v-12h-52v-33h58v-9h-70zM690 78v84h-32v9h77v-9h-32v-84h-13zM748 78v93h69v-9h-57v-30h53v-12
h-53v-33h59v-9h-71zM870 106l12 2q0 -8 3 -11q3 -6 10 -9q3 -1 14 -1h6.5t6.5 1q5 0 8 6q1 3 1 9q0 5 -1 8l-4 2t-5 4q-2 0 -17 3q-7 3 -11.5 3.5t-7.5 2.5q-6 3 -9 10q-3 2 -4 5t-1 6q0 9 6 15q2 3 5 4.5t7 4.5q3 1 18 1q11 0 17 -3q4 -3 7 -4.5t5 -5.5q6 -5 6 -14l-12 -1
q-3 12 -8 13q-4 5 -15 5q-15 0 -18 -5q-4 -4 -4 -10q0 -5 4 -8l18 -7q8 -2 13 -3.5t8 -2.5q5 -2 7 -4l5 -5q3 -5 3 -14q0 -10 -3 -15q-6 -6 -12 -9q-4 -1 -8.5 -2.5t-10.5 -1.5t-12 1.5t-9 2.5q-8 2 -15 12q-3 6 -3 15zM961 78v93h68v-9h-54v-30h52v-12h-52v-33h57v-9h-71z
M1074 78v84h-30v9h73v-9h-31v-84h-12zM112 190v93h38h13q3 0 12 -3q2 -1 4 -4l4 -6q3 -3 3 -11q0 -13 -9 -22q-5 -8 -27 -8h-23v-39h-15zM127 241h23q13 0 18 3q6 6 6 12q0 3 -1.5 6t-3.5 6q-4 5 -7 5q-2 1 -12 1h-23v-33zM201 190v93h67v-9h-54v-30h51v-10h-51v-32h57v-12
h-70zM288 190v93h43q14 0 20 -1q7 -3 10 -8q3 -12 3 -15q0 -10 -6 -16t-21 -9q3 -3 4.5 -3t3.5 -2q7 -7 10 -13l17 -26h-15l-14 20q-1 4 -3.5 7t-3.5 6q-3 2 -4 4t-2 2q-3 2 -6 2q-2 3 -8 3h-13v-44h-15zM303 243h24q12 0 15 1q4 5 7 6q2 3 2 9t-5 11q-4 4 -15 4h-28v-31z
M381 222h10q0 -3 1.5 -6t3.5 -6q1 -2 3.5 -4t5.5 -2q9 -3 15 -3h6t4 1q9 3 11 6q0 2 0.5 4t0.5 4q0 6 -1 7q-5 3 -11 6q-1 2 -5 2t-10 3q-13 1 -19 6q-8 6 -11 9q-1 4 -1 12q0 3 0.5 6.5t3.5 6.5q2 6 12 9q3 3 17 3q12 0 18 -3q9 -4 12 -10q6 -9 6 -14l-12 -3q-3 11 -8 14
q-6 6 -16 6q-12 0 -17 -6q-4 -3 -4 -9t4 -8q2 -3 17 -6q13 -6 22 -6q3 -3 6 -5t5 -5q4 -5 4 -14q0 -7 -4 -13q-3 -5 -5.5 -7t-5.5 -5q-12 -3 -19 -3q-11 0 -23 3q-4 3 -7 5t-6 7q-2 4 -2.5 8t-0.5 10zM468 237q0 21 12 36q13 13 33 13q6 0 11 -1.5t13 -4.5q6 -3 9 -7.5
t6 -10.5q6 -10 6 -25q0 -14 -6 -26q-6 -10 -15 -16q-12 -6 -24 -6q-14 0 -24 7q-14 8 -15 18q-6 8 -6 23zM480 237q0 -18 9 -27t24 -9t24 9q7 10 7 27q0 6 -0.5 12t-3.5 10q-5 8 -9 11q-8 6 -18 6q-8 0 -12.5 -2.5t-11.5 -6.5q-9 -9 -9 -30zM573 190v93h13l50 -72v72h12v-93
h-12l-51 74v-74h-12zM658 190l36 93h14l39 -93h-15l-11 30h-39l-12 -30h-12zM684 229h33l-9 26q-3 6 -4.5 11t-3.5 8q0 -4 -1.5 -8.5t-2.5 -9.5zM754 190v93h14v-81h46v-12h-60zM922 283h12v-52q0 -17 -3 -23q-3 -9 -10 -13q-8 -6 -23 -6t-21 6q-4 1 -7 5l-6 8q-2 3 -2 23
v52h11v-52q0 -15 3 -20q3 -6 7 -7q3 -2 6 -2.5t8 -0.5q12 0 19 4q6 6 6 26v52zM951 222h12q0 -3 1.5 -6t2.5 -6l4 -4t5 -2q9 -3 14 -3q10 0 15 1q3 2 7 6q2 2 2 8t-2 7q-3 2 -3.5 3.5t-3.5 2.5q-3 2 -7.5 2t-10.5 3q-6 1 -11.5 2t-6.5 4q-8 3 -9 9q-5 4 -5 12q0 6 5 13
q1 6 10 9q6 3 18 3h10t8 -3q9 -4 14 -10q1 -3 2.5 -7t1.5 -7l-12 -3q-3 5 -3.5 8.5t-3.5 5.5q-5 6 -17 6q-13 0 -15 -6q-6 -2 -6 -9q0 -5 3 -8t18 -6q17 -6 21 -6q5 -3 8 -5t4 -5q5 -3 5 -14q0 -9 -5 -13q-3 -5 -5 -7t-7 -5q-9 -3 -16 -3q-8 0 -13 0.5t-10 2.5q-3 3 -6.5 5
t-6.5 7q-3 4 -4.5 8t-1.5 10zM1044 190v93h67v-9h-54v-30h50v-10h-50v-32h56v-12h-69zM307 388q0 15 -22 18q-3 0 -7.5 1t-10.5 1l-9 -11l-24 -25q-6 -8 -11.5 -14t-12.5 -10q9 -3 22 -5h8.5t9.5 2q23 1 35 12q22 18 22 31zM324 433q0 6 -8 6q-3 0 -25 -7l-17 -15
q-3 -3 -6 -9l26 4q6 0 16 8q14 9 14 13zM343 460q0 -3 -4 -3q-3 0 -4 1t-4 1q-15 -3 -34 -23q3 3 6.5 4.5t6.5 3.5q11 1 20 0q6 0 6 -8v-6q-8 -13 -42 -21q27 -3 27 -18q0 -18 -29 -37q-10 -6 -21.5 -10t-23.5 -5q-19 -5 -30 -3q-9 0 -19 4q-9 -6 -17 -6h-3l-15 5h5
q12 0 19 6v1q-10 -6 -22 -6q-17 0 -26 9q-15 11 -15 32q0 6 1.5 11t4.5 13q11 22 36 39q8 7 16 9.5t16 3.5q16 0 22 -6q-7 5 -15 5q-9 0 -19 -6q-15 -6 -17 -9q-15 -8 -30 -26q-13 -21 -13 -36q0 -7 1.5 -11.5t4.5 -9.5q6 -9 16 -12q5 -1 8 -2t6 -1q6 0 10.5 1.5t10.5 4.5
q-17 12 -17 33q3 20 24 35l-3 -5q-3 0 -6 -6q-9 -9 -9 -19q0 -20 23 -33q12 7 12 9q3 4 6 7l6 6t3.5 7.5t3.5 9.5v-2q0 -7 -1 -12l18 21q46 53 76 62q-13 4 -21 4q-19 -1 -42 -13q-27 -14 -27 -33q0 -6 5 -11q1 -1 1 -3q-9 6 -9 15q0 17 20 33q24 18 51 15q9 0 27 -6h6
q7 0 12 -3h1zM346 363q-1 -6 -12 -17q-10 -6 -18 -6q-7 0 -7 9q0 8 9 20h-2q-1 -2 -6 -2l-1 2q4 0 15 10h1l5 6q4 5 4 8h5q4 0 4 -2q0 -6 -9 -16l-10 -11q-9 -13 -9 -18q0 -4 6 -4q7 0 18 15q1 1 2.5 2t4.5 4zM354 405q-6 -9 -15 -9q-5 0 -11 4h5q10 0 13 11v3l8 -3
q1 -2 0 -6zM406 433q0 -7 -46 -63h-2q-13 -16 -13 -25q0 -5 4 -5q9 0 20 15q1 2 2.5 2.5t3.5 3.5q0 -7 -12 -16q-8 -6 -17 -6q-9 1 -9 9q-1 7 30 46l18 23l9 9q5 6 8 15q4 -3 4 -8zM432 433q0 -6 -48 -63q-15 -18 -15 -25q0 -5 6 -5t19 15l6 6q-1 -7 -13 -16q-8 -6 -17 -6
q-9 1 -9 9q0 9 30 46l18 23l9 9q8 9 9 15q5 -3 5 -8zM403 333q-24 -5 -37 -18q-11 -14 -11 -17q0 -6 6 -6q2 -1 11 2l6.5 6.5l8.5 8.5zM447 430q-3 -21 -20 -37q0 -2 -0.5 -2t-0.5 -1q-5 -6 -10 -11.5t-10 -12.5q-3 -3 -3 -6q-1 3 2 9q-9 -14 -9 -21q0 -5 4 -5q2 0 8 3
q22 18 31 51v-4v-5q3 -3 3 -7q0 -3 -7 -15l-12 -20l-14 -18q5 3 17 9l-2 -1q-3 -3 -8 -7t-10 -11l-12 -15l-6 -8q-9 -9 -19 -12q-9 0 -14 6q-9 3 -3 14q2 1 3.5 4t4.5 6l1 2l-10 -2q25 18 42 20q1 0 2.5 0.5t3.5 0.5h1h3l9 14q-6 -6 -10.5 -7t-7.5 -1q-7 0 -7 8q0 18 31 46
l3 2l15 15q3 6 6 10.5t5 8.5zM618 453q-9 3 -15 3q-15 0 -28 -4t-26 -11q-6 -3 -10 -7t-8 -7q18 -1 48 -19q33 33 57 42zM649 447q-6 -2 -12.5 -4t-14.5 -10q-4 -3 -22 -21l-11 -10l15 -9q3 4 9 11t14 16zM663 472q0 -1 -2 -3q0 -10 -4 -21l1 -1h-1q-8 -18 -20 -30l-24 -29
q3 -1 4.5 -1t4.5 -2q0 -3 -1 -3q-3 0 -4.5 1t-4.5 2q-18 -19 -20 -36q-3 -6 -3 -9q0 -6 6 -6q12 0 26 20l6 9q15 21 19 37v5q0 -2 2 -3v-2q-3 -21 -15 -39l-20 -39q0 6 5 20q-18 -14 -27 -14q-14 0 -11 18q0 9 6 20.5t15 24.5l-15 8l-13 -14q-5 -6 -13 -15t-20 -24
q-24 -24 -42 -24h-5q-4 0 -13 5h3q13 -3 27 10q-12 -6 -29 -6q-16 0 -27 8h2q-15 10 -15 31q0 15 6 23q9 24 34 40q9 8 17.5 10t17.5 4q15 0 21 -6h-2q-3 3 -13 3q-15 0 -38 -14q-16 -12 -28 -25q-14 -21 -14 -38q0 -24 23 -31q9 -3 13 -3q32 1 69 42l29 30q-23 13 -51 13
h-2q-3 -6 -3 -13q2 0 8 -9q-11 6 -11 15q0 4 2 7q-15 -3 -20 -6q-27 -10 -24 -31q0 -14 9 -24l3 -3q-18 18 -18 31q0 20 18 33q15 11 38 11q21 24 52 28q8 2 24 2q8 0 23 -3l18 -5h9l1 -1q6 10 9 25h2v-3zM682 375q0 -5 -1 -8q-8 -7 -13 -13t-10 -14h2h1q-1 -1 -3 -1
q-1 0 -1 -2q-8 0 -8 3q0 6 14 20q10 13 10 16q2 5 -4 9q-18 -25 -32 -31l-6 -3l-3 1q6 0 20 15q13 12 18 20q0 1 -1 1t-1 2q0 1 11 10q0 2 1 2l2 -2q0 -1 -8 -12q12 -4 12 -13zM726 379q0 9 -6 6q-6 0 -9 -3q-5 -3 -14 -15t-9 -19q-1 -3 3 -3q9 3 15 10q6 12 6 17q0 3 -1 3
q6 0 6 -8l-2 -3q3 3 5.5 7t5.5 7v1zM754 393q-6 0 -13 -8q-6 -7 -12 -16l-14 -21q-7 -15 -13 -23.5t-8 -11.5q-19 -24 -30 -24q-9 -1 -13 6v8q0 7 6 13q-3 -1 -8 -1q15 15 33 19q2 0 2.5 1t3.5 1l2 -2q-29 -9 -35 -27q-1 -3 -1 -7q0 -2 1 -3q0 -2 2 -2q12 -1 28 23l11 15
l6 9q-5 -2 -8 -2q-12 0 -12 12q0 14 20 32q9 9 16 9q11 0 11 -12h1l8 9q7 7 13 7q5 0 8 -4h-5zM781 382q0 -9 -16 -18q-2 -1 -3 -1h-2q-4 0 -9 7q3 -3 8 -3q10 6 13 17v3v1v2q-6 0 -19 -14v-1q-5 -6 -5.5 -10t-0.5 -7q-2 2 -2 9q-3 -6 -4 -10q-3 -6 -3 -11q0 -1 1 -3
q0 -3 6 -3q15 6 26 15q3 3 7 6l-6 -8t-10 -8q-12 -8 -21 -5q0 -1 -2 0q-9 0 -9 9q0 15 17 30q9 14 24 14q3 0 4 -2q6 -4 6 -9zM841 433q0 -6 -48 -63q-13 -16 -13 -25q0 -5 4 -5q9 0 20 15q1 2 2.5 2.5t3.5 3.5q0 -7 -12 -16q-8 -6 -18 -6q-8 3 -8 9q0 12 29 46l18 23l9 9
q9 9 9 15q4 -3 4 -8zM922 387q-25 9 -27 28q-7 -4 -14.5 -8t-12.5 -8q-28 -27 -28 -50q0 -9 4 -10h3h3q23 0 42 15q6 6 14.5 13.5t15.5 19.5zM952 430h-12q-18 -1 -43 -13q3 -21 28 -26l11 14zM979 457q-19 0 -35 -3t-28 -10q8 7 19 11.5t25 7.5q-30 2 -53 -18
q-4 -3 -10 -15q10 3 20 4.5t22 0.5h7.5t11.5 -2q3 5 8.5 11t12.5 13zM1074 459q-3 -5 -7 -8.5t-11 -6.5q-12 -8 -23 -8h-3q-1 0 -3 2q2 1 2 2.5t3 4.5q-14 11 -38 11l-6 -8l-15 -18q12 -1 22.5 -2.5t19.5 -1.5q21 0 29 4q-6 -6 -23 -9q-13 -3 -27 2l-24 4q-6 -7 -11 -12.5
t-8 -11.5l-11 -15h8q37 3 43 18h2q-5 -9 -20 -16q-7 -3 -14 -4.5t-13 -1.5h-7q-11 -12 -17.5 -21t-12.5 -15q-20 -21 -36 -21q-8 1 -17 1q15 0 32 15q-21 -9 -33 -9l-9 2l12 -12q-12 6 -20 13q-1 0 -7 3q-18 14 -20 35v13t3 12q5 14 12.5 23.5t17.5 20.5q26 22 45 22
q11 0 18 -6l-1 -1q-5 4 -14 4q-19 -3 -40 -19q-18 -15 -27 -30q-12 -21 -12 -39q3 -27 24 -35q-3 9 -2 18q3 23 17 39q16 21 45 33q3 3 3 9l13 14q20 16 51 16h13t13 -1h1q11 7 19 11t17 2q6 0 9 -3l-16 -3q-3 -1 -7 -2.5t-8 -4.5q6 -2 12 -2.5t13 -3.5q15 -5 24 -5
q14 0 20 2zM982 354q-4 4 -4 10q0 3 0.5 5.5t0.5 5.5q-15 -20 -13 -29q0 -3 3 -3t13 11zM1002 385q0 3 -3 3t-6 -1q-2 -2 -5 -8q-7 -15 -7 -19q0 -5 1 -6l5 4v2v-2q1 2 1 2.5t2 2.5q3 9 3 12q0 1 -2 3q3 -6 3 -8q5 5 8 15zM1008 381q0 -8 -11 -23q-13 -13 -19 -18h-12
q-9 0 -9 8q0 12 16 31q11 14 24 14q11 0 11 -12zM1057 384q2 -3 -6 -17q-9 -12 -12 -15l-18 -16q-10 -11 -13 -23q1 18 13 32q6 6 9 10.5t6 10.5q2 1 3 6v-5l-1 -3q3 3 9 15q0 2 0.5 2.5t0.5 2.5q0 7 -7 4l-12 -9q-3 -7 -8.5 -12.5t-11.5 -12.5q-7 -9 -9 -14q-1 -1 -7 -13
q0 3 -1 6.5t1 6.5q3 11 13 21l9 11q8 10 8 16q0 2 -1 3.5t-1 2.5q9 -3 9 -9q9 8 20 8q6 -3 7 -9zM1116 405h-23q-1 -3 -9.5 -12t-20.5 -26q-3 0 -6 -7q-6 -8 -6 -15q0 -5 3 -5q8 0 21 15l2 2q1 1 1 2t2 2q0 -7 -11 -16q-7 -6 -18 -6q-7 3 -9 9q0 3 6 15l18 21l17 21l-26 3
q-6 1 -15 1h-13q-18 0 -36 -7h-2q15 15 47 15q1 0 12.5 -2.5t32.5 -5.5l4 -1q5 7 8.5 12.5t6.5 9.5q3 -1 3 -7q0 -5 -3 -8l-6 -9l12 -1h9h2h4h-7zM1126 385q0 -4 -10 -9l-2 -1q5 4 5 12v6h-5q-7 0 -9 -6q0 -3 5 -26q1 -21 -24 -21q-14 0 -17 9q-1 2 -1 5q0 12 18 15l6 -2h-3
q-6 0 -9 -3q-5 -7 -5 -10q0 -12 12 -12t12 16q0 8 -1 12q-2 5 -2 11q0 15 14 15q3 0 4.5 -1t4.5 -1q6 -3 6 -4q1 -2 1 -5z" />
    <glyph glyph-name="four" unicode="4" horiz-adv-x="1219" 
d="M876 781l-137 -124l36 -186l-160 94l-165 -94l39 181l-138 129l186 20l78 171l75 -170zM682 576l-43 258h-53l-45 -258l23 -14l19 14l9 58h39l11 -58l21 -14zM628 672h-30l14 102zM610 21h21l-7 18q-2 3 -2 5t-3 5q0 -4 -3 -10zM352 -5v8h11v-8h-11zM844 -5v63h8v-57h31
v-6h-39zM787 -5v63h45v-9h-37v-19h34v-8h-34v-21h37v-6h-45zM565 -5v26l-24 37h11l12 -19q3 -9 6 -11l2.5 5t4.5 6l12 19h9l-25 -37v-26h-8zM376 -5v63h24q3 0 5.5 -1.5t3.5 -1.5q6 -1 8 -6q3 -3 3 -9q0 -4 -3 -6q-2 -6 -6 -6q4 -1 9 -6q3 -6 3 -9t-1 -4.5t-1 -2.5
q-1 -6 -6 -6q-1 -3 -2.5 -3t-3.5 -2h-9h-24zM205 -5l-18 63h9l9 -42q2 -4 2 -7t1 -6q2 7 2 12l12 43h10l9 -33q2 -7 3.5 -11.5t1.5 -10.5q1 3 1 6t2 7l10 42h8l-18 -63h-8l-12 47q-1 4 -1 7q-2 -3 -2 -7l-13 -47h-8zM123 -5l-18 63h10l8 -42q0 -7 4 -13q2 7 2 12l12 43h9
l10 -33q2 -7 2.5 -11.5t0.5 -10.5q3 3 3 6t2 7l9 42h9l-18 -63h-8l-12 47q-1 4 -1 7q-3 -3 -3 -7l-14 -47h-7zM384 30h13q6 0 8 3q4 0 4 1q2 2 2 6q0 5 -2 6h-1q-2 0 -2 1t-1 1q-2 1 -9 1h-12v-19zM285 -5l-17 63h9l9 -42q2 -4 2 -7t3 -6q0 6 0.5 8t0.5 4l12 43h9l11 -33
q1 -7 2 -11.5t1 -10.5q3 3 3 6t1 7l11 42h7l-18 -63h-7l-12 47q-2 4 -2 7q-3 -3 -3 -7l-13 -47h-9zM664 28h18q3 0 5.5 1t5.5 1t3 4q1 2 1 6q0 5 -3 8q-1 1 -10 1h-20v-21zM384 1h16q3 0 5 2h4q2 3 5 4v6q0 3 -3 6q0 3 -3 3h-11h-13v-21zM435 -5v63h7v-63h-7zM985 25
q0 -13 5 -18q6 -6 16 -6q11 0 15 6q6 5 6 20q0 7 -1 12q-3 7 -8 9q-4 1 -12 1q-9 0 -13 -4q-8 -6 -8 -20zM976 25q0 17 9 24q6 9 21 9q5 0 8.5 -1.5t6.5 -2.5q5 -2 7 -5t5 -7q2 -3 2 -15q0 -14 -3 -18q-5 -8 -11 -12q-6 -3 -15 -3q-4 0 -8 0.5t-8 2.5q-3 3 -5.5 6t-3.5 6
q-2 4 -3.5 8t-1.5 8zM592 -5l24 63h9l26 -63h-9l-8 18h-25l-9 -18h-8zM459 -5v63h7v-57h29v-6h-36zM892 -5v8h11v-8h-11zM748 19v8h26v-24q-6 -6 -12 -8q-3 0 -7 -0.5t-7 -0.5q-9 0 -15 3q-4 3 -7 5t-5 7q-1 4 -2.5 8t-1.5 8q0 6 1.5 9t2.5 8q3 9 11 12l7.5 2.5t8.5 1.5
q8 0 12 -3q6 -1 8 -6q4 -4 6 -9l-8 -1q0 1 -4 6q0 3 -6 4h-8h-9q-4 -1 -7 -4q0 -2 -5 -6q0 -3 -0.5 -6t-0.5 -6q0 -11 3 -14q6 -9 7 -10q5 -2 12 -2q6 0 11 2q3 3 4.5 3t2.5 1v12h-18zM657 -5v63h27q4 0 7 -1.5t6 -1.5q5 -1 6 -6q3 -3 3 -9q0 -7 -4 -12q-2 -1 -5.5 -2
t-8.5 -4q3 0 4 -0.5t2 -0.5q2 -3 2.5 -5.5t3.5 -5.5l12 -15h-10l-9 12q-3 3 -4 5.5t-2 3.5q0 3 -1.5 3t-3.5 2h-1q-2 0 -2 0.5t-1 0.5h-3h-11v-27h-7zM505 -5v63h9v-57h30v-6h-39zM961 16l8 -1q-3 -12 -9 -15q-6 -6 -17 -6q-9 0 -15 3q-4 3 -5.5 6t-4.5 6q-3 12 -3 18t3 18
q7 7 10 9q5 1 8 2.5t7 1.5q5 0 9.5 -1.5l7.5 -2.5q3 -3 5 -6t4 -8l-9 -1q0 6 -6 9q-3 1 -11 1q-9 0 -12 -1q-3 -2 -3.5 -4t-3.5 -5q0 -3 -1 -6t-1 -6q0 -9 5 -14q0 -3 1.5 -5t2.5 -5q5 -2 12 -2q8 0 12 5q5 4 6 10zM1047 -5v63h12l15 -45q0 -3 1.5 -5t1.5 -5q0 1 3 10l13 45
h12v-63h-7v51l-18 -51h-8l-18 53v-53h-7zM610 21h21l-7 18q-2 3 -2 5t-3 5q0 -4 -3 -10zM352 -5v8h11v-8h-11zM844 -5v63h8v-57h31v-6h-39zM787 -5v63h45v-9h-37v-19h34v-8h-34v-21h37v-6h-45zM565 -5v26l-24 37h11l12 -19q3 -9 6 -11l2.5 5t4.5 6l12 19h9l-25 -37v-26h-8z
M376 -5v63h24q3 0 5.5 -1.5t3.5 -1.5q6 -1 8 -6q3 -3 3 -9q0 -4 -3 -6q-2 -6 -6 -6q4 -1 9 -6q3 -6 3 -9t-1 -4.5t-1 -2.5q-1 -6 -6 -6q-1 -3 -2.5 -3t-3.5 -2h-9h-24zM205 -5l-18 63h9l9 -42q2 -4 2 -7t1 -6q2 7 2 12l12 43h10l9 -33q2 -7 3.5 -11.5t1.5 -10.5q1 3 1 6t2 7
l10 42h8l-18 -63h-8l-12 47q-1 4 -1 7q-2 -3 -2 -7l-13 -47h-8zM123 -5l-18 63h10l8 -42q0 -7 4 -13q2 7 2 12l12 43h9l10 -33q2 -7 2.5 -11.5t0.5 -10.5q3 3 3 6t2 7l9 42h9l-18 -63h-8l-12 47q-1 4 -1 7q-3 -3 -3 -7l-14 -47h-7zM384 30h13q6 0 8 3q4 0 4 1q2 2 2 6
q0 5 -2 6h-1q-2 0 -2 1t-1 1q-2 1 -9 1h-12v-19zM285 -5l-17 63h9l9 -42q2 -4 2 -7t3 -6q0 6 0.5 8t0.5 4l12 43h9l11 -33q1 -7 2 -11.5t1 -10.5q3 3 3 6t1 7l11 42h7l-18 -63h-7l-12 47q-2 4 -2 7q-3 -3 -3 -7l-13 -47h-9zM664 28h18q3 0 5.5 1t5.5 1t3 4q1 2 1 6q0 5 -3 8
q-1 1 -10 1h-20v-21zM384 1h16q3 0 5 2h4q2 3 5 4v6q0 3 -3 6q0 3 -3 3h-11h-13v-21zM435 -5v63h7v-63h-7zM985 25q0 -13 5 -18q6 -6 16 -6q11 0 15 6q6 5 6 20q0 7 -1 12q-3 7 -8 9q-4 1 -12 1q-9 0 -13 -4q-8 -6 -8 -20zM976 25q0 17 9 24q6 9 21 9q5 0 8.5 -1.5t6.5 -2.5
q5 -2 7 -5t5 -7q2 -3 2 -15q0 -14 -3 -18q-5 -8 -11 -12q-6 -3 -15 -3q-4 0 -8 0.5t-8 2.5q-3 3 -5.5 6t-3.5 6q-2 4 -3.5 8t-1.5 8zM592 -5l24 63h9l26 -63h-9l-8 18h-25l-9 -18h-8zM459 -5v63h7v-57h29v-6h-36zM892 -5v8h11v-8h-11zM748 19v8h26v-24q-6 -6 -12 -8
q-3 0 -7 -0.5t-7 -0.5q-9 0 -15 3q-4 3 -7 5t-5 7q-1 4 -2.5 8t-1.5 8q0 6 1.5 9t2.5 8q3 9 11 12l7.5 2.5t8.5 1.5q8 0 12 -3q6 -1 8 -6q4 -4 6 -9l-8 -1q0 1 -4 6q0 3 -6 4h-8h-9q-4 -1 -7 -4q0 -2 -5 -6q0 -3 -0.5 -6t-0.5 -6q0 -11 3 -14q6 -9 7 -10q5 -2 12 -2
q6 0 11 2q3 3 4.5 3t2.5 1v12h-18zM657 -5v63h27q4 0 7 -1.5t6 -1.5q5 -1 6 -6q3 -3 3 -9q0 -7 -4 -12q-2 -1 -5.5 -2t-8.5 -4q3 0 4 -0.5t2 -0.5q2 -3 2.5 -5.5t3.5 -5.5l12 -15h-10l-9 12q-3 3 -4 5.5t-2 3.5q0 3 -1.5 3t-3.5 2h-1q-2 0 -2 0.5t-1 0.5h-3h-11v-27h-7z
M505 -5v63h9v-57h30v-6h-39zM961 16l8 -1q-3 -12 -9 -15q-6 -6 -17 -6q-9 0 -15 3q-4 3 -5.5 6t-4.5 6q-3 12 -3 18t3 18q7 7 10 9q5 1 8 2.5t7 1.5q5 0 9.5 -1.5l7.5 -2.5q3 -3 5 -6t4 -8l-9 -1q0 6 -6 9q-3 1 -11 1q-9 0 -12 -1q-3 -2 -3.5 -4t-3.5 -5q0 -3 -1 -6t-1 -6
q0 -9 5 -14q0 -3 1.5 -5t2.5 -5q5 -2 12 -2q8 0 12 5q5 4 6 10zM1047 -5v63h12l15 -45q0 -3 1.5 -5t1.5 -5q0 1 3 10l13 45h12v-63h-7v51l-18 -51h-8l-18 53v-53h-7zM610 21h21l-7 18q-2 3 -2 5t-3 5q0 -4 -3 -10zM352 -5v8h11v-8h-11zM844 -5v63h8v-57h31v-6h-39zM787 -5
v63h45v-9h-37v-19h34v-8h-34v-21h37v-6h-45zM565 -5v26l-24 37h11l12 -19q3 -9 6 -11l2.5 5t4.5 6l12 19h9l-25 -37v-26h-8zM376 -5v63h24q3 0 5.5 -1.5t3.5 -1.5q6 -1 8 -6q3 -3 3 -9q0 -4 -3 -6q-2 -6 -6 -6q4 -1 9 -6q3 -6 3 -9t-1 -4.5t-1 -2.5q-1 -6 -6 -6
q-1 -3 -2.5 -3t-3.5 -2h-9h-24zM205 -5l-18 63h9l9 -42q2 -4 2 -7t1 -6q2 7 2 12l12 43h10l9 -33q2 -7 3.5 -11.5t1.5 -10.5q1 3 1 6t2 7l10 42h8l-18 -63h-8l-12 47q-1 4 -1 7q-2 -3 -2 -7l-13 -47h-8zM123 -5l-18 63h10l8 -42q0 -7 4 -13q2 7 2 12l12 43h9l10 -33
q2 -7 2.5 -11.5t0.5 -10.5q3 3 3 6t2 7l9 42h9l-18 -63h-8l-12 47q-1 4 -1 7q-3 -3 -3 -7l-14 -47h-7zM384 30h13q6 0 8 3q4 0 4 1q2 2 2 6q0 5 -2 6h-1q-2 0 -2 1t-1 1q-2 1 -9 1h-12v-19zM285 -5l-17 63h9l9 -42q2 -4 2 -7t3 -6q0 6 0.5 8t0.5 4l12 43h9l11 -33
q1 -7 2 -11.5t1 -10.5q3 3 3 6t1 7l11 42h7l-18 -63h-7l-12 47q-2 4 -2 7q-3 -3 -3 -7l-13 -47h-9zM664 28h18q3 0 5.5 1t5.5 1t3 4q1 2 1 6q0 5 -3 8q-1 1 -10 1h-20v-21zM384 1h16q3 0 5 2h4q2 3 5 4v6q0 3 -3 6q0 3 -3 3h-11h-13v-21zM435 -5v63h7v-63h-7zM985 25
q0 -13 5 -18q6 -6 16 -6q11 0 15 6q6 5 6 20q0 7 -1 12q-3 7 -8 9q-4 1 -12 1q-9 0 -13 -4q-8 -6 -8 -20zM976 25q0 17 9 24q6 9 21 9q5 0 8.5 -1.5t6.5 -2.5q5 -2 7 -5t5 -7q2 -3 2 -15q0 -14 -3 -18q-5 -8 -11 -12q-6 -3 -15 -3q-4 0 -8 0.5t-8 2.5q-3 3 -5.5 6t-3.5 6
q-2 4 -3.5 8t-1.5 8zM592 -5l24 63h9l26 -63h-9l-8 18h-25l-9 -18h-8zM459 -5v63h7v-57h29v-6h-36zM892 -5v8h11v-8h-11zM748 19v8h26v-24q-6 -6 -12 -8q-3 0 -7 -0.5t-7 -0.5q-9 0 -15 3q-4 3 -7 5t-5 7q-1 4 -2.5 8t-1.5 8q0 6 1.5 9t2.5 8q3 9 11 12l7.5 2.5t8.5 1.5
q8 0 12 -3q6 -1 8 -6q4 -4 6 -9l-8 -1q0 1 -4 6q0 3 -6 4h-8h-9q-4 -1 -7 -4q0 -2 -5 -6q0 -3 -0.5 -6t-0.5 -6q0 -11 3 -14q6 -9 7 -10q5 -2 12 -2q6 0 11 2q3 3 4.5 3t2.5 1v12h-18zM657 -5v63h27q4 0 7 -1.5t6 -1.5q5 -1 6 -6q3 -3 3 -9q0 -7 -4 -12q-2 -1 -5.5 -2
t-8.5 -4q3 0 4 -0.5t2 -0.5q2 -3 2.5 -5.5t3.5 -5.5l12 -15h-10l-9 12q-3 3 -4 5.5t-2 3.5q0 3 -1.5 3t-3.5 2h-1q-2 0 -2 0.5t-1 0.5h-3h-11v-27h-7zM505 -5v63h9v-57h30v-6h-39zM961 16l8 -1q-3 -12 -9 -15q-6 -6 -17 -6q-9 0 -15 3q-4 3 -5.5 6t-4.5 6q-3 12 -3 18t3 18
q7 7 10 9q5 1 8 2.5t7 1.5q5 0 9.5 -1.5l7.5 -2.5q3 -3 5 -6t4 -8l-9 -1q0 6 -6 9q-3 1 -11 1q-9 0 -12 -1q-3 -2 -3.5 -4t-3.5 -5q0 -3 -1 -6t-1 -6q0 -9 5 -14q0 -3 1.5 -5t2.5 -5q5 -2 12 -2q8 0 12 5q5 4 6 10zM1047 -5v63h12l15 -45q0 -3 1.5 -5t1.5 -5q0 1 3 10l13 45
h12v-63h-7v51l-18 -51h-8l-18 53v-53h-7zM175 111l12 -5q-3 -13 -13 -22q-12 -9 -26 -9q-13 0 -25 6q-12 9 -14 18q-6 10 -6 25q0 17 6 27q5 11 15 15q11 6 24 6q17 0 23 -7q10 -3 15 -20l-12 -1q-6 12 -11 13q-6 6 -15 6q-12 0 -18 -6q-9 -6 -12 -13q-1 -6 -1 -20
q0 -13 4 -19q3 -11 9 -14q8 -6 17 -6q12 0 19 8q3 3 5.5 7.5t3.5 10.5zM199 123q0 12 3 21t11 15q6 7 14 10t17 3q14 0 24 -6q9 -4 17 -16q6 -15 6 -26q0 -7 -1.5 -13t-4.5 -12q-8 -12 -18 -18q-12 -6 -23 -6q-7 0 -12.5 1.5t-11.5 4.5q-10 6 -15 18q-6 10 -6 24zM213 123
q0 -18 7 -29q11 -9 24 -9q15 0 23 12q10 11 10 27q0 6 -1.5 10.5t-2.5 9.5q-3 10 -12 13q-5 6 -17 6t-22 -10q-9 -8 -9 -30zM306 78v93h18l22 -66q5 -9 5 -14q3 3 6 15l24 65h15v-93h-12v78l-27 -78h-12l-27 79v-79h-12zM417 78v93h36h13q8 0 12 -5q2 -1 8 -9l2 -6t1 -7
q0 -9 -8 -20q-7 -7 -28 -7h-24v-39h-12zM429 126h25q14 0 15 6q6 1 6 12q0 7 -1 9q-6 6 -11 6q-1 3 -10 3h-24v-36zM505 78v93h12v-84h47v-9h-59zM579 78v93h69v-9h-57v-30h52v-12h-52v-33h58v-9h-70zM690 78v84h-32v9h77v-9h-32v-84h-13zM748 78v93h69v-9h-57v-30h53v-12
h-53v-33h59v-9h-71zM870 106l12 2q0 -8 3 -11q3 -6 10 -9q3 -1 14 -1h6.5t6.5 1q5 0 8 6q1 3 1 9q0 5 -1 8l-4 2t-5 4q-2 0 -17 3q-7 3 -11.5 3.5t-7.5 2.5q-6 3 -9 10q-3 2 -4 5t-1 6q0 9 6 15q2 3 5 4.5t7 4.5q3 1 18 1q11 0 17 -3q4 -3 7 -4.5t5 -5.5q6 -5 6 -14l-12 -1
q-3 12 -8 13q-4 5 -15 5q-15 0 -18 -5q-4 -4 -4 -10q0 -5 4 -8l18 -7q8 -2 13 -3.5t8 -2.5q5 -2 7 -4l5 -5q3 -5 3 -14q0 -10 -3 -15q-6 -6 -12 -9q-4 -1 -8.5 -2.5t-10.5 -1.5t-12 1.5t-9 2.5q-8 2 -15 12q-3 6 -3 15zM961 78v93h68v-9h-54v-30h52v-12h-52v-33h57v-9h-71z
M1074 78v84h-30v9h73v-9h-31v-84h-12zM112 190v93h38h13q3 0 12 -3q2 -1 4 -4l4 -6q3 -3 3 -11q0 -13 -9 -22q-5 -8 -27 -8h-23v-39h-15zM127 241h23q13 0 18 3q6 6 6 12q0 3 -1.5 6t-3.5 6q-4 5 -7 5q-2 1 -12 1h-23v-33zM201 190v93h67v-9h-54v-30h51v-10h-51v-32h57v-12
h-70zM288 190v93h43q14 0 20 -1q7 -3 10 -8q3 -12 3 -15q0 -10 -6 -16t-21 -9q3 -3 4.5 -3t3.5 -2q7 -7 10 -13l17 -26h-15l-14 20q-1 4 -3.5 7t-3.5 6q-3 2 -4 4t-2 2q-3 2 -6 2q-2 3 -8 3h-13v-44h-15zM303 243h24q12 0 15 1q4 5 7 6q2 3 2 9t-5 11q-4 4 -15 4h-28v-31z
M381 222h10q0 -3 1.5 -6t3.5 -6q1 -2 3.5 -4t5.5 -2q9 -3 15 -3h6t4 1q9 3 11 6q0 2 0.5 4t0.5 4q0 6 -1 7q-5 3 -11 6q-1 2 -5 2t-10 3q-13 1 -19 6q-8 6 -11 9q-1 4 -1 12q0 3 0.5 6.5t3.5 6.5q2 6 12 9q3 3 17 3q12 0 18 -3q9 -4 12 -10q6 -9 6 -14l-12 -3q-3 11 -8 14
q-6 6 -16 6q-12 0 -17 -6q-4 -3 -4 -9t4 -8q2 -3 17 -6q13 -6 22 -6q3 -3 6 -5t5 -5q4 -5 4 -14q0 -7 -4 -13q-3 -5 -5.5 -7t-5.5 -5q-12 -3 -19 -3q-11 0 -23 3q-4 3 -7 5t-6 7q-2 4 -2.5 8t-0.5 10zM468 237q0 21 12 36q13 13 33 13q6 0 11 -1.5t13 -4.5q6 -3 9 -7.5
t6 -10.5q6 -10 6 -25q0 -14 -6 -26q-6 -10 -15 -16q-12 -6 -24 -6q-14 0 -24 7q-14 8 -15 18q-6 8 -6 23zM480 237q0 -18 9 -27t24 -9t24 9q7 10 7 27q0 6 -0.5 12t-3.5 10q-5 8 -9 11q-8 6 -18 6q-8 0 -12.5 -2.5t-11.5 -6.5q-9 -9 -9 -30zM573 190v93h13l50 -72v72h12v-93
h-12l-51 74v-74h-12zM658 190l36 93h14l39 -93h-15l-11 30h-39l-12 -30h-12zM684 229h33l-9 26q-3 6 -4.5 11t-3.5 8q0 -4 -1.5 -8.5t-2.5 -9.5zM754 190v93h14v-81h46v-12h-60zM922 283h12v-52q0 -17 -3 -23q-3 -9 -10 -13q-8 -6 -23 -6t-21 6q-4 1 -7 5l-6 8q-2 3 -2 23
v52h11v-52q0 -15 3 -20q3 -6 7 -7q3 -2 6 -2.5t8 -0.5q12 0 19 4q6 6 6 26v52zM951 222h12q0 -3 1.5 -6t2.5 -6l4 -4t5 -2q9 -3 14 -3q10 0 15 1q3 2 7 6q2 2 2 8t-2 7q-3 2 -3.5 3.5t-3.5 2.5q-3 2 -7.5 2t-10.5 3q-6 1 -11.5 2t-6.5 4q-8 3 -9 9q-5 4 -5 12q0 6 5 13
q1 6 10 9q6 3 18 3h10t8 -3q9 -4 14 -10q1 -3 2.5 -7t1.5 -7l-12 -3q-3 5 -3.5 8.5t-3.5 5.5q-5 6 -17 6q-13 0 -15 -6q-6 -2 -6 -9q0 -5 3 -8t18 -6q17 -6 21 -6q5 -3 8 -5t4 -5q5 -3 5 -14q0 -9 -5 -13q-3 -5 -5 -7t-7 -5q-9 -3 -16 -3q-8 0 -13 0.5t-10 2.5q-3 3 -6.5 5
t-6.5 7q-3 4 -4.5 8t-1.5 10zM1044 190v93h67v-9h-54v-30h50v-10h-50v-32h56v-12h-69zM307 388q0 15 -22 18q-3 0 -7.5 1t-10.5 1l-9 -11l-24 -25q-6 -8 -11.5 -14t-12.5 -10q9 -3 22 -5h8.5t9.5 2q23 1 35 12q22 18 22 31zM324 433q0 6 -8 6q-3 0 -25 -7l-17 -15
q-3 -3 -6 -9l26 4q6 0 16 8q14 9 14 13zM343 460q0 -3 -4 -3q-3 0 -4 1t-4 1q-15 -3 -34 -23q3 3 6.5 4.5t6.5 3.5q11 1 20 0q6 0 6 -8v-6q-8 -13 -42 -21q27 -3 27 -18q0 -18 -29 -37q-10 -6 -21.5 -10t-23.5 -5q-19 -5 -30 -3q-9 0 -19 4q-9 -6 -17 -6h-3l-15 5h5
q12 0 19 6v1q-10 -6 -22 -6q-17 0 -26 9q-15 11 -15 32q0 6 1.5 11t4.5 13q11 22 36 39q8 7 16 9.5t16 3.5q16 0 22 -6q-7 5 -15 5q-9 0 -19 -6q-15 -6 -17 -9q-15 -8 -30 -26q-13 -21 -13 -36q0 -7 1.5 -11.5t4.5 -9.5q6 -9 16 -12q5 -1 8 -2t6 -1q6 0 10.5 1.5t10.5 4.5
q-17 12 -17 33q3 20 24 35l-3 -5q-3 0 -6 -6q-9 -9 -9 -19q0 -20 23 -33q12 7 12 9q3 4 6 7l6 6t3.5 7.5t3.5 9.5v-2q0 -7 -1 -12l18 21q46 53 76 62q-13 4 -21 4q-19 -1 -42 -13q-27 -14 -27 -33q0 -6 5 -11q1 -1 1 -3q-9 6 -9 15q0 17 20 33q24 18 51 15q9 0 27 -6h6
q7 0 12 -3h1zM346 363q-1 -6 -12 -17q-10 -6 -18 -6q-7 0 -7 9q0 8 9 20h-2q-1 -2 -6 -2l-1 2q4 0 15 10h1l5 6q4 5 4 8h5q4 0 4 -2q0 -6 -9 -16l-10 -11q-9 -13 -9 -18q0 -4 6 -4q7 0 18 15q1 1 2.5 2t4.5 4zM354 405q-6 -9 -15 -9q-5 0 -11 4h5q10 0 13 11v3l8 -3
q1 -2 0 -6zM406 433q0 -7 -46 -63h-2q-13 -16 -13 -25q0 -5 4 -5q9 0 20 15q1 2 2.5 2.5t3.5 3.5q0 -7 -12 -16q-8 -6 -17 -6q-9 1 -9 9q-1 7 30 46l18 23l9 9q5 6 8 15q4 -3 4 -8zM432 433q0 -6 -48 -63q-15 -18 -15 -25q0 -5 6 -5t19 15l6 6q-1 -7 -13 -16q-8 -6 -17 -6
q-9 1 -9 9q0 9 30 46l18 23l9 9q8 9 9 15q5 -3 5 -8zM403 333q-24 -5 -37 -18q-11 -14 -11 -17q0 -6 6 -6q2 -1 11 2l6.5 6.5l8.5 8.5zM447 430q-3 -21 -20 -37q0 -2 -0.5 -2t-0.5 -1q-5 -6 -10 -11.5t-10 -12.5q-3 -3 -3 -6q-1 3 2 9q-9 -14 -9 -21q0 -5 4 -5q2 0 8 3
q22 18 31 51v-4v-5q3 -3 3 -7q0 -3 -7 -15l-12 -20l-14 -18q5 3 17 9l-2 -1q-3 -3 -8 -7t-10 -11l-12 -15l-6 -8q-9 -9 -19 -12q-9 0 -14 6q-9 3 -3 14q2 1 3.5 4t4.5 6l1 2l-10 -2q25 18 42 20q1 0 2.5 0.5t3.5 0.5h1h3l9 14q-6 -6 -10.5 -7t-7.5 -1q-7 0 -7 8q0 18 31 46
l3 2l15 15q3 6 6 10.5t5 8.5zM618 453q-9 3 -15 3q-15 0 -28 -4t-26 -11q-6 -3 -10 -7t-8 -7q18 -1 48 -19q33 33 57 42zM649 447q-6 -2 -12.5 -4t-14.5 -10q-4 -3 -22 -21l-11 -10l15 -9q3 4 9 11t14 16zM663 472q0 -1 -2 -3q0 -10 -4 -21l1 -1h-1q-8 -18 -20 -30l-24 -29
q3 -1 4.5 -1t4.5 -2q0 -3 -1 -3q-3 0 -4.5 1t-4.5 2q-18 -19 -20 -36q-3 -6 -3 -9q0 -6 6 -6q12 0 26 20l6 9q15 21 19 37v5q0 -2 2 -3v-2q-3 -21 -15 -39l-20 -39q0 6 5 20q-18 -14 -27 -14q-14 0 -11 18q0 9 6 20.5t15 24.5l-15 8l-13 -14q-5 -6 -13 -15t-20 -24
q-24 -24 -42 -24h-5q-4 0 -13 5h3q13 -3 27 10q-12 -6 -29 -6q-16 0 -27 8h2q-15 10 -15 31q0 15 6 23q9 24 34 40q9 8 17.5 10t17.5 4q15 0 21 -6h-2q-3 3 -13 3q-15 0 -38 -14q-16 -12 -28 -25q-14 -21 -14 -38q0 -24 23 -31q9 -3 13 -3q32 1 69 42l29 30q-23 13 -51 13
h-2q-3 -6 -3 -13q2 0 8 -9q-11 6 -11 15q0 4 2 7q-15 -3 -20 -6q-27 -10 -24 -31q0 -14 9 -24l3 -3q-18 18 -18 31q0 20 18 33q15 11 38 11q21 24 52 28q8 2 24 2q8 0 23 -3l18 -5h9l1 -1q6 10 9 25h2v-3zM682 375q0 -5 -1 -8q-8 -7 -13 -13t-10 -14h2h1q-1 -1 -3 -1
q-1 0 -1 -2q-8 0 -8 3q0 6 14 20q10 13 10 16q2 5 -4 9q-18 -25 -32 -31l-6 -3l-3 1q6 0 20 15q13 12 18 20q0 1 -1 1t-1 2q0 1 11 10q0 2 1 2l2 -2q0 -1 -8 -12q12 -4 12 -13zM726 379q0 9 -6 6q-6 0 -9 -3q-5 -3 -14 -15t-9 -19q-1 -3 3 -3q9 3 15 10q6 12 6 17q0 3 -1 3
q6 0 6 -8l-2 -3q3 3 5.5 7t5.5 7v1zM754 393q-6 0 -13 -8q-6 -7 -12 -16l-14 -21q-7 -15 -13 -23.5t-8 -11.5q-19 -24 -30 -24q-9 -1 -13 6v8q0 7 6 13q-3 -1 -8 -1q15 15 33 19q2 0 2.5 1t3.5 1l2 -2q-29 -9 -35 -27q-1 -3 -1 -7q0 -2 1 -3q0 -2 2 -2q12 -1 28 23l11 15
l6 9q-5 -2 -8 -2q-12 0 -12 12q0 14 20 32q9 9 16 9q11 0 11 -12h1l8 9q7 7 13 7q5 0 8 -4h-5zM781 382q0 -9 -16 -18q-2 -1 -3 -1h-2q-4 0 -9 7q3 -3 8 -3q10 6 13 17v3v1v2q-6 0 -19 -14v-1q-5 -6 -5.5 -10t-0.5 -7q-2 2 -2 9q-3 -6 -4 -10q-3 -6 -3 -11q0 -1 1 -3
q0 -3 6 -3q15 6 26 15q3 3 7 6l-6 -8t-10 -8q-12 -8 -21 -5q0 -1 -2 0q-9 0 -9 9q0 15 17 30q9 14 24 14q3 0 4 -2q6 -4 6 -9zM841 433q0 -6 -48 -63q-13 -16 -13 -25q0 -5 4 -5q9 0 20 15q1 2 2.5 2.5t3.5 3.5q0 -7 -12 -16q-8 -6 -18 -6q-8 3 -8 9q0 12 29 46l18 23l9 9
q9 9 9 15q4 -3 4 -8zM922 387q-25 9 -27 28q-7 -4 -14.5 -8t-12.5 -8q-28 -27 -28 -50q0 -9 4 -10h3h3q23 0 42 15q6 6 14.5 13.5t15.5 19.5zM952 430h-12q-18 -1 -43 -13q3 -21 28 -26l11 14zM979 457q-19 0 -35 -3t-28 -10q8 7 19 11.5t25 7.5q-30 2 -53 -18
q-4 -3 -10 -15q10 3 20 4.5t22 0.5h7.5t11.5 -2q3 5 8.5 11t12.5 13zM1074 459q-3 -5 -7 -8.5t-11 -6.5q-12 -8 -23 -8h-3q-1 0 -3 2q2 1 2 2.5t3 4.5q-14 11 -38 11l-6 -8l-15 -18q12 -1 22.5 -2.5t19.5 -1.5q21 0 29 4q-6 -6 -23 -9q-13 -3 -27 2l-24 4q-6 -7 -11 -12.5
t-8 -11.5l-11 -15h8q37 3 43 18h2q-5 -9 -20 -16q-7 -3 -14 -4.5t-13 -1.5h-7q-11 -12 -17.5 -21t-12.5 -15q-20 -21 -36 -21q-8 1 -17 1q15 0 32 15q-21 -9 -33 -9l-9 2l12 -12q-12 6 -20 13q-1 0 -7 3q-18 14 -20 35v13t3 12q5 14 12.5 23.5t17.5 20.5q26 22 45 22
q11 0 18 -6l-1 -1q-5 4 -14 4q-19 -3 -40 -19q-18 -15 -27 -30q-12 -21 -12 -39q3 -27 24 -35q-3 9 -2 18q3 23 17 39q16 21 45 33q3 3 3 9l13 14q20 16 51 16h13t13 -1h1q11 7 19 11t17 2q6 0 9 -3l-16 -3q-3 -1 -7 -2.5t-8 -4.5q6 -2 12 -2.5t13 -3.5q15 -5 24 -5
q14 0 20 2zM982 354q-4 4 -4 10q0 3 0.5 5.5t0.5 5.5q-15 -20 -13 -29q0 -3 3 -3t13 11zM1002 385q0 3 -3 3t-6 -1q-2 -2 -5 -8q-7 -15 -7 -19q0 -5 1 -6l5 4v2v-2q1 2 1 2.5t2 2.5q3 9 3 12q0 1 -2 3q3 -6 3 -8q5 5 8 15zM1008 381q0 -8 -11 -23q-13 -13 -19 -18h-12
q-9 0 -9 8q0 12 16 31q11 14 24 14q11 0 11 -12zM1057 384q2 -3 -6 -17q-9 -12 -12 -15l-18 -16q-10 -11 -13 -23q1 18 13 32q6 6 9 10.5t6 10.5q2 1 3 6v-5l-1 -3q3 3 9 15q0 2 0.5 2.5t0.5 2.5q0 7 -7 4l-12 -9q-3 -7 -8.5 -12.5t-11.5 -12.5q-7 -9 -9 -14q-1 -1 -7 -13
q0 3 -1 6.5t1 6.5q3 11 13 21l9 11q8 10 8 16q0 2 -1 3.5t-1 2.5q9 -3 9 -9q9 8 20 8q6 -3 7 -9zM1116 405h-23q-1 -3 -9.5 -12t-20.5 -26q-3 0 -6 -7q-6 -8 -6 -15q0 -5 3 -5q8 0 21 15l2 2q1 1 1 2t2 2q0 -7 -11 -16q-7 -6 -18 -6q-7 3 -9 9q0 3 6 15l18 21l17 21l-26 3
q-6 1 -15 1h-13q-18 0 -36 -7h-2q15 15 47 15q1 0 12.5 -2.5t32.5 -5.5l4 -1q5 7 8.5 12.5t6.5 9.5q3 -1 3 -7q0 -5 -3 -8l-6 -9l12 -1h9h2h4h-7zM1126 385q0 -4 -10 -9l-2 -1q5 4 5 12v6h-5q-7 0 -9 -6q0 -3 5 -26q1 -21 -24 -21q-14 0 -17 9q-1 2 -1 5q0 12 18 15l6 -2h-3
q-6 0 -9 -3q-5 -7 -5 -10q0 -12 12 -12t12 16q0 8 -1 12q-2 5 -2 11q0 15 14 15q3 0 4.5 -1t4.5 -1q6 -3 6 -4q1 -2 1 -5z" />
    <glyph glyph-name="five" unicode="5" horiz-adv-x="1219" 
d="M876 781l-137 -124l36 -186l-160 94l-165 -94l39 181l-138 129l186 20l78 171l75 -170zM682 576l-43 258h-53l-45 -258l23 -14l19 14l9 58h39l11 -58l21 -14zM628 672h-30l14 102zM610 21h21l-7 18q-2 3 -2 5t-3 5q0 -4 -3 -10zM352 -5v8h11v-8h-11zM844 -5v63h8v-57h31
v-6h-39zM787 -5v63h45v-9h-37v-19h34v-8h-34v-21h37v-6h-45zM565 -5v26l-24 37h11l12 -19q3 -9 6 -11l2.5 5t4.5 6l12 19h9l-25 -37v-26h-8zM376 -5v63h24q3 0 5.5 -1.5t3.5 -1.5q6 -1 8 -6q3 -3 3 -9q0 -4 -3 -6q-2 -6 -6 -6q4 -1 9 -6q3 -6 3 -9t-1 -4.5t-1 -2.5
q-1 -6 -6 -6q-1 -3 -2.5 -3t-3.5 -2h-9h-24zM205 -5l-18 63h9l9 -42q2 -4 2 -7t1 -6q2 7 2 12l12 43h10l9 -33q2 -7 3.5 -11.5t1.5 -10.5q1 3 1 6t2 7l10 42h8l-18 -63h-8l-12 47q-1 4 -1 7q-2 -3 -2 -7l-13 -47h-8zM123 -5l-18 63h10l8 -42q0 -7 4 -13q2 7 2 12l12 43h9
l10 -33q2 -7 2.5 -11.5t0.5 -10.5q3 3 3 6t2 7l9 42h9l-18 -63h-8l-12 47q-1 4 -1 7q-3 -3 -3 -7l-14 -47h-7zM384 30h13q6 0 8 3q4 0 4 1q2 2 2 6q0 5 -2 6h-1q-2 0 -2 1t-1 1q-2 1 -9 1h-12v-19zM285 -5l-17 63h9l9 -42q2 -4 2 -7t3 -6q0 6 0.5 8t0.5 4l12 43h9l11 -33
q1 -7 2 -11.5t1 -10.5q3 3 3 6t1 7l11 42h7l-18 -63h-7l-12 47q-2 4 -2 7q-3 -3 -3 -7l-13 -47h-9zM664 28h18q3 0 5.5 1t5.5 1t3 4q1 2 1 6q0 5 -3 8q-1 1 -10 1h-20v-21zM384 1h16q3 0 5 2h4q2 3 5 4v6q0 3 -3 6q0 3 -3 3h-11h-13v-21zM435 -5v63h7v-63h-7zM985 25
q0 -13 5 -18q6 -6 16 -6q11 0 15 6q6 5 6 20q0 7 -1 12q-3 7 -8 9q-4 1 -12 1q-9 0 -13 -4q-8 -6 -8 -20zM976 25q0 17 9 24q6 9 21 9q5 0 8.5 -1.5t6.5 -2.5q5 -2 7 -5t5 -7q2 -3 2 -15q0 -14 -3 -18q-5 -8 -11 -12q-6 -3 -15 -3q-4 0 -8 0.5t-8 2.5q-3 3 -5.5 6t-3.5 6
q-2 4 -3.5 8t-1.5 8zM592 -5l24 63h9l26 -63h-9l-8 18h-25l-9 -18h-8zM459 -5v63h7v-57h29v-6h-36zM892 -5v8h11v-8h-11zM748 19v8h26v-24q-6 -6 -12 -8q-3 0 -7 -0.5t-7 -0.5q-9 0 -15 3q-4 3 -7 5t-5 7q-1 4 -2.5 8t-1.5 8q0 6 1.5 9t2.5 8q3 9 11 12l7.5 2.5t8.5 1.5
q8 0 12 -3q6 -1 8 -6q4 -4 6 -9l-8 -1q0 1 -4 6q0 3 -6 4h-8h-9q-4 -1 -7 -4q0 -2 -5 -6q0 -3 -0.5 -6t-0.5 -6q0 -11 3 -14q6 -9 7 -10q5 -2 12 -2q6 0 11 2q3 3 4.5 3t2.5 1v12h-18zM657 -5v63h27q4 0 7 -1.5t6 -1.5q5 -1 6 -6q3 -3 3 -9q0 -7 -4 -12q-2 -1 -5.5 -2
t-8.5 -4q3 0 4 -0.5t2 -0.5q2 -3 2.5 -5.5t3.5 -5.5l12 -15h-10l-9 12q-3 3 -4 5.5t-2 3.5q0 3 -1.5 3t-3.5 2h-1q-2 0 -2 0.5t-1 0.5h-3h-11v-27h-7zM505 -5v63h9v-57h30v-6h-39zM961 16l8 -1q-3 -12 -9 -15q-6 -6 -17 -6q-9 0 -15 3q-4 3 -5.5 6t-4.5 6q-3 12 -3 18t3 18
q7 7 10 9q5 1 8 2.5t7 1.5q5 0 9.5 -1.5l7.5 -2.5q3 -3 5 -6t4 -8l-9 -1q0 6 -6 9q-3 1 -11 1q-9 0 -12 -1q-3 -2 -3.5 -4t-3.5 -5q0 -3 -1 -6t-1 -6q0 -9 5 -14q0 -3 1.5 -5t2.5 -5q5 -2 12 -2q8 0 12 5q5 4 6 10zM1047 -5v63h12l15 -45q0 -3 1.5 -5t1.5 -5q0 1 3 10l13 45
h12v-63h-7v51l-18 -51h-8l-18 53v-53h-7zM610 21h21l-7 18q-2 3 -2 5t-3 5q0 -4 -3 -10zM352 -5v8h11v-8h-11zM844 -5v63h8v-57h31v-6h-39zM787 -5v63h45v-9h-37v-19h34v-8h-34v-21h37v-6h-45zM565 -5v26l-24 37h11l12 -19q3 -9 6 -11l2.5 5t4.5 6l12 19h9l-25 -37v-26h-8z
M376 -5v63h24q3 0 5.5 -1.5t3.5 -1.5q6 -1 8 -6q3 -3 3 -9q0 -4 -3 -6q-2 -6 -6 -6q4 -1 9 -6q3 -6 3 -9t-1 -4.5t-1 -2.5q-1 -6 -6 -6q-1 -3 -2.5 -3t-3.5 -2h-9h-24zM205 -5l-18 63h9l9 -42q2 -4 2 -7t1 -6q2 7 2 12l12 43h10l9 -33q2 -7 3.5 -11.5t1.5 -10.5q1 3 1 6t2 7
l10 42h8l-18 -63h-8l-12 47q-1 4 -1 7q-2 -3 -2 -7l-13 -47h-8zM123 -5l-18 63h10l8 -42q0 -7 4 -13q2 7 2 12l12 43h9l10 -33q2 -7 2.5 -11.5t0.5 -10.5q3 3 3 6t2 7l9 42h9l-18 -63h-8l-12 47q-1 4 -1 7q-3 -3 -3 -7l-14 -47h-7zM384 30h13q6 0 8 3q4 0 4 1q2 2 2 6
q0 5 -2 6h-1q-2 0 -2 1t-1 1q-2 1 -9 1h-12v-19zM285 -5l-17 63h9l9 -42q2 -4 2 -7t3 -6q0 6 0.5 8t0.5 4l12 43h9l11 -33q1 -7 2 -11.5t1 -10.5q3 3 3 6t1 7l11 42h7l-18 -63h-7l-12 47q-2 4 -2 7q-3 -3 -3 -7l-13 -47h-9zM664 28h18q3 0 5.5 1t5.5 1t3 4q1 2 1 6q0 5 -3 8
q-1 1 -10 1h-20v-21zM384 1h16q3 0 5 2h4q2 3 5 4v6q0 3 -3 6q0 3 -3 3h-11h-13v-21zM435 -5v63h7v-63h-7zM985 25q0 -13 5 -18q6 -6 16 -6q11 0 15 6q6 5 6 20q0 7 -1 12q-3 7 -8 9q-4 1 -12 1q-9 0 -13 -4q-8 -6 -8 -20zM976 25q0 17 9 24q6 9 21 9q5 0 8.5 -1.5t6.5 -2.5
q5 -2 7 -5t5 -7q2 -3 2 -15q0 -14 -3 -18q-5 -8 -11 -12q-6 -3 -15 -3q-4 0 -8 0.5t-8 2.5q-3 3 -5.5 6t-3.5 6q-2 4 -3.5 8t-1.5 8zM592 -5l24 63h9l26 -63h-9l-8 18h-25l-9 -18h-8zM459 -5v63h7v-57h29v-6h-36zM892 -5v8h11v-8h-11zM748 19v8h26v-24q-6 -6 -12 -8
q-3 0 -7 -0.5t-7 -0.5q-9 0 -15 3q-4 3 -7 5t-5 7q-1 4 -2.5 8t-1.5 8q0 6 1.5 9t2.5 8q3 9 11 12l7.5 2.5t8.5 1.5q8 0 12 -3q6 -1 8 -6q4 -4 6 -9l-8 -1q0 1 -4 6q0 3 -6 4h-8h-9q-4 -1 -7 -4q0 -2 -5 -6q0 -3 -0.5 -6t-0.5 -6q0 -11 3 -14q6 -9 7 -10q5 -2 12 -2
q6 0 11 2q3 3 4.5 3t2.5 1v12h-18zM657 -5v63h27q4 0 7 -1.5t6 -1.5q5 -1 6 -6q3 -3 3 -9q0 -7 -4 -12q-2 -1 -5.5 -2t-8.5 -4q3 0 4 -0.5t2 -0.5q2 -3 2.5 -5.5t3.5 -5.5l12 -15h-10l-9 12q-3 3 -4 5.5t-2 3.5q0 3 -1.5 3t-3.5 2h-1q-2 0 -2 0.5t-1 0.5h-3h-11v-27h-7z
M505 -5v63h9v-57h30v-6h-39zM961 16l8 -1q-3 -12 -9 -15q-6 -6 -17 -6q-9 0 -15 3q-4 3 -5.5 6t-4.5 6q-3 12 -3 18t3 18q7 7 10 9q5 1 8 2.5t7 1.5q5 0 9.5 -1.5l7.5 -2.5q3 -3 5 -6t4 -8l-9 -1q0 6 -6 9q-3 1 -11 1q-9 0 -12 -1q-3 -2 -3.5 -4t-3.5 -5q0 -3 -1 -6t-1 -6
q0 -9 5 -14q0 -3 1.5 -5t2.5 -5q5 -2 12 -2q8 0 12 5q5 4 6 10zM1047 -5v63h12l15 -45q0 -3 1.5 -5t1.5 -5q0 1 3 10l13 45h12v-63h-7v51l-18 -51h-8l-18 53v-53h-7zM610 21h21l-7 18q-2 3 -2 5t-3 5q0 -4 -3 -10zM352 -5v8h11v-8h-11zM844 -5v63h8v-57h31v-6h-39zM787 -5
v63h45v-9h-37v-19h34v-8h-34v-21h37v-6h-45zM565 -5v26l-24 37h11l12 -19q3 -9 6 -11l2.5 5t4.5 6l12 19h9l-25 -37v-26h-8zM376 -5v63h24q3 0 5.5 -1.5t3.5 -1.5q6 -1 8 -6q3 -3 3 -9q0 -4 -3 -6q-2 -6 -6 -6q4 -1 9 -6q3 -6 3 -9t-1 -4.5t-1 -2.5q-1 -6 -6 -6
q-1 -3 -2.5 -3t-3.5 -2h-9h-24zM205 -5l-18 63h9l9 -42q2 -4 2 -7t1 -6q2 7 2 12l12 43h10l9 -33q2 -7 3.5 -11.5t1.5 -10.5q1 3 1 6t2 7l10 42h8l-18 -63h-8l-12 47q-1 4 -1 7q-2 -3 -2 -7l-13 -47h-8zM123 -5l-18 63h10l8 -42q0 -7 4 -13q2 7 2 12l12 43h9l10 -33
q2 -7 2.5 -11.5t0.5 -10.5q3 3 3 6t2 7l9 42h9l-18 -63h-8l-12 47q-1 4 -1 7q-3 -3 -3 -7l-14 -47h-7zM384 30h13q6 0 8 3q4 0 4 1q2 2 2 6q0 5 -2 6h-1q-2 0 -2 1t-1 1q-2 1 -9 1h-12v-19zM285 -5l-17 63h9l9 -42q2 -4 2 -7t3 -6q0 6 0.5 8t0.5 4l12 43h9l11 -33
q1 -7 2 -11.5t1 -10.5q3 3 3 6t1 7l11 42h7l-18 -63h-7l-12 47q-2 4 -2 7q-3 -3 -3 -7l-13 -47h-9zM664 28h18q3 0 5.5 1t5.5 1t3 4q1 2 1 6q0 5 -3 8q-1 1 -10 1h-20v-21zM384 1h16q3 0 5 2h4q2 3 5 4v6q0 3 -3 6q0 3 -3 3h-11h-13v-21zM435 -5v63h7v-63h-7zM985 25
q0 -13 5 -18q6 -6 16 -6q11 0 15 6q6 5 6 20q0 7 -1 12q-3 7 -8 9q-4 1 -12 1q-9 0 -13 -4q-8 -6 -8 -20zM976 25q0 17 9 24q6 9 21 9q5 0 8.5 -1.5t6.5 -2.5q5 -2 7 -5t5 -7q2 -3 2 -15q0 -14 -3 -18q-5 -8 -11 -12q-6 -3 -15 -3q-4 0 -8 0.5t-8 2.5q-3 3 -5.5 6t-3.5 6
q-2 4 -3.5 8t-1.5 8zM592 -5l24 63h9l26 -63h-9l-8 18h-25l-9 -18h-8zM459 -5v63h7v-57h29v-6h-36zM892 -5v8h11v-8h-11zM748 19v8h26v-24q-6 -6 -12 -8q-3 0 -7 -0.5t-7 -0.5q-9 0 -15 3q-4 3 -7 5t-5 7q-1 4 -2.5 8t-1.5 8q0 6 1.5 9t2.5 8q3 9 11 12l7.5 2.5t8.5 1.5
q8 0 12 -3q6 -1 8 -6q4 -4 6 -9l-8 -1q0 1 -4 6q0 3 -6 4h-8h-9q-4 -1 -7 -4q0 -2 -5 -6q0 -3 -0.5 -6t-0.5 -6q0 -11 3 -14q6 -9 7 -10q5 -2 12 -2q6 0 11 2q3 3 4.5 3t2.5 1v12h-18zM657 -5v63h27q4 0 7 -1.5t6 -1.5q5 -1 6 -6q3 -3 3 -9q0 -7 -4 -12q-2 -1 -5.5 -2
t-8.5 -4q3 0 4 -0.5t2 -0.5q2 -3 2.5 -5.5t3.5 -5.5l12 -15h-10l-9 12q-3 3 -4 5.5t-2 3.5q0 3 -1.5 3t-3.5 2h-1q-2 0 -2 0.5t-1 0.5h-3h-11v-27h-7zM505 -5v63h9v-57h30v-6h-39zM961 16l8 -1q-3 -12 -9 -15q-6 -6 -17 -6q-9 0 -15 3q-4 3 -5.5 6t-4.5 6q-3 12 -3 18t3 18
q7 7 10 9q5 1 8 2.5t7 1.5q5 0 9.5 -1.5l7.5 -2.5q3 -3 5 -6t4 -8l-9 -1q0 6 -6 9q-3 1 -11 1q-9 0 -12 -1q-3 -2 -3.5 -4t-3.5 -5q0 -3 -1 -6t-1 -6q0 -9 5 -14q0 -3 1.5 -5t2.5 -5q5 -2 12 -2q8 0 12 5q5 4 6 10zM1047 -5v63h12l15 -45q0 -3 1.5 -5t1.5 -5q0 1 3 10l13 45
h12v-63h-7v51l-18 -51h-8l-18 53v-53h-7zM175 111l12 -5q-3 -13 -13 -22q-12 -9 -26 -9q-13 0 -25 6q-12 9 -14 18q-6 10 -6 25q0 17 6 27q5 11 15 15q11 6 24 6q17 0 23 -7q10 -3 15 -20l-12 -1q-6 12 -11 13q-6 6 -15 6q-12 0 -18 -6q-9 -6 -12 -13q-1 -6 -1 -20
q0 -13 4 -19q3 -11 9 -14q8 -6 17 -6q12 0 19 8q3 3 5.5 7.5t3.5 10.5zM199 123q0 12 3 21t11 15q6 7 14 10t17 3q14 0 24 -6q9 -4 17 -16q6 -15 6 -26q0 -7 -1.5 -13t-4.5 -12q-8 -12 -18 -18q-12 -6 -23 -6q-7 0 -12.5 1.5t-11.5 4.5q-10 6 -15 18q-6 10 -6 24zM213 123
q0 -18 7 -29q11 -9 24 -9q15 0 23 12q10 11 10 27q0 6 -1.5 10.5t-2.5 9.5q-3 10 -12 13q-5 6 -17 6t-22 -10q-9 -8 -9 -30zM306 78v93h18l22 -66q5 -9 5 -14q3 3 6 15l24 65h15v-93h-12v78l-27 -78h-12l-27 79v-79h-12zM417 78v93h36h13q8 0 12 -5q2 -1 8 -9l2 -6t1 -7
q0 -9 -8 -20q-7 -7 -28 -7h-24v-39h-12zM429 126h25q14 0 15 6q6 1 6 12q0 7 -1 9q-6 6 -11 6q-1 3 -10 3h-24v-36zM505 78v93h12v-84h47v-9h-59zM579 78v93h69v-9h-57v-30h52v-12h-52v-33h58v-9h-70zM690 78v84h-32v9h77v-9h-32v-84h-13zM748 78v93h69v-9h-57v-30h53v-12
h-53v-33h59v-9h-71zM870 106l12 2q0 -8 3 -11q3 -6 10 -9q3 -1 14 -1h6.5t6.5 1q5 0 8 6q1 3 1 9q0 5 -1 8l-4 2t-5 4q-2 0 -17 3q-7 3 -11.5 3.5t-7.5 2.5q-6 3 -9 10q-3 2 -4 5t-1 6q0 9 6 15q2 3 5 4.5t7 4.5q3 1 18 1q11 0 17 -3q4 -3 7 -4.5t5 -5.5q6 -5 6 -14l-12 -1
q-3 12 -8 13q-4 5 -15 5q-15 0 -18 -5q-4 -4 -4 -10q0 -5 4 -8l18 -7q8 -2 13 -3.5t8 -2.5q5 -2 7 -4l5 -5q3 -5 3 -14q0 -10 -3 -15q-6 -6 -12 -9q-4 -1 -8.5 -2.5t-10.5 -1.5t-12 1.5t-9 2.5q-8 2 -15 12q-3 6 -3 15zM961 78v93h68v-9h-54v-30h52v-12h-52v-33h57v-9h-71z
M1074 78v84h-30v9h73v-9h-31v-84h-12zM112 190v93h38h13q3 0 12 -3q2 -1 4 -4l4 -6q3 -3 3 -11q0 -13 -9 -22q-5 -8 -27 -8h-23v-39h-15zM127 241h23q13 0 18 3q6 6 6 12q0 3 -1.5 6t-3.5 6q-4 5 -7 5q-2 1 -12 1h-23v-33zM201 190v93h67v-9h-54v-30h51v-10h-51v-32h57v-12
h-70zM288 190v93h43q14 0 20 -1q7 -3 10 -8q3 -12 3 -15q0 -10 -6 -16t-21 -9q3 -3 4.5 -3t3.5 -2q7 -7 10 -13l17 -26h-15l-14 20q-1 4 -3.5 7t-3.5 6q-3 2 -4 4t-2 2q-3 2 -6 2q-2 3 -8 3h-13v-44h-15zM303 243h24q12 0 15 1q4 5 7 6q2 3 2 9t-5 11q-4 4 -15 4h-28v-31z
M381 222h10q0 -3 1.5 -6t3.5 -6q1 -2 3.5 -4t5.5 -2q9 -3 15 -3h6t4 1q9 3 11 6q0 2 0.5 4t0.5 4q0 6 -1 7q-5 3 -11 6q-1 2 -5 2t-10 3q-13 1 -19 6q-8 6 -11 9q-1 4 -1 12q0 3 0.5 6.5t3.5 6.5q2 6 12 9q3 3 17 3q12 0 18 -3q9 -4 12 -10q6 -9 6 -14l-12 -3q-3 11 -8 14
q-6 6 -16 6q-12 0 -17 -6q-4 -3 -4 -9t4 -8q2 -3 17 -6q13 -6 22 -6q3 -3 6 -5t5 -5q4 -5 4 -14q0 -7 -4 -13q-3 -5 -5.5 -7t-5.5 -5q-12 -3 -19 -3q-11 0 -23 3q-4 3 -7 5t-6 7q-2 4 -2.5 8t-0.5 10zM468 237q0 21 12 36q13 13 33 13q6 0 11 -1.5t13 -4.5q6 -3 9 -7.5
t6 -10.5q6 -10 6 -25q0 -14 -6 -26q-6 -10 -15 -16q-12 -6 -24 -6q-14 0 -24 7q-14 8 -15 18q-6 8 -6 23zM480 237q0 -18 9 -27t24 -9t24 9q7 10 7 27q0 6 -0.5 12t-3.5 10q-5 8 -9 11q-8 6 -18 6q-8 0 -12.5 -2.5t-11.5 -6.5q-9 -9 -9 -30zM573 190v93h13l50 -72v72h12v-93
h-12l-51 74v-74h-12zM658 190l36 93h14l39 -93h-15l-11 30h-39l-12 -30h-12zM684 229h33l-9 26q-3 6 -4.5 11t-3.5 8q0 -4 -1.5 -8.5t-2.5 -9.5zM754 190v93h14v-81h46v-12h-60zM922 283h12v-52q0 -17 -3 -23q-3 -9 -10 -13q-8 -6 -23 -6t-21 6q-4 1 -7 5l-6 8q-2 3 -2 23
v52h11v-52q0 -15 3 -20q3 -6 7 -7q3 -2 6 -2.5t8 -0.5q12 0 19 4q6 6 6 26v52zM951 222h12q0 -3 1.5 -6t2.5 -6l4 -4t5 -2q9 -3 14 -3q10 0 15 1q3 2 7 6q2 2 2 8t-2 7q-3 2 -3.5 3.5t-3.5 2.5q-3 2 -7.5 2t-10.5 3q-6 1 -11.5 2t-6.5 4q-8 3 -9 9q-5 4 -5 12q0 6 5 13
q1 6 10 9q6 3 18 3h10t8 -3q9 -4 14 -10q1 -3 2.5 -7t1.5 -7l-12 -3q-3 5 -3.5 8.5t-3.5 5.5q-5 6 -17 6q-13 0 -15 -6q-6 -2 -6 -9q0 -5 3 -8t18 -6q17 -6 21 -6q5 -3 8 -5t4 -5q5 -3 5 -14q0 -9 -5 -13q-3 -5 -5 -7t-7 -5q-9 -3 -16 -3q-8 0 -13 0.5t-10 2.5q-3 3 -6.5 5
t-6.5 7q-3 4 -4.5 8t-1.5 10zM1044 190v93h67v-9h-54v-30h50v-10h-50v-32h56v-12h-69zM307 388q0 15 -22 18q-3 0 -7.5 1t-10.5 1l-9 -11l-24 -25q-6 -8 -11.5 -14t-12.5 -10q9 -3 22 -5h8.5t9.5 2q23 1 35 12q22 18 22 31zM324 433q0 6 -8 6q-3 0 -25 -7l-17 -15
q-3 -3 -6 -9l26 4q6 0 16 8q14 9 14 13zM343 460q0 -3 -4 -3q-3 0 -4 1t-4 1q-15 -3 -34 -23q3 3 6.5 4.5t6.5 3.5q11 1 20 0q6 0 6 -8v-6q-8 -13 -42 -21q27 -3 27 -18q0 -18 -29 -37q-10 -6 -21.5 -10t-23.5 -5q-19 -5 -30 -3q-9 0 -19 4q-9 -6 -17 -6h-3l-15 5h5
q12 0 19 6v1q-10 -6 -22 -6q-17 0 -26 9q-15 11 -15 32q0 6 1.5 11t4.5 13q11 22 36 39q8 7 16 9.5t16 3.5q16 0 22 -6q-7 5 -15 5q-9 0 -19 -6q-15 -6 -17 -9q-15 -8 -30 -26q-13 -21 -13 -36q0 -7 1.5 -11.5t4.5 -9.5q6 -9 16 -12q5 -1 8 -2t6 -1q6 0 10.5 1.5t10.5 4.5
q-17 12 -17 33q3 20 24 35l-3 -5q-3 0 -6 -6q-9 -9 -9 -19q0 -20 23 -33q12 7 12 9q3 4 6 7l6 6t3.5 7.5t3.5 9.5v-2q0 -7 -1 -12l18 21q46 53 76 62q-13 4 -21 4q-19 -1 -42 -13q-27 -14 -27 -33q0 -6 5 -11q1 -1 1 -3q-9 6 -9 15q0 17 20 33q24 18 51 15q9 0 27 -6h6
q7 0 12 -3h1zM346 363q-1 -6 -12 -17q-10 -6 -18 -6q-7 0 -7 9q0 8 9 20h-2q-1 -2 -6 -2l-1 2q4 0 15 10h1l5 6q4 5 4 8h5q4 0 4 -2q0 -6 -9 -16l-10 -11q-9 -13 -9 -18q0 -4 6 -4q7 0 18 15q1 1 2.5 2t4.5 4zM354 405q-6 -9 -15 -9q-5 0 -11 4h5q10 0 13 11v3l8 -3
q1 -2 0 -6zM406 433q0 -7 -46 -63h-2q-13 -16 -13 -25q0 -5 4 -5q9 0 20 15q1 2 2.5 2.5t3.5 3.5q0 -7 -12 -16q-8 -6 -17 -6q-9 1 -9 9q-1 7 30 46l18 23l9 9q5 6 8 15q4 -3 4 -8zM432 433q0 -6 -48 -63q-15 -18 -15 -25q0 -5 6 -5t19 15l6 6q-1 -7 -13 -16q-8 -6 -17 -6
q-9 1 -9 9q0 9 30 46l18 23l9 9q8 9 9 15q5 -3 5 -8zM403 333q-24 -5 -37 -18q-11 -14 -11 -17q0 -6 6 -6q2 -1 11 2l6.5 6.5l8.5 8.5zM447 430q-3 -21 -20 -37q0 -2 -0.5 -2t-0.5 -1q-5 -6 -10 -11.5t-10 -12.5q-3 -3 -3 -6q-1 3 2 9q-9 -14 -9 -21q0 -5 4 -5q2 0 8 3
q22 18 31 51v-4v-5q3 -3 3 -7q0 -3 -7 -15l-12 -20l-14 -18q5 3 17 9l-2 -1q-3 -3 -8 -7t-10 -11l-12 -15l-6 -8q-9 -9 -19 -12q-9 0 -14 6q-9 3 -3 14q2 1 3.5 4t4.5 6l1 2l-10 -2q25 18 42 20q1 0 2.5 0.5t3.5 0.5h1h3l9 14q-6 -6 -10.5 -7t-7.5 -1q-7 0 -7 8q0 18 31 46
l3 2l15 15q3 6 6 10.5t5 8.5zM618 453q-9 3 -15 3q-15 0 -28 -4t-26 -11q-6 -3 -10 -7t-8 -7q18 -1 48 -19q33 33 57 42zM649 447q-6 -2 -12.5 -4t-14.5 -10q-4 -3 -22 -21l-11 -10l15 -9q3 4 9 11t14 16zM663 472q0 -1 -2 -3q0 -10 -4 -21l1 -1h-1q-8 -18 -20 -30l-24 -29
q3 -1 4.5 -1t4.5 -2q0 -3 -1 -3q-3 0 -4.5 1t-4.5 2q-18 -19 -20 -36q-3 -6 -3 -9q0 -6 6 -6q12 0 26 20l6 9q15 21 19 37v5q0 -2 2 -3v-2q-3 -21 -15 -39l-20 -39q0 6 5 20q-18 -14 -27 -14q-14 0 -11 18q0 9 6 20.5t15 24.5l-15 8l-13 -14q-5 -6 -13 -15t-20 -24
q-24 -24 -42 -24h-5q-4 0 -13 5h3q13 -3 27 10q-12 -6 -29 -6q-16 0 -27 8h2q-15 10 -15 31q0 15 6 23q9 24 34 40q9 8 17.5 10t17.5 4q15 0 21 -6h-2q-3 3 -13 3q-15 0 -38 -14q-16 -12 -28 -25q-14 -21 -14 -38q0 -24 23 -31q9 -3 13 -3q32 1 69 42l29 30q-23 13 -51 13
h-2q-3 -6 -3 -13q2 0 8 -9q-11 6 -11 15q0 4 2 7q-15 -3 -20 -6q-27 -10 -24 -31q0 -14 9 -24l3 -3q-18 18 -18 31q0 20 18 33q15 11 38 11q21 24 52 28q8 2 24 2q8 0 23 -3l18 -5h9l1 -1q6 10 9 25h2v-3zM682 375q0 -5 -1 -8q-8 -7 -13 -13t-10 -14h2h1q-1 -1 -3 -1
q-1 0 -1 -2q-8 0 -8 3q0 6 14 20q10 13 10 16q2 5 -4 9q-18 -25 -32 -31l-6 -3l-3 1q6 0 20 15q13 12 18 20q0 1 -1 1t-1 2q0 1 11 10q0 2 1 2l2 -2q0 -1 -8 -12q12 -4 12 -13zM726 379q0 9 -6 6q-6 0 -9 -3q-5 -3 -14 -15t-9 -19q-1 -3 3 -3q9 3 15 10q6 12 6 17q0 3 -1 3
q6 0 6 -8l-2 -3q3 3 5.5 7t5.5 7v1zM754 393q-6 0 -13 -8q-6 -7 -12 -16l-14 -21q-7 -15 -13 -23.5t-8 -11.5q-19 -24 -30 -24q-9 -1 -13 6v8q0 7 6 13q-3 -1 -8 -1q15 15 33 19q2 0 2.5 1t3.5 1l2 -2q-29 -9 -35 -27q-1 -3 -1 -7q0 -2 1 -3q0 -2 2 -2q12 -1 28 23l11 15
l6 9q-5 -2 -8 -2q-12 0 -12 12q0 14 20 32q9 9 16 9q11 0 11 -12h1l8 9q7 7 13 7q5 0 8 -4h-5zM781 382q0 -9 -16 -18q-2 -1 -3 -1h-2q-4 0 -9 7q3 -3 8 -3q10 6 13 17v3v1v2q-6 0 -19 -14v-1q-5 -6 -5.5 -10t-0.5 -7q-2 2 -2 9q-3 -6 -4 -10q-3 -6 -3 -11q0 -1 1 -3
q0 -3 6 -3q15 6 26 15q3 3 7 6l-6 -8t-10 -8q-12 -8 -21 -5q0 -1 -2 0q-9 0 -9 9q0 15 17 30q9 14 24 14q3 0 4 -2q6 -4 6 -9zM841 433q0 -6 -48 -63q-13 -16 -13 -25q0 -5 4 -5q9 0 20 15q1 2 2.5 2.5t3.5 3.5q0 -7 -12 -16q-8 -6 -18 -6q-8 3 -8 9q0 12 29 46l18 23l9 9
q9 9 9 15q4 -3 4 -8zM922 387q-25 9 -27 28q-7 -4 -14.5 -8t-12.5 -8q-28 -27 -28 -50q0 -9 4 -10h3h3q23 0 42 15q6 6 14.5 13.5t15.5 19.5zM952 430h-12q-18 -1 -43 -13q3 -21 28 -26l11 14zM979 457q-19 0 -35 -3t-28 -10q8 7 19 11.5t25 7.5q-30 2 -53 -18
q-4 -3 -10 -15q10 3 20 4.5t22 0.5h7.5t11.5 -2q3 5 8.5 11t12.5 13zM1074 459q-3 -5 -7 -8.5t-11 -6.5q-12 -8 -23 -8h-3q-1 0 -3 2q2 1 2 2.5t3 4.5q-14 11 -38 11l-6 -8l-15 -18q12 -1 22.5 -2.5t19.5 -1.5q21 0 29 4q-6 -6 -23 -9q-13 -3 -27 2l-24 4q-6 -7 -11 -12.5
t-8 -11.5l-11 -15h8q37 3 43 18h2q-5 -9 -20 -16q-7 -3 -14 -4.5t-13 -1.5h-7q-11 -12 -17.5 -21t-12.5 -15q-20 -21 -36 -21q-8 1 -17 1q15 0 32 15q-21 -9 -33 -9l-9 2l12 -12q-12 6 -20 13q-1 0 -7 3q-18 14 -20 35v13t3 12q5 14 12.5 23.5t17.5 20.5q26 22 45 22
q11 0 18 -6l-1 -1q-5 4 -14 4q-19 -3 -40 -19q-18 -15 -27 -30q-12 -21 -12 -39q3 -27 24 -35q-3 9 -2 18q3 23 17 39q16 21 45 33q3 3 3 9l13 14q20 16 51 16h13t13 -1h1q11 7 19 11t17 2q6 0 9 -3l-16 -3q-3 -1 -7 -2.5t-8 -4.5q6 -2 12 -2.5t13 -3.5q15 -5 24 -5
q14 0 20 2zM982 354q-4 4 -4 10q0 3 0.5 5.5t0.5 5.5q-15 -20 -13 -29q0 -3 3 -3t13 11zM1002 385q0 3 -3 3t-6 -1q-2 -2 -5 -8q-7 -15 -7 -19q0 -5 1 -6l5 4v2v-2q1 2 1 2.5t2 2.5q3 9 3 12q0 1 -2 3q3 -6 3 -8q5 5 8 15zM1008 381q0 -8 -11 -23q-13 -13 -19 -18h-12
q-9 0 -9 8q0 12 16 31q11 14 24 14q11 0 11 -12zM1057 384q2 -3 -6 -17q-9 -12 -12 -15l-18 -16q-10 -11 -13 -23q1 18 13 32q6 6 9 10.5t6 10.5q2 1 3 6v-5l-1 -3q3 3 9 15q0 2 0.5 2.5t0.5 2.5q0 7 -7 4l-12 -9q-3 -7 -8.5 -12.5t-11.5 -12.5q-7 -9 -9 -14q-1 -1 -7 -13
q0 3 -1 6.5t1 6.5q3 11 13 21l9 11q8 10 8 16q0 2 -1 3.5t-1 2.5q9 -3 9 -9q9 8 20 8q6 -3 7 -9zM1116 405h-23q-1 -3 -9.5 -12t-20.5 -26q-3 0 -6 -7q-6 -8 -6 -15q0 -5 3 -5q8 0 21 15l2 2q1 1 1 2t2 2q0 -7 -11 -16q-7 -6 -18 -6q-7 3 -9 9q0 3 6 15l18 21l17 21l-26 3
q-6 1 -15 1h-13q-18 0 -36 -7h-2q15 15 47 15q1 0 12.5 -2.5t32.5 -5.5l4 -1q5 7 8.5 12.5t6.5 9.5q3 -1 3 -7q0 -5 -3 -8l-6 -9l12 -1h9h2h4h-7zM1126 385q0 -4 -10 -9l-2 -1q5 4 5 12v6h-5q-7 0 -9 -6q0 -3 5 -26q1 -21 -24 -21q-14 0 -17 9q-1 2 -1 5q0 12 18 15l6 -2h-3
q-6 0 -9 -3q-5 -7 -5 -10q0 -12 12 -12t12 16q0 8 -1 12q-2 5 -2 11q0 15 14 15q3 0 4.5 -1t4.5 -1q6 -3 6 -4q1 -2 1 -5z" />
    <glyph glyph-name="six" unicode="6" horiz-adv-x="1219" 
d="M876 781l-137 -124l36 -186l-160 94l-165 -94l39 181l-138 129l186 20l78 171l75 -170zM682 576l-43 258h-53l-45 -258l23 -14l19 14l9 58h39l11 -58l21 -14zM628 672h-30l14 102zM610 21h21l-7 18q-2 3 -2 5t-3 5q0 -4 -3 -10zM352 -5v8h11v-8h-11zM844 -5v63h8v-57h31
v-6h-39zM787 -5v63h45v-9h-37v-19h34v-8h-34v-21h37v-6h-45zM565 -5v26l-24 37h11l12 -19q3 -9 6 -11l2.5 5t4.5 6l12 19h9l-25 -37v-26h-8zM376 -5v63h24q3 0 5.5 -1.5t3.5 -1.5q6 -1 8 -6q3 -3 3 -9q0 -4 -3 -6q-2 -6 -6 -6q4 -1 9 -6q3 -6 3 -9t-1 -4.5t-1 -2.5
q-1 -6 -6 -6q-1 -3 -2.5 -3t-3.5 -2h-9h-24zM205 -5l-18 63h9l9 -42q2 -4 2 -7t1 -6q2 7 2 12l12 43h10l9 -33q2 -7 3.5 -11.5t1.5 -10.5q1 3 1 6t2 7l10 42h8l-18 -63h-8l-12 47q-1 4 -1 7q-2 -3 -2 -7l-13 -47h-8zM123 -5l-18 63h10l8 -42q0 -7 4 -13q2 7 2 12l12 43h9
l10 -33q2 -7 2.5 -11.5t0.5 -10.5q3 3 3 6t2 7l9 42h9l-18 -63h-8l-12 47q-1 4 -1 7q-3 -3 -3 -7l-14 -47h-7zM384 30h13q6 0 8 3q4 0 4 1q2 2 2 6q0 5 -2 6h-1q-2 0 -2 1t-1 1q-2 1 -9 1h-12v-19zM285 -5l-17 63h9l9 -42q2 -4 2 -7t3 -6q0 6 0.5 8t0.5 4l12 43h9l11 -33
q1 -7 2 -11.5t1 -10.5q3 3 3 6t1 7l11 42h7l-18 -63h-7l-12 47q-2 4 -2 7q-3 -3 -3 -7l-13 -47h-9zM664 28h18q3 0 5.5 1t5.5 1t3 4q1 2 1 6q0 5 -3 8q-1 1 -10 1h-20v-21zM384 1h16q3 0 5 2h4q2 3 5 4v6q0 3 -3 6q0 3 -3 3h-11h-13v-21zM435 -5v63h7v-63h-7zM985 25
q0 -13 5 -18q6 -6 16 -6q11 0 15 6q6 5 6 20q0 7 -1 12q-3 7 -8 9q-4 1 -12 1q-9 0 -13 -4q-8 -6 -8 -20zM976 25q0 17 9 24q6 9 21 9q5 0 8.5 -1.5t6.5 -2.5q5 -2 7 -5t5 -7q2 -3 2 -15q0 -14 -3 -18q-5 -8 -11 -12q-6 -3 -15 -3q-4 0 -8 0.5t-8 2.5q-3 3 -5.5 6t-3.5 6
q-2 4 -3.5 8t-1.5 8zM592 -5l24 63h9l26 -63h-9l-8 18h-25l-9 -18h-8zM459 -5v63h7v-57h29v-6h-36zM892 -5v8h11v-8h-11zM748 19v8h26v-24q-6 -6 -12 -8q-3 0 -7 -0.5t-7 -0.5q-9 0 -15 3q-4 3 -7 5t-5 7q-1 4 -2.5 8t-1.5 8q0 6 1.5 9t2.5 8q3 9 11 12l7.5 2.5t8.5 1.5
q8 0 12 -3q6 -1 8 -6q4 -4 6 -9l-8 -1q0 1 -4 6q0 3 -6 4h-8h-9q-4 -1 -7 -4q0 -2 -5 -6q0 -3 -0.5 -6t-0.5 -6q0 -11 3 -14q6 -9 7 -10q5 -2 12 -2q6 0 11 2q3 3 4.5 3t2.5 1v12h-18zM657 -5v63h27q4 0 7 -1.5t6 -1.5q5 -1 6 -6q3 -3 3 -9q0 -7 -4 -12q-2 -1 -5.5 -2
t-8.5 -4q3 0 4 -0.5t2 -0.5q2 -3 2.5 -5.5t3.5 -5.5l12 -15h-10l-9 12q-3 3 -4 5.5t-2 3.5q0 3 -1.5 3t-3.5 2h-1q-2 0 -2 0.5t-1 0.5h-3h-11v-27h-7zM505 -5v63h9v-57h30v-6h-39zM961 16l8 -1q-3 -12 -9 -15q-6 -6 -17 -6q-9 0 -15 3q-4 3 -5.5 6t-4.5 6q-3 12 -3 18t3 18
q7 7 10 9q5 1 8 2.5t7 1.5q5 0 9.5 -1.5l7.5 -2.5q3 -3 5 -6t4 -8l-9 -1q0 6 -6 9q-3 1 -11 1q-9 0 -12 -1q-3 -2 -3.5 -4t-3.5 -5q0 -3 -1 -6t-1 -6q0 -9 5 -14q0 -3 1.5 -5t2.5 -5q5 -2 12 -2q8 0 12 5q5 4 6 10zM1047 -5v63h12l15 -45q0 -3 1.5 -5t1.5 -5q0 1 3 10l13 45
h12v-63h-7v51l-18 -51h-8l-18 53v-53h-7zM610 21h21l-7 18q-2 3 -2 5t-3 5q0 -4 -3 -10zM352 -5v8h11v-8h-11zM844 -5v63h8v-57h31v-6h-39zM787 -5v63h45v-9h-37v-19h34v-8h-34v-21h37v-6h-45zM565 -5v26l-24 37h11l12 -19q3 -9 6 -11l2.5 5t4.5 6l12 19h9l-25 -37v-26h-8z
M376 -5v63h24q3 0 5.5 -1.5t3.5 -1.5q6 -1 8 -6q3 -3 3 -9q0 -4 -3 -6q-2 -6 -6 -6q4 -1 9 -6q3 -6 3 -9t-1 -4.5t-1 -2.5q-1 -6 -6 -6q-1 -3 -2.5 -3t-3.5 -2h-9h-24zM205 -5l-18 63h9l9 -42q2 -4 2 -7t1 -6q2 7 2 12l12 43h10l9 -33q2 -7 3.5 -11.5t1.5 -10.5q1 3 1 6t2 7
l10 42h8l-18 -63h-8l-12 47q-1 4 -1 7q-2 -3 -2 -7l-13 -47h-8zM123 -5l-18 63h10l8 -42q0 -7 4 -13q2 7 2 12l12 43h9l10 -33q2 -7 2.5 -11.5t0.5 -10.5q3 3 3 6t2 7l9 42h9l-18 -63h-8l-12 47q-1 4 -1 7q-3 -3 -3 -7l-14 -47h-7zM384 30h13q6 0 8 3q4 0 4 1q2 2 2 6
q0 5 -2 6h-1q-2 0 -2 1t-1 1q-2 1 -9 1h-12v-19zM285 -5l-17 63h9l9 -42q2 -4 2 -7t3 -6q0 6 0.5 8t0.5 4l12 43h9l11 -33q1 -7 2 -11.5t1 -10.5q3 3 3 6t1 7l11 42h7l-18 -63h-7l-12 47q-2 4 -2 7q-3 -3 -3 -7l-13 -47h-9zM664 28h18q3 0 5.5 1t5.5 1t3 4q1 2 1 6q0 5 -3 8
q-1 1 -10 1h-20v-21zM384 1h16q3 0 5 2h4q2 3 5 4v6q0 3 -3 6q0 3 -3 3h-11h-13v-21zM435 -5v63h7v-63h-7zM985 25q0 -13 5 -18q6 -6 16 -6q11 0 15 6q6 5 6 20q0 7 -1 12q-3 7 -8 9q-4 1 -12 1q-9 0 -13 -4q-8 -6 -8 -20zM976 25q0 17 9 24q6 9 21 9q5 0 8.5 -1.5t6.5 -2.5
q5 -2 7 -5t5 -7q2 -3 2 -15q0 -14 -3 -18q-5 -8 -11 -12q-6 -3 -15 -3q-4 0 -8 0.5t-8 2.5q-3 3 -5.5 6t-3.5 6q-2 4 -3.5 8t-1.5 8zM592 -5l24 63h9l26 -63h-9l-8 18h-25l-9 -18h-8zM459 -5v63h7v-57h29v-6h-36zM892 -5v8h11v-8h-11zM748 19v8h26v-24q-6 -6 -12 -8
q-3 0 -7 -0.5t-7 -0.5q-9 0 -15 3q-4 3 -7 5t-5 7q-1 4 -2.5 8t-1.5 8q0 6 1.5 9t2.5 8q3 9 11 12l7.5 2.5t8.5 1.5q8 0 12 -3q6 -1 8 -6q4 -4 6 -9l-8 -1q0 1 -4 6q0 3 -6 4h-8h-9q-4 -1 -7 -4q0 -2 -5 -6q0 -3 -0.5 -6t-0.5 -6q0 -11 3 -14q6 -9 7 -10q5 -2 12 -2
q6 0 11 2q3 3 4.5 3t2.5 1v12h-18zM657 -5v63h27q4 0 7 -1.5t6 -1.5q5 -1 6 -6q3 -3 3 -9q0 -7 -4 -12q-2 -1 -5.5 -2t-8.5 -4q3 0 4 -0.5t2 -0.5q2 -3 2.5 -5.5t3.5 -5.5l12 -15h-10l-9 12q-3 3 -4 5.5t-2 3.5q0 3 -1.5 3t-3.5 2h-1q-2 0 -2 0.5t-1 0.5h-3h-11v-27h-7z
M505 -5v63h9v-57h30v-6h-39zM961 16l8 -1q-3 -12 -9 -15q-6 -6 -17 -6q-9 0 -15 3q-4 3 -5.5 6t-4.5 6q-3 12 -3 18t3 18q7 7 10 9q5 1 8 2.5t7 1.5q5 0 9.5 -1.5l7.5 -2.5q3 -3 5 -6t4 -8l-9 -1q0 6 -6 9q-3 1 -11 1q-9 0 -12 -1q-3 -2 -3.5 -4t-3.5 -5q0 -3 -1 -6t-1 -6
q0 -9 5 -14q0 -3 1.5 -5t2.5 -5q5 -2 12 -2q8 0 12 5q5 4 6 10zM1047 -5v63h12l15 -45q0 -3 1.5 -5t1.5 -5q0 1 3 10l13 45h12v-63h-7v51l-18 -51h-8l-18 53v-53h-7zM610 21h21l-7 18q-2 3 -2 5t-3 5q0 -4 -3 -10zM352 -5v8h11v-8h-11zM844 -5v63h8v-57h31v-6h-39zM787 -5
v63h45v-9h-37v-19h34v-8h-34v-21h37v-6h-45zM565 -5v26l-24 37h11l12 -19q3 -9 6 -11l2.5 5t4.5 6l12 19h9l-25 -37v-26h-8zM376 -5v63h24q3 0 5.5 -1.5t3.5 -1.5q6 -1 8 -6q3 -3 3 -9q0 -4 -3 -6q-2 -6 -6 -6q4 -1 9 -6q3 -6 3 -9t-1 -4.5t-1 -2.5q-1 -6 -6 -6
q-1 -3 -2.5 -3t-3.5 -2h-9h-24zM205 -5l-18 63h9l9 -42q2 -4 2 -7t1 -6q2 7 2 12l12 43h10l9 -33q2 -7 3.5 -11.5t1.5 -10.5q1 3 1 6t2 7l10 42h8l-18 -63h-8l-12 47q-1 4 -1 7q-2 -3 -2 -7l-13 -47h-8zM123 -5l-18 63h10l8 -42q0 -7 4 -13q2 7 2 12l12 43h9l10 -33
q2 -7 2.5 -11.5t0.5 -10.5q3 3 3 6t2 7l9 42h9l-18 -63h-8l-12 47q-1 4 -1 7q-3 -3 -3 -7l-14 -47h-7zM384 30h13q6 0 8 3q4 0 4 1q2 2 2 6q0 5 -2 6h-1q-2 0 -2 1t-1 1q-2 1 -9 1h-12v-19zM285 -5l-17 63h9l9 -42q2 -4 2 -7t3 -6q0 6 0.5 8t0.5 4l12 43h9l11 -33
q1 -7 2 -11.5t1 -10.5q3 3 3 6t1 7l11 42h7l-18 -63h-7l-12 47q-2 4 -2 7q-3 -3 -3 -7l-13 -47h-9zM664 28h18q3 0 5.5 1t5.5 1t3 4q1 2 1 6q0 5 -3 8q-1 1 -10 1h-20v-21zM384 1h16q3 0 5 2h4q2 3 5 4v6q0 3 -3 6q0 3 -3 3h-11h-13v-21zM435 -5v63h7v-63h-7zM985 25
q0 -13 5 -18q6 -6 16 -6q11 0 15 6q6 5 6 20q0 7 -1 12q-3 7 -8 9q-4 1 -12 1q-9 0 -13 -4q-8 -6 -8 -20zM976 25q0 17 9 24q6 9 21 9q5 0 8.5 -1.5t6.5 -2.5q5 -2 7 -5t5 -7q2 -3 2 -15q0 -14 -3 -18q-5 -8 -11 -12q-6 -3 -15 -3q-4 0 -8 0.5t-8 2.5q-3 3 -5.5 6t-3.5 6
q-2 4 -3.5 8t-1.5 8zM592 -5l24 63h9l26 -63h-9l-8 18h-25l-9 -18h-8zM459 -5v63h7v-57h29v-6h-36zM892 -5v8h11v-8h-11zM748 19v8h26v-24q-6 -6 -12 -8q-3 0 -7 -0.5t-7 -0.5q-9 0 -15 3q-4 3 -7 5t-5 7q-1 4 -2.5 8t-1.5 8q0 6 1.5 9t2.5 8q3 9 11 12l7.5 2.5t8.5 1.5
q8 0 12 -3q6 -1 8 -6q4 -4 6 -9l-8 -1q0 1 -4 6q0 3 -6 4h-8h-9q-4 -1 -7 -4q0 -2 -5 -6q0 -3 -0.5 -6t-0.5 -6q0 -11 3 -14q6 -9 7 -10q5 -2 12 -2q6 0 11 2q3 3 4.5 3t2.5 1v12h-18zM657 -5v63h27q4 0 7 -1.5t6 -1.5q5 -1 6 -6q3 -3 3 -9q0 -7 -4 -12q-2 -1 -5.5 -2
t-8.5 -4q3 0 4 -0.5t2 -0.5q2 -3 2.5 -5.5t3.5 -5.5l12 -15h-10l-9 12q-3 3 -4 5.5t-2 3.5q0 3 -1.5 3t-3.5 2h-1q-2 0 -2 0.5t-1 0.5h-3h-11v-27h-7zM505 -5v63h9v-57h30v-6h-39zM961 16l8 -1q-3 -12 -9 -15q-6 -6 -17 -6q-9 0 -15 3q-4 3 -5.5 6t-4.5 6q-3 12 -3 18t3 18
q7 7 10 9q5 1 8 2.5t7 1.5q5 0 9.5 -1.5l7.5 -2.5q3 -3 5 -6t4 -8l-9 -1q0 6 -6 9q-3 1 -11 1q-9 0 -12 -1q-3 -2 -3.5 -4t-3.5 -5q0 -3 -1 -6t-1 -6q0 -9 5 -14q0 -3 1.5 -5t2.5 -5q5 -2 12 -2q8 0 12 5q5 4 6 10zM1047 -5v63h12l15 -45q0 -3 1.5 -5t1.5 -5q0 1 3 10l13 45
h12v-63h-7v51l-18 -51h-8l-18 53v-53h-7zM175 111l12 -5q-3 -13 -13 -22q-12 -9 -26 -9q-13 0 -25 6q-12 9 -14 18q-6 10 -6 25q0 17 6 27q5 11 15 15q11 6 24 6q17 0 23 -7q10 -3 15 -20l-12 -1q-6 12 -11 13q-6 6 -15 6q-12 0 -18 -6q-9 -6 -12 -13q-1 -6 -1 -20
q0 -13 4 -19q3 -11 9 -14q8 -6 17 -6q12 0 19 8q3 3 5.5 7.5t3.5 10.5zM199 123q0 12 3 21t11 15q6 7 14 10t17 3q14 0 24 -6q9 -4 17 -16q6 -15 6 -26q0 -7 -1.5 -13t-4.5 -12q-8 -12 -18 -18q-12 -6 -23 -6q-7 0 -12.5 1.5t-11.5 4.5q-10 6 -15 18q-6 10 -6 24zM213 123
q0 -18 7 -29q11 -9 24 -9q15 0 23 12q10 11 10 27q0 6 -1.5 10.5t-2.5 9.5q-3 10 -12 13q-5 6 -17 6t-22 -10q-9 -8 -9 -30zM306 78v93h18l22 -66q5 -9 5 -14q3 3 6 15l24 65h15v-93h-12v78l-27 -78h-12l-27 79v-79h-12zM417 78v93h36h13q8 0 12 -5q2 -1 8 -9l2 -6t1 -7
q0 -9 -8 -20q-7 -7 -28 -7h-24v-39h-12zM429 126h25q14 0 15 6q6 1 6 12q0 7 -1 9q-6 6 -11 6q-1 3 -10 3h-24v-36zM505 78v93h12v-84h47v-9h-59zM579 78v93h69v-9h-57v-30h52v-12h-52v-33h58v-9h-70zM690 78v84h-32v9h77v-9h-32v-84h-13zM748 78v93h69v-9h-57v-30h53v-12
h-53v-33h59v-9h-71zM870 106l12 2q0 -8 3 -11q3 -6 10 -9q3 -1 14 -1h6.5t6.5 1q5 0 8 6q1 3 1 9q0 5 -1 8l-4 2t-5 4q-2 0 -17 3q-7 3 -11.5 3.5t-7.5 2.5q-6 3 -9 10q-3 2 -4 5t-1 6q0 9 6 15q2 3 5 4.5t7 4.5q3 1 18 1q11 0 17 -3q4 -3 7 -4.5t5 -5.5q6 -5 6 -14l-12 -1
q-3 12 -8 13q-4 5 -15 5q-15 0 -18 -5q-4 -4 -4 -10q0 -5 4 -8l18 -7q8 -2 13 -3.5t8 -2.5q5 -2 7 -4l5 -5q3 -5 3 -14q0 -10 -3 -15q-6 -6 -12 -9q-4 -1 -8.5 -2.5t-10.5 -1.5t-12 1.5t-9 2.5q-8 2 -15 12q-3 6 -3 15zM961 78v93h68v-9h-54v-30h52v-12h-52v-33h57v-9h-71z
M1074 78v84h-30v9h73v-9h-31v-84h-12zM112 190v93h38h13q3 0 12 -3q2 -1 4 -4l4 -6q3 -3 3 -11q0 -13 -9 -22q-5 -8 -27 -8h-23v-39h-15zM127 241h23q13 0 18 3q6 6 6 12q0 3 -1.5 6t-3.5 6q-4 5 -7 5q-2 1 -12 1h-23v-33zM201 190v93h67v-9h-54v-30h51v-10h-51v-32h57v-12
h-70zM288 190v93h43q14 0 20 -1q7 -3 10 -8q3 -12 3 -15q0 -10 -6 -16t-21 -9q3 -3 4.5 -3t3.5 -2q7 -7 10 -13l17 -26h-15l-14 20q-1 4 -3.5 7t-3.5 6q-3 2 -4 4t-2 2q-3 2 -6 2q-2 3 -8 3h-13v-44h-15zM303 243h24q12 0 15 1q4 5 7 6q2 3 2 9t-5 11q-4 4 -15 4h-28v-31z
M381 222h10q0 -3 1.5 -6t3.5 -6q1 -2 3.5 -4t5.5 -2q9 -3 15 -3h6t4 1q9 3 11 6q0 2 0.5 4t0.5 4q0 6 -1 7q-5 3 -11 6q-1 2 -5 2t-10 3q-13 1 -19 6q-8 6 -11 9q-1 4 -1 12q0 3 0.5 6.5t3.5 6.5q2 6 12 9q3 3 17 3q12 0 18 -3q9 -4 12 -10q6 -9 6 -14l-12 -3q-3 11 -8 14
q-6 6 -16 6q-12 0 -17 -6q-4 -3 -4 -9t4 -8q2 -3 17 -6q13 -6 22 -6q3 -3 6 -5t5 -5q4 -5 4 -14q0 -7 -4 -13q-3 -5 -5.5 -7t-5.5 -5q-12 -3 -19 -3q-11 0 -23 3q-4 3 -7 5t-6 7q-2 4 -2.5 8t-0.5 10zM468 237q0 21 12 36q13 13 33 13q6 0 11 -1.5t13 -4.5q6 -3 9 -7.5
t6 -10.5q6 -10 6 -25q0 -14 -6 -26q-6 -10 -15 -16q-12 -6 -24 -6q-14 0 -24 7q-14 8 -15 18q-6 8 -6 23zM480 237q0 -18 9 -27t24 -9t24 9q7 10 7 27q0 6 -0.5 12t-3.5 10q-5 8 -9 11q-8 6 -18 6q-8 0 -12.5 -2.5t-11.5 -6.5q-9 -9 -9 -30zM573 190v93h13l50 -72v72h12v-93
h-12l-51 74v-74h-12zM658 190l36 93h14l39 -93h-15l-11 30h-39l-12 -30h-12zM684 229h33l-9 26q-3 6 -4.5 11t-3.5 8q0 -4 -1.5 -8.5t-2.5 -9.5zM754 190v93h14v-81h46v-12h-60zM922 283h12v-52q0 -17 -3 -23q-3 -9 -10 -13q-8 -6 -23 -6t-21 6q-4 1 -7 5l-6 8q-2 3 -2 23
v52h11v-52q0 -15 3 -20q3 -6 7 -7q3 -2 6 -2.5t8 -0.5q12 0 19 4q6 6 6 26v52zM951 222h12q0 -3 1.5 -6t2.5 -6l4 -4t5 -2q9 -3 14 -3q10 0 15 1q3 2 7 6q2 2 2 8t-2 7q-3 2 -3.5 3.5t-3.5 2.5q-3 2 -7.5 2t-10.5 3q-6 1 -11.5 2t-6.5 4q-8 3 -9 9q-5 4 -5 12q0 6 5 13
q1 6 10 9q6 3 18 3h10t8 -3q9 -4 14 -10q1 -3 2.5 -7t1.5 -7l-12 -3q-3 5 -3.5 8.5t-3.5 5.5q-5 6 -17 6q-13 0 -15 -6q-6 -2 -6 -9q0 -5 3 -8t18 -6q17 -6 21 -6q5 -3 8 -5t4 -5q5 -3 5 -14q0 -9 -5 -13q-3 -5 -5 -7t-7 -5q-9 -3 -16 -3q-8 0 -13 0.5t-10 2.5q-3 3 -6.5 5
t-6.5 7q-3 4 -4.5 8t-1.5 10zM1044 190v93h67v-9h-54v-30h50v-10h-50v-32h56v-12h-69zM307 388q0 15 -22 18q-3 0 -7.5 1t-10.5 1l-9 -11l-24 -25q-6 -8 -11.5 -14t-12.5 -10q9 -3 22 -5h8.5t9.5 2q23 1 35 12q22 18 22 31zM324 433q0 6 -8 6q-3 0 -25 -7l-17 -15
q-3 -3 -6 -9l26 4q6 0 16 8q14 9 14 13zM343 460q0 -3 -4 -3q-3 0 -4 1t-4 1q-15 -3 -34 -23q3 3 6.5 4.5t6.5 3.5q11 1 20 0q6 0 6 -8v-6q-8 -13 -42 -21q27 -3 27 -18q0 -18 -29 -37q-10 -6 -21.5 -10t-23.5 -5q-19 -5 -30 -3q-9 0 -19 4q-9 -6 -17 -6h-3l-15 5h5
q12 0 19 6v1q-10 -6 -22 -6q-17 0 -26 9q-15 11 -15 32q0 6 1.5 11t4.5 13q11 22 36 39q8 7 16 9.5t16 3.5q16 0 22 -6q-7 5 -15 5q-9 0 -19 -6q-15 -6 -17 -9q-15 -8 -30 -26q-13 -21 -13 -36q0 -7 1.5 -11.5t4.5 -9.5q6 -9 16 -12q5 -1 8 -2t6 -1q6 0 10.5 1.5t10.5 4.5
q-17 12 -17 33q3 20 24 35l-3 -5q-3 0 -6 -6q-9 -9 -9 -19q0 -20 23 -33q12 7 12 9q3 4 6 7l6 6t3.5 7.5t3.5 9.5v-2q0 -7 -1 -12l18 21q46 53 76 62q-13 4 -21 4q-19 -1 -42 -13q-27 -14 -27 -33q0 -6 5 -11q1 -1 1 -3q-9 6 -9 15q0 17 20 33q24 18 51 15q9 0 27 -6h6
q7 0 12 -3h1zM346 363q-1 -6 -12 -17q-10 -6 -18 -6q-7 0 -7 9q0 8 9 20h-2q-1 -2 -6 -2l-1 2q4 0 15 10h1l5 6q4 5 4 8h5q4 0 4 -2q0 -6 -9 -16l-10 -11q-9 -13 -9 -18q0 -4 6 -4q7 0 18 15q1 1 2.5 2t4.5 4zM354 405q-6 -9 -15 -9q-5 0 -11 4h5q10 0 13 11v3l8 -3
q1 -2 0 -6zM406 433q0 -7 -46 -63h-2q-13 -16 -13 -25q0 -5 4 -5q9 0 20 15q1 2 2.5 2.5t3.5 3.5q0 -7 -12 -16q-8 -6 -17 -6q-9 1 -9 9q-1 7 30 46l18 23l9 9q5 6 8 15q4 -3 4 -8zM432 433q0 -6 -48 -63q-15 -18 -15 -25q0 -5 6 -5t19 15l6 6q-1 -7 -13 -16q-8 -6 -17 -6
q-9 1 -9 9q0 9 30 46l18 23l9 9q8 9 9 15q5 -3 5 -8zM403 333q-24 -5 -37 -18q-11 -14 -11 -17q0 -6 6 -6q2 -1 11 2l6.5 6.5l8.5 8.5zM447 430q-3 -21 -20 -37q0 -2 -0.5 -2t-0.5 -1q-5 -6 -10 -11.5t-10 -12.5q-3 -3 -3 -6q-1 3 2 9q-9 -14 -9 -21q0 -5 4 -5q2 0 8 3
q22 18 31 51v-4v-5q3 -3 3 -7q0 -3 -7 -15l-12 -20l-14 -18q5 3 17 9l-2 -1q-3 -3 -8 -7t-10 -11l-12 -15l-6 -8q-9 -9 -19 -12q-9 0 -14 6q-9 3 -3 14q2 1 3.5 4t4.5 6l1 2l-10 -2q25 18 42 20q1 0 2.5 0.5t3.5 0.5h1h3l9 14q-6 -6 -10.5 -7t-7.5 -1q-7 0 -7 8q0 18 31 46
l3 2l15 15q3 6 6 10.5t5 8.5zM618 453q-9 3 -15 3q-15 0 -28 -4t-26 -11q-6 -3 -10 -7t-8 -7q18 -1 48 -19q33 33 57 42zM649 447q-6 -2 -12.5 -4t-14.5 -10q-4 -3 -22 -21l-11 -10l15 -9q3 4 9 11t14 16zM663 472q0 -1 -2 -3q0 -10 -4 -21l1 -1h-1q-8 -18 -20 -30l-24 -29
q3 -1 4.5 -1t4.5 -2q0 -3 -1 -3q-3 0 -4.5 1t-4.5 2q-18 -19 -20 -36q-3 -6 -3 -9q0 -6 6 -6q12 0 26 20l6 9q15 21 19 37v5q0 -2 2 -3v-2q-3 -21 -15 -39l-20 -39q0 6 5 20q-18 -14 -27 -14q-14 0 -11 18q0 9 6 20.5t15 24.5l-15 8l-13 -14q-5 -6 -13 -15t-20 -24
q-24 -24 -42 -24h-5q-4 0 -13 5h3q13 -3 27 10q-12 -6 -29 -6q-16 0 -27 8h2q-15 10 -15 31q0 15 6 23q9 24 34 40q9 8 17.5 10t17.5 4q15 0 21 -6h-2q-3 3 -13 3q-15 0 -38 -14q-16 -12 -28 -25q-14 -21 -14 -38q0 -24 23 -31q9 -3 13 -3q32 1 69 42l29 30q-23 13 -51 13
h-2q-3 -6 -3 -13q2 0 8 -9q-11 6 -11 15q0 4 2 7q-15 -3 -20 -6q-27 -10 -24 -31q0 -14 9 -24l3 -3q-18 18 -18 31q0 20 18 33q15 11 38 11q21 24 52 28q8 2 24 2q8 0 23 -3l18 -5h9l1 -1q6 10 9 25h2v-3zM682 375q0 -5 -1 -8q-8 -7 -13 -13t-10 -14h2h1q-1 -1 -3 -1
q-1 0 -1 -2q-8 0 -8 3q0 6 14 20q10 13 10 16q2 5 -4 9q-18 -25 -32 -31l-6 -3l-3 1q6 0 20 15q13 12 18 20q0 1 -1 1t-1 2q0 1 11 10q0 2 1 2l2 -2q0 -1 -8 -12q12 -4 12 -13zM726 379q0 9 -6 6q-6 0 -9 -3q-5 -3 -14 -15t-9 -19q-1 -3 3 -3q9 3 15 10q6 12 6 17q0 3 -1 3
q6 0 6 -8l-2 -3q3 3 5.5 7t5.5 7v1zM754 393q-6 0 -13 -8q-6 -7 -12 -16l-14 -21q-7 -15 -13 -23.5t-8 -11.5q-19 -24 -30 -24q-9 -1 -13 6v8q0 7 6 13q-3 -1 -8 -1q15 15 33 19q2 0 2.5 1t3.5 1l2 -2q-29 -9 -35 -27q-1 -3 -1 -7q0 -2 1 -3q0 -2 2 -2q12 -1 28 23l11 15
l6 9q-5 -2 -8 -2q-12 0 -12 12q0 14 20 32q9 9 16 9q11 0 11 -12h1l8 9q7 7 13 7q5 0 8 -4h-5zM781 382q0 -9 -16 -18q-2 -1 -3 -1h-2q-4 0 -9 7q3 -3 8 -3q10 6 13 17v3v1v2q-6 0 -19 -14v-1q-5 -6 -5.5 -10t-0.5 -7q-2 2 -2 9q-3 -6 -4 -10q-3 -6 -3 -11q0 -1 1 -3
q0 -3 6 -3q15 6 26 15q3 3 7 6l-6 -8t-10 -8q-12 -8 -21 -5q0 -1 -2 0q-9 0 -9 9q0 15 17 30q9 14 24 14q3 0 4 -2q6 -4 6 -9zM841 433q0 -6 -48 -63q-13 -16 -13 -25q0 -5 4 -5q9 0 20 15q1 2 2.5 2.5t3.5 3.5q0 -7 -12 -16q-8 -6 -18 -6q-8 3 -8 9q0 12 29 46l18 23l9 9
q9 9 9 15q4 -3 4 -8zM922 387q-25 9 -27 28q-7 -4 -14.5 -8t-12.5 -8q-28 -27 -28 -50q0 -9 4 -10h3h3q23 0 42 15q6 6 14.5 13.5t15.5 19.5zM952 430h-12q-18 -1 -43 -13q3 -21 28 -26l11 14zM979 457q-19 0 -35 -3t-28 -10q8 7 19 11.5t25 7.5q-30 2 -53 -18
q-4 -3 -10 -15q10 3 20 4.5t22 0.5h7.5t11.5 -2q3 5 8.5 11t12.5 13zM1074 459q-3 -5 -7 -8.5t-11 -6.5q-12 -8 -23 -8h-3q-1 0 -3 2q2 1 2 2.5t3 4.5q-14 11 -38 11l-6 -8l-15 -18q12 -1 22.5 -2.5t19.5 -1.5q21 0 29 4q-6 -6 -23 -9q-13 -3 -27 2l-24 4q-6 -7 -11 -12.5
t-8 -11.5l-11 -15h8q37 3 43 18h2q-5 -9 -20 -16q-7 -3 -14 -4.5t-13 -1.5h-7q-11 -12 -17.5 -21t-12.5 -15q-20 -21 -36 -21q-8 1 -17 1q15 0 32 15q-21 -9 -33 -9l-9 2l12 -12q-12 6 -20 13q-1 0 -7 3q-18 14 -20 35v13t3 12q5 14 12.5 23.5t17.5 20.5q26 22 45 22
q11 0 18 -6l-1 -1q-5 4 -14 4q-19 -3 -40 -19q-18 -15 -27 -30q-12 -21 -12 -39q3 -27 24 -35q-3 9 -2 18q3 23 17 39q16 21 45 33q3 3 3 9l13 14q20 16 51 16h13t13 -1h1q11 7 19 11t17 2q6 0 9 -3l-16 -3q-3 -1 -7 -2.5t-8 -4.5q6 -2 12 -2.5t13 -3.5q15 -5 24 -5
q14 0 20 2zM982 354q-4 4 -4 10q0 3 0.5 5.5t0.5 5.5q-15 -20 -13 -29q0 -3 3 -3t13 11zM1002 385q0 3 -3 3t-6 -1q-2 -2 -5 -8q-7 -15 -7 -19q0 -5 1 -6l5 4v2v-2q1 2 1 2.5t2 2.5q3 9 3 12q0 1 -2 3q3 -6 3 -8q5 5 8 15zM1008 381q0 -8 -11 -23q-13 -13 -19 -18h-12
q-9 0 -9 8q0 12 16 31q11 14 24 14q11 0 11 -12zM1057 384q2 -3 -6 -17q-9 -12 -12 -15l-18 -16q-10 -11 -13 -23q1 18 13 32q6 6 9 10.5t6 10.5q2 1 3 6v-5l-1 -3q3 3 9 15q0 2 0.5 2.5t0.5 2.5q0 7 -7 4l-12 -9q-3 -7 -8.5 -12.5t-11.5 -12.5q-7 -9 -9 -14q-1 -1 -7 -13
q0 3 -1 6.5t1 6.5q3 11 13 21l9 11q8 10 8 16q0 2 -1 3.5t-1 2.5q9 -3 9 -9q9 8 20 8q6 -3 7 -9zM1116 405h-23q-1 -3 -9.5 -12t-20.5 -26q-3 0 -6 -7q-6 -8 -6 -15q0 -5 3 -5q8 0 21 15l2 2q1 1 1 2t2 2q0 -7 -11 -16q-7 -6 -18 -6q-7 3 -9 9q0 3 6 15l18 21l17 21l-26 3
q-6 1 -15 1h-13q-18 0 -36 -7h-2q15 15 47 15q1 0 12.5 -2.5t32.5 -5.5l4 -1q5 7 8.5 12.5t6.5 9.5q3 -1 3 -7q0 -5 -3 -8l-6 -9l12 -1h9h2h4h-7zM1126 385q0 -4 -10 -9l-2 -1q5 4 5 12v6h-5q-7 0 -9 -6q0 -3 5 -26q1 -21 -24 -21q-14 0 -17 9q-1 2 -1 5q0 12 18 15l6 -2h-3
q-6 0 -9 -3q-5 -7 -5 -10q0 -12 12 -12t12 16q0 8 -1 12q-2 5 -2 11q0 15 14 15q3 0 4.5 -1t4.5 -1q6 -3 6 -4q1 -2 1 -5z" />
    <glyph glyph-name="seven" unicode="7" horiz-adv-x="1219" 
d="M876 781l-137 -124l36 -186l-160 94l-165 -94l39 181l-138 129l186 20l78 171l75 -170zM682 576l-43 258h-53l-45 -258l23 -14l19 14l9 58h39l11 -58l21 -14zM628 672h-30l14 102zM610 21h21l-7 18q-2 3 -2 5t-3 5q0 -4 -3 -10zM352 -5v8h11v-8h-11zM844 -5v63h8v-57h31
v-6h-39zM787 -5v63h45v-9h-37v-19h34v-8h-34v-21h37v-6h-45zM565 -5v26l-24 37h11l12 -19q3 -9 6 -11l2.5 5t4.5 6l12 19h9l-25 -37v-26h-8zM376 -5v63h24q3 0 5.5 -1.5t3.5 -1.5q6 -1 8 -6q3 -3 3 -9q0 -4 -3 -6q-2 -6 -6 -6q4 -1 9 -6q3 -6 3 -9t-1 -4.5t-1 -2.5
q-1 -6 -6 -6q-1 -3 -2.5 -3t-3.5 -2h-9h-24zM205 -5l-18 63h9l9 -42q2 -4 2 -7t1 -6q2 7 2 12l12 43h10l9 -33q2 -7 3.5 -11.5t1.5 -10.5q1 3 1 6t2 7l10 42h8l-18 -63h-8l-12 47q-1 4 -1 7q-2 -3 -2 -7l-13 -47h-8zM123 -5l-18 63h10l8 -42q0 -7 4 -13q2 7 2 12l12 43h9
l10 -33q2 -7 2.5 -11.5t0.5 -10.5q3 3 3 6t2 7l9 42h9l-18 -63h-8l-12 47q-1 4 -1 7q-3 -3 -3 -7l-14 -47h-7zM384 30h13q6 0 8 3q4 0 4 1q2 2 2 6q0 5 -2 6h-1q-2 0 -2 1t-1 1q-2 1 -9 1h-12v-19zM285 -5l-17 63h9l9 -42q2 -4 2 -7t3 -6q0 6 0.5 8t0.5 4l12 43h9l11 -33
q1 -7 2 -11.5t1 -10.5q3 3 3 6t1 7l11 42h7l-18 -63h-7l-12 47q-2 4 -2 7q-3 -3 -3 -7l-13 -47h-9zM664 28h18q3 0 5.5 1t5.5 1t3 4q1 2 1 6q0 5 -3 8q-1 1 -10 1h-20v-21zM384 1h16q3 0 5 2h4q2 3 5 4v6q0 3 -3 6q0 3 -3 3h-11h-13v-21zM435 -5v63h7v-63h-7zM985 25
q0 -13 5 -18q6 -6 16 -6q11 0 15 6q6 5 6 20q0 7 -1 12q-3 7 -8 9q-4 1 -12 1q-9 0 -13 -4q-8 -6 -8 -20zM976 25q0 17 9 24q6 9 21 9q5 0 8.5 -1.5t6.5 -2.5q5 -2 7 -5t5 -7q2 -3 2 -15q0 -14 -3 -18q-5 -8 -11 -12q-6 -3 -15 -3q-4 0 -8 0.5t-8 2.5q-3 3 -5.5 6t-3.5 6
q-2 4 -3.5 8t-1.5 8zM592 -5l24 63h9l26 -63h-9l-8 18h-25l-9 -18h-8zM459 -5v63h7v-57h29v-6h-36zM892 -5v8h11v-8h-11zM748 19v8h26v-24q-6 -6 -12 -8q-3 0 -7 -0.5t-7 -0.5q-9 0 -15 3q-4 3 -7 5t-5 7q-1 4 -2.5 8t-1.5 8q0 6 1.5 9t2.5 8q3 9 11 12l7.5 2.5t8.5 1.5
q8 0 12 -3q6 -1 8 -6q4 -4 6 -9l-8 -1q0 1 -4 6q0 3 -6 4h-8h-9q-4 -1 -7 -4q0 -2 -5 -6q0 -3 -0.5 -6t-0.5 -6q0 -11 3 -14q6 -9 7 -10q5 -2 12 -2q6 0 11 2q3 3 4.5 3t2.5 1v12h-18zM657 -5v63h27q4 0 7 -1.5t6 -1.5q5 -1 6 -6q3 -3 3 -9q0 -7 -4 -12q-2 -1 -5.5 -2
t-8.5 -4q3 0 4 -0.5t2 -0.5q2 -3 2.5 -5.5t3.5 -5.5l12 -15h-10l-9 12q-3 3 -4 5.5t-2 3.5q0 3 -1.5 3t-3.5 2h-1q-2 0 -2 0.5t-1 0.5h-3h-11v-27h-7zM505 -5v63h9v-57h30v-6h-39zM961 16l8 -1q-3 -12 -9 -15q-6 -6 -17 -6q-9 0 -15 3q-4 3 -5.5 6t-4.5 6q-3 12 -3 18t3 18
q7 7 10 9q5 1 8 2.5t7 1.5q5 0 9.5 -1.5l7.5 -2.5q3 -3 5 -6t4 -8l-9 -1q0 6 -6 9q-3 1 -11 1q-9 0 -12 -1q-3 -2 -3.5 -4t-3.5 -5q0 -3 -1 -6t-1 -6q0 -9 5 -14q0 -3 1.5 -5t2.5 -5q5 -2 12 -2q8 0 12 5q5 4 6 10zM1047 -5v63h12l15 -45q0 -3 1.5 -5t1.5 -5q0 1 3 10l13 45
h12v-63h-7v51l-18 -51h-8l-18 53v-53h-7zM610 21h21l-7 18q-2 3 -2 5t-3 5q0 -4 -3 -10zM352 -5v8h11v-8h-11zM844 -5v63h8v-57h31v-6h-39zM787 -5v63h45v-9h-37v-19h34v-8h-34v-21h37v-6h-45zM565 -5v26l-24 37h11l12 -19q3 -9 6 -11l2.5 5t4.5 6l12 19h9l-25 -37v-26h-8z
M376 -5v63h24q3 0 5.5 -1.5t3.5 -1.5q6 -1 8 -6q3 -3 3 -9q0 -4 -3 -6q-2 -6 -6 -6q4 -1 9 -6q3 -6 3 -9t-1 -4.5t-1 -2.5q-1 -6 -6 -6q-1 -3 -2.5 -3t-3.5 -2h-9h-24zM205 -5l-18 63h9l9 -42q2 -4 2 -7t1 -6q2 7 2 12l12 43h10l9 -33q2 -7 3.5 -11.5t1.5 -10.5q1 3 1 6t2 7
l10 42h8l-18 -63h-8l-12 47q-1 4 -1 7q-2 -3 -2 -7l-13 -47h-8zM123 -5l-18 63h10l8 -42q0 -7 4 -13q2 7 2 12l12 43h9l10 -33q2 -7 2.5 -11.5t0.5 -10.5q3 3 3 6t2 7l9 42h9l-18 -63h-8l-12 47q-1 4 -1 7q-3 -3 -3 -7l-14 -47h-7zM384 30h13q6 0 8 3q4 0 4 1q2 2 2 6
q0 5 -2 6h-1q-2 0 -2 1t-1 1q-2 1 -9 1h-12v-19zM285 -5l-17 63h9l9 -42q2 -4 2 -7t3 -6q0 6 0.5 8t0.5 4l12 43h9l11 -33q1 -7 2 -11.5t1 -10.5q3 3 3 6t1 7l11 42h7l-18 -63h-7l-12 47q-2 4 -2 7q-3 -3 -3 -7l-13 -47h-9zM664 28h18q3 0 5.5 1t5.5 1t3 4q1 2 1 6q0 5 -3 8
q-1 1 -10 1h-20v-21zM384 1h16q3 0 5 2h4q2 3 5 4v6q0 3 -3 6q0 3 -3 3h-11h-13v-21zM435 -5v63h7v-63h-7zM985 25q0 -13 5 -18q6 -6 16 -6q11 0 15 6q6 5 6 20q0 7 -1 12q-3 7 -8 9q-4 1 -12 1q-9 0 -13 -4q-8 -6 -8 -20zM976 25q0 17 9 24q6 9 21 9q5 0 8.5 -1.5t6.5 -2.5
q5 -2 7 -5t5 -7q2 -3 2 -15q0 -14 -3 -18q-5 -8 -11 -12q-6 -3 -15 -3q-4 0 -8 0.5t-8 2.5q-3 3 -5.5 6t-3.5 6q-2 4 -3.5 8t-1.5 8zM592 -5l24 63h9l26 -63h-9l-8 18h-25l-9 -18h-8zM459 -5v63h7v-57h29v-6h-36zM892 -5v8h11v-8h-11zM748 19v8h26v-24q-6 -6 -12 -8
q-3 0 -7 -0.5t-7 -0.5q-9 0 -15 3q-4 3 -7 5t-5 7q-1 4 -2.5 8t-1.5 8q0 6 1.5 9t2.5 8q3 9 11 12l7.5 2.5t8.5 1.5q8 0 12 -3q6 -1 8 -6q4 -4 6 -9l-8 -1q0 1 -4 6q0 3 -6 4h-8h-9q-4 -1 -7 -4q0 -2 -5 -6q0 -3 -0.5 -6t-0.5 -6q0 -11 3 -14q6 -9 7 -10q5 -2 12 -2
q6 0 11 2q3 3 4.5 3t2.5 1v12h-18zM657 -5v63h27q4 0 7 -1.5t6 -1.5q5 -1 6 -6q3 -3 3 -9q0 -7 -4 -12q-2 -1 -5.5 -2t-8.5 -4q3 0 4 -0.5t2 -0.5q2 -3 2.5 -5.5t3.5 -5.5l12 -15h-10l-9 12q-3 3 -4 5.5t-2 3.5q0 3 -1.5 3t-3.5 2h-1q-2 0 -2 0.5t-1 0.5h-3h-11v-27h-7z
M505 -5v63h9v-57h30v-6h-39zM961 16l8 -1q-3 -12 -9 -15q-6 -6 -17 -6q-9 0 -15 3q-4 3 -5.5 6t-4.5 6q-3 12 -3 18t3 18q7 7 10 9q5 1 8 2.5t7 1.5q5 0 9.5 -1.5l7.5 -2.5q3 -3 5 -6t4 -8l-9 -1q0 6 -6 9q-3 1 -11 1q-9 0 -12 -1q-3 -2 -3.5 -4t-3.5 -5q0 -3 -1 -6t-1 -6
q0 -9 5 -14q0 -3 1.5 -5t2.5 -5q5 -2 12 -2q8 0 12 5q5 4 6 10zM1047 -5v63h12l15 -45q0 -3 1.5 -5t1.5 -5q0 1 3 10l13 45h12v-63h-7v51l-18 -51h-8l-18 53v-53h-7zM610 21h21l-7 18q-2 3 -2 5t-3 5q0 -4 -3 -10zM352 -5v8h11v-8h-11zM844 -5v63h8v-57h31v-6h-39zM787 -5
v63h45v-9h-37v-19h34v-8h-34v-21h37v-6h-45zM565 -5v26l-24 37h11l12 -19q3 -9 6 -11l2.5 5t4.5 6l12 19h9l-25 -37v-26h-8zM376 -5v63h24q3 0 5.5 -1.5t3.5 -1.5q6 -1 8 -6q3 -3 3 -9q0 -4 -3 -6q-2 -6 -6 -6q4 -1 9 -6q3 -6 3 -9t-1 -4.5t-1 -2.5q-1 -6 -6 -6
q-1 -3 -2.5 -3t-3.5 -2h-9h-24zM205 -5l-18 63h9l9 -42q2 -4 2 -7t1 -6q2 7 2 12l12 43h10l9 -33q2 -7 3.5 -11.5t1.5 -10.5q1 3 1 6t2 7l10 42h8l-18 -63h-8l-12 47q-1 4 -1 7q-2 -3 -2 -7l-13 -47h-8zM123 -5l-18 63h10l8 -42q0 -7 4 -13q2 7 2 12l12 43h9l10 -33
q2 -7 2.5 -11.5t0.5 -10.5q3 3 3 6t2 7l9 42h9l-18 -63h-8l-12 47q-1 4 -1 7q-3 -3 -3 -7l-14 -47h-7zM384 30h13q6 0 8 3q4 0 4 1q2 2 2 6q0 5 -2 6h-1q-2 0 -2 1t-1 1q-2 1 -9 1h-12v-19zM285 -5l-17 63h9l9 -42q2 -4 2 -7t3 -6q0 6 0.5 8t0.5 4l12 43h9l11 -33
q1 -7 2 -11.5t1 -10.5q3 3 3 6t1 7l11 42h7l-18 -63h-7l-12 47q-2 4 -2 7q-3 -3 -3 -7l-13 -47h-9zM664 28h18q3 0 5.5 1t5.5 1t3 4q1 2 1 6q0 5 -3 8q-1 1 -10 1h-20v-21zM384 1h16q3 0 5 2h4q2 3 5 4v6q0 3 -3 6q0 3 -3 3h-11h-13v-21zM435 -5v63h7v-63h-7zM985 25
q0 -13 5 -18q6 -6 16 -6q11 0 15 6q6 5 6 20q0 7 -1 12q-3 7 -8 9q-4 1 -12 1q-9 0 -13 -4q-8 -6 -8 -20zM976 25q0 17 9 24q6 9 21 9q5 0 8.5 -1.5t6.5 -2.5q5 -2 7 -5t5 -7q2 -3 2 -15q0 -14 -3 -18q-5 -8 -11 -12q-6 -3 -15 -3q-4 0 -8 0.5t-8 2.5q-3 3 -5.5 6t-3.5 6
q-2 4 -3.5 8t-1.5 8zM592 -5l24 63h9l26 -63h-9l-8 18h-25l-9 -18h-8zM459 -5v63h7v-57h29v-6h-36zM892 -5v8h11v-8h-11zM748 19v8h26v-24q-6 -6 -12 -8q-3 0 -7 -0.5t-7 -0.5q-9 0 -15 3q-4 3 -7 5t-5 7q-1 4 -2.5 8t-1.5 8q0 6 1.5 9t2.5 8q3 9 11 12l7.5 2.5t8.5 1.5
q8 0 12 -3q6 -1 8 -6q4 -4 6 -9l-8 -1q0 1 -4 6q0 3 -6 4h-8h-9q-4 -1 -7 -4q0 -2 -5 -6q0 -3 -0.5 -6t-0.5 -6q0 -11 3 -14q6 -9 7 -10q5 -2 12 -2q6 0 11 2q3 3 4.5 3t2.5 1v12h-18zM657 -5v63h27q4 0 7 -1.5t6 -1.5q5 -1 6 -6q3 -3 3 -9q0 -7 -4 -12q-2 -1 -5.5 -2
t-8.5 -4q3 0 4 -0.5t2 -0.5q2 -3 2.5 -5.5t3.5 -5.5l12 -15h-10l-9 12q-3 3 -4 5.5t-2 3.5q0 3 -1.5 3t-3.5 2h-1q-2 0 -2 0.5t-1 0.5h-3h-11v-27h-7zM505 -5v63h9v-57h30v-6h-39zM961 16l8 -1q-3 -12 -9 -15q-6 -6 -17 -6q-9 0 -15 3q-4 3 -5.5 6t-4.5 6q-3 12 -3 18t3 18
q7 7 10 9q5 1 8 2.5t7 1.5q5 0 9.5 -1.5l7.5 -2.5q3 -3 5 -6t4 -8l-9 -1q0 6 -6 9q-3 1 -11 1q-9 0 -12 -1q-3 -2 -3.5 -4t-3.5 -5q0 -3 -1 -6t-1 -6q0 -9 5 -14q0 -3 1.5 -5t2.5 -5q5 -2 12 -2q8 0 12 5q5 4 6 10zM1047 -5v63h12l15 -45q0 -3 1.5 -5t1.5 -5q0 1 3 10l13 45
h12v-63h-7v51l-18 -51h-8l-18 53v-53h-7zM175 111l12 -5q-3 -13 -13 -22q-12 -9 -26 -9q-13 0 -25 6q-12 9 -14 18q-6 10 -6 25q0 17 6 27q5 11 15 15q11 6 24 6q17 0 23 -7q10 -3 15 -20l-12 -1q-6 12 -11 13q-6 6 -15 6q-12 0 -18 -6q-9 -6 -12 -13q-1 -6 -1 -20
q0 -13 4 -19q3 -11 9 -14q8 -6 17 -6q12 0 19 8q3 3 5.5 7.5t3.5 10.5zM199 123q0 12 3 21t11 15q6 7 14 10t17 3q14 0 24 -6q9 -4 17 -16q6 -15 6 -26q0 -7 -1.5 -13t-4.5 -12q-8 -12 -18 -18q-12 -6 -23 -6q-7 0 -12.5 1.5t-11.5 4.5q-10 6 -15 18q-6 10 -6 24zM213 123
q0 -18 7 -29q11 -9 24 -9q15 0 23 12q10 11 10 27q0 6 -1.5 10.5t-2.5 9.5q-3 10 -12 13q-5 6 -17 6t-22 -10q-9 -8 -9 -30zM306 78v93h18l22 -66q5 -9 5 -14q3 3 6 15l24 65h15v-93h-12v78l-27 -78h-12l-27 79v-79h-12zM417 78v93h36h13q8 0 12 -5q2 -1 8 -9l2 -6t1 -7
q0 -9 -8 -20q-7 -7 -28 -7h-24v-39h-12zM429 126h25q14 0 15 6q6 1 6 12q0 7 -1 9q-6 6 -11 6q-1 3 -10 3h-24v-36zM505 78v93h12v-84h47v-9h-59zM579 78v93h69v-9h-57v-30h52v-12h-52v-33h58v-9h-70zM690 78v84h-32v9h77v-9h-32v-84h-13zM748 78v93h69v-9h-57v-30h53v-12
h-53v-33h59v-9h-71zM870 106l12 2q0 -8 3 -11q3 -6 10 -9q3 -1 14 -1h6.5t6.5 1q5 0 8 6q1 3 1 9q0 5 -1 8l-4 2t-5 4q-2 0 -17 3q-7 3 -11.5 3.5t-7.5 2.5q-6 3 -9 10q-3 2 -4 5t-1 6q0 9 6 15q2 3 5 4.5t7 4.5q3 1 18 1q11 0 17 -3q4 -3 7 -4.5t5 -5.5q6 -5 6 -14l-12 -1
q-3 12 -8 13q-4 5 -15 5q-15 0 -18 -5q-4 -4 -4 -10q0 -5 4 -8l18 -7q8 -2 13 -3.5t8 -2.5q5 -2 7 -4l5 -5q3 -5 3 -14q0 -10 -3 -15q-6 -6 -12 -9q-4 -1 -8.5 -2.5t-10.5 -1.5t-12 1.5t-9 2.5q-8 2 -15 12q-3 6 -3 15zM961 78v93h68v-9h-54v-30h52v-12h-52v-33h57v-9h-71z
M1074 78v84h-30v9h73v-9h-31v-84h-12zM112 190v93h38h13q3 0 12 -3q2 -1 4 -4l4 -6q3 -3 3 -11q0 -13 -9 -22q-5 -8 -27 -8h-23v-39h-15zM127 241h23q13 0 18 3q6 6 6 12q0 3 -1.5 6t-3.5 6q-4 5 -7 5q-2 1 -12 1h-23v-33zM201 190v93h67v-9h-54v-30h51v-10h-51v-32h57v-12
h-70zM288 190v93h43q14 0 20 -1q7 -3 10 -8q3 -12 3 -15q0 -10 -6 -16t-21 -9q3 -3 4.5 -3t3.5 -2q7 -7 10 -13l17 -26h-15l-14 20q-1 4 -3.5 7t-3.5 6q-3 2 -4 4t-2 2q-3 2 -6 2q-2 3 -8 3h-13v-44h-15zM303 243h24q12 0 15 1q4 5 7 6q2 3 2 9t-5 11q-4 4 -15 4h-28v-31z
M381 222h10q0 -3 1.5 -6t3.5 -6q1 -2 3.5 -4t5.5 -2q9 -3 15 -3h6t4 1q9 3 11 6q0 2 0.5 4t0.5 4q0 6 -1 7q-5 3 -11 6q-1 2 -5 2t-10 3q-13 1 -19 6q-8 6 -11 9q-1 4 -1 12q0 3 0.5 6.5t3.5 6.5q2 6 12 9q3 3 17 3q12 0 18 -3q9 -4 12 -10q6 -9 6 -14l-12 -3q-3 11 -8 14
q-6 6 -16 6q-12 0 -17 -6q-4 -3 -4 -9t4 -8q2 -3 17 -6q13 -6 22 -6q3 -3 6 -5t5 -5q4 -5 4 -14q0 -7 -4 -13q-3 -5 -5.5 -7t-5.5 -5q-12 -3 -19 -3q-11 0 -23 3q-4 3 -7 5t-6 7q-2 4 -2.5 8t-0.5 10zM468 237q0 21 12 36q13 13 33 13q6 0 11 -1.5t13 -4.5q6 -3 9 -7.5
t6 -10.5q6 -10 6 -25q0 -14 -6 -26q-6 -10 -15 -16q-12 -6 -24 -6q-14 0 -24 7q-14 8 -15 18q-6 8 -6 23zM480 237q0 -18 9 -27t24 -9t24 9q7 10 7 27q0 6 -0.5 12t-3.5 10q-5 8 -9 11q-8 6 -18 6q-8 0 -12.5 -2.5t-11.5 -6.5q-9 -9 -9 -30zM573 190v93h13l50 -72v72h12v-93
h-12l-51 74v-74h-12zM658 190l36 93h14l39 -93h-15l-11 30h-39l-12 -30h-12zM684 229h33l-9 26q-3 6 -4.5 11t-3.5 8q0 -4 -1.5 -8.5t-2.5 -9.5zM754 190v93h14v-81h46v-12h-60zM922 283h12v-52q0 -17 -3 -23q-3 -9 -10 -13q-8 -6 -23 -6t-21 6q-4 1 -7 5l-6 8q-2 3 -2 23
v52h11v-52q0 -15 3 -20q3 -6 7 -7q3 -2 6 -2.5t8 -0.5q12 0 19 4q6 6 6 26v52zM951 222h12q0 -3 1.5 -6t2.5 -6l4 -4t5 -2q9 -3 14 -3q10 0 15 1q3 2 7 6q2 2 2 8t-2 7q-3 2 -3.5 3.5t-3.5 2.5q-3 2 -7.5 2t-10.5 3q-6 1 -11.5 2t-6.5 4q-8 3 -9 9q-5 4 -5 12q0 6 5 13
q1 6 10 9q6 3 18 3h10t8 -3q9 -4 14 -10q1 -3 2.5 -7t1.5 -7l-12 -3q-3 5 -3.5 8.5t-3.5 5.5q-5 6 -17 6q-13 0 -15 -6q-6 -2 -6 -9q0 -5 3 -8t18 -6q17 -6 21 -6q5 -3 8 -5t4 -5q5 -3 5 -14q0 -9 -5 -13q-3 -5 -5 -7t-7 -5q-9 -3 -16 -3q-8 0 -13 0.5t-10 2.5q-3 3 -6.5 5
t-6.5 7q-3 4 -4.5 8t-1.5 10zM1044 190v93h67v-9h-54v-30h50v-10h-50v-32h56v-12h-69zM307 388q0 15 -22 18q-3 0 -7.5 1t-10.5 1l-9 -11l-24 -25q-6 -8 -11.5 -14t-12.5 -10q9 -3 22 -5h8.5t9.5 2q23 1 35 12q22 18 22 31zM324 433q0 6 -8 6q-3 0 -25 -7l-17 -15
q-3 -3 -6 -9l26 4q6 0 16 8q14 9 14 13zM343 460q0 -3 -4 -3q-3 0 -4 1t-4 1q-15 -3 -34 -23q3 3 6.5 4.5t6.5 3.5q11 1 20 0q6 0 6 -8v-6q-8 -13 -42 -21q27 -3 27 -18q0 -18 -29 -37q-10 -6 -21.5 -10t-23.5 -5q-19 -5 -30 -3q-9 0 -19 4q-9 -6 -17 -6h-3l-15 5h5
q12 0 19 6v1q-10 -6 -22 -6q-17 0 -26 9q-15 11 -15 32q0 6 1.5 11t4.5 13q11 22 36 39q8 7 16 9.5t16 3.5q16 0 22 -6q-7 5 -15 5q-9 0 -19 -6q-15 -6 -17 -9q-15 -8 -30 -26q-13 -21 -13 -36q0 -7 1.5 -11.5t4.5 -9.5q6 -9 16 -12q5 -1 8 -2t6 -1q6 0 10.5 1.5t10.5 4.5
q-17 12 -17 33q3 20 24 35l-3 -5q-3 0 -6 -6q-9 -9 -9 -19q0 -20 23 -33q12 7 12 9q3 4 6 7l6 6t3.5 7.5t3.5 9.5v-2q0 -7 -1 -12l18 21q46 53 76 62q-13 4 -21 4q-19 -1 -42 -13q-27 -14 -27 -33q0 -6 5 -11q1 -1 1 -3q-9 6 -9 15q0 17 20 33q24 18 51 15q9 0 27 -6h6
q7 0 12 -3h1zM346 363q-1 -6 -12 -17q-10 -6 -18 -6q-7 0 -7 9q0 8 9 20h-2q-1 -2 -6 -2l-1 2q4 0 15 10h1l5 6q4 5 4 8h5q4 0 4 -2q0 -6 -9 -16l-10 -11q-9 -13 -9 -18q0 -4 6 -4q7 0 18 15q1 1 2.5 2t4.5 4zM354 405q-6 -9 -15 -9q-5 0 -11 4h5q10 0 13 11v3l8 -3
q1 -2 0 -6zM406 433q0 -7 -46 -63h-2q-13 -16 -13 -25q0 -5 4 -5q9 0 20 15q1 2 2.5 2.5t3.5 3.5q0 -7 -12 -16q-8 -6 -17 -6q-9 1 -9 9q-1 7 30 46l18 23l9 9q5 6 8 15q4 -3 4 -8zM432 433q0 -6 -48 -63q-15 -18 -15 -25q0 -5 6 -5t19 15l6 6q-1 -7 -13 -16q-8 -6 -17 -6
q-9 1 -9 9q0 9 30 46l18 23l9 9q8 9 9 15q5 -3 5 -8zM403 333q-24 -5 -37 -18q-11 -14 -11 -17q0 -6 6 -6q2 -1 11 2l6.5 6.5l8.5 8.5zM447 430q-3 -21 -20 -37q0 -2 -0.5 -2t-0.5 -1q-5 -6 -10 -11.5t-10 -12.5q-3 -3 -3 -6q-1 3 2 9q-9 -14 -9 -21q0 -5 4 -5q2 0 8 3
q22 18 31 51v-4v-5q3 -3 3 -7q0 -3 -7 -15l-12 -20l-14 -18q5 3 17 9l-2 -1q-3 -3 -8 -7t-10 -11l-12 -15l-6 -8q-9 -9 -19 -12q-9 0 -14 6q-9 3 -3 14q2 1 3.5 4t4.5 6l1 2l-10 -2q25 18 42 20q1 0 2.5 0.5t3.5 0.5h1h3l9 14q-6 -6 -10.5 -7t-7.5 -1q-7 0 -7 8q0 18 31 46
l3 2l15 15q3 6 6 10.5t5 8.5zM618 453q-9 3 -15 3q-15 0 -28 -4t-26 -11q-6 -3 -10 -7t-8 -7q18 -1 48 -19q33 33 57 42zM649 447q-6 -2 -12.5 -4t-14.5 -10q-4 -3 -22 -21l-11 -10l15 -9q3 4 9 11t14 16zM663 472q0 -1 -2 -3q0 -10 -4 -21l1 -1h-1q-8 -18 -20 -30l-24 -29
q3 -1 4.5 -1t4.5 -2q0 -3 -1 -3q-3 0 -4.5 1t-4.5 2q-18 -19 -20 -36q-3 -6 -3 -9q0 -6 6 -6q12 0 26 20l6 9q15 21 19 37v5q0 -2 2 -3v-2q-3 -21 -15 -39l-20 -39q0 6 5 20q-18 -14 -27 -14q-14 0 -11 18q0 9 6 20.5t15 24.5l-15 8l-13 -14q-5 -6 -13 -15t-20 -24
q-24 -24 -42 -24h-5q-4 0 -13 5h3q13 -3 27 10q-12 -6 -29 -6q-16 0 -27 8h2q-15 10 -15 31q0 15 6 23q9 24 34 40q9 8 17.5 10t17.5 4q15 0 21 -6h-2q-3 3 -13 3q-15 0 -38 -14q-16 -12 -28 -25q-14 -21 -14 -38q0 -24 23 -31q9 -3 13 -3q32 1 69 42l29 30q-23 13 -51 13
h-2q-3 -6 -3 -13q2 0 8 -9q-11 6 -11 15q0 4 2 7q-15 -3 -20 -6q-27 -10 -24 -31q0 -14 9 -24l3 -3q-18 18 -18 31q0 20 18 33q15 11 38 11q21 24 52 28q8 2 24 2q8 0 23 -3l18 -5h9l1 -1q6 10 9 25h2v-3zM682 375q0 -5 -1 -8q-8 -7 -13 -13t-10 -14h2h1q-1 -1 -3 -1
q-1 0 -1 -2q-8 0 -8 3q0 6 14 20q10 13 10 16q2 5 -4 9q-18 -25 -32 -31l-6 -3l-3 1q6 0 20 15q13 12 18 20q0 1 -1 1t-1 2q0 1 11 10q0 2 1 2l2 -2q0 -1 -8 -12q12 -4 12 -13zM726 379q0 9 -6 6q-6 0 -9 -3q-5 -3 -14 -15t-9 -19q-1 -3 3 -3q9 3 15 10q6 12 6 17q0 3 -1 3
q6 0 6 -8l-2 -3q3 3 5.5 7t5.5 7v1zM754 393q-6 0 -13 -8q-6 -7 -12 -16l-14 -21q-7 -15 -13 -23.5t-8 -11.5q-19 -24 -30 -24q-9 -1 -13 6v8q0 7 6 13q-3 -1 -8 -1q15 15 33 19q2 0 2.5 1t3.5 1l2 -2q-29 -9 -35 -27q-1 -3 -1 -7q0 -2 1 -3q0 -2 2 -2q12 -1 28 23l11 15
l6 9q-5 -2 -8 -2q-12 0 -12 12q0 14 20 32q9 9 16 9q11 0 11 -12h1l8 9q7 7 13 7q5 0 8 -4h-5zM781 382q0 -9 -16 -18q-2 -1 -3 -1h-2q-4 0 -9 7q3 -3 8 -3q10 6 13 17v3v1v2q-6 0 -19 -14v-1q-5 -6 -5.5 -10t-0.5 -7q-2 2 -2 9q-3 -6 -4 -10q-3 -6 -3 -11q0 -1 1 -3
q0 -3 6 -3q15 6 26 15q3 3 7 6l-6 -8t-10 -8q-12 -8 -21 -5q0 -1 -2 0q-9 0 -9 9q0 15 17 30q9 14 24 14q3 0 4 -2q6 -4 6 -9zM841 433q0 -6 -48 -63q-13 -16 -13 -25q0 -5 4 -5q9 0 20 15q1 2 2.5 2.5t3.5 3.5q0 -7 -12 -16q-8 -6 -18 -6q-8 3 -8 9q0 12 29 46l18 23l9 9
q9 9 9 15q4 -3 4 -8zM922 387q-25 9 -27 28q-7 -4 -14.5 -8t-12.5 -8q-28 -27 -28 -50q0 -9 4 -10h3h3q23 0 42 15q6 6 14.5 13.5t15.5 19.5zM952 430h-12q-18 -1 -43 -13q3 -21 28 -26l11 14zM979 457q-19 0 -35 -3t-28 -10q8 7 19 11.5t25 7.5q-30 2 -53 -18
q-4 -3 -10 -15q10 3 20 4.5t22 0.5h7.5t11.5 -2q3 5 8.5 11t12.5 13zM1074 459q-3 -5 -7 -8.5t-11 -6.5q-12 -8 -23 -8h-3q-1 0 -3 2q2 1 2 2.5t3 4.5q-14 11 -38 11l-6 -8l-15 -18q12 -1 22.5 -2.5t19.5 -1.5q21 0 29 4q-6 -6 -23 -9q-13 -3 -27 2l-24 4q-6 -7 -11 -12.5
t-8 -11.5l-11 -15h8q37 3 43 18h2q-5 -9 -20 -16q-7 -3 -14 -4.5t-13 -1.5h-7q-11 -12 -17.5 -21t-12.5 -15q-20 -21 -36 -21q-8 1 -17 1q15 0 32 15q-21 -9 -33 -9l-9 2l12 -12q-12 6 -20 13q-1 0 -7 3q-18 14 -20 35v13t3 12q5 14 12.5 23.5t17.5 20.5q26 22 45 22
q11 0 18 -6l-1 -1q-5 4 -14 4q-19 -3 -40 -19q-18 -15 -27 -30q-12 -21 -12 -39q3 -27 24 -35q-3 9 -2 18q3 23 17 39q16 21 45 33q3 3 3 9l13 14q20 16 51 16h13t13 -1h1q11 7 19 11t17 2q6 0 9 -3l-16 -3q-3 -1 -7 -2.5t-8 -4.5q6 -2 12 -2.5t13 -3.5q15 -5 24 -5
q14 0 20 2zM982 354q-4 4 -4 10q0 3 0.5 5.5t0.5 5.5q-15 -20 -13 -29q0 -3 3 -3t13 11zM1002 385q0 3 -3 3t-6 -1q-2 -2 -5 -8q-7 -15 -7 -19q0 -5 1 -6l5 4v2v-2q1 2 1 2.5t2 2.5q3 9 3 12q0 1 -2 3q3 -6 3 -8q5 5 8 15zM1008 381q0 -8 -11 -23q-13 -13 -19 -18h-12
q-9 0 -9 8q0 12 16 31q11 14 24 14q11 0 11 -12zM1057 384q2 -3 -6 -17q-9 -12 -12 -15l-18 -16q-10 -11 -13 -23q1 18 13 32q6 6 9 10.5t6 10.5q2 1 3 6v-5l-1 -3q3 3 9 15q0 2 0.5 2.5t0.5 2.5q0 7 -7 4l-12 -9q-3 -7 -8.5 -12.5t-11.5 -12.5q-7 -9 -9 -14q-1 -1 -7 -13
q0 3 -1 6.5t1 6.5q3 11 13 21l9 11q8 10 8 16q0 2 -1 3.5t-1 2.5q9 -3 9 -9q9 8 20 8q6 -3 7 -9zM1116 405h-23q-1 -3 -9.5 -12t-20.5 -26q-3 0 -6 -7q-6 -8 -6 -15q0 -5 3 -5q8 0 21 15l2 2q1 1 1 2t2 2q0 -7 -11 -16q-7 -6 -18 -6q-7 3 -9 9q0 3 6 15l18 21l17 21l-26 3
q-6 1 -15 1h-13q-18 0 -36 -7h-2q15 15 47 15q1 0 12.5 -2.5t32.5 -5.5l4 -1q5 7 8.5 12.5t6.5 9.5q3 -1 3 -7q0 -5 -3 -8l-6 -9l12 -1h9h2h4h-7zM1126 385q0 -4 -10 -9l-2 -1q5 4 5 12v6h-5q-7 0 -9 -6q0 -3 5 -26q1 -21 -24 -21q-14 0 -17 9q-1 2 -1 5q0 12 18 15l6 -2h-3
q-6 0 -9 -3q-5 -7 -5 -10q0 -12 12 -12t12 16q0 8 -1 12q-2 5 -2 11q0 15 14 15q3 0 4.5 -1t4.5 -1q6 -3 6 -4q1 -2 1 -5z" />
    <glyph glyph-name="eight" unicode="8" horiz-adv-x="1219" 
d="M876 781l-137 -124l36 -186l-160 94l-165 -94l39 181l-138 129l186 20l78 171l75 -170zM682 576l-43 258h-53l-45 -258l23 -14l19 14l9 58h39l11 -58l21 -14zM628 672h-30l14 102zM610 21h21l-7 18q-2 3 -2 5t-3 5q0 -4 -3 -10zM352 -5v8h11v-8h-11zM844 -5v63h8v-57h31
v-6h-39zM787 -5v63h45v-9h-37v-19h34v-8h-34v-21h37v-6h-45zM565 -5v26l-24 37h11l12 -19q3 -9 6 -11l2.5 5t4.5 6l12 19h9l-25 -37v-26h-8zM376 -5v63h24q3 0 5.5 -1.5t3.5 -1.5q6 -1 8 -6q3 -3 3 -9q0 -4 -3 -6q-2 -6 -6 -6q4 -1 9 -6q3 -6 3 -9t-1 -4.5t-1 -2.5
q-1 -6 -6 -6q-1 -3 -2.5 -3t-3.5 -2h-9h-24zM205 -5l-18 63h9l9 -42q2 -4 2 -7t1 -6q2 7 2 12l12 43h10l9 -33q2 -7 3.5 -11.5t1.5 -10.5q1 3 1 6t2 7l10 42h8l-18 -63h-8l-12 47q-1 4 -1 7q-2 -3 -2 -7l-13 -47h-8zM123 -5l-18 63h10l8 -42q0 -7 4 -13q2 7 2 12l12 43h9
l10 -33q2 -7 2.5 -11.5t0.5 -10.5q3 3 3 6t2 7l9 42h9l-18 -63h-8l-12 47q-1 4 -1 7q-3 -3 -3 -7l-14 -47h-7zM384 30h13q6 0 8 3q4 0 4 1q2 2 2 6q0 5 -2 6h-1q-2 0 -2 1t-1 1q-2 1 -9 1h-12v-19zM285 -5l-17 63h9l9 -42q2 -4 2 -7t3 -6q0 6 0.5 8t0.5 4l12 43h9l11 -33
q1 -7 2 -11.5t1 -10.5q3 3 3 6t1 7l11 42h7l-18 -63h-7l-12 47q-2 4 -2 7q-3 -3 -3 -7l-13 -47h-9zM664 28h18q3 0 5.5 1t5.5 1t3 4q1 2 1 6q0 5 -3 8q-1 1 -10 1h-20v-21zM384 1h16q3 0 5 2h4q2 3 5 4v6q0 3 -3 6q0 3 -3 3h-11h-13v-21zM435 -5v63h7v-63h-7zM985 25
q0 -13 5 -18q6 -6 16 -6q11 0 15 6q6 5 6 20q0 7 -1 12q-3 7 -8 9q-4 1 -12 1q-9 0 -13 -4q-8 -6 -8 -20zM976 25q0 17 9 24q6 9 21 9q5 0 8.5 -1.5t6.5 -2.5q5 -2 7 -5t5 -7q2 -3 2 -15q0 -14 -3 -18q-5 -8 -11 -12q-6 -3 -15 -3q-4 0 -8 0.5t-8 2.5q-3 3 -5.5 6t-3.5 6
q-2 4 -3.5 8t-1.5 8zM592 -5l24 63h9l26 -63h-9l-8 18h-25l-9 -18h-8zM459 -5v63h7v-57h29v-6h-36zM892 -5v8h11v-8h-11zM748 19v8h26v-24q-6 -6 -12 -8q-3 0 -7 -0.5t-7 -0.5q-9 0 -15 3q-4 3 -7 5t-5 7q-1 4 -2.5 8t-1.5 8q0 6 1.5 9t2.5 8q3 9 11 12l7.5 2.5t8.5 1.5
q8 0 12 -3q6 -1 8 -6q4 -4 6 -9l-8 -1q0 1 -4 6q0 3 -6 4h-8h-9q-4 -1 -7 -4q0 -2 -5 -6q0 -3 -0.5 -6t-0.5 -6q0 -11 3 -14q6 -9 7 -10q5 -2 12 -2q6 0 11 2q3 3 4.5 3t2.5 1v12h-18zM657 -5v63h27q4 0 7 -1.5t6 -1.5q5 -1 6 -6q3 -3 3 -9q0 -7 -4 -12q-2 -1 -5.5 -2
t-8.5 -4q3 0 4 -0.5t2 -0.5q2 -3 2.5 -5.5t3.5 -5.5l12 -15h-10l-9 12q-3 3 -4 5.5t-2 3.5q0 3 -1.5 3t-3.5 2h-1q-2 0 -2 0.5t-1 0.5h-3h-11v-27h-7zM505 -5v63h9v-57h30v-6h-39zM961 16l8 -1q-3 -12 -9 -15q-6 -6 -17 -6q-9 0 -15 3q-4 3 -5.5 6t-4.5 6q-3 12 -3 18t3 18
q7 7 10 9q5 1 8 2.5t7 1.5q5 0 9.5 -1.5l7.5 -2.5q3 -3 5 -6t4 -8l-9 -1q0 6 -6 9q-3 1 -11 1q-9 0 -12 -1q-3 -2 -3.5 -4t-3.5 -5q0 -3 -1 -6t-1 -6q0 -9 5 -14q0 -3 1.5 -5t2.5 -5q5 -2 12 -2q8 0 12 5q5 4 6 10zM1047 -5v63h12l15 -45q0 -3 1.5 -5t1.5 -5q0 1 3 10l13 45
h12v-63h-7v51l-18 -51h-8l-18 53v-53h-7zM610 21h21l-7 18q-2 3 -2 5t-3 5q0 -4 -3 -10zM352 -5v8h11v-8h-11zM844 -5v63h8v-57h31v-6h-39zM787 -5v63h45v-9h-37v-19h34v-8h-34v-21h37v-6h-45zM565 -5v26l-24 37h11l12 -19q3 -9 6 -11l2.5 5t4.5 6l12 19h9l-25 -37v-26h-8z
M376 -5v63h24q3 0 5.5 -1.5t3.5 -1.5q6 -1 8 -6q3 -3 3 -9q0 -4 -3 -6q-2 -6 -6 -6q4 -1 9 -6q3 -6 3 -9t-1 -4.5t-1 -2.5q-1 -6 -6 -6q-1 -3 -2.5 -3t-3.5 -2h-9h-24zM205 -5l-18 63h9l9 -42q2 -4 2 -7t1 -6q2 7 2 12l12 43h10l9 -33q2 -7 3.5 -11.5t1.5 -10.5q1 3 1 6t2 7
l10 42h8l-18 -63h-8l-12 47q-1 4 -1 7q-2 -3 -2 -7l-13 -47h-8zM123 -5l-18 63h10l8 -42q0 -7 4 -13q2 7 2 12l12 43h9l10 -33q2 -7 2.5 -11.5t0.5 -10.5q3 3 3 6t2 7l9 42h9l-18 -63h-8l-12 47q-1 4 -1 7q-3 -3 -3 -7l-14 -47h-7zM384 30h13q6 0 8 3q4 0 4 1q2 2 2 6
q0 5 -2 6h-1q-2 0 -2 1t-1 1q-2 1 -9 1h-12v-19zM285 -5l-17 63h9l9 -42q2 -4 2 -7t3 -6q0 6 0.5 8t0.5 4l12 43h9l11 -33q1 -7 2 -11.5t1 -10.5q3 3 3 6t1 7l11 42h7l-18 -63h-7l-12 47q-2 4 -2 7q-3 -3 -3 -7l-13 -47h-9zM664 28h18q3 0 5.5 1t5.5 1t3 4q1 2 1 6q0 5 -3 8
q-1 1 -10 1h-20v-21zM384 1h16q3 0 5 2h4q2 3 5 4v6q0 3 -3 6q0 3 -3 3h-11h-13v-21zM435 -5v63h7v-63h-7zM985 25q0 -13 5 -18q6 -6 16 -6q11 0 15 6q6 5 6 20q0 7 -1 12q-3 7 -8 9q-4 1 -12 1q-9 0 -13 -4q-8 -6 -8 -20zM976 25q0 17 9 24q6 9 21 9q5 0 8.5 -1.5t6.5 -2.5
q5 -2 7 -5t5 -7q2 -3 2 -15q0 -14 -3 -18q-5 -8 -11 -12q-6 -3 -15 -3q-4 0 -8 0.5t-8 2.5q-3 3 -5.5 6t-3.5 6q-2 4 -3.5 8t-1.5 8zM592 -5l24 63h9l26 -63h-9l-8 18h-25l-9 -18h-8zM459 -5v63h7v-57h29v-6h-36zM892 -5v8h11v-8h-11zM748 19v8h26v-24q-6 -6 -12 -8
q-3 0 -7 -0.5t-7 -0.5q-9 0 -15 3q-4 3 -7 5t-5 7q-1 4 -2.5 8t-1.5 8q0 6 1.5 9t2.5 8q3 9 11 12l7.5 2.5t8.5 1.5q8 0 12 -3q6 -1 8 -6q4 -4 6 -9l-8 -1q0 1 -4 6q0 3 -6 4h-8h-9q-4 -1 -7 -4q0 -2 -5 -6q0 -3 -0.5 -6t-0.5 -6q0 -11 3 -14q6 -9 7 -10q5 -2 12 -2
q6 0 11 2q3 3 4.5 3t2.5 1v12h-18zM657 -5v63h27q4 0 7 -1.5t6 -1.5q5 -1 6 -6q3 -3 3 -9q0 -7 -4 -12q-2 -1 -5.5 -2t-8.5 -4q3 0 4 -0.5t2 -0.5q2 -3 2.5 -5.5t3.5 -5.5l12 -15h-10l-9 12q-3 3 -4 5.5t-2 3.5q0 3 -1.5 3t-3.5 2h-1q-2 0 -2 0.5t-1 0.5h-3h-11v-27h-7z
M505 -5v63h9v-57h30v-6h-39zM961 16l8 -1q-3 -12 -9 -15q-6 -6 -17 -6q-9 0 -15 3q-4 3 -5.5 6t-4.5 6q-3 12 -3 18t3 18q7 7 10 9q5 1 8 2.5t7 1.5q5 0 9.5 -1.5l7.5 -2.5q3 -3 5 -6t4 -8l-9 -1q0 6 -6 9q-3 1 -11 1q-9 0 -12 -1q-3 -2 -3.5 -4t-3.5 -5q0 -3 -1 -6t-1 -6
q0 -9 5 -14q0 -3 1.5 -5t2.5 -5q5 -2 12 -2q8 0 12 5q5 4 6 10zM1047 -5v63h12l15 -45q0 -3 1.5 -5t1.5 -5q0 1 3 10l13 45h12v-63h-7v51l-18 -51h-8l-18 53v-53h-7zM610 21h21l-7 18q-2 3 -2 5t-3 5q0 -4 -3 -10zM352 -5v8h11v-8h-11zM844 -5v63h8v-57h31v-6h-39zM787 -5
v63h45v-9h-37v-19h34v-8h-34v-21h37v-6h-45zM565 -5v26l-24 37h11l12 -19q3 -9 6 -11l2.5 5t4.5 6l12 19h9l-25 -37v-26h-8zM376 -5v63h24q3 0 5.5 -1.5t3.5 -1.5q6 -1 8 -6q3 -3 3 -9q0 -4 -3 -6q-2 -6 -6 -6q4 -1 9 -6q3 -6 3 -9t-1 -4.5t-1 -2.5q-1 -6 -6 -6
q-1 -3 -2.5 -3t-3.5 -2h-9h-24zM205 -5l-18 63h9l9 -42q2 -4 2 -7t1 -6q2 7 2 12l12 43h10l9 -33q2 -7 3.5 -11.5t1.5 -10.5q1 3 1 6t2 7l10 42h8l-18 -63h-8l-12 47q-1 4 -1 7q-2 -3 -2 -7l-13 -47h-8zM123 -5l-18 63h10l8 -42q0 -7 4 -13q2 7 2 12l12 43h9l10 -33
q2 -7 2.5 -11.5t0.5 -10.5q3 3 3 6t2 7l9 42h9l-18 -63h-8l-12 47q-1 4 -1 7q-3 -3 -3 -7l-14 -47h-7zM384 30h13q6 0 8 3q4 0 4 1q2 2 2 6q0 5 -2 6h-1q-2 0 -2 1t-1 1q-2 1 -9 1h-12v-19zM285 -5l-17 63h9l9 -42q2 -4 2 -7t3 -6q0 6 0.5 8t0.5 4l12 43h9l11 -33
q1 -7 2 -11.5t1 -10.5q3 3 3 6t1 7l11 42h7l-18 -63h-7l-12 47q-2 4 -2 7q-3 -3 -3 -7l-13 -47h-9zM664 28h18q3 0 5.5 1t5.5 1t3 4q1 2 1 6q0 5 -3 8q-1 1 -10 1h-20v-21zM384 1h16q3 0 5 2h4q2 3 5 4v6q0 3 -3 6q0 3 -3 3h-11h-13v-21zM435 -5v63h7v-63h-7zM985 25
q0 -13 5 -18q6 -6 16 -6q11 0 15 6q6 5 6 20q0 7 -1 12q-3 7 -8 9q-4 1 -12 1q-9 0 -13 -4q-8 -6 -8 -20zM976 25q0 17 9 24q6 9 21 9q5 0 8.5 -1.5t6.5 -2.5q5 -2 7 -5t5 -7q2 -3 2 -15q0 -14 -3 -18q-5 -8 -11 -12q-6 -3 -15 -3q-4 0 -8 0.5t-8 2.5q-3 3 -5.5 6t-3.5 6
q-2 4 -3.5 8t-1.5 8zM592 -5l24 63h9l26 -63h-9l-8 18h-25l-9 -18h-8zM459 -5v63h7v-57h29v-6h-36zM892 -5v8h11v-8h-11zM748 19v8h26v-24q-6 -6 -12 -8q-3 0 -7 -0.5t-7 -0.5q-9 0 -15 3q-4 3 -7 5t-5 7q-1 4 -2.5 8t-1.5 8q0 6 1.5 9t2.5 8q3 9 11 12l7.5 2.5t8.5 1.5
q8 0 12 -3q6 -1 8 -6q4 -4 6 -9l-8 -1q0 1 -4 6q0 3 -6 4h-8h-9q-4 -1 -7 -4q0 -2 -5 -6q0 -3 -0.5 -6t-0.5 -6q0 -11 3 -14q6 -9 7 -10q5 -2 12 -2q6 0 11 2q3 3 4.5 3t2.5 1v12h-18zM657 -5v63h27q4 0 7 -1.5t6 -1.5q5 -1 6 -6q3 -3 3 -9q0 -7 -4 -12q-2 -1 -5.5 -2
t-8.5 -4q3 0 4 -0.5t2 -0.5q2 -3 2.5 -5.5t3.5 -5.5l12 -15h-10l-9 12q-3 3 -4 5.5t-2 3.5q0 3 -1.5 3t-3.5 2h-1q-2 0 -2 0.5t-1 0.5h-3h-11v-27h-7zM505 -5v63h9v-57h30v-6h-39zM961 16l8 -1q-3 -12 -9 -15q-6 -6 -17 -6q-9 0 -15 3q-4 3 -5.5 6t-4.5 6q-3 12 -3 18t3 18
q7 7 10 9q5 1 8 2.5t7 1.5q5 0 9.5 -1.5l7.5 -2.5q3 -3 5 -6t4 -8l-9 -1q0 6 -6 9q-3 1 -11 1q-9 0 -12 -1q-3 -2 -3.5 -4t-3.5 -5q0 -3 -1 -6t-1 -6q0 -9 5 -14q0 -3 1.5 -5t2.5 -5q5 -2 12 -2q8 0 12 5q5 4 6 10zM1047 -5v63h12l15 -45q0 -3 1.5 -5t1.5 -5q0 1 3 10l13 45
h12v-63h-7v51l-18 -51h-8l-18 53v-53h-7zM175 111l12 -5q-3 -13 -13 -22q-12 -9 -26 -9q-13 0 -25 6q-12 9 -14 18q-6 10 -6 25q0 17 6 27q5 11 15 15q11 6 24 6q17 0 23 -7q10 -3 15 -20l-12 -1q-6 12 -11 13q-6 6 -15 6q-12 0 -18 -6q-9 -6 -12 -13q-1 -6 -1 -20
q0 -13 4 -19q3 -11 9 -14q8 -6 17 -6q12 0 19 8q3 3 5.5 7.5t3.5 10.5zM199 123q0 12 3 21t11 15q6 7 14 10t17 3q14 0 24 -6q9 -4 17 -16q6 -15 6 -26q0 -7 -1.5 -13t-4.5 -12q-8 -12 -18 -18q-12 -6 -23 -6q-7 0 -12.5 1.5t-11.5 4.5q-10 6 -15 18q-6 10 -6 24zM213 123
q0 -18 7 -29q11 -9 24 -9q15 0 23 12q10 11 10 27q0 6 -1.5 10.5t-2.5 9.5q-3 10 -12 13q-5 6 -17 6t-22 -10q-9 -8 -9 -30zM306 78v93h18l22 -66q5 -9 5 -14q3 3 6 15l24 65h15v-93h-12v78l-27 -78h-12l-27 79v-79h-12zM417 78v93h36h13q8 0 12 -5q2 -1 8 -9l2 -6t1 -7
q0 -9 -8 -20q-7 -7 -28 -7h-24v-39h-12zM429 126h25q14 0 15 6q6 1 6 12q0 7 -1 9q-6 6 -11 6q-1 3 -10 3h-24v-36zM505 78v93h12v-84h47v-9h-59zM579 78v93h69v-9h-57v-30h52v-12h-52v-33h58v-9h-70zM690 78v84h-32v9h77v-9h-32v-84h-13zM748 78v93h69v-9h-57v-30h53v-12
h-53v-33h59v-9h-71zM870 106l12 2q0 -8 3 -11q3 -6 10 -9q3 -1 14 -1h6.5t6.5 1q5 0 8 6q1 3 1 9q0 5 -1 8l-4 2t-5 4q-2 0 -17 3q-7 3 -11.5 3.5t-7.5 2.5q-6 3 -9 10q-3 2 -4 5t-1 6q0 9 6 15q2 3 5 4.5t7 4.5q3 1 18 1q11 0 17 -3q4 -3 7 -4.5t5 -5.5q6 -5 6 -14l-12 -1
q-3 12 -8 13q-4 5 -15 5q-15 0 -18 -5q-4 -4 -4 -10q0 -5 4 -8l18 -7q8 -2 13 -3.5t8 -2.5q5 -2 7 -4l5 -5q3 -5 3 -14q0 -10 -3 -15q-6 -6 -12 -9q-4 -1 -8.5 -2.5t-10.5 -1.5t-12 1.5t-9 2.5q-8 2 -15 12q-3 6 -3 15zM961 78v93h68v-9h-54v-30h52v-12h-52v-33h57v-9h-71z
M1074 78v84h-30v9h73v-9h-31v-84h-12zM112 190v93h38h13q3 0 12 -3q2 -1 4 -4l4 -6q3 -3 3 -11q0 -13 -9 -22q-5 -8 -27 -8h-23v-39h-15zM127 241h23q13 0 18 3q6 6 6 12q0 3 -1.5 6t-3.5 6q-4 5 -7 5q-2 1 -12 1h-23v-33zM201 190v93h67v-9h-54v-30h51v-10h-51v-32h57v-12
h-70zM288 190v93h43q14 0 20 -1q7 -3 10 -8q3 -12 3 -15q0 -10 -6 -16t-21 -9q3 -3 4.5 -3t3.5 -2q7 -7 10 -13l17 -26h-15l-14 20q-1 4 -3.5 7t-3.5 6q-3 2 -4 4t-2 2q-3 2 -6 2q-2 3 -8 3h-13v-44h-15zM303 243h24q12 0 15 1q4 5 7 6q2 3 2 9t-5 11q-4 4 -15 4h-28v-31z
M381 222h10q0 -3 1.5 -6t3.5 -6q1 -2 3.5 -4t5.5 -2q9 -3 15 -3h6t4 1q9 3 11 6q0 2 0.5 4t0.5 4q0 6 -1 7q-5 3 -11 6q-1 2 -5 2t-10 3q-13 1 -19 6q-8 6 -11 9q-1 4 -1 12q0 3 0.5 6.5t3.5 6.5q2 6 12 9q3 3 17 3q12 0 18 -3q9 -4 12 -10q6 -9 6 -14l-12 -3q-3 11 -8 14
q-6 6 -16 6q-12 0 -17 -6q-4 -3 -4 -9t4 -8q2 -3 17 -6q13 -6 22 -6q3 -3 6 -5t5 -5q4 -5 4 -14q0 -7 -4 -13q-3 -5 -5.5 -7t-5.5 -5q-12 -3 -19 -3q-11 0 -23 3q-4 3 -7 5t-6 7q-2 4 -2.5 8t-0.5 10zM468 237q0 21 12 36q13 13 33 13q6 0 11 -1.5t13 -4.5q6 -3 9 -7.5
t6 -10.5q6 -10 6 -25q0 -14 -6 -26q-6 -10 -15 -16q-12 -6 -24 -6q-14 0 -24 7q-14 8 -15 18q-6 8 -6 23zM480 237q0 -18 9 -27t24 -9t24 9q7 10 7 27q0 6 -0.5 12t-3.5 10q-5 8 -9 11q-8 6 -18 6q-8 0 -12.5 -2.5t-11.5 -6.5q-9 -9 -9 -30zM573 190v93h13l50 -72v72h12v-93
h-12l-51 74v-74h-12zM658 190l36 93h14l39 -93h-15l-11 30h-39l-12 -30h-12zM684 229h33l-9 26q-3 6 -4.5 11t-3.5 8q0 -4 -1.5 -8.5t-2.5 -9.5zM754 190v93h14v-81h46v-12h-60zM922 283h12v-52q0 -17 -3 -23q-3 -9 -10 -13q-8 -6 -23 -6t-21 6q-4 1 -7 5l-6 8q-2 3 -2 23
v52h11v-52q0 -15 3 -20q3 -6 7 -7q3 -2 6 -2.5t8 -0.5q12 0 19 4q6 6 6 26v52zM951 222h12q0 -3 1.5 -6t2.5 -6l4 -4t5 -2q9 -3 14 -3q10 0 15 1q3 2 7 6q2 2 2 8t-2 7q-3 2 -3.5 3.5t-3.5 2.5q-3 2 -7.5 2t-10.5 3q-6 1 -11.5 2t-6.5 4q-8 3 -9 9q-5 4 -5 12q0 6 5 13
q1 6 10 9q6 3 18 3h10t8 -3q9 -4 14 -10q1 -3 2.5 -7t1.5 -7l-12 -3q-3 5 -3.5 8.5t-3.5 5.5q-5 6 -17 6q-13 0 -15 -6q-6 -2 -6 -9q0 -5 3 -8t18 -6q17 -6 21 -6q5 -3 8 -5t4 -5q5 -3 5 -14q0 -9 -5 -13q-3 -5 -5 -7t-7 -5q-9 -3 -16 -3q-8 0 -13 0.5t-10 2.5q-3 3 -6.5 5
t-6.5 7q-3 4 -4.5 8t-1.5 10zM1044 190v93h67v-9h-54v-30h50v-10h-50v-32h56v-12h-69zM307 388q0 15 -22 18q-3 0 -7.5 1t-10.5 1l-9 -11l-24 -25q-6 -8 -11.5 -14t-12.5 -10q9 -3 22 -5h8.5t9.5 2q23 1 35 12q22 18 22 31zM324 433q0 6 -8 6q-3 0 -25 -7l-17 -15
q-3 -3 -6 -9l26 4q6 0 16 8q14 9 14 13zM343 460q0 -3 -4 -3q-3 0 -4 1t-4 1q-15 -3 -34 -23q3 3 6.5 4.5t6.5 3.5q11 1 20 0q6 0 6 -8v-6q-8 -13 -42 -21q27 -3 27 -18q0 -18 -29 -37q-10 -6 -21.5 -10t-23.5 -5q-19 -5 -30 -3q-9 0 -19 4q-9 -6 -17 -6h-3l-15 5h5
q12 0 19 6v1q-10 -6 -22 -6q-17 0 -26 9q-15 11 -15 32q0 6 1.5 11t4.5 13q11 22 36 39q8 7 16 9.5t16 3.5q16 0 22 -6q-7 5 -15 5q-9 0 -19 -6q-15 -6 -17 -9q-15 -8 -30 -26q-13 -21 -13 -36q0 -7 1.5 -11.5t4.5 -9.5q6 -9 16 -12q5 -1 8 -2t6 -1q6 0 10.5 1.5t10.5 4.5
q-17 12 -17 33q3 20 24 35l-3 -5q-3 0 -6 -6q-9 -9 -9 -19q0 -20 23 -33q12 7 12 9q3 4 6 7l6 6t3.5 7.5t3.5 9.5v-2q0 -7 -1 -12l18 21q46 53 76 62q-13 4 -21 4q-19 -1 -42 -13q-27 -14 -27 -33q0 -6 5 -11q1 -1 1 -3q-9 6 -9 15q0 17 20 33q24 18 51 15q9 0 27 -6h6
q7 0 12 -3h1zM346 363q-1 -6 -12 -17q-10 -6 -18 -6q-7 0 -7 9q0 8 9 20h-2q-1 -2 -6 -2l-1 2q4 0 15 10h1l5 6q4 5 4 8h5q4 0 4 -2q0 -6 -9 -16l-10 -11q-9 -13 -9 -18q0 -4 6 -4q7 0 18 15q1 1 2.5 2t4.5 4zM354 405q-6 -9 -15 -9q-5 0 -11 4h5q10 0 13 11v3l8 -3
q1 -2 0 -6zM406 433q0 -7 -46 -63h-2q-13 -16 -13 -25q0 -5 4 -5q9 0 20 15q1 2 2.5 2.5t3.5 3.5q0 -7 -12 -16q-8 -6 -17 -6q-9 1 -9 9q-1 7 30 46l18 23l9 9q5 6 8 15q4 -3 4 -8zM432 433q0 -6 -48 -63q-15 -18 -15 -25q0 -5 6 -5t19 15l6 6q-1 -7 -13 -16q-8 -6 -17 -6
q-9 1 -9 9q0 9 30 46l18 23l9 9q8 9 9 15q5 -3 5 -8zM403 333q-24 -5 -37 -18q-11 -14 -11 -17q0 -6 6 -6q2 -1 11 2l6.5 6.5l8.5 8.5zM447 430q-3 -21 -20 -37q0 -2 -0.5 -2t-0.5 -1q-5 -6 -10 -11.5t-10 -12.5q-3 -3 -3 -6q-1 3 2 9q-9 -14 -9 -21q0 -5 4 -5q2 0 8 3
q22 18 31 51v-4v-5q3 -3 3 -7q0 -3 -7 -15l-12 -20l-14 -18q5 3 17 9l-2 -1q-3 -3 -8 -7t-10 -11l-12 -15l-6 -8q-9 -9 -19 -12q-9 0 -14 6q-9 3 -3 14q2 1 3.5 4t4.5 6l1 2l-10 -2q25 18 42 20q1 0 2.5 0.5t3.5 0.5h1h3l9 14q-6 -6 -10.5 -7t-7.5 -1q-7 0 -7 8q0 18 31 46
l3 2l15 15q3 6 6 10.5t5 8.5zM618 453q-9 3 -15 3q-15 0 -28 -4t-26 -11q-6 -3 -10 -7t-8 -7q18 -1 48 -19q33 33 57 42zM649 447q-6 -2 -12.5 -4t-14.5 -10q-4 -3 -22 -21l-11 -10l15 -9q3 4 9 11t14 16zM663 472q0 -1 -2 -3q0 -10 -4 -21l1 -1h-1q-8 -18 -20 -30l-24 -29
q3 -1 4.5 -1t4.5 -2q0 -3 -1 -3q-3 0 -4.5 1t-4.5 2q-18 -19 -20 -36q-3 -6 -3 -9q0 -6 6 -6q12 0 26 20l6 9q15 21 19 37v5q0 -2 2 -3v-2q-3 -21 -15 -39l-20 -39q0 6 5 20q-18 -14 -27 -14q-14 0 -11 18q0 9 6 20.5t15 24.5l-15 8l-13 -14q-5 -6 -13 -15t-20 -24
q-24 -24 -42 -24h-5q-4 0 -13 5h3q13 -3 27 10q-12 -6 -29 -6q-16 0 -27 8h2q-15 10 -15 31q0 15 6 23q9 24 34 40q9 8 17.5 10t17.5 4q15 0 21 -6h-2q-3 3 -13 3q-15 0 -38 -14q-16 -12 -28 -25q-14 -21 -14 -38q0 -24 23 -31q9 -3 13 -3q32 1 69 42l29 30q-23 13 -51 13
h-2q-3 -6 -3 -13q2 0 8 -9q-11 6 -11 15q0 4 2 7q-15 -3 -20 -6q-27 -10 -24 -31q0 -14 9 -24l3 -3q-18 18 -18 31q0 20 18 33q15 11 38 11q21 24 52 28q8 2 24 2q8 0 23 -3l18 -5h9l1 -1q6 10 9 25h2v-3zM682 375q0 -5 -1 -8q-8 -7 -13 -13t-10 -14h2h1q-1 -1 -3 -1
q-1 0 -1 -2q-8 0 -8 3q0 6 14 20q10 13 10 16q2 5 -4 9q-18 -25 -32 -31l-6 -3l-3 1q6 0 20 15q13 12 18 20q0 1 -1 1t-1 2q0 1 11 10q0 2 1 2l2 -2q0 -1 -8 -12q12 -4 12 -13zM726 379q0 9 -6 6q-6 0 -9 -3q-5 -3 -14 -15t-9 -19q-1 -3 3 -3q9 3 15 10q6 12 6 17q0 3 -1 3
q6 0 6 -8l-2 -3q3 3 5.5 7t5.5 7v1zM754 393q-6 0 -13 -8q-6 -7 -12 -16l-14 -21q-7 -15 -13 -23.5t-8 -11.5q-19 -24 -30 -24q-9 -1 -13 6v8q0 7 6 13q-3 -1 -8 -1q15 15 33 19q2 0 2.5 1t3.5 1l2 -2q-29 -9 -35 -27q-1 -3 -1 -7q0 -2 1 -3q0 -2 2 -2q12 -1 28 23l11 15
l6 9q-5 -2 -8 -2q-12 0 -12 12q0 14 20 32q9 9 16 9q11 0 11 -12h1l8 9q7 7 13 7q5 0 8 -4h-5zM781 382q0 -9 -16 -18q-2 -1 -3 -1h-2q-4 0 -9 7q3 -3 8 -3q10 6 13 17v3v1v2q-6 0 -19 -14v-1q-5 -6 -5.5 -10t-0.5 -7q-2 2 -2 9q-3 -6 -4 -10q-3 -6 -3 -11q0 -1 1 -3
q0 -3 6 -3q15 6 26 15q3 3 7 6l-6 -8t-10 -8q-12 -8 -21 -5q0 -1 -2 0q-9 0 -9 9q0 15 17 30q9 14 24 14q3 0 4 -2q6 -4 6 -9zM841 433q0 -6 -48 -63q-13 -16 -13 -25q0 -5 4 -5q9 0 20 15q1 2 2.5 2.5t3.5 3.5q0 -7 -12 -16q-8 -6 -18 -6q-8 3 -8 9q0 12 29 46l18 23l9 9
q9 9 9 15q4 -3 4 -8zM922 387q-25 9 -27 28q-7 -4 -14.5 -8t-12.5 -8q-28 -27 -28 -50q0 -9 4 -10h3h3q23 0 42 15q6 6 14.5 13.5t15.5 19.5zM952 430h-12q-18 -1 -43 -13q3 -21 28 -26l11 14zM979 457q-19 0 -35 -3t-28 -10q8 7 19 11.5t25 7.5q-30 2 -53 -18
q-4 -3 -10 -15q10 3 20 4.5t22 0.5h7.5t11.5 -2q3 5 8.5 11t12.5 13zM1074 459q-3 -5 -7 -8.5t-11 -6.5q-12 -8 -23 -8h-3q-1 0 -3 2q2 1 2 2.5t3 4.5q-14 11 -38 11l-6 -8l-15 -18q12 -1 22.5 -2.5t19.5 -1.5q21 0 29 4q-6 -6 -23 -9q-13 -3 -27 2l-24 4q-6 -7 -11 -12.5
t-8 -11.5l-11 -15h8q37 3 43 18h2q-5 -9 -20 -16q-7 -3 -14 -4.5t-13 -1.5h-7q-11 -12 -17.5 -21t-12.5 -15q-20 -21 -36 -21q-8 1 -17 1q15 0 32 15q-21 -9 -33 -9l-9 2l12 -12q-12 6 -20 13q-1 0 -7 3q-18 14 -20 35v13t3 12q5 14 12.5 23.5t17.5 20.5q26 22 45 22
q11 0 18 -6l-1 -1q-5 4 -14 4q-19 -3 -40 -19q-18 -15 -27 -30q-12 -21 -12 -39q3 -27 24 -35q-3 9 -2 18q3 23 17 39q16 21 45 33q3 3 3 9l13 14q20 16 51 16h13t13 -1h1q11 7 19 11t17 2q6 0 9 -3l-16 -3q-3 -1 -7 -2.5t-8 -4.5q6 -2 12 -2.5t13 -3.5q15 -5 24 -5
q14 0 20 2zM982 354q-4 4 -4 10q0 3 0.5 5.5t0.5 5.5q-15 -20 -13 -29q0 -3 3 -3t13 11zM1002 385q0 3 -3 3t-6 -1q-2 -2 -5 -8q-7 -15 -7 -19q0 -5 1 -6l5 4v2v-2q1 2 1 2.5t2 2.5q3 9 3 12q0 1 -2 3q3 -6 3 -8q5 5 8 15zM1008 381q0 -8 -11 -23q-13 -13 -19 -18h-12
q-9 0 -9 8q0 12 16 31q11 14 24 14q11 0 11 -12zM1057 384q2 -3 -6 -17q-9 -12 -12 -15l-18 -16q-10 -11 -13 -23q1 18 13 32q6 6 9 10.5t6 10.5q2 1 3 6v-5l-1 -3q3 3 9 15q0 2 0.5 2.5t0.5 2.5q0 7 -7 4l-12 -9q-3 -7 -8.5 -12.5t-11.5 -12.5q-7 -9 -9 -14q-1 -1 -7 -13
q0 3 -1 6.5t1 6.5q3 11 13 21l9 11q8 10 8 16q0 2 -1 3.5t-1 2.5q9 -3 9 -9q9 8 20 8q6 -3 7 -9zM1116 405h-23q-1 -3 -9.5 -12t-20.5 -26q-3 0 -6 -7q-6 -8 -6 -15q0 -5 3 -5q8 0 21 15l2 2q1 1 1 2t2 2q0 -7 -11 -16q-7 -6 -18 -6q-7 3 -9 9q0 3 6 15l18 21l17 21l-26 3
q-6 1 -15 1h-13q-18 0 -36 -7h-2q15 15 47 15q1 0 12.5 -2.5t32.5 -5.5l4 -1q5 7 8.5 12.5t6.5 9.5q3 -1 3 -7q0 -5 -3 -8l-6 -9l12 -1h9h2h4h-7zM1126 385q0 -4 -10 -9l-2 -1q5 4 5 12v6h-5q-7 0 -9 -6q0 -3 5 -26q1 -21 -24 -21q-14 0 -17 9q-1 2 -1 5q0 12 18 15l6 -2h-3
q-6 0 -9 -3q-5 -7 -5 -10q0 -12 12 -12t12 16q0 8 -1 12q-2 5 -2 11q0 15 14 15q3 0 4.5 -1t4.5 -1q6 -3 6 -4q1 -2 1 -5z" />
    <glyph glyph-name="nine" unicode="9" horiz-adv-x="1219" 
d="M876 781l-137 -124l36 -186l-160 94l-165 -94l39 181l-138 129l186 20l78 171l75 -170zM682 576l-43 258h-53l-45 -258l23 -14l19 14l9 58h39l11 -58l21 -14zM628 672h-30l14 102zM610 21h21l-7 18q-2 3 -2 5t-3 5q0 -4 -3 -10zM352 -5v8h11v-8h-11zM844 -5v63h8v-57h31
v-6h-39zM787 -5v63h45v-9h-37v-19h34v-8h-34v-21h37v-6h-45zM565 -5v26l-24 37h11l12 -19q3 -9 6 -11l2.5 5t4.5 6l12 19h9l-25 -37v-26h-8zM376 -5v63h24q3 0 5.5 -1.5t3.5 -1.5q6 -1 8 -6q3 -3 3 -9q0 -4 -3 -6q-2 -6 -6 -6q4 -1 9 -6q3 -6 3 -9t-1 -4.5t-1 -2.5
q-1 -6 -6 -6q-1 -3 -2.5 -3t-3.5 -2h-9h-24zM205 -5l-18 63h9l9 -42q2 -4 2 -7t1 -6q2 7 2 12l12 43h10l9 -33q2 -7 3.5 -11.5t1.5 -10.5q1 3 1 6t2 7l10 42h8l-18 -63h-8l-12 47q-1 4 -1 7q-2 -3 -2 -7l-13 -47h-8zM123 -5l-18 63h10l8 -42q0 -7 4 -13q2 7 2 12l12 43h9
l10 -33q2 -7 2.5 -11.5t0.5 -10.5q3 3 3 6t2 7l9 42h9l-18 -63h-8l-12 47q-1 4 -1 7q-3 -3 -3 -7l-14 -47h-7zM384 30h13q6 0 8 3q4 0 4 1q2 2 2 6q0 5 -2 6h-1q-2 0 -2 1t-1 1q-2 1 -9 1h-12v-19zM285 -5l-17 63h9l9 -42q2 -4 2 -7t3 -6q0 6 0.5 8t0.5 4l12 43h9l11 -33
q1 -7 2 -11.5t1 -10.5q3 3 3 6t1 7l11 42h7l-18 -63h-7l-12 47q-2 4 -2 7q-3 -3 -3 -7l-13 -47h-9zM664 28h18q3 0 5.5 1t5.5 1t3 4q1 2 1 6q0 5 -3 8q-1 1 -10 1h-20v-21zM384 1h16q3 0 5 2h4q2 3 5 4v6q0 3 -3 6q0 3 -3 3h-11h-13v-21zM435 -5v63h7v-63h-7zM985 25
q0 -13 5 -18q6 -6 16 -6q11 0 15 6q6 5 6 20q0 7 -1 12q-3 7 -8 9q-4 1 -12 1q-9 0 -13 -4q-8 -6 -8 -20zM976 25q0 17 9 24q6 9 21 9q5 0 8.5 -1.5t6.5 -2.5q5 -2 7 -5t5 -7q2 -3 2 -15q0 -14 -3 -18q-5 -8 -11 -12q-6 -3 -15 -3q-4 0 -8 0.5t-8 2.5q-3 3 -5.5 6t-3.5 6
q-2 4 -3.5 8t-1.5 8zM592 -5l24 63h9l26 -63h-9l-8 18h-25l-9 -18h-8zM459 -5v63h7v-57h29v-6h-36zM892 -5v8h11v-8h-11zM748 19v8h26v-24q-6 -6 -12 -8q-3 0 -7 -0.5t-7 -0.5q-9 0 -15 3q-4 3 -7 5t-5 7q-1 4 -2.5 8t-1.5 8q0 6 1.5 9t2.5 8q3 9 11 12l7.5 2.5t8.5 1.5
q8 0 12 -3q6 -1 8 -6q4 -4 6 -9l-8 -1q0 1 -4 6q0 3 -6 4h-8h-9q-4 -1 -7 -4q0 -2 -5 -6q0 -3 -0.5 -6t-0.5 -6q0 -11 3 -14q6 -9 7 -10q5 -2 12 -2q6 0 11 2q3 3 4.5 3t2.5 1v12h-18zM657 -5v63h27q4 0 7 -1.5t6 -1.5q5 -1 6 -6q3 -3 3 -9q0 -7 -4 -12q-2 -1 -5.5 -2
t-8.5 -4q3 0 4 -0.5t2 -0.5q2 -3 2.5 -5.5t3.5 -5.5l12 -15h-10l-9 12q-3 3 -4 5.5t-2 3.5q0 3 -1.5 3t-3.5 2h-1q-2 0 -2 0.5t-1 0.5h-3h-11v-27h-7zM505 -5v63h9v-57h30v-6h-39zM961 16l8 -1q-3 -12 -9 -15q-6 -6 -17 -6q-9 0 -15 3q-4 3 -5.5 6t-4.5 6q-3 12 -3 18t3 18
q7 7 10 9q5 1 8 2.5t7 1.5q5 0 9.5 -1.5l7.5 -2.5q3 -3 5 -6t4 -8l-9 -1q0 6 -6 9q-3 1 -11 1q-9 0 -12 -1q-3 -2 -3.5 -4t-3.5 -5q0 -3 -1 -6t-1 -6q0 -9 5 -14q0 -3 1.5 -5t2.5 -5q5 -2 12 -2q8 0 12 5q5 4 6 10zM1047 -5v63h12l15 -45q0 -3 1.5 -5t1.5 -5q0 1 3 10l13 45
h12v-63h-7v51l-18 -51h-8l-18 53v-53h-7zM610 21h21l-7 18q-2 3 -2 5t-3 5q0 -4 -3 -10zM352 -5v8h11v-8h-11zM844 -5v63h8v-57h31v-6h-39zM787 -5v63h45v-9h-37v-19h34v-8h-34v-21h37v-6h-45zM565 -5v26l-24 37h11l12 -19q3 -9 6 -11l2.5 5t4.5 6l12 19h9l-25 -37v-26h-8z
M376 -5v63h24q3 0 5.5 -1.5t3.5 -1.5q6 -1 8 -6q3 -3 3 -9q0 -4 -3 -6q-2 -6 -6 -6q4 -1 9 -6q3 -6 3 -9t-1 -4.5t-1 -2.5q-1 -6 -6 -6q-1 -3 -2.5 -3t-3.5 -2h-9h-24zM205 -5l-18 63h9l9 -42q2 -4 2 -7t1 -6q2 7 2 12l12 43h10l9 -33q2 -7 3.5 -11.5t1.5 -10.5q1 3 1 6t2 7
l10 42h8l-18 -63h-8l-12 47q-1 4 -1 7q-2 -3 -2 -7l-13 -47h-8zM123 -5l-18 63h10l8 -42q0 -7 4 -13q2 7 2 12l12 43h9l10 -33q2 -7 2.5 -11.5t0.5 -10.5q3 3 3 6t2 7l9 42h9l-18 -63h-8l-12 47q-1 4 -1 7q-3 -3 -3 -7l-14 -47h-7zM384 30h13q6 0 8 3q4 0 4 1q2 2 2 6
q0 5 -2 6h-1q-2 0 -2 1t-1 1q-2 1 -9 1h-12v-19zM285 -5l-17 63h9l9 -42q2 -4 2 -7t3 -6q0 6 0.5 8t0.5 4l12 43h9l11 -33q1 -7 2 -11.5t1 -10.5q3 3 3 6t1 7l11 42h7l-18 -63h-7l-12 47q-2 4 -2 7q-3 -3 -3 -7l-13 -47h-9zM664 28h18q3 0 5.5 1t5.5 1t3 4q1 2 1 6q0 5 -3 8
q-1 1 -10 1h-20v-21zM384 1h16q3 0 5 2h4q2 3 5 4v6q0 3 -3 6q0 3 -3 3h-11h-13v-21zM435 -5v63h7v-63h-7zM985 25q0 -13 5 -18q6 -6 16 -6q11 0 15 6q6 5 6 20q0 7 -1 12q-3 7 -8 9q-4 1 -12 1q-9 0 -13 -4q-8 -6 -8 -20zM976 25q0 17 9 24q6 9 21 9q5 0 8.5 -1.5t6.5 -2.5
q5 -2 7 -5t5 -7q2 -3 2 -15q0 -14 -3 -18q-5 -8 -11 -12q-6 -3 -15 -3q-4 0 -8 0.5t-8 2.5q-3 3 -5.5 6t-3.5 6q-2 4 -3.5 8t-1.5 8zM592 -5l24 63h9l26 -63h-9l-8 18h-25l-9 -18h-8zM459 -5v63h7v-57h29v-6h-36zM892 -5v8h11v-8h-11zM748 19v8h26v-24q-6 -6 -12 -8
q-3 0 -7 -0.5t-7 -0.5q-9 0 -15 3q-4 3 -7 5t-5 7q-1 4 -2.5 8t-1.5 8q0 6 1.5 9t2.5 8q3 9 11 12l7.5 2.5t8.5 1.5q8 0 12 -3q6 -1 8 -6q4 -4 6 -9l-8 -1q0 1 -4 6q0 3 -6 4h-8h-9q-4 -1 -7 -4q0 -2 -5 -6q0 -3 -0.5 -6t-0.5 -6q0 -11 3 -14q6 -9 7 -10q5 -2 12 -2
q6 0 11 2q3 3 4.5 3t2.5 1v12h-18zM657 -5v63h27q4 0 7 -1.5t6 -1.5q5 -1 6 -6q3 -3 3 -9q0 -7 -4 -12q-2 -1 -5.5 -2t-8.5 -4q3 0 4 -0.5t2 -0.5q2 -3 2.5 -5.5t3.5 -5.5l12 -15h-10l-9 12q-3 3 -4 5.5t-2 3.5q0 3 -1.5 3t-3.5 2h-1q-2 0 -2 0.5t-1 0.5h-3h-11v-27h-7z
M505 -5v63h9v-57h30v-6h-39zM961 16l8 -1q-3 -12 -9 -15q-6 -6 -17 -6q-9 0 -15 3q-4 3 -5.5 6t-4.5 6q-3 12 -3 18t3 18q7 7 10 9q5 1 8 2.5t7 1.5q5 0 9.5 -1.5l7.5 -2.5q3 -3 5 -6t4 -8l-9 -1q0 6 -6 9q-3 1 -11 1q-9 0 -12 -1q-3 -2 -3.5 -4t-3.5 -5q0 -3 -1 -6t-1 -6
q0 -9 5 -14q0 -3 1.5 -5t2.5 -5q5 -2 12 -2q8 0 12 5q5 4 6 10zM1047 -5v63h12l15 -45q0 -3 1.5 -5t1.5 -5q0 1 3 10l13 45h12v-63h-7v51l-18 -51h-8l-18 53v-53h-7zM610 21h21l-7 18q-2 3 -2 5t-3 5q0 -4 -3 -10zM352 -5v8h11v-8h-11zM844 -5v63h8v-57h31v-6h-39zM787 -5
v63h45v-9h-37v-19h34v-8h-34v-21h37v-6h-45zM565 -5v26l-24 37h11l12 -19q3 -9 6 -11l2.5 5t4.5 6l12 19h9l-25 -37v-26h-8zM376 -5v63h24q3 0 5.5 -1.5t3.5 -1.5q6 -1 8 -6q3 -3 3 -9q0 -4 -3 -6q-2 -6 -6 -6q4 -1 9 -6q3 -6 3 -9t-1 -4.5t-1 -2.5q-1 -6 -6 -6
q-1 -3 -2.5 -3t-3.5 -2h-9h-24zM205 -5l-18 63h9l9 -42q2 -4 2 -7t1 -6q2 7 2 12l12 43h10l9 -33q2 -7 3.5 -11.5t1.5 -10.5q1 3 1 6t2 7l10 42h8l-18 -63h-8l-12 47q-1 4 -1 7q-2 -3 -2 -7l-13 -47h-8zM123 -5l-18 63h10l8 -42q0 -7 4 -13q2 7 2 12l12 43h9l10 -33
q2 -7 2.5 -11.5t0.5 -10.5q3 3 3 6t2 7l9 42h9l-18 -63h-8l-12 47q-1 4 -1 7q-3 -3 -3 -7l-14 -47h-7zM384 30h13q6 0 8 3q4 0 4 1q2 2 2 6q0 5 -2 6h-1q-2 0 -2 1t-1 1q-2 1 -9 1h-12v-19zM285 -5l-17 63h9l9 -42q2 -4 2 -7t3 -6q0 6 0.5 8t0.5 4l12 43h9l11 -33
q1 -7 2 -11.5t1 -10.5q3 3 3 6t1 7l11 42h7l-18 -63h-7l-12 47q-2 4 -2 7q-3 -3 -3 -7l-13 -47h-9zM664 28h18q3 0 5.5 1t5.5 1t3 4q1 2 1 6q0 5 -3 8q-1 1 -10 1h-20v-21zM384 1h16q3 0 5 2h4q2 3 5 4v6q0 3 -3 6q0 3 -3 3h-11h-13v-21zM435 -5v63h7v-63h-7zM985 25
q0 -13 5 -18q6 -6 16 -6q11 0 15 6q6 5 6 20q0 7 -1 12q-3 7 -8 9q-4 1 -12 1q-9 0 -13 -4q-8 -6 -8 -20zM976 25q0 17 9 24q6 9 21 9q5 0 8.5 -1.5t6.5 -2.5q5 -2 7 -5t5 -7q2 -3 2 -15q0 -14 -3 -18q-5 -8 -11 -12q-6 -3 -15 -3q-4 0 -8 0.5t-8 2.5q-3 3 -5.5 6t-3.5 6
q-2 4 -3.5 8t-1.5 8zM592 -5l24 63h9l26 -63h-9l-8 18h-25l-9 -18h-8zM459 -5v63h7v-57h29v-6h-36zM892 -5v8h11v-8h-11zM748 19v8h26v-24q-6 -6 -12 -8q-3 0 -7 -0.5t-7 -0.5q-9 0 -15 3q-4 3 -7 5t-5 7q-1 4 -2.5 8t-1.5 8q0 6 1.5 9t2.5 8q3 9 11 12l7.5 2.5t8.5 1.5
q8 0 12 -3q6 -1 8 -6q4 -4 6 -9l-8 -1q0 1 -4 6q0 3 -6 4h-8h-9q-4 -1 -7 -4q0 -2 -5 -6q0 -3 -0.5 -6t-0.5 -6q0 -11 3 -14q6 -9 7 -10q5 -2 12 -2q6 0 11 2q3 3 4.5 3t2.5 1v12h-18zM657 -5v63h27q4 0 7 -1.5t6 -1.5q5 -1 6 -6q3 -3 3 -9q0 -7 -4 -12q-2 -1 -5.5 -2
t-8.5 -4q3 0 4 -0.5t2 -0.5q2 -3 2.5 -5.5t3.5 -5.5l12 -15h-10l-9 12q-3 3 -4 5.5t-2 3.5q0 3 -1.5 3t-3.5 2h-1q-2 0 -2 0.5t-1 0.5h-3h-11v-27h-7zM505 -5v63h9v-57h30v-6h-39zM961 16l8 -1q-3 -12 -9 -15q-6 -6 -17 -6q-9 0 -15 3q-4 3 -5.5 6t-4.5 6q-3 12 -3 18t3 18
q7 7 10 9q5 1 8 2.5t7 1.5q5 0 9.5 -1.5l7.5 -2.5q3 -3 5 -6t4 -8l-9 -1q0 6 -6 9q-3 1 -11 1q-9 0 -12 -1q-3 -2 -3.5 -4t-3.5 -5q0 -3 -1 -6t-1 -6q0 -9 5 -14q0 -3 1.5 -5t2.5 -5q5 -2 12 -2q8 0 12 5q5 4 6 10zM1047 -5v63h12l15 -45q0 -3 1.5 -5t1.5 -5q0 1 3 10l13 45
h12v-63h-7v51l-18 -51h-8l-18 53v-53h-7zM175 111l12 -5q-3 -13 -13 -22q-12 -9 -26 -9q-13 0 -25 6q-12 9 -14 18q-6 10 -6 25q0 17 6 27q5 11 15 15q11 6 24 6q17 0 23 -7q10 -3 15 -20l-12 -1q-6 12 -11 13q-6 6 -15 6q-12 0 -18 -6q-9 -6 -12 -13q-1 -6 -1 -20
q0 -13 4 -19q3 -11 9 -14q8 -6 17 -6q12 0 19 8q3 3 5.5 7.5t3.5 10.5zM199 123q0 12 3 21t11 15q6 7 14 10t17 3q14 0 24 -6q9 -4 17 -16q6 -15 6 -26q0 -7 -1.5 -13t-4.5 -12q-8 -12 -18 -18q-12 -6 -23 -6q-7 0 -12.5 1.5t-11.5 4.5q-10 6 -15 18q-6 10 -6 24zM213 123
q0 -18 7 -29q11 -9 24 -9q15 0 23 12q10 11 10 27q0 6 -1.5 10.5t-2.5 9.5q-3 10 -12 13q-5 6 -17 6t-22 -10q-9 -8 -9 -30zM306 78v93h18l22 -66q5 -9 5 -14q3 3 6 15l24 65h15v-93h-12v78l-27 -78h-12l-27 79v-79h-12zM417 78v93h36h13q8 0 12 -5q2 -1 8 -9l2 -6t1 -7
q0 -9 -8 -20q-7 -7 -28 -7h-24v-39h-12zM429 126h25q14 0 15 6q6 1 6 12q0 7 -1 9q-6 6 -11 6q-1 3 -10 3h-24v-36zM505 78v93h12v-84h47v-9h-59zM579 78v93h69v-9h-57v-30h52v-12h-52v-33h58v-9h-70zM690 78v84h-32v9h77v-9h-32v-84h-13zM748 78v93h69v-9h-57v-30h53v-12
h-53v-33h59v-9h-71zM870 106l12 2q0 -8 3 -11q3 -6 10 -9q3 -1 14 -1h6.5t6.5 1q5 0 8 6q1 3 1 9q0 5 -1 8l-4 2t-5 4q-2 0 -17 3q-7 3 -11.5 3.5t-7.5 2.5q-6 3 -9 10q-3 2 -4 5t-1 6q0 9 6 15q2 3 5 4.5t7 4.5q3 1 18 1q11 0 17 -3q4 -3 7 -4.5t5 -5.5q6 -5 6 -14l-12 -1
q-3 12 -8 13q-4 5 -15 5q-15 0 -18 -5q-4 -4 -4 -10q0 -5 4 -8l18 -7q8 -2 13 -3.5t8 -2.5q5 -2 7 -4l5 -5q3 -5 3 -14q0 -10 -3 -15q-6 -6 -12 -9q-4 -1 -8.5 -2.5t-10.5 -1.5t-12 1.5t-9 2.5q-8 2 -15 12q-3 6 -3 15zM961 78v93h68v-9h-54v-30h52v-12h-52v-33h57v-9h-71z
M1074 78v84h-30v9h73v-9h-31v-84h-12zM112 190v93h38h13q3 0 12 -3q2 -1 4 -4l4 -6q3 -3 3 -11q0 -13 -9 -22q-5 -8 -27 -8h-23v-39h-15zM127 241h23q13 0 18 3q6 6 6 12q0 3 -1.5 6t-3.5 6q-4 5 -7 5q-2 1 -12 1h-23v-33zM201 190v93h67v-9h-54v-30h51v-10h-51v-32h57v-12
h-70zM288 190v93h43q14 0 20 -1q7 -3 10 -8q3 -12 3 -15q0 -10 -6 -16t-21 -9q3 -3 4.5 -3t3.5 -2q7 -7 10 -13l17 -26h-15l-14 20q-1 4 -3.5 7t-3.5 6q-3 2 -4 4t-2 2q-3 2 -6 2q-2 3 -8 3h-13v-44h-15zM303 243h24q12 0 15 1q4 5 7 6q2 3 2 9t-5 11q-4 4 -15 4h-28v-31z
M381 222h10q0 -3 1.5 -6t3.5 -6q1 -2 3.5 -4t5.5 -2q9 -3 15 -3h6t4 1q9 3 11 6q0 2 0.5 4t0.5 4q0 6 -1 7q-5 3 -11 6q-1 2 -5 2t-10 3q-13 1 -19 6q-8 6 -11 9q-1 4 -1 12q0 3 0.5 6.5t3.5 6.5q2 6 12 9q3 3 17 3q12 0 18 -3q9 -4 12 -10q6 -9 6 -14l-12 -3q-3 11 -8 14
q-6 6 -16 6q-12 0 -17 -6q-4 -3 -4 -9t4 -8q2 -3 17 -6q13 -6 22 -6q3 -3 6 -5t5 -5q4 -5 4 -14q0 -7 -4 -13q-3 -5 -5.5 -7t-5.5 -5q-12 -3 -19 -3q-11 0 -23 3q-4 3 -7 5t-6 7q-2 4 -2.5 8t-0.5 10zM468 237q0 21 12 36q13 13 33 13q6 0 11 -1.5t13 -4.5q6 -3 9 -7.5
t6 -10.5q6 -10 6 -25q0 -14 -6 -26q-6 -10 -15 -16q-12 -6 -24 -6q-14 0 -24 7q-14 8 -15 18q-6 8 -6 23zM480 237q0 -18 9 -27t24 -9t24 9q7 10 7 27q0 6 -0.5 12t-3.5 10q-5 8 -9 11q-8 6 -18 6q-8 0 -12.5 -2.5t-11.5 -6.5q-9 -9 -9 -30zM573 190v93h13l50 -72v72h12v-93
h-12l-51 74v-74h-12zM658 190l36 93h14l39 -93h-15l-11 30h-39l-12 -30h-12zM684 229h33l-9 26q-3 6 -4.5 11t-3.5 8q0 -4 -1.5 -8.5t-2.5 -9.5zM754 190v93h14v-81h46v-12h-60zM922 283h12v-52q0 -17 -3 -23q-3 -9 -10 -13q-8 -6 -23 -6t-21 6q-4 1 -7 5l-6 8q-2 3 -2 23
v52h11v-52q0 -15 3 -20q3 -6 7 -7q3 -2 6 -2.5t8 -0.5q12 0 19 4q6 6 6 26v52zM951 222h12q0 -3 1.5 -6t2.5 -6l4 -4t5 -2q9 -3 14 -3q10 0 15 1q3 2 7 6q2 2 2 8t-2 7q-3 2 -3.5 3.5t-3.5 2.5q-3 2 -7.5 2t-10.5 3q-6 1 -11.5 2t-6.5 4q-8 3 -9 9q-5 4 -5 12q0 6 5 13
q1 6 10 9q6 3 18 3h10t8 -3q9 -4 14 -10q1 -3 2.5 -7t1.5 -7l-12 -3q-3 5 -3.5 8.5t-3.5 5.5q-5 6 -17 6q-13 0 -15 -6q-6 -2 -6 -9q0 -5 3 -8t18 -6q17 -6 21 -6q5 -3 8 -5t4 -5q5 -3 5 -14q0 -9 -5 -13q-3 -5 -5 -7t-7 -5q-9 -3 -16 -3q-8 0 -13 0.5t-10 2.5q-3 3 -6.5 5
t-6.5 7q-3 4 -4.5 8t-1.5 10zM1044 190v93h67v-9h-54v-30h50v-10h-50v-32h56v-12h-69zM307 388q0 15 -22 18q-3 0 -7.5 1t-10.5 1l-9 -11l-24 -25q-6 -8 -11.5 -14t-12.5 -10q9 -3 22 -5h8.5t9.5 2q23 1 35 12q22 18 22 31zM324 433q0 6 -8 6q-3 0 -25 -7l-17 -15
q-3 -3 -6 -9l26 4q6 0 16 8q14 9 14 13zM343 460q0 -3 -4 -3q-3 0 -4 1t-4 1q-15 -3 -34 -23q3 3 6.5 4.5t6.5 3.5q11 1 20 0q6 0 6 -8v-6q-8 -13 -42 -21q27 -3 27 -18q0 -18 -29 -37q-10 -6 -21.5 -10t-23.5 -5q-19 -5 -30 -3q-9 0 -19 4q-9 -6 -17 -6h-3l-15 5h5
q12 0 19 6v1q-10 -6 -22 -6q-17 0 -26 9q-15 11 -15 32q0 6 1.5 11t4.5 13q11 22 36 39q8 7 16 9.5t16 3.5q16 0 22 -6q-7 5 -15 5q-9 0 -19 -6q-15 -6 -17 -9q-15 -8 -30 -26q-13 -21 -13 -36q0 -7 1.5 -11.5t4.5 -9.5q6 -9 16 -12q5 -1 8 -2t6 -1q6 0 10.5 1.5t10.5 4.5
q-17 12 -17 33q3 20 24 35l-3 -5q-3 0 -6 -6q-9 -9 -9 -19q0 -20 23 -33q12 7 12 9q3 4 6 7l6 6t3.5 7.5t3.5 9.5v-2q0 -7 -1 -12l18 21q46 53 76 62q-13 4 -21 4q-19 -1 -42 -13q-27 -14 -27 -33q0 -6 5 -11q1 -1 1 -3q-9 6 -9 15q0 17 20 33q24 18 51 15q9 0 27 -6h6
q7 0 12 -3h1zM346 363q-1 -6 -12 -17q-10 -6 -18 -6q-7 0 -7 9q0 8 9 20h-2q-1 -2 -6 -2l-1 2q4 0 15 10h1l5 6q4 5 4 8h5q4 0 4 -2q0 -6 -9 -16l-10 -11q-9 -13 -9 -18q0 -4 6 -4q7 0 18 15q1 1 2.5 2t4.5 4zM354 405q-6 -9 -15 -9q-5 0 -11 4h5q10 0 13 11v3l8 -3
q1 -2 0 -6zM406 433q0 -7 -46 -63h-2q-13 -16 -13 -25q0 -5 4 -5q9 0 20 15q1 2 2.5 2.5t3.5 3.5q0 -7 -12 -16q-8 -6 -17 -6q-9 1 -9 9q-1 7 30 46l18 23l9 9q5 6 8 15q4 -3 4 -8zM432 433q0 -6 -48 -63q-15 -18 -15 -25q0 -5 6 -5t19 15l6 6q-1 -7 -13 -16q-8 -6 -17 -6
q-9 1 -9 9q0 9 30 46l18 23l9 9q8 9 9 15q5 -3 5 -8zM403 333q-24 -5 -37 -18q-11 -14 -11 -17q0 -6 6 -6q2 -1 11 2l6.5 6.5l8.5 8.5zM447 430q-3 -21 -20 -37q0 -2 -0.5 -2t-0.5 -1q-5 -6 -10 -11.5t-10 -12.5q-3 -3 -3 -6q-1 3 2 9q-9 -14 -9 -21q0 -5 4 -5q2 0 8 3
q22 18 31 51v-4v-5q3 -3 3 -7q0 -3 -7 -15l-12 -20l-14 -18q5 3 17 9l-2 -1q-3 -3 -8 -7t-10 -11l-12 -15l-6 -8q-9 -9 -19 -12q-9 0 -14 6q-9 3 -3 14q2 1 3.5 4t4.5 6l1 2l-10 -2q25 18 42 20q1 0 2.5 0.5t3.5 0.5h1h3l9 14q-6 -6 -10.5 -7t-7.5 -1q-7 0 -7 8q0 18 31 46
l3 2l15 15q3 6 6 10.5t5 8.5zM618 453q-9 3 -15 3q-15 0 -28 -4t-26 -11q-6 -3 -10 -7t-8 -7q18 -1 48 -19q33 33 57 42zM649 447q-6 -2 -12.5 -4t-14.5 -10q-4 -3 -22 -21l-11 -10l15 -9q3 4 9 11t14 16zM663 472q0 -1 -2 -3q0 -10 -4 -21l1 -1h-1q-8 -18 -20 -30l-24 -29
q3 -1 4.5 -1t4.5 -2q0 -3 -1 -3q-3 0 -4.5 1t-4.5 2q-18 -19 -20 -36q-3 -6 -3 -9q0 -6 6 -6q12 0 26 20l6 9q15 21 19 37v5q0 -2 2 -3v-2q-3 -21 -15 -39l-20 -39q0 6 5 20q-18 -14 -27 -14q-14 0 -11 18q0 9 6 20.5t15 24.5l-15 8l-13 -14q-5 -6 -13 -15t-20 -24
q-24 -24 -42 -24h-5q-4 0 -13 5h3q13 -3 27 10q-12 -6 -29 -6q-16 0 -27 8h2q-15 10 -15 31q0 15 6 23q9 24 34 40q9 8 17.5 10t17.5 4q15 0 21 -6h-2q-3 3 -13 3q-15 0 -38 -14q-16 -12 -28 -25q-14 -21 -14 -38q0 -24 23 -31q9 -3 13 -3q32 1 69 42l29 30q-23 13 -51 13
h-2q-3 -6 -3 -13q2 0 8 -9q-11 6 -11 15q0 4 2 7q-15 -3 -20 -6q-27 -10 -24 -31q0 -14 9 -24l3 -3q-18 18 -18 31q0 20 18 33q15 11 38 11q21 24 52 28q8 2 24 2q8 0 23 -3l18 -5h9l1 -1q6 10 9 25h2v-3zM682 375q0 -5 -1 -8q-8 -7 -13 -13t-10 -14h2h1q-1 -1 -3 -1
q-1 0 -1 -2q-8 0 -8 3q0 6 14 20q10 13 10 16q2 5 -4 9q-18 -25 -32 -31l-6 -3l-3 1q6 0 20 15q13 12 18 20q0 1 -1 1t-1 2q0 1 11 10q0 2 1 2l2 -2q0 -1 -8 -12q12 -4 12 -13zM726 379q0 9 -6 6q-6 0 -9 -3q-5 -3 -14 -15t-9 -19q-1 -3 3 -3q9 3 15 10q6 12 6 17q0 3 -1 3
q6 0 6 -8l-2 -3q3 3 5.5 7t5.5 7v1zM754 393q-6 0 -13 -8q-6 -7 -12 -16l-14 -21q-7 -15 -13 -23.5t-8 -11.5q-19 -24 -30 -24q-9 -1 -13 6v8q0 7 6 13q-3 -1 -8 -1q15 15 33 19q2 0 2.5 1t3.5 1l2 -2q-29 -9 -35 -27q-1 -3 -1 -7q0 -2 1 -3q0 -2 2 -2q12 -1 28 23l11 15
l6 9q-5 -2 -8 -2q-12 0 -12 12q0 14 20 32q9 9 16 9q11 0 11 -12h1l8 9q7 7 13 7q5 0 8 -4h-5zM781 382q0 -9 -16 -18q-2 -1 -3 -1h-2q-4 0 -9 7q3 -3 8 -3q10 6 13 17v3v1v2q-6 0 -19 -14v-1q-5 -6 -5.5 -10t-0.5 -7q-2 2 -2 9q-3 -6 -4 -10q-3 -6 -3 -11q0 -1 1 -3
q0 -3 6 -3q15 6 26 15q3 3 7 6l-6 -8t-10 -8q-12 -8 -21 -5q0 -1 -2 0q-9 0 -9 9q0 15 17 30q9 14 24 14q3 0 4 -2q6 -4 6 -9zM841 433q0 -6 -48 -63q-13 -16 -13 -25q0 -5 4 -5q9 0 20 15q1 2 2.5 2.5t3.5 3.5q0 -7 -12 -16q-8 -6 -18 -6q-8 3 -8 9q0 12 29 46l18 23l9 9
q9 9 9 15q4 -3 4 -8zM922 387q-25 9 -27 28q-7 -4 -14.5 -8t-12.5 -8q-28 -27 -28 -50q0 -9 4 -10h3h3q23 0 42 15q6 6 14.5 13.5t15.5 19.5zM952 430h-12q-18 -1 -43 -13q3 -21 28 -26l11 14zM979 457q-19 0 -35 -3t-28 -10q8 7 19 11.5t25 7.5q-30 2 -53 -18
q-4 -3 -10 -15q10 3 20 4.5t22 0.5h7.5t11.5 -2q3 5 8.5 11t12.5 13zM1074 459q-3 -5 -7 -8.5t-11 -6.5q-12 -8 -23 -8h-3q-1 0 -3 2q2 1 2 2.5t3 4.5q-14 11 -38 11l-6 -8l-15 -18q12 -1 22.5 -2.5t19.5 -1.5q21 0 29 4q-6 -6 -23 -9q-13 -3 -27 2l-24 4q-6 -7 -11 -12.5
t-8 -11.5l-11 -15h8q37 3 43 18h2q-5 -9 -20 -16q-7 -3 -14 -4.5t-13 -1.5h-7q-11 -12 -17.5 -21t-12.5 -15q-20 -21 -36 -21q-8 1 -17 1q15 0 32 15q-21 -9 -33 -9l-9 2l12 -12q-12 6 -20 13q-1 0 -7 3q-18 14 -20 35v13t3 12q5 14 12.5 23.5t17.5 20.5q26 22 45 22
q11 0 18 -6l-1 -1q-5 4 -14 4q-19 -3 -40 -19q-18 -15 -27 -30q-12 -21 -12 -39q3 -27 24 -35q-3 9 -2 18q3 23 17 39q16 21 45 33q3 3 3 9l13 14q20 16 51 16h13t13 -1h1q11 7 19 11t17 2q6 0 9 -3l-16 -3q-3 -1 -7 -2.5t-8 -4.5q6 -2 12 -2.5t13 -3.5q15 -5 24 -5
q14 0 20 2zM982 354q-4 4 -4 10q0 3 0.5 5.5t0.5 5.5q-15 -20 -13 -29q0 -3 3 -3t13 11zM1002 385q0 3 -3 3t-6 -1q-2 -2 -5 -8q-7 -15 -7 -19q0 -5 1 -6l5 4v2v-2q1 2 1 2.5t2 2.5q3 9 3 12q0 1 -2 3q3 -6 3 -8q5 5 8 15zM1008 381q0 -8 -11 -23q-13 -13 -19 -18h-12
q-9 0 -9 8q0 12 16 31q11 14 24 14q11 0 11 -12zM1057 384q2 -3 -6 -17q-9 -12 -12 -15l-18 -16q-10 -11 -13 -23q1 18 13 32q6 6 9 10.5t6 10.5q2 1 3 6v-5l-1 -3q3 3 9 15q0 2 0.5 2.5t0.5 2.5q0 7 -7 4l-12 -9q-3 -7 -8.5 -12.5t-11.5 -12.5q-7 -9 -9 -14q-1 -1 -7 -13
q0 3 -1 6.5t1 6.5q3 11 13 21l9 11q8 10 8 16q0 2 -1 3.5t-1 2.5q9 -3 9 -9q9 8 20 8q6 -3 7 -9zM1116 405h-23q-1 -3 -9.5 -12t-20.5 -26q-3 0 -6 -7q-6 -8 -6 -15q0 -5 3 -5q8 0 21 15l2 2q1 1 1 2t2 2q0 -7 -11 -16q-7 -6 -18 -6q-7 3 -9 9q0 3 6 15l18 21l17 21l-26 3
q-6 1 -15 1h-13q-18 0 -36 -7h-2q15 15 47 15q1 0 12.5 -2.5t32.5 -5.5l4 -1q5 7 8.5 12.5t6.5 9.5q3 -1 3 -7q0 -5 -3 -8l-6 -9l12 -1h9h2h4h-7zM1126 385q0 -4 -10 -9l-2 -1q5 4 5 12v6h-5q-7 0 -9 -6q0 -3 5 -26q1 -21 -24 -21q-14 0 -17 9q-1 2 -1 5q0 12 18 15l6 -2h-3
q-6 0 -9 -3q-5 -7 -5 -10q0 -12 12 -12t12 16q0 8 -1 12q-2 5 -2 11q0 15 14 15q3 0 4.5 -1t4.5 -1q6 -3 6 -4q1 -2 1 -5z" />
    <glyph glyph-name="A" unicode="A" horiz-adv-x="440" 
d="M221 714q56 0 93.5 -19.5t60.5 -48.5t32.5 -64t9.5 -66v-517h-95v354h-203v-354h-95v517q0 31 11 66t34.5 64t61 48.5t90.5 19.5zM119 444h203v72q0 17 -6 35.5t-18.5 34.5t-31.5 26.5t-45 11.5q-26 -1 -45 -11.5t-31.5 -26t-19 -34.5t-6.5 -36v-72z" />
    <glyph glyph-name="B" unicode="B" horiz-adv-x="392" 
d="M375 206q0 -62 -18.5 -102t-47 -63t-62.5 -32t-64 -9h-157v708h139q32 0 65.5 -7t60.5 -26t44.5 -53t17.5 -88t-16.5 -86t-42.5 -51q32 -29 56.5 -78t24.5 -113zM280 203q0 35 -9 62.5t-23.5 47t-31.5 30t-33 10.5h-62v-263h55q47 0 75.5 26.5t28.5 86.5zM259 532
q0 27 -8 44t-21.5 26.5t-31 12.5t-36.5 3h-41v-175h44q17 0 34 4t30.5 14t21.5 27.5t8 43.5z" />
    <glyph glyph-name="C" unicode="C" horiz-adv-x="478" 
d="M462 132q-21 -41 -45.5 -68.5t-50.5 -45t-52 -25t-50 -7.5q-60 0 -106 28t-77 77.5t-47 117t-16 145.5q0 79 16 146.5t47 116.5t76.5 77t105.5 28h1q46 0 97.5 -29.5t92.5 -102.5l-80 -47q-27 48 -56 68.5t-54 20.5q-38 0 -66.5 -21.5t-47.5 -59t-28 -88.5t-9 -109v-4
q0 -56 10 -105.5t29 -87t47 -59.5t65 -22q28 0 59.5 25t59.5 77z" />
    <glyph glyph-name="D" unicode="D" horiz-adv-x="415" 
d="M399 354q0 -90 -20.5 -157t-56 -110.5t-83 -65t-101.5 -21.5h-112v708h113q54 0 101.5 -21.5t82.5 -65.5t55.5 -110.5t20.5 -156.5zM121 618v-528h14q36 0 67 16t54 48.5t36 82t13 117.5v3q-1 65 -14.5 114t-36.5 81.5t-53.5 49t-65.5 16.5h-14z" />
    <glyph glyph-name="E" unicode="E" horiz-adv-x="339" 
d="M26 0v708h304v-90h-209v-175h196v-91h-196v-262h215v-90h-310z" />
    <glyph glyph-name="F" unicode="F" horiz-adv-x="321" 
d="M121 618v-175h185v-90h-185v-353h-95v708h295v-90h-200z" />
    <glyph glyph-name="G" unicode="G" horiz-adv-x="439" 
d="M111 355q0 -62 9 -113t27 -87.5t44 -56t61 -19.5q42 0 72 22v251h-101v91h194v-380q-30 -31 -72 -52.5t-90 -21.5h-3q-56 0 -99.5 25.5t-73.5 72.5t-45.5 115t-15.5 153q0 79 14.5 146t43 116t70 77t96.5 28h2q21 0 44 -7t46 -22.5t44 -41t39 -61.5l-76 -49
q-26 49 -51 70t-46 21q-34 0 -59 -21.5t-41.5 -59t-24.5 -88t-8 -108.5z" />
    <glyph glyph-name="H" unicode="H" horiz-adv-x="423" 
d="M303 0v353h-182v-353h-95v708h95v-265h182v265h94v-708h-94z" />
    <glyph glyph-name="I" unicode="I" horiz-adv-x="144" 
d="M26 0v708h95v-708h-95z" />
    <glyph glyph-name="J" unicode="J" horiz-adv-x="341" 
d="M318 211q0 -51 -8 -93t-26.5 -71t-49 -45t-75.5 -16h-2q-63 0 -102 44.5t-54 116.5l90 22q8 -42 25 -67.5t41 -25.5q39 0 52.5 37t13.5 106v489h95v-497z" />
    <glyph glyph-name="K" unicode="K" horiz-adv-x="465" 
d="M121 479l194 229h121l-281 -330l295 -378h-118l-211 272v-272h-95v708h95v-229z" />
    <glyph glyph-name="L" unicode="L" horiz-adv-x="299" 
d="M27 0v708h95v-617h178v-91h-273z" />
    <glyph glyph-name="M" unicode="M" horiz-adv-x="743" 
d="M522 714q56 0 93.5 -19.5t60 -48.5t32 -64t9.5 -66v-517h-95v517q0 17 -6 35.5t-18.5 34.5t-31.5 26.5t-45 11.5q-24 -1 -43 -11t-31.5 -25t-19.5 -33t-8 -35v-521h-95v517q0 17 -6 35.5t-18.5 34.5t-31.5 26.5t-45 11.5q-26 -1 -45 -11.5t-31.5 -26t-19 -34.5t-6.5 -36
v-517h-95v517q0 31 11 65.5t34.5 64t61 49t90.5 19.5q54 0 90.5 -22t59.5 -54q24 31 61 53.5t88 22.5z" />
    <glyph glyph-name="N" unicode="N" horiz-adv-x="442" 
d="M222 714q56 0 93.5 -19.5t60.5 -48.5t32.5 -64t9.5 -66v-517h-95v517q0 17 -6 35.5t-18.5 34.5t-31.5 26.5t-45 11.5q-26 -1 -45 -11.5t-31.5 -26t-19 -34.5t-6.5 -36v-517h-95v517q0 31 11 66t34.5 64t61 48.5t90.5 19.5z" />
    <glyph glyph-name="O" unicode="O" horiz-adv-x="474" 
d="M455 354q0 -81 -14.5 -148.5t-42.5 -116t-68.5 -76t-91.5 -27.5q-52 0 -92.5 27.5t-68.5 76.5t-42.5 116.5t-14.5 147.5q0 81 14 148.5t41.5 116t68 76t94.5 27.5q51 0 91.5 -27.5t68.5 -76t42.5 -116t14.5 -148.5zM362 354q0 58 -8 109t-23.5 88.5t-38.5 59t-54 21.5
q-32 0 -55.5 -21.5t-39 -59t-23 -88.5t-7.5 -109v-5q0 -56 8 -105.5t23.5 -87t39 -59t54.5 -21.5t54.5 22t39 59.5t23 88t7.5 108.5z" />
    <glyph glyph-name="P" unicode="P" horiz-adv-x="383" 
d="M380 513q0 -48 -14 -85.5t-38.5 -63.5t-57.5 -39.5t-70 -13.5h-78v-311h-95v708h167q31 0 64 -9t60 -31.5t44.5 -60t17.5 -94.5zM286 513q0 29 -7.5 49t-20 32.5t-27.5 18t-30 5.5h-79v-216h82q15 0 29.5 6.5t26.5 20t19 34.5t7 50z" />
    <glyph glyph-name="Q" unicode="Q" horiz-adv-x="478" 
d="M459 361q0 -81 -18 -151.5t-53 -119.5h45v-90h-196q-46 0 -86 25.5t-69 72.5t-46 113.5t-17 149.5q0 79 16 145t45 114t69 75t89 27t90 -27t70 -75t45 -114.5t16 -144.5zM366 361q0 56 -9 105.5t-25.5 86t-40 58t-53.5 21.5q-29 0 -52.5 -21t-40 -57.5t-25 -86
t-8.5 -106.5v-4q0 -55 9 -103.5t25.5 -85t40 -57.5t52.5 -21q30 0 54 22.5t40 60.5t24.5 86.5t8.5 101.5z" />
    <glyph glyph-name="R" unicode="R" horiz-adv-x="412" 
d="M122 352v-352h-95v708h139q32 0 67 -7.5t64.5 -27.5t48.5 -54.5t19 -88.5q0 -74 -30 -113t-75 -54l136 -363h-102l-130 352h-42zM183 443q18 0 33.5 4t27.5 14.5t19 27.5t7 43v2q0 26 -10 42.5t-25 25.5t-34 12.5t-38 3.5h-41v-175h61z" />
    <glyph glyph-name="S" unicode="S" horiz-adv-x="419" 
d="M405 196q0 -61 -16 -101.5t-42.5 -64.5t-60.5 -34t-70 -10h-3q-59 0 -108 32t-87 92l78 53q26 -44 57.5 -65.5t58.5 -21.5q18 0 35.5 5.5t31.5 19t22.5 37t8.5 58.5q0 54 -34 94t-94 74q-30 17 -56 34.5t-45.5 39t-30.5 49.5t-11 67q0 41 13 72.5t35 52.5t50.5 32
t59.5 11q34 0 59.5 -8t45 -22t34 -33.5t26.5 -42.5l-64 -62q-16 25 -29 40t-24.5 23.5t-22.5 11.5t-23 3q-28 0 -47.5 -21t-18.5 -58q0 -32 20 -51t46 -37l9 -6q4 -2 6.5 -4t4.5 -4t5 -3.5t5 -3.5q36 -23 68 -48t56 -54t38 -65t14 -81z" />
    <glyph glyph-name="T" unicode="T" horiz-adv-x="367" 
d="M231 618v-618h-95v618h-131v90h357v-90h-131z" />
    <glyph glyph-name="U" unicode="U" horiz-adv-x="442" 
d="M222 -11q-53 0 -90.5 19t-61 48t-34.5 63.5t-11 65.5v517h95v-517q0 -17 6 -36t18.5 -34.5t32 -25.5t45.5 -10q27 0 46 10t31 25.5t18 34.5t6 36v517h95v-517q0 -31 -9.5 -65.5t-32.5 -63.5t-60.5 -48t-93.5 -19z" />
    <glyph glyph-name="V" unicode="V" horiz-adv-x="441" 
d="M261 0h-84l-166 708h95l115 -498l115 498h95z" />
    <glyph glyph-name="W" unicode="W" horiz-adv-x="743" 
d="M522 -8q-51 0 -88 22.5t-61 53.5q-23 -31 -59.5 -53.5t-90.5 -22.5q-53 1 -90.5 20.5t-61 48.5t-34.5 63.5t-11 65.5v517h95v-517q0 -17 6.5 -35.5t19 -34.5t31.5 -26.5t45 -11.5q26 1 45 11.5t31.5 26t18.5 34.5t6 36v517h95v-521q1 -17 8 -35t19.5 -33t31.5 -25t44 -11
q26 1 45 11.5t31 26t18 34.5t6 36v517h95v-517q0 -31 -9.5 -65.5t-32 -64t-60 -49t-93.5 -19.5z" />
    <glyph glyph-name="X" unicode="X" horiz-adv-x="473" 
d="M352 0l-115 261l-116 -261h-101l166 369l-152 339h100l103 -230l102 230h101l-152 -339l166 -369h-102z" />
    <glyph glyph-name="Y" unicode="Y" horiz-adv-x="490" 
d="M290 380v-380h-93v380l-189 328h106l130 -222l131 222h107z" />
    <glyph glyph-name="Z" unicode="Z" horiz-adv-x="375" 
d="M11 0v65l239 553h-235v90h346v-68l-237 -550h241v-90h-354z" />
    <glyph glyph-name="grave" unicode="`" horiz-adv-x="240" 
d="M104 693l103 -172h-62q-28 43 -57 86.5t-56 85.5h72z" />
    <glyph glyph-name="a" unicode="a" 
d="M320 312q0 -5 0.5 -9t0.5 -9v-17q1 -17 1.5 -35t0.5 -34q0 -47 -5.5 -87t-23 -69t-49.5 -46t-85 -17q-24 0 -49 9t-45 28t-33 48t-14 69v6q0 54 20 86.5t49 50.5t63 24t62 6h14q-3 47 -19 70.5t-42 23.5q-17 0 -37.5 -18t-41.5 -49l-67 60q28 45 68.5 70.5t76.5 25.5
q72 0 112.5 -45t42.5 -142zM220 227q-18 0 -36.5 -3.5t-34 -12.5t-26 -24t-11.5 -39v-3q2 -35 17.5 -51t30.5 -16q23 0 37 10.5t21 27t9 37.5t2 42v32h-9z" />
    <glyph glyph-name="b" unicode="b" horiz-adv-x="374" 
d="M25 680h92v-204q34 23 79 23q40 0 72 -19t54 -53t33.5 -81t11.5 -103t-11 -103.5t-32.5 -81.5t-53.5 -53t-74 -19q-21 0 -50.5 7t-56 32.5t-45 76.5t-18.5 138zM116 243q0 -89 20.5 -129t59.5 -40q20 0 34.5 13t24.5 36t14.5 54t4.5 66t-4.5 65.5t-14.5 53t-24.5 35.5
t-34.5 13t-35 -13t-25 -35.5t-15 -53t-5 -65.5z" />
    <glyph glyph-name="c" unicode="c" horiz-adv-x="347" 
d="M329 79q-56 -93 -138 -93q-41 0 -72.5 19t-54 53t-34 81.5t-11.5 103.5t11 103t33 81t54 53t74 19t77 -23.5t60 -68.5l-71 -63q-17 35 -34.5 51t-31.5 16q-20 0 -35 -13t-25 -35.5t-14.5 -53.5t-4.5 -66t4.5 -66t14.5 -53.5t25 -35.5t35 -13q16 0 35.5 20.5t39.5 55.5z
" />
    <glyph glyph-name="d" unicode="d" horiz-adv-x="374" 
d="M349 240q0 -87 -18.5 -138t-45.5 -76.5t-56 -32.5t-50 -7q-42 0 -74 19t-54 53t-33 81.5t-11 103.5t11.5 103t34 81t54 53t72.5 19q44 0 78 -23v202h93zM258 243q0 35 -5 65.5t-15 53t-25 35.5t-34 13q-20 0 -35 -13t-25 -35.5t-14.5 -53t-4.5 -65.5q0 -36 4.5 -66.5
t14.5 -53.5t25 -36t35 -13q39 0 59 40t20 129z" />
    <glyph glyph-name="e" unicode="e" 
d="M25 176q0 5 -0.5 8.5t-0.5 8.5v18q-1 18 -1.5 35t-0.5 34q0 46 5.5 86.5t23 69.5t49.5 46t85 17q24 0 49 -9t45 -28t33 -48t14 -69v-6q0 -54 -20 -86.5t-49 -50.5t-63 -24t-62 -6h-14q6 -94 61 -94q17 0 37 18t42 50l67 -61q-28 -45 -68.5 -70.5t-76.5 -25.5
q-72 0 -112.5 45t-42.5 142zM125 261q18 0 36.5 3.5t34 12.5t26 24t11.5 39v3q-2 35 -18 51t-31 16q-23 0 -36.5 -10.5t-20.5 -27t-9 -37.5t-2 -42v-32h9z" />
    <glyph glyph-name="f" unicode="f" horiz-adv-x="271" 
d="M252 575l-46 11q-8 2 -9 2q-9 0 -15.5 -6.5t-10 -17.5t-5 -24.5t-1.5 -26.5v-10h80v-89h-80v-414h-93v414h-66v89h66v9q0 78 30.5 121t92.5 43q22 0 71 -17z" />
    <glyph glyph-name="g" unicode="g" horiz-adv-x="385" 
d="M362 58q0 -58 -6 -106.5t-24.5 -83.5t-52 -54.5t-87.5 -19.5q-52 0 -96.5 34.5t-67.5 93.5l76 56q18 -44 41 -69.5t47 -25.5q40 0 56 33.5t20 91.5q-35 -22 -77 -22q-41 0 -72.5 19t-54 53t-34 81.5t-11.5 103.5t11 103t32.5 81t54 53t74.5 19q21 0 50 -7t56 -32.5
t45.5 -76.5t18.5 -138zM270 243q0 88 -20 128t-59 40q-20 0 -35 -13t-25 -35.5t-14.5 -53.5t-4.5 -66t4.5 -66t14.5 -53.5t25 -35.5t35 -13q19 0 34 13t25 35.5t15 53.5t5 66z" />
    <glyph glyph-name="h" unicode="h" horiz-adv-x="351" 
d="M120 0h-93v677h93v-202q34 24 80 24q48 0 76 -18.5t42.5 -46t19 -61t4.5 -63.5v-310h-93v310q0 16 -2 33.5t-7 32.5t-14.5 24.5t-25.5 9.5q-20 0 -35 -12.5t-25 -32t-15 -43.5t-5 -47v-275z" />
    <glyph glyph-name="i" unicode="i" horiz-adv-x="144" 
d="M26 0v485h93v-485h-93zM71 520q-23 0 -40.5 15.5t-17.5 44.5q0 26 17.5 41.5t40.5 15.5q22 0 39.5 -16.5t17.5 -40.5q0 -29 -18 -44.5t-39 -15.5z" />
    <glyph glyph-name="j" unicode="j" horiz-adv-x="222" 
d="M73 -206q-14 0 -31.5 5t-40.5 18l15 85q18 -8 36 -13.5t23 -5.5q16 0 19.5 20.5t3.5 46.5v535h93v-535q0 -77 -26 -116.5t-92 -39.5zM146 520q-23 0 -40.5 15.5t-17.5 44.5q0 26 17.5 41.5t40.5 15.5q22 0 39.5 -16.5t17.5 -40.5q0 -29 -18 -44.5t-39 -15.5z" />
    <glyph glyph-name="k" unicode="k" horiz-adv-x="379" 
d="M119 349l126 136h123l-214 -229l223 -256h-121l-137 159v-159h-92v679h92v-330z" />
    <glyph glyph-name="l" unicode="l" horiz-adv-x="145" 
d="M27 0v679h93v-679h-93z" />
    <glyph glyph-name="m" unicode="m" horiz-adv-x="515" 
d="M211 0v310q0 17 -1.5 35t-6 32.5t-13 23.5t-23.5 9q-16 0 -25.5 -9.5t-14.5 -24.5t-6.5 -32.5t-1.5 -33.5v-310h-93v310q0 30 4.5 63.5t19 61t42.5 46t75 18.5q32 0 54 -9t37 -26q15 17 37 26t54 9q47 0 75 -18.5t42.5 -46t19 -61t4.5 -63.5v-310h-93v310q0 16 -1.5 33.5
t-6.5 32.5t-14.5 24.5t-25.5 9.5q-14 0 -23 -9t-13.5 -23.5t-6 -32.5t-1.5 -35l-1 -310h-93z" />
    <glyph glyph-name="n" unicode="n" horiz-adv-x="351" 
d="M24 288q0 55 12 95t34 66t51.5 38t64.5 12q47 0 75 -18.5t42.5 -46t19 -61t4.5 -63.5v-310h-93v310q0 16 -1.5 33.5t-7 32.5t-15 24.5t-24.5 9.5q-35 0 -51.5 -34t-16.5 -89v-287h-93z" />
    <glyph glyph-name="o" unicode="o" horiz-adv-x="386" 
d="M368 243q0 -56 -12 -103.5t-35 -81.5t-55.5 -53t-72.5 -19t-72.5 19t-55 53t-34.5 81.5t-12 103.5t11.5 103t34 81t54.5 53t74 19q40 0 72.5 -19t55.5 -53t35 -81t12 -103zM274 243q0 36 -5 66.5t-15.5 53t-25.5 35.5t-35 13t-35.5 -13t-25.5 -35.5t-15 -53.5t-5 -66
t5 -66t15 -53.5t25.5 -35.5t35.5 -13t35 13t25.5 35.5t15.5 53.5t5 66z" />
    <glyph glyph-name="p" unicode="p" horiz-adv-x="375" 
d="M26 244q0 87 18.5 137.5t45.5 76t56.5 32.5t50.5 7q42 0 74 -19t53.5 -53t32.5 -81t11 -102q0 -57 -11.5 -104t-33.5 -81t-54 -53.5t-72 -19.5q-46 0 -79 24v-214h-93zM117 242q0 -36 5 -66.5t15 -53.5t25 -36t35 -13t34.5 13t24.5 36t14.5 54t4.5 66t-4.5 65.5t-14.5 53
t-24.5 35.5t-34.5 13q-40 0 -60 -39.5t-20 -127.5z" />
    <glyph glyph-name="q" unicode="q" horiz-adv-x="374" 
d="M350 -206h-93v214q-33 -23 -78 -24q-41 0 -72.5 19t-54 53.5t-34 81.5t-11.5 104q0 55 11 102t32.5 81t54 53t74.5 19q21 0 50 -7t56 -32.5t45.5 -76t18.5 -137.5zM258 242q0 88 -20 127.5t-59 39.5q-20 0 -35 -13t-25 -35.5t-14.5 -53t-4.5 -65.5q0 -36 4.5 -66.5
t14.5 -53.5t25 -36t35 -13q19 0 34 13t25 36t15 53.5t5 66.5z" />
    <glyph glyph-name="r" unicode="r" horiz-adv-x="229" 
d="M144 490q6 0 17 -3t23.5 -7.5t24 -9t18.5 -8.5l-14 -88q-6 3 -17 7.5t-22.5 9t-20.5 7.5t-11 3q-16 0 -20 -20.5t-4 -46.5v-333h-93v333q0 77 26 116.5t93 39.5z" />
    <glyph glyph-name="s" unicode="s" horiz-adv-x="325" 
d="M306 146q0 -34 -10 -63.5t-28 -51t-44.5 -33.5t-59.5 -12q-102 0 -150 119l74 53q38 -83 77 -83q22 0 35 19t13 50q0 32 -19.5 52.5t-42.5 32.5l-17 9q-17 10 -33.5 21.5t-29.5 26t-21 34t-8 47.5q0 27 11.5 51.5t30 42.5t42.5 28.5t50 10.5q45 0 76.5 -29.5t53.5 -78.5
l-71 -52q-36 71 -59 71q-16 0 -28.5 -11.5t-12.5 -31.5q0 -23 19.5 -36t43.5 -25q19 -10 38.5 -23.5t35 -33t25 -45.5t9.5 -59z" />
    <glyph glyph-name="t" unicode="t" horiz-adv-x="240" 
d="M236 20q-29 -14 -50 -19.5t-35 -5.5q-32 0 -52 9.5t-31 27.5t-15 42t-4 53v289h-39v88h39v173h93v-173h64v-88h-64v-289q0 -45 11 -45q5 0 18 6t39 21z" />
    <glyph glyph-name="u" unicode="u" horiz-adv-x="350" 
d="M328 197q0 -56 -12 -95.5t-34 -65.5t-51.5 -38t-64.5 -12q-47 0 -75 18.5t-42.5 46.5t-19 61t-4.5 63v310h93v-310q0 -16 1.5 -33.5t7 -32.5t15 -24.5t24.5 -9.5q35 0 51.5 34t16.5 89v287h93z" />
    <glyph glyph-name="v" unicode="v" horiz-adv-x="343" 
d="M214 0h-82l-121 485h94l68 -277l66 277h94z" />
    <glyph glyph-name="w" unicode="w" horiz-adv-x="515" 
d="M304 483l1 -310q0 -17 1.5 -35t6 -32.5t13.5 -23.5t23 -9q16 0 25.5 9.5t14.5 24.5t6.5 32.5t1.5 33.5v310h93v-310q0 -30 -4 -63.5t-18.5 -61t-42.5 -46t-76 -18.5q-32 0 -54 9t-37 26q-15 -17 -37 -26t-54 -9q-47 0 -75 18.5t-42.5 46t-19 61t-4.5 63.5v310h93v-310
q0 -16 1.5 -33.5t7 -32.5t15 -24.5t24.5 -9.5t23.5 9t13 23.5t6 32.5t1.5 35v310h93z" />
    <glyph glyph-name="x" unicode="x" horiz-adv-x="421" 
d="M209 161l-83 -161h-106l137 254l-125 231h105l72 -136l71 136h105l-124 -230l140 -255h-106z" />
    <glyph glyph-name="y" unicode="y" horiz-adv-x="390" 
d="M364 485v-246l1 -190q0 -56 -6.5 -103t-25 -80.5t-52 -52.5t-86.5 -19q-52 0 -96.5 34.5t-67.5 93.5l76 56q18 -44 41 -69.5t47 -25.5q40 0 56 33.5t20 91.5q-35 -22 -77 -22q-40 0 -72 18.5t-54 52.5t-34 80t-12 102v246l93 2v-249q0 -34 5 -64t14.5 -52t24.5 -34.5
t35 -12.5q19 0 33.5 13.5t24 36t15 52.5t6.5 63v245h91z" />
    <glyph glyph-name="z" unicode="z" horiz-adv-x="327" 
d="M16 0v63l176 334h-160v88h278v-64l-175 -332h176v-89h-295z" />
    <glyph glyph-name="cent" unicode="&#xa2;" horiz-adv-x="349" 
d="M239 103q18 19 39 51l62 -69q-22 -35 -47 -57.5t-54 -30.5v-62h-93v63q-66 20 -99 88t-33 168q0 48 8.5 90.5t25 76t41 56.5t57.5 33v68h93v-66q31 -8 55 -29t44 -49l-67 -72q-11 18 -19 30t-13 17v-306zM146 406q-22 -23 -30.5 -63.5t-8.5 -88.5v-5q0 -46 9.5 -85.5
t29.5 -61.5v304z" />
    <glyph glyph-name="sterling" unicode="&#xa3;" horiz-adv-x="346" 
d="M290 444v-90h-124v-264h144v-90h-298v90h62v264h-53v90h53v54q0 47 4.5 88.5t18.5 72t39.5 48t66.5 17.5q39 0 74.5 -21.5t60.5 -47.5l-57 -73q-20 22 -40.5 37t-37.5 15q-12 0 -19.5 -12t-11 -31.5t-5 -44.5t-1.5 -50v-52h124z" />
    <glyph glyph-name="yen" unicode="&#xa5;" horiz-adv-x="489" 
d="M56 309v90h108l-154 309h106l129 -268l130 268h104l-152 -309h105v-90h-140v-46h140v-89h-140v-174h-95v174h-141v89h141v46h-141z" />
    <glyph glyph-name="section" unicode="&#xa7;" horiz-adv-x="428" 
d="M411 294q0 -46 -20.5 -79t-52.5 -53q23 -20 36.5 -47.5t13.5 -65.5q0 -41 -15 -72t-40 -53t-58 -33t-70 -11h-2q-54 0 -100.5 25t-87.5 72l66 71q60 -78 124 -78q36 0 62.5 19.5t26.5 57.5q0 16 -7.5 29t-20 23.5t-28.5 18.5t-34 16l-32 13q-33 13 -58.5 28t-43 34
t-26.5 44.5t-9 60.5q0 45 20.5 77t49.5 52q-23 19 -35.5 45.5t-12.5 69.5q0 40 15 71t40 52.5t58.5 33t70.5 11.5q49 0 93 -23t78 -74l-68 -67q-23 38 -51 56.5t-54 18.5q-16 0 -32 -5t-28.5 -15.5t-20 -25.5t-7.5 -35q0 -18 7.5 -30.5t19.5 -21.5t27.5 -16.5t32.5 -15.5
l27 -13q33 -15 59.5 -31t45.5 -35.5t30 -43.5t11 -55zM243 216q29 3 51.5 21.5t22.5 54.5q0 16 -7.5 29t-20 23.5t-29 19t-34.5 16.5l-25 9q-26 -6 -49 -24.5t-23 -53.5v-2q0 -17 7.5 -29t19.5 -22t27.5 -17.5t30.5 -13.5z" />
    <glyph glyph-name="dieresis" unicode="&#xa8;" horiz-adv-x="264" 
d="M81 531q-16 0 -29 11.5t-13 32.5q0 19 12.5 31t28.5 13q16 -2 28.5 -13t12.5 -31q-1 -21 -12.5 -32.5t-27.5 -11.5zM185 531q-17 0 -29 11.5t-12 32.5q0 20 12 32t29 12q16 -2 28.5 -13.5t12.5 -30.5q-1 -21 -14 -32.5t-27 -11.5z" />
    <glyph glyph-name="macron" unicode="&#xaf;" horiz-adv-x="303" 
d="M42 573v60h219v-60h-219z" />
    <glyph glyph-name="acute" unicode="&#xb4;" horiz-adv-x="240" 
d="M97 521h-64q14 24 27 45t25.5 41.5t25 41.5t26.5 44h72z" />
    <glyph glyph-name="cedilla" unicode="&#xb8;" horiz-adv-x="259" 
d="M230 -139q0 -27 -10.5 -45t-26 -28.5t-34 -15t-33.5 -4.5q-17 0 -43 6.5t-54 20.5l16 60q28 -15 48.5 -21.5t30.5 -6.5q7 1 15 2.5t15 5.5t11 10t4 16q0 15 -11.5 20t-22.5 5q-7 -1 -22.5 -5.5t-31.5 -13.5q-9 8 -16 16t-15 15q17 31 33 58t33 57h67l-40 -70q15 0 30 -4
t28 -13.5t21 -25t8 -39.5z" />
    <glyph glyph-name="Agrave" unicode="&#xc0;" horiz-adv-x="440" 
d="M221 714q56 0 93.5 -19.5t60.5 -48.5t32.5 -64t9.5 -66v-517h-95v354h-203v-354h-95v517q0 31 11 66t34.5 64t61 48.5t90.5 19.5zM119 444h203v72q0 17 -6 35.5t-18.5 34.5t-31.5 26.5t-45 11.5q-26 -1 -45 -11.5t-31.5 -26t-19 -34.5t-6.5 -36v-72zM204 902l103 -172
h-62q-28 43 -57 86.5t-56 85.5h72z" />
    <glyph glyph-name="Aacute" unicode="&#xc1;" horiz-adv-x="440" 
d="M221 714q56 0 93.5 -19.5t60.5 -48.5t32.5 -64t9.5 -66v-517h-95v354h-203v-354h-95v517q0 31 11 66t34.5 64t61 48.5t90.5 19.5zM119 444h203v72q0 17 -6 35.5t-18.5 34.5t-31.5 26.5t-45 11.5q-26 -1 -45 -11.5t-31.5 -26t-19 -34.5t-6.5 -36v-72zM196 730h-64
q14 24 27 45t25.5 41.5t25 41.5t26.5 44h72z" />
    <glyph glyph-name="Acircumflex" unicode="&#xc2;" horiz-adv-x="440" 
d="M221 714q56 0 93.5 -19.5t60.5 -48.5t32.5 -64t9.5 -66v-517h-95v354h-203v-354h-95v517q0 31 11 66t34.5 64t61 48.5t90.5 19.5zM119 444h203v72q0 17 -6 35.5t-18.5 34.5t-31.5 26.5t-45 11.5q-26 -1 -45 -11.5t-31.5 -26t-19 -34.5t-6.5 -36v-72zM243 902l103 -172
h-67l-59 99l-59 -99h-67l103 172h46z" />
    <glyph glyph-name="Atilde" unicode="&#xc3;" horiz-adv-x="440" 
d="M221 714q56 0 93.5 -19.5t60.5 -48.5t32.5 -64t9.5 -66v-517h-95v354h-203v-354h-95v517q0 31 11 66t34.5 64t61 48.5t90.5 19.5zM119 444h203v72q0 17 -6 35.5t-18.5 34.5t-31.5 26.5t-45 11.5q-26 -1 -45 -11.5t-31.5 -26t-19 -34.5t-6.5 -36v-72zM235 808
q17 -12 22 -15t10 -3v30q6 0 10 14h55q-7 -55 -25 -78.5t-40 -24.5q-17 0 -29.5 6t-32.5 20l2 -1l-4 3q-14 10 -19.5 13t-10.5 3v-30q-3 0 -6.5 -5t-5.5 -11h-53q7 54 25 79t40 26q16 0 29 -5.5t32 -20.5h1z" />
    <glyph glyph-name="Adieresis" unicode="&#xc4;" horiz-adv-x="440" 
d="M221 714q56 0 93.5 -19.5t60.5 -48.5t32.5 -64t9.5 -66v-517h-95v354h-203v-354h-95v517q0 31 11 66t34.5 64t61 48.5t90.5 19.5zM119 444h203v72q0 17 -6 35.5t-18.5 34.5t-31.5 26.5t-45 11.5q-26 -1 -45 -11.5t-31.5 -26t-19 -34.5t-6.5 -36v-72zM168 740
q-16 0 -29 11.5t-13 32.5q0 19 12.5 31t28.5 13q16 -2 28.5 -13t12.5 -31q-1 -21 -12.5 -32.5t-27.5 -11.5zM272 740q-17 0 -29 11.5t-12 32.5q0 20 12 32t29 12q16 -2 28.5 -13.5t12.5 -30.5q-1 -21 -14 -32.5t-27 -11.5z" />
    <glyph glyph-name="Aring" unicode="&#xc5;" horiz-adv-x="440" 
d="M221 714q56 0 93.5 -19.5t60.5 -48.5t32.5 -64t9.5 -66v-517h-95v354h-203v-354h-95v517q0 31 11 66t34.5 64t61 48.5t90.5 19.5zM119 444h203v72q0 17 -6 35.5t-18.5 34.5t-31.5 26.5t-45 11.5q-26 -1 -45 -11.5t-31.5 -26t-19 -34.5t-6.5 -36v-72zM314 828
q0 -45 -27 -75.5t-68 -30.5q-40 1 -67 31t-27 76q1 46 27 76t66 30q41 0 68.5 -30t27.5 -77zM254 828q0 20 -9.5 35t-26.5 15q-16 -2 -24.5 -16t-8.5 -34t9.5 -34t24.5 -14q16 0 25.5 14t9.5 34z" />
    <glyph glyph-name="AE" unicode="&#xc6;" horiz-adv-x="552" 
d="M534 618h-171v-207h159v-90h-159v-231h177v-90h-269v177h-103l-62 -177h-97l251 708h274v-90zM271 468l-70 -201h70v201z" />
    <glyph glyph-name="Ccedilla" unicode="&#xc7;" horiz-adv-x="478" 
d="M462 132q-21 -41 -45.5 -68.5t-50.5 -45t-52 -25t-50 -7.5q-60 0 -106 28t-77 77.5t-47 117t-16 145.5q0 79 16 146.5t47 116.5t76.5 77t105.5 28h1q46 0 97.5 -29.5t92.5 -102.5l-80 -47q-27 48 -56 68.5t-54 20.5q-38 0 -66.5 -21.5t-47.5 -59t-28 -88.5t-9 -109v-4
q0 -56 10 -105.5t29 -87t47 -59.5t65 -22q28 0 59.5 25t59.5 77zM339 -139q0 -27 -10.5 -45t-26 -28.5t-34 -15t-33.5 -4.5q-17 0 -43 6.5t-54 20.5l16 60q28 -15 48.5 -21.5t30.5 -6.5q7 1 15 2.5t15 5.5t11 10t4 16q0 15 -11.5 20t-22.5 5q-7 -1 -22.5 -5.5t-31.5 -13.5
q-9 8 -16 16t-15 15q17 31 33 58t33 57h67l-40 -70q15 0 30 -4t28 -13.5t21 -25t8 -39.5z" />
    <glyph glyph-name="Egrave" unicode="&#xc8;" horiz-adv-x="339" 
d="M26 0v708h304v-90h-209v-175h196v-91h-196v-262h215v-90h-310zM154 902l103 -172h-62q-28 43 -57 86.5t-56 85.5h72z" />
    <glyph glyph-name="Eacute" unicode="&#xc9;" horiz-adv-x="339" 
d="M26 0v708h304v-90h-209v-175h196v-91h-196v-262h215v-90h-310zM145 730h-64q14 24 27 45t25.5 41.5t25 41.5t26.5 44h72z" />
    <glyph glyph-name="Ecircumflex" unicode="&#xca;" horiz-adv-x="339" 
d="M26 0v708h304v-90h-209v-175h196v-91h-196v-262h215v-90h-310zM192 902l103 -172h-67l-59 99l-59 -99h-67l103 172h46z" />
    <glyph glyph-name="Edieresis" unicode="&#xcb;" horiz-adv-x="339" 
d="M26 0v708h304v-90h-209v-175h196v-91h-196v-262h215v-90h-310zM118 740q-16 0 -29 11.5t-13 32.5q0 19 12.5 31t28.5 13q16 -2 28.5 -13t12.5 -31q-1 -21 -12.5 -32.5t-27.5 -11.5zM222 740q-17 0 -29 11.5t-12 32.5q0 20 12 32t29 12q16 -2 28.5 -13.5t12.5 -30.5
q-1 -21 -14 -32.5t-27 -11.5z" />
    <glyph glyph-name="Igrave" unicode="&#xcc;" horiz-adv-x="144" 
d="M26 0v708h95v-708h-95zM57 902l103 -172h-62q-28 43 -57 86.5t-56 85.5h72z" />
    <glyph glyph-name="Iacute" unicode="&#xcd;" horiz-adv-x="144" 
d="M26 0v708h95v-708h-95zM48 730h-64q14 24 27 45t25.5 41.5t25 41.5t26.5 44h72z" />
    <glyph glyph-name="Icircumflex" unicode="&#xce;" horiz-adv-x="144" 
d="M26 0v708h95v-708h-95zM95 902l103 -172h-67l-59 99l-59 -99h-67l103 172h46z" />
    <glyph glyph-name="Idieresis" unicode="&#xcf;" horiz-adv-x="144" 
d="M26 0v708h95v-708h-95zM21 740q-16 0 -29 11.5t-13 32.5q0 19 12.5 31t28.5 13q16 -2 28.5 -13t12.5 -31q-1 -21 -12.5 -32.5t-27.5 -11.5zM125 740q-17 0 -29 11.5t-12 32.5q0 20 12 32t29 12q16 -2 28.5 -13.5t12.5 -30.5q-1 -21 -14 -32.5t-27 -11.5z" />
    <glyph glyph-name="Eth" unicode="&#xd0;" horiz-adv-x="473" 
d="M14 322v90h67v296h114q54 0 102 -21.5t83 -65.5t55.5 -110.5t20.5 -156.5t-21 -157t-56 -110.5t-83 -65t-102 -21.5h-113v322h-67zM313 412v-90h-138v-232h17q35 0 66 16t54 48.5t36 82t13 117.5v3q-1 65 -14.5 114t-36 81.5t-53 49t-65.5 16.5h-17v-206h138z" />
    <glyph glyph-name="Ntilde" unicode="&#xd1;" horiz-adv-x="442" 
d="M222 714q56 0 93.5 -19.5t60.5 -48.5t32.5 -64t9.5 -66v-517h-95v517q0 17 -6 35.5t-18.5 34.5t-31.5 26.5t-45 11.5q-26 -1 -45 -11.5t-31.5 -26t-19 -34.5t-6.5 -36v-517h-95v517q0 31 11 66t34.5 64t61 48.5t90.5 19.5zM236 808q17 -12 22 -15t10 -3v30q6 0 10 14h55
q-7 -55 -25 -78.5t-40 -24.5q-17 0 -29.5 6t-32.5 20l2 -1l-4 3q-14 10 -19.5 13t-10.5 3v-30q-3 0 -6.5 -5t-5.5 -11h-53q7 54 25 79t40 26q16 0 29 -5.5t32 -20.5h1z" />
    <glyph glyph-name="Ograve" unicode="&#xd2;" horiz-adv-x="474" 
d="M455 354q0 -81 -14.5 -148.5t-42.5 -116t-68.5 -76t-91.5 -27.5q-52 0 -92.5 27.5t-68.5 76.5t-42.5 116.5t-14.5 147.5q0 81 14 148.5t41.5 116t68 76t94.5 27.5q51 0 91.5 -27.5t68.5 -76t42.5 -116t14.5 -148.5zM362 354q0 58 -8 109t-23.5 88.5t-38.5 59t-54 21.5
q-32 0 -55.5 -21.5t-39 -59t-23 -88.5t-7.5 -109v-5q0 -56 8 -105.5t23.5 -87t39 -59t54.5 -21.5t54.5 22t39 59.5t23 88t7.5 108.5zM221 902l103 -172h-62q-28 43 -57 86.5t-56 85.5h72z" />
    <glyph glyph-name="Oacute" unicode="&#xd3;" horiz-adv-x="474" 
d="M455 354q0 -81 -14.5 -148.5t-42.5 -116t-68.5 -76t-91.5 -27.5q-52 0 -92.5 27.5t-68.5 76.5t-42.5 116.5t-14.5 147.5q0 81 14 148.5t41.5 116t68 76t94.5 27.5q51 0 91.5 -27.5t68.5 -76t42.5 -116t14.5 -148.5zM362 354q0 58 -8 109t-23.5 88.5t-38.5 59t-54 21.5
q-32 0 -55.5 -21.5t-39 -59t-23 -88.5t-7.5 -109v-5q0 -56 8 -105.5t23.5 -87t39 -59t54.5 -21.5t54.5 22t39 59.5t23 88t7.5 108.5zM213 730h-64q14 24 27 45t25.5 41.5t25 41.5t26.5 44h72z" />
    <glyph glyph-name="Ocircumflex" unicode="&#xd4;" horiz-adv-x="474" 
d="M455 354q0 -81 -14.5 -148.5t-42.5 -116t-68.5 -76t-91.5 -27.5q-52 0 -92.5 27.5t-68.5 76.5t-42.5 116.5t-14.5 147.5q0 81 14 148.5t41.5 116t68 76t94.5 27.5q51 0 91.5 -27.5t68.5 -76t42.5 -116t14.5 -148.5zM362 354q0 58 -8 109t-23.5 88.5t-38.5 59t-54 21.5
q-32 0 -55.5 -21.5t-39 -59t-23 -88.5t-7.5 -109v-5q0 -56 8 -105.5t23.5 -87t39 -59t54.5 -21.5t54.5 22t39 59.5t23 88t7.5 108.5zM260 902l103 -172h-67l-59 99l-59 -99h-67l103 172h46z" />
    <glyph glyph-name="Otilde" unicode="&#xd5;" horiz-adv-x="474" 
d="M455 354q0 -81 -14.5 -148.5t-42.5 -116t-68.5 -76t-91.5 -27.5q-52 0 -92.5 27.5t-68.5 76.5t-42.5 116.5t-14.5 147.5q0 81 14 148.5t41.5 116t68 76t94.5 27.5q51 0 91.5 -27.5t68.5 -76t42.5 -116t14.5 -148.5zM362 354q0 58 -8 109t-23.5 88.5t-38.5 59t-54 21.5
q-32 0 -55.5 -21.5t-39 -59t-23 -88.5t-7.5 -109v-5q0 -56 8 -105.5t23.5 -87t39 -59t54.5 -21.5t54.5 22t39 59.5t23 88t7.5 108.5zM252 808q17 -12 22 -15t10 -3v30q6 0 10 14h55q-7 -55 -25 -78.5t-40 -24.5q-17 0 -29.5 6t-32.5 20l2 -1l-4 3q-14 10 -19.5 13t-10.5 3
v-30q-3 0 -6.5 -5t-5.5 -11h-53q7 54 25 79t40 26q16 0 29 -5.5t32 -20.5h1z" />
    <glyph glyph-name="Odieresis" unicode="&#xd6;" horiz-adv-x="474" 
d="M455 354q0 -81 -14.5 -148.5t-42.5 -116t-68.5 -76t-91.5 -27.5q-52 0 -92.5 27.5t-68.5 76.5t-42.5 116.5t-14.5 147.5q0 81 14 148.5t41.5 116t68 76t94.5 27.5q51 0 91.5 -27.5t68.5 -76t42.5 -116t14.5 -148.5zM362 354q0 58 -8 109t-23.5 88.5t-38.5 59t-54 21.5
q-32 0 -55.5 -21.5t-39 -59t-23 -88.5t-7.5 -109v-5q0 -56 8 -105.5t23.5 -87t39 -59t54.5 -21.5t54.5 22t39 59.5t23 88t7.5 108.5zM185 740q-16 0 -29 11.5t-13 32.5q0 19 12.5 31t28.5 13q16 -2 28.5 -13t12.5 -31q-1 -21 -12.5 -32.5t-27.5 -11.5zM289 740
q-17 0 -29 11.5t-12 32.5q0 20 12 32t29 12q16 -2 28.5 -13.5t12.5 -30.5q-1 -21 -14 -32.5t-27 -11.5z" />
    <glyph glyph-name="Oslash" unicode="&#xd8;" horiz-adv-x="476" 
d="M398 621q28 -49 43 -117t15 -150q0 -81 -15 -148.5t-42.5 -116t-67.5 -76t-91 -27.5h-1q-55 0 -98 31l-20 -47l-81 38l36 86q-55 99 -55 260q0 81 14 148.5t41.5 116t68 76t93.5 27.5h1q51 0 93 -28l16 35l81 -33zM363 354q0 84 -16 147l-169 -398q27 -27 61 -27
q31 0 54.5 22t39 59.5t23 88t7.5 108.5zM114 354q0 -38 3 -73.5t10 -66.5l168 394q-24 24 -56 24t-55.5 -21.5t-39 -59t-23 -88.5t-7.5 -109z" />
    <glyph glyph-name="Ugrave" unicode="&#xd9;" horiz-adv-x="442" 
d="M222 -11q-53 0 -90.5 19t-61 48t-34.5 63.5t-11 65.5v517h95v-517q0 -17 6 -36t18.5 -34.5t32 -25.5t45.5 -10q27 0 46 10t31 25.5t18 34.5t6 36v517h95v-517q0 -31 -9.5 -65.5t-32.5 -63.5t-60.5 -48t-93.5 -19zM205 902l103 -172h-62q-28 43 -57 86.5t-56 85.5h72z" />
    <glyph glyph-name="Uacute" unicode="&#xda;" horiz-adv-x="442" 
d="M222 -11q-53 0 -90.5 19t-61 48t-34.5 63.5t-11 65.5v517h95v-517q0 -17 6 -36t18.5 -34.5t32 -25.5t45.5 -10q27 0 46 10t31 25.5t18 34.5t6 36v517h95v-517q0 -31 -9.5 -65.5t-32.5 -63.5t-60.5 -48t-93.5 -19zM197 730h-64q14 24 27 45t25.5 41.5t25 41.5t26.5 44h72z
" />
    <glyph glyph-name="Ucircumflex" unicode="&#xdb;" horiz-adv-x="442" 
d="M222 -11q-53 0 -90.5 19t-61 48t-34.5 63.5t-11 65.5v517h95v-517q0 -17 6 -36t18.5 -34.5t32 -25.5t45.5 -10q27 0 46 10t31 25.5t18 34.5t6 36v517h95v-517q0 -31 -9.5 -65.5t-32.5 -63.5t-60.5 -48t-93.5 -19zM244 902l103 -172h-67l-59 99l-59 -99h-67l103 172h46z
" />
    <glyph glyph-name="Udieresis" unicode="&#xdc;" horiz-adv-x="442" 
d="M222 -11q-53 0 -90.5 19t-61 48t-34.5 63.5t-11 65.5v517h95v-517q0 -17 6 -36t18.5 -34.5t32 -25.5t45.5 -10q27 0 46 10t31 25.5t18 34.5t6 36v517h95v-517q0 -31 -9.5 -65.5t-32.5 -63.5t-60.5 -48t-93.5 -19zM169 740q-16 0 -29 11.5t-13 32.5q0 19 12.5 31t28.5 13
q16 -2 28.5 -13t12.5 -31q-1 -21 -12.5 -32.5t-27.5 -11.5zM273 740q-17 0 -29 11.5t-12 32.5q0 20 12 32t29 12q16 -2 28.5 -13.5t12.5 -30.5q-1 -21 -14 -32.5t-27 -11.5z" />
    <glyph glyph-name="Yacute" unicode="&#xdd;" horiz-adv-x="490" 
d="M290 380v-380h-93v380l-189 328h106l130 -222l131 222h107zM221 730h-64q14 24 27 45t25.5 41.5t25 41.5t26.5 44h72z" />
    <glyph glyph-name="Thorn" unicode="&#xde;" horiz-adv-x="316" 
d="M316 372q0 -50 -15 -87.5t-41.5 -62.5t-62 -38t-75.5 -13v-171h-95v708h95v-142q35 -1 70 -11.5t62.5 -33t44.5 -59t17 -90.5zM221 372q0 29 -8.5 48.5t-22.5 32t-31.5 18t-36.5 6.5v-217q39 0 69 26t30 86z" />
    <glyph glyph-name="germandbls" unicode="&#xdf;" horiz-adv-x="339" 
d="M325 199q0 -46 -8 -83.5t-27 -64.5t-50 -41.5t-77 -14.5q-8 0 -17.5 0.5t-28.5 3.5v-51h-91v494q0 49 3.5 92t16 75t38 50t70.5 18h3q71 -2 102.5 -45.5t32.5 -115.5q0 -86 -33 -129q66 -51 66 -188zM117 335v-245q35 -7 45 -7q43 0 58 32.5t15 83.5q0 61 -19 98.5
t-65 37.5h-34zM117 424h34q29 0 39.5 25.5t10.5 67.5q0 27 -10 48.5t-33 23.5q-14 -1 -22 -11.5t-12 -27t-5.5 -38t-1.5 -44.5v-44z" />
    <glyph glyph-name="agrave" unicode="&#xe0;" 
d="M320 312q0 -5 0.5 -9t0.5 -9v-17q1 -17 1.5 -35t0.5 -34q0 -47 -5.5 -87t-23 -69t-49.5 -46t-85 -17q-24 0 -49 9t-45 28t-33 48t-14 69v6q0 54 20 86.5t49 50.5t63 24t62 6h14q-3 47 -19 70.5t-42 23.5q-17 0 -37.5 -18t-41.5 -49l-67 60q28 45 68.5 70.5t76.5 25.5
q72 0 112.5 -45t42.5 -142zM220 227q-18 0 -36.5 -3.5t-34 -12.5t-26 -24t-11.5 -39v-3q2 -35 17.5 -51t30.5 -16q23 0 37 10.5t21 27t9 37.5t2 42v32h-9zM156 693l103 -172h-62q-28 43 -57 86.5t-56 85.5h72z" />
    </font>
</defs>
</svg>
